<svg width="34" height="44" viewBox="0 0 34 44" fill="none" xmlns="http://www.w3.org/2000/svg">
<path d="M28.1481 5.06979L23.8425 0.783988L23.0544 0H1.40281C0.627849 0 0 0.624577 0 1.39288V42.6071C0 43.3754 0.627849 44 1.40281 44H31.8416C32.6166 44 33.2444 43.3754 33.2444 42.6071V10.137L28.1481 5.06979ZM23.4983 2.32583L31.1113 9.70577H23.6034C23.5456 9.70577 23.4983 9.65873 23.4983 9.60124V2.32583ZM32.0702 42.6071C32.0702 42.7326 31.9677 42.8345 31.8416 42.8345H1.40281C1.27671 42.8345 1.17163 42.7326 1.17163 42.6071V1.39288C1.17163 1.27006 1.27671 1.16814 1.40281 1.16814H22.3241V9.60124C22.3241 10.3016 22.8968 10.8739 23.6034 10.8739H32.0702V42.6071Z" fill="white"/>
<path d="M26 26H7V28H26V26Z" fill="white"/>
<path d="M18 37V18H16V37H18Z" fill="white"/>
</svg>
