<svg width="30" height="27" viewBox="0 0 30 27" fill="none" xmlns="http://www.w3.org/2000/svg">
<path d="M29.9752 6.22532C29.9408 2.41965 27.626 0.0445977 23.8824 0.0236106C17.9683 -0.00787019 12.0507 -0.00787019 6.13315 0.0236106C2.30717 0.0515935 0.0404239 2.43014 0.0129482 6.37573C-0.00765856 9.38739 0.00951374 12.399 0.00951374 15.4142C0.00951374 18.6567 -0.0248309 21.9027 0.0369894 25.1453C0.0507272 25.7679 0.428518 26.38 0.634585 26.9991C1.21844 26.7508 1.88473 26.6109 2.36555 26.2261C3.21043 25.5545 4.00722 24.7885 4.71472 23.963C5.61455 22.9136 6.65863 22.5953 8.01867 22.6128C13.3077 22.6863 18.5968 22.6618 23.8893 22.6373C27.6706 22.6198 29.9443 20.3147 29.9752 16.4811C30.0061 13.0636 30.0061 9.64273 29.9752 6.22532ZM27.9248 16.3691C27.9042 19.1779 26.5751 20.5351 23.8309 20.5456C18.5419 20.5701 13.2494 20.633 7.96029 20.5106C6.05073 20.4651 4.51896 20.8499 3.33064 22.4204C3.07305 22.7632 2.67809 23.0011 2.06332 23.5362C2.06332 17.401 2.02898 11.668 2.08049 5.935C2.1011 3.60892 3.55731 2.14332 5.8687 2.12583C11.9546 2.07336 18.0439 2.06986 24.1297 2.12583C26.4995 2.14681 27.887 3.65439 27.9179 6.11689C27.9626 9.5343 27.9523 12.9517 27.9248 16.3691Z" fill="#888888"/>
<path d="M21.4536 11.5771C21.0175 11.9269 20.6088 12.5285 20.1451 12.581C18.8572 12.7209 17.5487 12.6299 16.0203 12.6299C16.0203 14.0885 16.1234 15.4107 15.9722 16.7015C15.9139 17.2121 15.2957 17.6529 14.9316 18.1286C14.6122 17.6669 14.0696 17.2331 14.018 16.7434C13.8875 15.4877 13.9734 14.204 13.9734 12.6334C12.6133 12.6334 11.3254 12.7314 10.065 12.588C9.52576 12.525 9.0415 11.9618 8.5332 11.6261C9.0209 11.2693 9.48455 10.6676 10.0066 10.6012C11.2396 10.4473 12.5 10.5522 13.9734 10.5522C13.9734 9.08311 13.86 7.85886 14.0215 6.67308C14.1005 6.09593 14.6946 5.59574 15.0518 5.05707C15.3746 5.57475 15.9173 6.06795 15.9791 6.61362C16.1165 7.85886 16.0238 9.12858 16.0238 10.5557C17.5109 10.5557 18.8194 10.4648 20.1039 10.6047C20.5813 10.6536 21.0037 11.2343 21.4536 11.5771Z" fill="#888888"/>
</svg>
