<svg width="76" height="89" viewBox="0 0 76 89" fill="none" xmlns="http://www.w3.org/2000/svg">
<path d="M66.1602 49.462V20.2794L56.0179 10.1423L47.4492 1.5684L45.8808 0H2.79175C1.24949 0 0 1.24949 0 2.78652V85.2371C0 86.7742 1.24949 88.0237 2.79175 88.0237H63.3685C64.9107 88.0237 66.1602 86.7742 66.1602 85.2371V81.6978H63.8233V85.2371C63.8233 85.4881 63.6194 85.692 63.3685 85.692H2.79175C2.5408 85.692 2.33168 85.4881 2.33168 85.2371V2.78652C2.33168 2.5408 2.5408 2.33691 2.79175 2.33691H44.4275V19.2076C44.4275 20.6087 45.5672 21.7537 46.9735 21.7537H63.8233V49.462H66.1602ZM46.9735 19.4168C46.8585 19.4168 46.7644 19.3227 46.7644 19.2076V4.65291L61.9151 19.4168H46.9735Z" fill="#959595"/>
<path d="M32.1188 2.33689V39.7641C31.8364 39.5549 31.6012 39.3981 31.3868 39.2204C28.1141 36.4966 24.8205 33.7937 21.5844 31.0281C20.9309 30.4687 20.5701 30.5785 19.9898 31.0699C16.8687 33.7205 13.7215 36.3241 10.5794 38.9485C10.2814 39.1994 9.97821 39.4399 9.53906 39.8007V2.33689H32.124H32.1188Z" fill="#959595"/>
<path d="M75.7551 63.6978H54.4824V67.1117H75.7551V63.6978Z" fill="#959595"/>
<path d="M66.8223 76.0411V54.7684H63.4084V76.0411H66.8223Z" fill="#959595"/>
</svg>
