<svg width="30" height="35" viewBox="0 0 30 35" fill="none" xmlns="http://www.w3.org/2000/svg">
<path d="M29.2895 20.507C29.0797 20.8073 28.8032 21.1935 28.4933 21.2651C28.0355 21.37 27.6923 21.0219 27.6207 20.5213C27.5874 20.2829 27.5969 20.0397 27.5969 19.8013C27.5969 14.1179 27.5969 8.42974 27.5969 2.74157C27.5969 2.07406 27.2679 1.7403 26.6099 1.7403H2.71296C2.08042 1.7403 1.76255 2.05499 1.75937 2.68436C1.75937 12.4253 1.76891 22.1614 1.7403 31.9024C1.7403 32.6462 1.95963 32.8273 2.67482 32.8226C6.99458 32.7892 11.3096 32.8083 15.6293 32.8035C16.1157 32.8035 16.5591 32.8464 16.7307 33.3852C16.9072 33.943 16.6163 34.2959 16.149 34.5533H1.61634C0.438651 34.1052 0 33.266 0 31.9929C0.0333757 22.1805 0.0333757 12.3681 0 2.56039C0 1.28735 0.438651 0.448187 1.61634 0H27.6732C28.8795 0.414812 29.342 1.25397 29.3324 2.52701C29.2991 8.31054 29.3181 14.0893 29.3181 19.8728C29.3181 20.0874 29.3896 20.3639 29.2848 20.507H29.2895Z" fill="white"/>
<path d="M29.9891 28.4551C30.0034 29.0606 29.5886 29.3515 28.7065 29.3563C27.5336 29.3563 26.3607 29.3563 25.0924 29.3563C25.0924 30.677 25.1258 31.9691 25.0685 33.2517C25.0542 33.5664 24.792 33.9716 24.525 34.1337C24.3247 34.2529 23.8527 34.1433 23.6429 33.9669C23.4522 33.8048 23.3759 33.4185 23.3712 33.1325C23.3426 31.8928 23.3569 30.6531 23.3569 29.3133C22.1458 29.3133 21.0015 29.3133 19.8572 29.3133C19.6426 29.3133 19.4233 29.3133 19.2135 29.28C18.7176 29.1894 18.4459 28.8699 18.484 28.3741C18.5222 27.8734 18.8464 27.5969 19.347 27.5921C20.4007 27.5826 21.4592 27.5921 22.5129 27.5921H23.3664C23.3664 26.3477 23.3664 25.1843 23.3664 24.0161C23.3664 23.8254 23.3378 23.6252 23.3807 23.444C23.4904 22.9767 23.7812 22.6525 24.2818 22.6859C24.8015 22.724 25.1067 23.0292 25.1067 23.5823C25.1067 24.6598 25.1067 25.7421 25.1067 26.8197V27.616C26.375 27.616 27.567 27.616 28.7589 27.616C29.6124 27.616 29.9891 27.8734 29.9986 28.4599L29.9891 28.4551Z" fill="white"/>
<path d="M21.3504 17.3076C21.3075 17.9847 20.8545 18.1563 20.2537 18.1516C16.5204 18.142 12.7824 18.1516 9.04905 18.1468C8.36724 18.1468 7.96196 17.8131 7.95719 17.2838C7.94766 16.7546 8.36247 16.4113 9.03952 16.4065C10.9086 16.4017 12.7728 16.4065 14.6419 16.4065C16.5109 16.4065 18.3752 16.4065 20.2442 16.4065C21.0071 16.4065 21.3885 16.7164 21.3551 17.3076H21.3504Z" fill="white"/>
<path d="M21.3552 11.0187C21.3218 11.7148 20.845 11.8674 20.2586 11.8674C18.3895 11.8674 16.5205 11.8674 14.6467 11.8674C12.7252 11.8674 10.8085 11.8674 8.89178 11.8627C8.31486 11.8627 7.9668 11.5432 7.9668 10.9854C7.9668 10.4561 8.34347 10.1891 8.8584 10.1271C8.90608 10.1224 8.95376 10.1271 9.00144 10.1271C12.7681 10.1271 16.53 10.1271 20.2967 10.1271C21.0071 10.1271 21.379 10.4609 21.3552 11.0235V11.0187Z" fill="white"/>
<path d="M15.4442 23.5775C15.4108 24.2116 14.9912 24.4357 14.4286 24.4405C12.612 24.45 10.7954 24.4453 8.97886 24.4405C8.3924 24.4405 7.98235 24.1592 7.97282 23.5584C7.96328 22.9529 8.37809 22.6716 8.95978 22.6621C9.61299 22.6525 10.2662 22.6573 10.9194 22.6621H11.7586C12.0256 22.6621 12.2926 22.6621 12.5596 22.6621C13.1747 22.6621 13.7897 22.6573 14.4096 22.6716C15.1057 22.6859 15.4776 23.0197 15.449 23.5823L15.4442 23.5775Z" fill="white"/>
</svg>
