<svg width="45" height="40" viewBox="0 0 45 40" fill="none" xmlns="http://www.w3.org/2000/svg">
<path d="M37.866 5.86638C27.6452 5.86927 17.4259 5.86783 7.20648 5.87217C6.87187 5.87217 6.53871 5.92142 6.2041 5.94894V34.4856C6.50684 34.5291 6.80959 34.6102 7.11233 34.6102C17.3592 34.6174 27.6076 34.616 37.8559 34.616C38.1688 34.616 38.4831 34.6261 38.796 34.6305V5.80409C38.486 5.82582 38.176 5.86638 37.866 5.86638ZM36.0641 7.83632C31.507 11.8066 27.0542 15.6857 22.5406 19.6183C18.0748 15.7161 13.6235 11.8284 9.05336 7.83632H36.0641ZM8.18859 8.34184C12.7746 12.3455 17.2694 16.268 21.8236 20.2441C17.2897 24.1912 12.7891 28.1094 8.18859 32.1144V8.34184ZM8.98093 32.6793C13.5467 28.7018 18.0226 24.8039 22.5392 20.8698C27.0195 24.7822 31.4824 28.6801 36.0626 32.6793H8.98093ZM36.881 32.1405C32.3095 28.1485 27.8089 24.2202 23.2547 20.2455C27.8219 16.268 32.3051 12.3643 36.881 8.3795V32.1405Z" fill="#888888"/>
<path d="M44.9996 40H41.8852V38.3342H41.668V36.8857H41.8852V36.6685H43.3338V36.8857H44.9996V40Z" fill="#888888"/>
<path d="M38.9034 40H35.9209V36.6685H38.9034V40ZM32.9384 40H29.9559V36.6685H32.9384V40ZM26.9734 40H23.9908V36.6685H26.9734V40ZM21.0083 40H18.0258V36.6685H21.0083V40ZM15.0433 40H12.0607V36.6685H15.0433V40ZM9.07822 40H6.0957V36.6685H9.07822V40Z" fill="#888888"/>
<path d="M3.11434 40H0V36.8857H1.66581V36.6685H3.11434V36.8857H3.33162V38.3342H3.11434V40Z" fill="#888888"/>
<path d="M3.33162 33.815H0V30.7442H3.33162V33.815ZM3.33162 27.6748H0V24.604H3.33162V27.6748ZM3.33162 21.5347H0V18.4639H3.33162V21.5347ZM3.33162 15.3945H0V12.3237H3.33162V15.3945ZM3.33162 9.25439H0V6.18359H3.33162V9.25439Z" fill="#888888"/>
<path d="M3.11434 3.33152H1.66581V3.11425H0V0H3.11434V1.66576H3.33162V3.11425H3.11434V3.33152Z" fill="#888888"/>
<path d="M38.9034 3.33152H35.9209V0H38.9034V3.33152ZM32.9384 3.33152H29.9559V0H32.9384V3.33152ZM26.9734 3.33152H23.9908V0H26.9734V3.33152ZM21.0083 3.33152H18.0258V0H21.0083V3.33152ZM15.0433 3.33152H12.0607V0H15.0433V3.33152ZM9.07822 3.33152H6.0957V0H9.07822V3.33152Z" fill="#888888"/>
<path d="M43.3338 3.33152H41.8852V3.11425H41.668V1.66576H41.8852V0H44.9996V3.11425H43.3338V3.33152Z" fill="#888888"/>
<path d="M44.9996 33.815H41.668V30.7442H44.9996V33.815ZM44.9996 27.6748H41.668V24.604H44.9996V27.6748ZM44.9996 21.5347H41.668V18.4639H44.9996V21.5347ZM44.9996 15.3945H41.668V12.3237H44.9996V15.3945ZM44.9996 9.25439H41.668V6.18359H44.9996V9.25439Z" fill="#888888"/>
</svg>
