<svg width="98" height="92" viewBox="0 0 98 92" fill="none" xmlns="http://www.w3.org/2000/svg">
<path d="M73.643 64.43H72.7709V67.3746H73.471C74.1368 67.3746 74.7214 67.4652 75.2153 67.6465V64.5519C74.7214 64.4706 74.1962 64.43 73.643 64.43ZM73.5179 75.7737H72.7709V78.7183H73.6523C74.2025 78.7183 74.7245 78.6776 75.2153 78.5964V75.508C74.7276 75.6862 74.1619 75.7737 73.5179 75.7737ZM75.2153 56.5372V21.1964L73.6055 19.5866L64.6124 10.5966L55.6568 1.64107L54.0189 0H8.98478C7.37496 0 6.06836 1.30973 6.06836 2.91017V89.0867C6.06836 90.6934 7.37496 92 8.98478 92H72.2988C73.9118 92 75.2184 90.6934 75.2184 89.0867V86.6079H72.774V89.0867C72.774 89.3493 72.5614 89.5587 72.2988 89.5587H8.98478C8.72533 89.5587 8.50652 89.3493 8.50652 89.0867V2.91017C8.50652 2.65072 8.72533 2.43816 8.98478 2.43816H52.5028V20.0742C52.5028 21.5402 53.6969 22.7343 55.1629 22.7343H72.774V56.5372H75.2184H75.2153ZM55.1598 20.2899C55.0379 20.2899 54.941 20.1961 54.941 20.0742V4.8607L70.7766 20.2899H55.1598Z" fill="#B50617"/>
<path d="M76.9319 71.2537C76.9319 72.2821 76.7882 73.1042 76.5037 73.72C76.2161 74.3358 75.7973 74.7828 75.2409 75.0547C75.1314 75.1079 75.0189 75.1548 74.9033 75.1954C74.4156 75.3736 73.8499 75.4611 73.2059 75.4611H71.5117V67.062H73.159C73.8248 67.062 74.4094 67.1526 74.9033 67.3339C75.0158 67.3745 75.1221 67.4183 75.2252 67.4683C75.7879 67.7403 76.213 68.1841 76.5006 68.7937C76.7881 69.4063 76.9319 70.2253 76.9319 71.2537Z" fill="#D61A1A"/>
<path d="M66.303 49.4009H14.9766V51.9766H66.303V49.4009Z" fill="#B50617"/>
<path d="M66.303 39.2544H14.9766V41.8301H66.303V39.2544Z" fill="#B50617"/>
<path d="M14.9785 59.5474H43.8989C43.7707 59.9538 43.7019 60.3852 43.7019 60.8353V62.12H14.9785V59.5474Z" fill="#B50617"/>
<path d="M43.7019 69.6939H14.9785V72.2665H43.7019V69.6939Z" fill="#B50617"/>
<path d="M43.6988 82.313C43.6988 82.3474 43.6988 82.3786 43.7019 82.413H14.9785V79.8404H43.7019V82.313H43.6988Z" fill="#B50617"/>
<path d="M48.1225 11.2468V32.7245C48.1225 33.3715 47.5973 33.8936 46.9503 33.8936H1.17219C0.559527 33.8936 0.0562653 33.4247 0.0062517 32.8245C0 32.7933 0 32.7589 0 32.7245V11.2468C0 10.5997 0.525143 10.0746 1.17219 10.0746H46.9503C47.5973 10.0746 48.1225 10.5997 48.1225 11.2468Z" fill="#B50617"/>
<path d="M85.6296 26.1446C86.5142 26.0759 87.2425 26.0165 88.0834 25.9508C87.9115 25.0818 87.8052 24.2222 87.5645 23.4064C85.0513 14.8166 79.8061 8.60549 71.482 5.13892C69.6221 4.36371 67.6528 4.03237 65.6241 4.09489C65.4835 4.09801 65.3428 4.07301 65.2053 4.06363C65.1928 4.01362 65.1834 3.9636 65.1709 3.91046C65.4178 3.82294 65.6554 3.71353 65.9055 3.65414C69.0813 2.91644 72.1634 3.35094 75.1767 4.43873C80.2531 6.27048 84.3511 9.47135 87.777 13.5725C90.6841 17.0515 92.7784 20.9588 93.8037 25.4632C94.557 25.4163 95.301 25.3694 96.2293 25.3132C94.657 28.5297 93.1472 31.6274 91.5718 34.847C89.5682 31.9149 87.6332 29.0861 85.6202 26.1384L85.6296 26.1446Z" fill="#888888"/>
<path d="M65.7057 71.6445C65.6432 71.7507 65.5776 71.8539 65.5088 71.9508H65.9808V71.0912C65.8995 71.2819 65.8089 71.4663 65.7057 71.6445Z" fill="#D61A1A"/>
<path d="M92.1452 66.9182V64.1143H82.3895V78.4026H85.8435V72.6604H91.5232V69.8471H85.8435V66.9182H92.1452ZM77.0849 64.9677C76.4316 64.6145 75.7001 64.3706 74.8905 64.2362C74.3967 64.155 73.8715 64.1143 73.3182 64.1143H68.0449V78.4026H73.3276C73.8778 78.4026 74.3998 78.3619 74.8905 78.2807C75.7001 78.1463 76.4316 77.9024 77.088 77.5492C78.1445 76.9803 78.9573 76.1582 79.5262 75.0892C80.0951 74.0201 80.3795 72.7385 80.3795 71.2506C80.3795 69.7627 80.0951 68.4905 79.523 67.4246C78.951 66.3556 78.1383 65.5366 77.0849 64.9677ZM76.491 73.7169C76.2034 74.3327 75.7845 74.7797 75.2281 75.0517C75.1187 75.1048 75.0062 75.1517 74.8905 75.1923C74.4029 75.3705 73.8371 75.458 73.1932 75.458H71.499V67.0589H73.1463C73.8121 67.0589 74.3967 67.1495 74.8905 67.3308C75.0031 67.3715 75.1093 67.4152 75.2125 67.4652C75.7752 67.7372 76.2003 68.1811 76.4878 68.7906C76.7754 69.4033 76.9192 70.2222 76.9192 71.2506C76.9192 72.279 76.7754 73.1011 76.491 73.7169Z" fill="#D61A1A"/>
<path d="M96.5801 59.3474H50.8021C50.155 59.3474 49.6299 59.8726 49.6299 60.5196V81.9973C49.6299 82.0317 49.6299 82.0661 49.6361 82.0973C49.6861 82.6975 50.1894 83.1664 50.8021 83.1664H96.5801C97.2272 83.1664 97.7523 82.6444 97.7523 81.9973V60.5196C97.7523 59.8726 97.2272 59.3474 96.5801 59.3474ZM65.9812 71.0912V71.9508H65.5092C65.0966 72.5416 64.5496 73.0136 63.8681 73.3575C63.0742 73.7638 62.127 73.9639 61.033 73.9639H58.6917V78.4026H55.2345V64.1112H61.1393C62.2083 64.1112 63.1336 64.3238 63.9119 64.7364C64.6902 65.1521 65.2935 65.7335 65.7155 66.4743C66.1406 67.2183 66.3532 68.0779 66.3532 69.0594C66.3532 69.8065 66.2281 70.4848 65.9812 71.0912ZM79.5286 75.0892C78.9597 76.1582 78.147 76.9803 77.0905 77.5492C76.434 77.9025 75.7026 78.1463 74.893 78.2807C74.4022 78.3619 73.8802 78.4026 73.3301 78.4026H68.0474V64.1143H73.3207C73.874 64.1143 74.3991 64.155 74.893 64.2362C75.7026 64.3707 76.434 64.6145 77.0873 64.9677C78.1408 65.5366 78.9535 66.3556 79.5255 67.4246C80.0975 68.4905 80.382 69.7659 80.382 71.2506C80.382 72.7354 80.0975 74.0201 79.5286 75.0892ZM92.1477 66.9182H85.846V69.8471H91.5256V72.6604H85.846V78.4026H82.3919V64.1143H92.1477V66.9182Z" fill="#D61A1A"/>
<path d="M65.7057 71.6445C65.6432 71.7507 65.5776 71.8539 65.5088 71.9508H65.9808V71.0912C65.8995 71.2819 65.8089 71.4663 65.7057 71.6445Z" fill="#D61A1A"/>
<path d="M92.1452 66.9182V64.1143H82.3895V78.4026H85.8435V72.6604H91.5232V69.8471H85.8435V66.9182H92.1452ZM77.0849 64.9677C76.4316 64.6145 75.7001 64.3706 74.8905 64.2362C74.3967 64.155 73.8715 64.1143 73.3182 64.1143H68.0449V78.4026H73.3276C73.8778 78.4026 74.3998 78.3619 74.8905 78.2807C75.7001 78.1463 76.4316 77.9024 77.088 77.5492C78.1445 76.9803 78.9573 76.1582 79.5262 75.0892C80.0951 74.0201 80.3795 72.7385 80.3795 71.2506C80.3795 69.7627 80.0951 68.4905 79.523 67.4246C78.951 66.3556 78.1383 65.5366 77.0849 64.9677ZM76.491 73.7169C76.2034 74.3327 75.7845 74.7797 75.2281 75.0517C75.1187 75.1048 75.0062 75.1517 74.8905 75.1923C74.4029 75.3705 73.8371 75.458 73.1932 75.458H71.499V67.0589H73.1463C73.8121 67.0589 74.3967 67.1495 74.8905 67.3308C75.0031 67.3715 75.1093 67.4152 75.2125 67.4652C75.7752 67.7372 76.2003 68.1811 76.4878 68.7906C76.7754 69.4033 76.9192 70.2222 76.9192 71.2506C76.9192 72.279 76.7754 73.1011 76.491 73.7169Z" fill="#D61A1A"/>
<path d="M65.7134 66.4743C65.2914 65.7335 64.6881 65.1521 63.9098 64.7364C63.1314 64.3238 62.2062 64.1112 61.1372 64.1112H55.2324V78.4026H58.6896V73.9639H61.0309C62.1249 73.9639 63.072 73.7638 63.866 73.3575C64.5475 73.0136 65.0945 72.5416 65.5071 71.9508C65.5759 71.8539 65.6415 71.7508 65.704 71.6445C65.8072 71.4663 65.8978 71.2819 65.9791 71.0912C66.226 70.4848 66.3511 69.8065 66.3511 69.0594C66.3511 68.0779 66.1385 67.2183 65.7134 66.4743ZM62.5 70.2066C62.3156 70.5348 62.0499 70.7911 61.6998 70.9724C61.3497 71.1537 60.9121 71.2444 60.3932 71.2444H58.6896V66.8963H60.3932C60.909 66.8963 61.3435 66.9839 61.6967 67.162C62.0499 67.3371 62.3156 67.5871 62.5 67.9122C62.6782 68.2373 62.772 68.6187 62.772 69.0594C62.772 69.1688 62.7657 69.2751 62.7532 69.3783C62.7188 69.6846 62.6344 69.9597 62.5 70.2066Z" fill="white"/>
<path d="M62.7757 69.0594C62.7757 69.1688 62.7695 69.2751 62.757 69.3783C62.7226 69.6846 62.6382 69.9597 62.5038 70.2066C62.3193 70.5348 62.0536 70.7911 61.7036 70.9724C61.3535 71.1537 60.9158 71.2444 60.397 71.2444H58.6934V66.8963H60.397C60.9127 66.8963 61.3472 66.9839 61.7004 67.162C62.0537 67.3371 62.3193 67.5871 62.5038 67.9122C62.6819 68.2373 62.7757 68.6187 62.7757 69.0594Z" fill="#D61A1A"/>
<path d="M79.524 67.4246C78.952 66.3556 78.1393 65.5366 77.0859 64.9677C76.4326 64.6145 75.7011 64.3707 74.8915 64.2363C74.3976 64.155 73.8725 64.1143 73.3192 64.1143H68.0459V78.4026H73.3286C73.8787 78.4026 74.4008 78.362 74.8915 78.2807C75.7011 78.1463 76.4326 77.9025 77.089 77.5492C78.1455 76.9803 78.9582 76.1582 79.5271 75.0892C80.0961 74.0202 80.3805 72.7386 80.3805 71.2507C80.3805 69.7628 80.096 68.4905 79.524 67.4246ZM76.4919 73.717C76.2044 74.3328 75.7855 74.7797 75.2291 75.0517C75.1197 75.1048 75.0072 75.1517 74.8915 75.1924C74.4039 75.3705 73.8381 75.4581 73.1942 75.4581H71.5V67.0589H73.1473C73.8131 67.0589 74.3976 67.1495 74.8915 67.3308C75.004 67.3715 75.1103 67.4152 75.2135 67.4653C75.7761 67.7372 76.2012 68.1811 76.4888 68.7906C76.7764 69.4033 76.9202 70.2223 76.9202 71.2507C76.9202 72.2791 76.7764 73.1012 76.4919 73.717Z" fill="white"/>
<path d="M92.1444 66.9182V64.1143H82.3887V78.4026H85.8427V72.6604H91.5224V69.8472H85.8427V66.9182H92.1444Z" fill="white"/>
<path d="M31.1339 27.6325C31.1339 27.6637 31.1183 27.695 31.0964 27.7669H28.3144C28.205 24.4597 28.0956 21.1588 27.983 17.711C27.8924 18.0205 27.8393 18.2018 27.7861 18.38C26.8984 21.3214 26.0044 24.2628 25.126 27.2074C25.0322 27.5231 24.8728 27.6137 24.5634 27.5981C24.1195 27.5731 23.6725 27.5606 23.2317 27.5981C22.8285 27.6356 22.6941 27.4543 22.6035 27.1011C21.8658 24.169 21.1124 21.2401 20.3653 18.3112C20.3341 18.1893 20.2997 18.0705 20.1872 17.9548C20.0371 21.2214 19.8871 24.4847 19.737 27.7763H17.0801C17.1051 27.2386 17.127 26.7197 17.1582 26.204C17.3864 22.6217 17.6209 19.0426 17.8397 15.4604C17.8584 15.1416 17.9616 15.0353 18.2804 15.0416C19.2838 15.0572 20.2903 15.0666 21.2937 15.0384C21.6532 15.0291 21.7782 15.1697 21.8595 15.4854C22.5503 18.1236 23.2536 20.7587 23.9538 23.397C23.9851 23.5157 24.0257 23.6314 24.0882 23.844C24.4883 22.3623 24.8353 20.9775 25.2385 19.6084C25.6543 18.1893 26.1294 16.7889 26.567 15.376C26.642 15.1353 26.7608 15.0416 27.0203 15.0447C28.0393 15.0572 29.0615 15.0572 30.0836 15.0447C30.3462 15.0447 30.465 15.1166 30.4806 15.401C30.6932 19.4771 30.9151 23.5532 31.1339 27.6294V27.6325Z" fill="white"/>
<path d="M15.358 23.8314C15.2705 22.4279 14.464 21.5464 13.1949 21.0432C13.1105 21.0088 13.0261 20.9682 12.8886 20.9119C13.1918 20.74 13.4513 20.6118 13.6919 20.4524C15.0392 19.549 15.3549 17.7954 14.3984 16.5107C13.917 15.8636 13.2387 15.4792 12.4822 15.2791C10.3192 14.7071 8.14356 14.979 5.94922 15.1947V27.7325C7.72158 27.9482 9.4658 28.0388 11.1975 27.7669C11.9852 27.6418 12.8011 27.4605 13.5013 27.1042C14.7954 26.4478 15.4487 25.3131 15.3611 23.8314H15.358ZM8.78436 17.3734C8.78436 17.2734 8.97817 17.0983 9.08444 17.0983C9.68773 17.0952 10.3035 17.0733 10.8974 17.1734C11.6164 17.2922 11.9946 17.7704 12.0321 18.4081C12.0728 19.0864 11.7695 19.649 11.0725 19.8397C10.3598 20.0366 9.60334 20.0804 8.76873 20.2054C8.76873 19.1427 8.75936 18.258 8.78124 17.3734H8.78436ZM11.3819 25.4944C10.5567 25.8914 9.68773 25.7601 8.79687 25.7507V22.181C9.69086 22.1716 10.5598 22.0903 11.3819 22.4779C12.0134 22.7718 12.3353 23.2656 12.3353 23.9596C12.3353 24.6692 12.029 25.1849 11.3819 25.4975V25.4944Z" fill="white"/>
<path d="M40.1464 15.4167C37.927 14.6383 35.667 15.0072 33.3945 15.1885V27.7794H36.2234V23.3094C36.9924 23.2719 37.702 23.2875 38.399 23.1969C40.7059 22.9062 42.3095 21.6902 42.5064 19.2427C42.6377 17.5954 41.6999 15.9606 40.1432 15.4167H40.1464ZM38.5459 20.7994C37.8145 21.1213 37.0486 21.137 36.2234 20.99C36.2234 19.8085 36.214 18.6738 36.2359 17.5391C36.2359 17.4172 36.4141 17.1984 36.5141 17.1953C37.0862 17.1765 37.6738 17.139 38.2302 17.239C39.1211 17.4016 39.5775 17.9642 39.6619 18.827C39.7463 19.6709 39.3086 20.4618 38.5459 20.7962V20.7994Z" fill="white"/>
</svg>
