<svg width="25" height="23" viewBox="0 0 25 23" fill="none" xmlns="http://www.w3.org/2000/svg">
<path d="M25 0.11506C24.9211 0.163265 24.833 0.200476 24.7658 0.261368C21.8905 2.88561 19.3878 5.84729 17.1218 9.00517C15.1605 11.7377 13.2671 14.5217 11.409 17.3261C10.2592 19.0607 9.23023 20.8764 8.14758 22.6558C8.08379 22.7607 8.02085 22.8655 7.93944 23C5.46109 18.9431 2.69656 15.1315 0 11.3588C0.62777 10.7051 1.23708 10.0716 1.86568 9.41704C3.86565 10.8226 5.87065 12.2324 7.8958 13.6566C8.04015 13.4764 8.17275 13.3158 8.30032 13.1517C10.1937 10.716 12.2096 8.3895 14.4035 6.22448C16.5746 4.08229 18.849 2.06189 21.3651 0.331562C21.6975 0.10322 22.029 -0.0160256 22.4402 0.00173434C23.1721 0.0330256 23.9056 0.00934573 24.6383 0.0110372C24.739 0.0110372 24.8389 0.02034 24.9396 0.0254142C24.9597 0.0558598 24.9799 0.0854597 25 0.11506Z" fill="white"/>
</svg>
