<svg width="43" height="50" viewBox="0 0 43 50" fill="none" xmlns="http://www.w3.org/2000/svg">
<path d="M36.8843 5.75961L32.0166 0.891917L31.128 0H6.6513C5.77584 0 5.06494 0.7109 5.06494 1.58307V11.3547H6.3913V1.58307C6.3913 1.44155 6.50978 1.32636 6.6513 1.32636H30.3019V10.9103C30.3019 11.7068 30.9503 12.3552 31.7467 12.3552H41.3176V48.4169C41.3176 48.5585 41.2024 48.6736 41.0609 48.6736H6.6513C6.50978 48.6736 6.3913 48.5585 6.3913 48.4169V23.1438H5.06494V48.4169C5.06494 49.2891 5.77584 50 6.6513 50H41.0609C41.9363 50 42.6472 49.2891 42.6472 48.4169V11.5192L36.8843 5.75961ZM31.7467 11.0288C31.6809 11.0288 31.6283 10.9762 31.6283 10.9103V2.64284L40.2348 11.0288H31.7467Z" fill="white"/>
<path d="M32.2703 28.8441H1.23091C0.551098 28.8441 0 29.3952 0 30.0751V44.1943C0 44.8741 0.551098 45.4252 1.23091 45.4252H32.2703C32.9501 45.4252 33.5012 44.8741 33.5012 44.1943V30.0751C33.5012 29.3952 32.9501 28.8441 32.2703 28.8441Z" fill="white"/>
<path d="M11.197 33.804C10.9008 33.2873 10.4828 32.8857 9.93975 32.5961C9.4 32.3065 8.75492 32.1617 8.01111 32.1617H3.90039V42.111H6.30626V39.0206H7.93541C8.69568 39.0206 9.35392 38.879 9.90684 38.5993C10.4631 38.3195 10.8876 37.918 11.1871 37.4046C11.4866 36.8944 11.6347 36.2921 11.6347 35.6043C11.6347 34.9164 11.4866 34.3207 11.1904 33.804H11.197ZM8.95897 36.404C8.83062 36.6311 8.64631 36.8089 8.40276 36.9339C8.15921 37.0623 7.85313 37.1248 7.4911 37.1248H6.30626V34.1002H7.4911C7.84984 34.1002 8.15263 34.1594 8.39947 34.2845C8.64631 34.4096 8.83062 34.5807 8.95897 34.8078C9.08404 35.0316 9.14986 35.2982 9.14986 35.6076C9.14986 35.9169 9.08404 36.177 8.95897 36.4073V36.404Z" fill="#D61A1A"/>
<path d="M16.499 42.111H12.8228V32.1617H16.4957C17.5094 32.1617 18.3816 32.3592 19.1155 32.7574C19.8495 33.1556 20.4156 33.725 20.8138 34.4688C21.212 35.2126 21.4128 36.1013 21.4128 37.1347C21.4128 38.1681 21.2153 39.06 20.8171 39.8072C20.4189 40.5543 19.8561 41.1236 19.1188 41.5186C18.3849 41.9168 17.5094 42.1143 16.499 42.1143V42.111ZM15.2253 40.0606H16.4069C16.9631 40.0606 17.437 39.9651 17.8221 39.7775C18.2105 39.5866 18.5034 39.2773 18.7008 38.8494C18.8983 38.4216 19.0003 37.8489 19.0003 37.1314C19.0003 36.4139 18.9016 35.8445 18.6976 35.42C18.4935 34.9954 18.2006 34.686 17.8122 34.4984C17.4206 34.3075 16.9433 34.2154 16.3707 34.2154H15.2253V40.0639V40.0606Z" fill="#D61A1A"/>
<path d="M22.8085 42.111V32.1617H29.5982V34.1134H25.211V36.1539H29.1638V38.1122H25.211V42.111H22.8052H22.8085Z" fill="#D61A1A"/>
<path d="M21 16.9185V17.2492C20.7586 17.5047 20.5413 17.787 20.273 18.0102C18.0598 19.8523 15.8385 21.6862 13.62 23.5202C13.5046 23.617 13.3892 23.7165 13.2685 23.8052C12.9949 24.0096 12.6971 24.0714 12.3859 23.902C12.0962 23.7434 11.9674 23.4906 11.9701 23.1545C11.9755 22.3155 11.9567 21.4738 11.9782 20.6348C11.9862 20.2852 11.8655 20.1965 11.5301 20.1992C8.04267 20.2099 4.5525 20.2045 1.06502 20.2045C0.278998 20.2018 0 19.9276 0 19.1397C0 17.7091 0 16.2758 0 14.8452C0 14.0815 0.281681 13.7991 1.0382 13.7991C4.45861 13.7991 7.87902 13.7991 11.2994 13.7991H11.8735C11.8843 13.6243 11.8977 13.4791 11.8977 13.3339C11.8977 12.5218 11.903 11.7097 11.8977 10.8976C11.895 10.5319 12.0291 10.2549 12.3537 10.0882C12.6917 9.91341 12.9895 10.0156 13.2632 10.2442C15.7124 12.2932 18.1644 14.345 20.6083 16.4022C20.7693 16.5366 20.8685 16.7464 20.9973 16.9212L21 16.9185Z" fill="white"/>
</svg>
