<svg width="50" height="50" viewBox="0 0 50 50" fill="none" xmlns="http://www.w3.org/2000/svg">
<path d="M43.8838 5.75961L39.0161 0.891917L38.1275 0H13.6508C12.7754 0 12.0645 0.7109 12.0645 1.58307V11.3547H13.3908V1.58307C13.3908 1.44155 13.5093 1.32636 13.6508 1.32636H37.3014V10.9103C37.3014 11.7068 37.9498 12.3552 38.7463 12.3552H48.3171V48.4169C48.3171 48.5585 48.2019 48.6736 48.0604 48.6736H13.6508C13.5093 48.6736 13.3908 48.5585 13.3908 48.4169V23.1438H12.0645V48.4169C12.0645 49.2891 12.7754 50 13.6508 50H48.0604C48.9358 50 49.6467 49.2891 49.6467 48.4169V11.5192L43.8838 5.75961ZM38.7463 11.0288C38.6804 11.0288 38.6278 10.9762 38.6278 10.9103V2.64284L47.2343 11.0288H38.7463Z" fill="white"/>
<path d="M39.2693 28.8441H8.22993C7.55012 28.8441 6.99902 29.3952 6.99902 30.0751V44.1943C6.99902 44.8741 7.55012 45.4252 8.22993 45.4252H39.2693C39.9491 45.4252 40.5002 44.8741 40.5002 44.1943V30.0751C40.5002 29.3952 39.9491 28.8441 39.2693 28.8441Z" fill="white"/>
<path d="M18.196 33.804C17.8998 33.2873 17.4818 32.8857 16.9388 32.5961C16.399 32.3065 15.7539 32.1617 15.0101 32.1617H10.8994V42.111H13.3053V39.0205H14.9344C15.6947 39.0205 16.3529 38.879 16.9059 38.5993C17.4621 38.3195 17.8866 37.918 18.1861 37.4046C18.4856 36.8944 18.6337 36.2921 18.6337 35.6043C18.6337 34.9164 18.4856 34.3207 18.1894 33.804H18.196ZM15.958 36.404C15.8296 36.6311 15.6453 36.8089 15.4018 36.9339C15.1582 37.0623 14.8522 37.1248 14.4901 37.1248H13.3053V34.1002H14.4901C14.8489 34.1002 15.1517 34.1594 15.3985 34.2845C15.6453 34.4096 15.8296 34.5807 15.958 34.8078C16.0831 35.0316 16.1489 35.2982 16.1489 35.6076C16.1489 35.9169 16.0831 36.1769 15.958 36.4073V36.404Z" fill="#D61A1A"/>
<path d="M23.4981 42.111H19.8218V32.1617H23.4948C24.5085 32.1617 25.3806 32.3591 26.1146 32.7574C26.8485 33.1556 27.4146 33.725 27.8128 34.4688C28.2111 35.2126 28.4118 36.1012 28.4118 37.1347C28.4118 38.1681 28.2144 39.06 27.8161 39.8071C27.4179 40.5542 26.8551 41.1236 26.1179 41.5186C25.3839 41.9168 24.5085 42.1143 23.4981 42.1143V42.111ZM22.2244 40.0605H23.4059C23.9621 40.0605 24.436 39.9651 24.8211 39.7775C25.2095 39.5866 25.5024 39.2772 25.6999 38.8494C25.8973 38.4215 25.9994 37.8489 25.9994 37.1314C25.9994 36.4139 25.9006 35.8445 25.6966 35.4199C25.4925 34.9954 25.1996 34.686 24.8112 34.4984C24.4196 34.3075 23.9424 34.2154 23.3697 34.2154H22.2244V40.0638V40.0605Z" fill="#D61A1A"/>
<path d="M29.8075 42.111V32.1617H36.5972V34.1133H32.2101V36.1539H36.1628V38.1122H32.2101V42.111H29.8042H29.8075Z" fill="#D61A1A"/>
<path d="M0 17.9185V18.2492C0.241442 18.5047 0.458738 18.787 0.727007 19.0102C2.94021 20.8523 5.16147 22.6862 7.38005 24.5202C7.4954 24.617 7.61076 24.7165 7.73148 24.8052C8.00511 25.0096 8.30289 25.0714 8.61408 24.902C8.90381 24.7434 9.03258 24.4906 9.02989 24.1545C9.02453 23.3155 9.04331 22.4738 9.02184 21.6348C9.0138 21.2852 9.13452 21.1965 9.46985 21.1992C12.9573 21.2099 16.4475 21.2045 19.935 21.2045C20.721 21.2018 21 20.9276 21 20.1397C21 18.7091 21 17.2758 21 15.8452C21 15.0815 20.7183 14.7991 19.9618 14.7991C16.5414 14.7991 13.121 14.7991 9.70056 14.7991H9.12647C9.11574 14.6243 9.10233 14.4791 9.10233 14.3339C9.10233 13.5218 9.09696 12.7097 9.10233 11.8976C9.10501 11.5319 8.97087 11.2549 8.64627 11.0882C8.30825 10.9134 8.01048 11.0156 7.73684 11.2442C5.28756 13.2932 2.83559 15.345 0.391672 17.4022C0.230711 17.5366 0.131453 17.7464 0.00268364 17.9212L0 17.9185Z" fill="white"/>
</svg>
