<svg width="30" height="30" viewBox="0 0 30 30" fill="none" xmlns="http://www.w3.org/2000/svg">
<path d="M29.7456 22.3534C29.5295 22.1056 29.2435 22.042 28.9257 22.042C27.3812 22.042 25.8431 22.042 24.2986 22.042H23.9173V13.557C23.9173 11.4214 23.9173 9.27951 23.9173 7.14395C23.9173 6.85158 23.8664 6.58464 23.6567 6.36218C23.4215 6.11431 23.1228 6.07617 22.7986 6.07617C17.9872 6.07617 13.1758 6.07617 8.36437 6.07617H7.95123V5.70118C7.95123 4.22027 7.93852 2.73301 7.95759 1.2521C7.96395 0.673718 7.79869 0.247877 7.2648 0H6.79446C6.26056 0.203386 6.06353 0.591092 6.06989 1.16312C6.08895 2.6758 6.07624 4.18849 6.07624 5.70118V6.08253H5.70124C4.18854 6.08253 2.67583 6.09524 1.16313 6.07617C0.591099 6.06981 0.203389 6.26685 0 6.80073V7.27107C0.24788 7.80496 0.680082 7.97656 1.25211 7.96385C2.73304 7.93843 4.22032 7.9575 5.70124 7.9575H6.07624V17.9743C6.07624 19.6141 6.07624 21.2539 6.07624 22.8937C6.07624 23.3958 6.29234 23.7454 6.71183 23.8661C6.87709 23.917 7.05505 23.917 7.23302 23.917C12.0381 23.917 16.8368 23.917 21.6418 23.917H22.0423V24.2983C22.0423 25.8428 22.0423 27.3809 22.0423 28.9254C22.0423 29.2177 22.0995 29.4847 22.3092 29.7071C22.5762 29.9868 22.9829 30.0821 23.3325 29.9232C23.7202 29.7516 23.9173 29.4529 23.9173 29.0271C23.9173 27.4445 23.9173 25.8619 23.9173 24.2856V23.9233H24.3113C25.8812 23.9233 27.4511 23.9233 29.0274 23.9233C29.4405 23.9233 29.7456 23.7327 29.9109 23.364C30.0761 23.0017 30.0062 22.6585 29.7456 22.3598V22.3534ZM22.0232 22.0166H7.9703V7.96385H22.0232V22.0166Z" fill="white"/>
</svg>
