<svg width="83" height="92" viewBox="0 0 83 92" fill="none" xmlns="http://www.w3.org/2000/svg">
<path d="M73.5848 51.017C73.7254 51.017 73.8661 51.0107 74.0067 51.0045C74.1161 51.0014 74.2256 51.0014 74.3381 51.0014C74.6319 51.0014 74.9226 51.0139 75.2164 51.042V21.1964L73.6066 19.5866L64.6136 10.5966L55.658 1.64107L54.0201 0H8.98282C7.37301 0 6.06641 1.30973 6.06641 2.91017V89.0867C6.06641 90.6934 7.37301 92 8.98282 92H72.2969C73.9098 92 75.2164 90.6934 75.2164 89.0867V82.6725C74.4006 82.6693 73.5879 82.6693 72.772 82.6725V89.0867C72.772 89.3493 72.5595 89.5587 72.2969 89.5587H8.98282C8.72338 89.5587 8.50457 89.3493 8.50457 89.0867V2.91017C8.50457 2.65072 8.72338 2.43816 8.98282 2.43816H52.5009V20.0742C52.5009 21.5402 53.695 22.7343 55.161 22.7343H72.772V51.0451C73.0534 51.0295 73.3253 51.0232 73.5848 51.017ZM55.161 20.2899C55.0391 20.2899 54.9422 20.1961 54.9422 20.0742V4.8607L70.7777 20.2899H55.161Z" fill="#D61A1A"/>
<path d="M56.4023 49.4009H14.9785V51.9766H56.4023V49.4009Z" fill="#D61A1A"/>
<path d="M66.305 39.2544H14.9785V41.8301H66.305V39.2544Z" fill="#D61A1A"/>
<path d="M56.4023 59.5474H14.9785V62.12H56.4023V59.5474Z" fill="#D61A1A"/>
<path d="M56.4023 69.6939H14.9785V72.2665H56.4023V69.6939Z" fill="#D61A1A"/>
<path d="M56.4023 79.8404H14.9785V82.413H56.4023V79.8404Z" fill="#D61A1A"/>
<path d="M16.0845 17.2016C16.5096 17.9455 16.7222 18.8051 16.7222 19.7866C16.7222 20.5337 16.5971 21.212 16.3502 21.8184V22.678H15.8782C15.4656 23.2688 14.9185 23.7408 14.2371 24.0847C13.4431 24.491 12.496 24.6911 11.402 24.6911H9.0607V29.1298H5.60352V14.8384H11.5082C12.5773 14.8384 13.5025 15.051 14.2809 15.4636C15.0592 15.8793 15.6625 16.4607 16.0845 17.2016Z" fill="#D61A1A"/>
<path d="M29.8961 18.1518C30.4681 19.2177 30.7526 20.4931 30.7526 21.9778C30.7526 23.4626 30.4681 24.7473 29.8992 25.8164C29.3303 26.8854 28.5176 27.7075 27.4611 28.2764C26.8046 28.6296 26.0732 28.8735 25.2636 29.0079C24.7728 29.0891 24.2508 29.1298 23.7007 29.1298H18.418V14.8415H23.6913C24.2446 14.8415 24.7697 14.8822 25.2636 14.9634C26.0732 15.0978 26.8046 15.3417 27.4579 15.6949C28.5113 16.2638 29.3241 17.0828 29.8961 18.1518Z" fill="#D61A1A"/>
<path d="M36.2177 17.6454V20.5743H41.8974V23.3876H36.2177V29.1298H32.7637V14.8415H42.5195V17.6454H36.2177Z" fill="#D61A1A"/>
<path d="M16.0758 22.3717C16.0133 22.478 15.9477 22.5811 15.8789 22.678H16.3509V21.8184C16.2696 22.0091 16.179 22.1935 16.0758 22.3717Z" fill="#D61A1A"/>
<path d="M29.8941 18.1518C29.3221 17.0828 28.5094 16.2638 27.456 15.6949C26.8027 15.3417 26.0712 15.0978 25.2616 14.9634C24.7677 14.8822 24.2426 14.8415 23.6893 14.8415H18.416V29.1298H23.6987C24.2489 29.1298 24.7709 29.0891 25.2616 29.0079C26.0712 28.8735 26.8027 28.6296 27.4591 28.2764C28.5156 27.7075 29.3284 26.8854 29.8973 25.8164C30.4662 24.7473 30.7506 23.4657 30.7506 21.9778C30.7506 20.4899 30.4662 19.2177 29.8941 18.1518ZM26.8621 24.4441C26.5745 25.0599 26.1556 25.5069 25.5992 25.7789C25.4898 25.832 25.3773 25.8789 25.2616 25.9195C24.774 26.0977 24.2082 26.1852 23.5643 26.1852H21.8701V17.7861H23.5174C24.1832 17.7861 24.7677 17.8767 25.2616 18.058C25.3742 18.0987 25.4804 18.1424 25.5836 18.1924C26.1462 18.4644 26.5714 18.9083 26.8589 19.5178C27.1465 20.1305 27.2903 20.9494 27.2903 21.9778C27.2903 23.0062 27.1465 23.8283 26.8621 24.4441ZM42.5163 17.6454V14.8415H32.7605V29.1298H36.2146V23.3876H41.8943V20.5743H36.2146V17.6454H42.5163Z" fill="#D61A1A"/>
<path d="M46.9503 10.0746H1.17219C0.525143 10.0746 0 10.5998 0 11.2468V32.7245C0 32.7589 0 32.7933 0.0062517 32.8245C0.0562653 33.4247 0.559527 33.8936 1.17219 33.8936H46.9503C47.5973 33.8936 48.1225 33.3716 48.1225 32.7245V11.2468C48.1225 10.5998 47.5973 10.0746 46.9503 10.0746ZM5.60465 29.1298V14.8384H11.5094C12.5784 14.8384 13.5037 15.051 14.282 15.4636C15.0603 15.8793 15.6636 16.4607 16.0856 17.2016C16.5107 17.9455 16.7233 18.8051 16.7233 19.7866C16.7233 20.5337 16.5983 21.212 16.3513 21.8184V22.678H15.8793C15.4667 23.2688 14.9197 23.7408 14.2382 24.0847C13.4443 24.491 12.4971 24.6911 11.4031 24.6911H9.06184V29.1298H5.60465ZM18.4175 29.1298V14.8415H23.6908C24.2441 14.8415 24.7692 14.8822 25.2631 14.9634C26.0727 15.0979 26.8042 15.3417 27.4575 15.6949C28.5109 16.2638 29.3236 17.0828 29.8956 18.1518C30.4677 19.2177 30.7521 20.4931 30.7521 21.9778C30.7521 23.4626 30.4677 24.7474 29.8988 25.8164C29.3298 26.8854 28.5171 27.7075 27.4606 28.2764C26.8042 28.6297 26.0727 28.8735 25.2631 29.0079C24.7724 29.0892 24.2503 29.1298 23.7002 29.1298H18.4175ZM32.762 29.1298V14.8415H42.5178V17.6454H36.2161V20.5743H41.8958V23.3876H36.2161V29.1298H32.762Z" fill="#D61A1A"/>
<path d="M16.0758 22.3717C16.0133 22.478 15.9477 22.5811 15.8789 22.678H16.3509V21.8184C16.2696 22.0091 16.179 22.1935 16.0758 22.3717Z" fill="#D61A1A"/>
<path d="M29.8941 18.1518C29.3221 17.0828 28.5094 16.2638 27.456 15.6949C26.8027 15.3417 26.0712 15.0978 25.2616 14.9634C24.7677 14.8822 24.2426 14.8415 23.6893 14.8415H18.416V29.1298H23.6987C24.2489 29.1298 24.7709 29.0891 25.2616 29.0079C26.0712 28.8735 26.8027 28.6296 27.4591 28.2764C28.5156 27.7075 29.3284 26.8854 29.8973 25.8164C30.4662 24.7473 30.7506 23.4657 30.7506 21.9778C30.7506 20.4899 30.4662 19.2177 29.8941 18.1518ZM26.8621 24.4441C26.5745 25.0599 26.1556 25.5069 25.5992 25.7789C25.4898 25.832 25.3773 25.8789 25.2616 25.9195C24.774 26.0977 24.2082 26.1852 23.5643 26.1852H21.8701V17.7861H23.5174C24.1832 17.7861 24.7677 17.8767 25.2616 18.058C25.3742 18.0987 25.4804 18.1424 25.5836 18.1924C26.1462 18.4644 26.5714 18.9083 26.8589 19.5178C27.1465 20.1305 27.2903 20.9494 27.2903 21.9778C27.2903 23.0062 27.1465 23.8283 26.8621 24.4441ZM42.5163 17.6454V14.8415H32.7605V29.1298H36.2146V23.3876H41.8943V20.5743H36.2146V17.6454H42.5163Z" fill="#D61A1A"/>
<path d="M16.0884 17.2015C15.6664 16.4607 15.0631 15.8793 14.2848 15.4635C13.5064 15.0509 12.5812 14.8384 11.5122 14.8384H5.60742V29.1298H9.06461V24.6911H11.4059C12.4999 24.6911 13.4471 24.491 14.241 24.0846C14.9225 23.7408 15.4695 23.2688 15.8821 22.678C15.9509 22.5811 16.0165 22.478 16.079 22.3717C16.1822 22.1935 16.2728 22.0091 16.3541 21.8184C16.601 21.212 16.7261 20.5337 16.7261 19.7866C16.7261 18.8051 16.5135 17.9455 16.0884 17.2015ZM13.1282 20.1054C13.0938 20.4118 13.0094 20.6868 12.875 20.9338C12.6906 21.262 12.4249 21.5183 12.0748 21.6996C11.7247 21.8809 11.2871 21.9716 10.7682 21.9716H9.06461V17.6235H10.7682C11.284 17.6235 11.7185 17.711 12.0717 17.8892C12.4249 18.0643 12.6906 18.3143 12.875 18.6394C13.0532 18.9645 13.147 19.3459 13.147 19.7866C13.147 19.896 13.1407 20.0023 13.1282 20.1054Z" fill="white"/>
<path d="M13.1468 19.7897C13.1468 19.8991 13.1406 20.0054 13.1281 20.1085C13.0937 20.4149 13.0093 20.69 12.8749 20.9369C12.6904 21.2651 12.4247 21.5214 12.0746 21.7027C11.7246 21.884 11.2869 21.9747 10.768 21.9747H9.06445V17.6266H10.768C11.2838 17.6266 11.7183 17.7141 12.0715 17.8923C12.4247 18.0674 12.6904 18.3174 12.8749 18.6425C13.053 18.9676 13.1468 19.349 13.1468 19.7897Z" fill="#D61A1A"/>
<path d="M29.898 18.1518C29.326 17.0828 28.5133 16.2638 27.4599 15.6949C26.8066 15.3417 26.0751 15.0978 25.2655 14.9634C24.7716 14.8822 24.2465 14.8415 23.6932 14.8415H18.4199V29.1298H23.7026C24.2528 29.1298 24.7748 29.0891 25.2655 29.0079C26.0751 28.8735 26.8066 28.6296 27.463 28.2764C28.5195 27.7075 29.3323 26.8854 29.9012 25.8164C30.4701 24.7473 30.7545 23.4657 30.7545 21.9778C30.7545 20.4899 30.4701 19.2177 29.898 18.1518ZM26.866 24.4441C26.5784 25.0599 26.1595 25.5069 25.6031 25.7789C25.4937 25.832 25.3812 25.8789 25.2655 25.9195C24.7779 26.0977 24.2121 26.1852 23.5682 26.1852H21.874V17.7861H23.5213C24.1871 17.7861 24.7716 17.8767 25.2655 18.058C25.3781 18.0987 25.4843 18.1424 25.5875 18.1924C26.1501 18.4644 26.5753 18.9083 26.8628 19.5178C27.1504 20.1305 27.2942 20.9494 27.2942 21.9778C27.2942 23.0062 27.1504 23.8283 26.866 24.4441Z" fill="white"/>
<path d="M42.5214 17.6454V14.8415H32.7656V29.1298H36.2197V23.3876H41.8994V20.5743H36.2197V17.6454H42.5214Z" fill="white"/>
<path d="M81.5148 59.5224V60.2757C81.5148 65.5178 81.5148 70.7598 81.5148 76.0019C81.5148 77.943 80.5114 78.9433 78.5765 78.9433C75.2975 78.9433 72.0185 78.9464 68.7395 78.9433C67.0046 78.9433 65.9481 77.9274 65.945 76.2144C65.9325 70.8098 65.9387 65.4084 65.9419 60.0038C65.9419 59.8694 65.9544 59.735 65.9669 59.5255H81.518L81.5148 59.5224Z" fill="#1E1E1E"/>
<path d="M82.7721 55.5963V58.1033H64.6641V55.5963H66.7209C67.2054 55.5963 67.6961 55.5526 68.1744 55.6057C69.2747 55.7276 70.2031 55.5057 70.897 54.5523C71.0252 54.3773 71.3721 54.2897 71.6191 54.2835C72.9569 54.2585 74.2979 54.2929 75.6358 54.2616C76.114 54.2491 76.5017 54.346 76.7767 54.743C77.2956 55.4807 78.0021 55.6557 78.8742 55.612C80.1589 55.5463 81.4467 55.5963 82.7721 55.5963Z" fill="#1E1E1E"/>
</svg>
