<svg width="86" height="92" viewBox="0 0 86 92" fill="none" xmlns="http://www.w3.org/2000/svg">
<path d="M73.5828 51.017C73.7235 51.017 73.8641 51.0107 74.0048 51.0045C74.1142 51.0014 74.2236 51.0014 74.3361 51.0014C74.63 51.0014 74.9207 51.0139 75.2145 51.042V21.1964L73.6047 19.5866L64.6116 10.5966L55.6561 1.64107L54.0181 0H8.98087C7.37106 0 6.06445 1.30973 6.06445 2.91017V89.0867C6.06445 90.6934 7.37106 92 8.98087 92H72.295C73.9079 92 75.2145 90.6934 75.2145 89.0867V82.6725C74.3986 82.6693 73.5859 82.6693 72.7701 82.6725V89.0867C72.7701 89.3493 72.5575 89.5587 72.295 89.5587H8.98087C8.72143 89.5587 8.50262 89.3493 8.50262 89.0867V2.91017C8.50262 2.65072 8.72143 2.43816 8.98087 2.43816H52.4989V20.0742C52.4989 21.5402 53.693 22.7343 55.159 22.7343H72.7701V51.0451C73.0514 51.0295 73.3234 51.0232 73.5828 51.017ZM55.159 20.2899C55.0371 20.2899 54.9402 20.1961 54.9402 20.0742V4.8607L70.7758 20.2899H55.159Z" fill="#D61A1A"/>
<path d="M16.0845 17.2016C16.5096 17.9455 16.7222 18.8051 16.7222 19.7867C16.7222 20.5337 16.5971 21.212 16.3502 21.8185V22.6781H15.8782C15.4656 23.2689 14.9185 23.7409 14.2371 24.0847C13.4431 24.4911 12.496 24.6911 11.402 24.6911H9.0607V29.1298H5.60352V14.8384H11.5082C12.5773 14.8384 13.5025 15.051 14.2809 15.4636C15.0592 15.8793 15.6625 16.4608 16.0845 17.2016Z" fill="#D61A1A"/>
<path d="M29.898 18.1519C30.4701 19.2178 30.7545 20.4931 30.7545 21.9779C30.7545 23.4627 30.4701 24.7474 29.9012 25.8164C29.3323 26.8855 28.5195 27.7076 27.463 28.2765C26.8066 28.6297 26.0751 28.8735 25.2655 29.0079C24.7748 29.0892 24.2528 29.1298 23.7026 29.1298H18.4199V14.8416H23.6932C24.2465 14.8416 24.7716 14.8822 25.2655 14.9635C26.0751 15.0979 26.8066 15.3417 27.4599 15.6949C28.5133 16.2638 29.326 17.0828 29.898 18.1519Z" fill="#D61A1A"/>
<path d="M36.2158 17.6455V20.5744H41.8955V23.3877H36.2158V29.1298H32.7617V14.8416H42.5175V17.6455H36.2158Z" fill="#D61A1A"/>
<path d="M16.0758 22.3718C16.0133 22.478 15.9477 22.5812 15.8789 22.6781H16.3509V21.8185C16.2696 22.0092 16.179 22.1936 16.0758 22.3718Z" fill="#D61A1A"/>
<path d="M29.8961 18.1519C29.3241 17.0828 28.5113 16.2638 27.4579 15.6949C26.8046 15.3417 26.0732 15.0979 25.2636 14.9635C24.7697 14.8822 24.2446 14.8416 23.6913 14.8416H18.418V29.1298H23.7007C24.2508 29.1298 24.7728 29.0892 25.2636 29.0079C26.0732 28.8735 26.8046 28.6297 27.4611 28.2765C28.5176 27.7076 29.3303 26.8855 29.8992 25.8164C30.4681 24.7474 30.7526 23.4658 30.7526 21.9779C30.7526 20.49 30.4681 19.2178 29.8961 18.1519ZM26.864 24.4442C26.5764 25.06 26.1576 25.507 25.6012 25.7789C25.4918 25.8321 25.3792 25.879 25.2636 25.9196C24.7759 26.0978 24.2102 26.1853 23.5662 26.1853H21.872V17.7861H23.5194C24.1852 17.7861 24.7697 17.8768 25.2636 18.0581C25.3761 18.0987 25.4824 18.1425 25.5855 18.1925C26.1482 18.4644 26.5733 18.9083 26.8609 19.5179C27.1485 20.1305 27.2923 20.9495 27.2923 21.9779C27.2923 23.0063 27.1485 23.8284 26.864 24.4442ZM42.5183 17.6455V14.8416H32.7625V29.1298H36.2166V23.3877H41.8962V20.5744H36.2166V17.6455H42.5183Z" fill="#D61A1A"/>
<path d="M46.9503 10.0746H1.17219C0.525143 10.0746 0 10.5998 0 11.2468V32.7245C0 32.7589 0 32.7933 0.0062517 32.8245C0.0562653 33.4247 0.559527 33.8936 1.17219 33.8936H46.9503C47.5973 33.8936 48.1225 33.3716 48.1225 32.7245V11.2468C48.1225 10.5998 47.5973 10.0746 46.9503 10.0746ZM5.60465 29.1298V14.8384H11.5094C12.5784 14.8384 13.5037 15.051 14.282 15.4636C15.0603 15.8793 15.6636 16.4607 16.0856 17.2016C16.5107 17.9455 16.7233 18.8051 16.7233 19.7866C16.7233 20.5337 16.5983 21.212 16.3513 21.8184V22.678H15.8793C15.4667 23.2688 14.9197 23.7408 14.2382 24.0847C13.4443 24.491 12.4971 24.6911 11.4031 24.6911H9.06184V29.1298H5.60465ZM18.4175 29.1298V14.8415H23.6908C24.2441 14.8415 24.7692 14.8822 25.2631 14.9634C26.0727 15.0979 26.8042 15.3417 27.4575 15.6949C28.5109 16.2638 29.3236 17.0828 29.8956 18.1518C30.4677 19.2177 30.7521 20.4931 30.7521 21.9778C30.7521 23.4626 30.4677 24.7474 29.8988 25.8164C29.3298 26.8854 28.5171 27.7075 27.4606 28.2764C26.8042 28.6297 26.0727 28.8735 25.2631 29.0079C24.7724 29.0892 24.2503 29.1298 23.7002 29.1298H18.4175ZM32.762 29.1298V14.8415H42.5178V17.6454H36.2161V20.5743H41.8958V23.3876H36.2161V29.1298H32.762Z" fill="#D61A1A"/>
<path d="M16.0758 22.3718C16.0133 22.478 15.9477 22.5812 15.8789 22.6781H16.3509V21.8185C16.2696 22.0092 16.179 22.1936 16.0758 22.3718Z" fill="#D61A1A"/>
<path d="M29.8961 18.1519C29.3241 17.0828 28.5113 16.2638 27.4579 15.6949C26.8046 15.3417 26.0732 15.0979 25.2636 14.9635C24.7697 14.8822 24.2446 14.8416 23.6913 14.8416H18.418V29.1298H23.7007C24.2508 29.1298 24.7728 29.0892 25.2636 29.0079C26.0732 28.8735 26.8046 28.6297 27.4611 28.2765C28.5176 27.7076 29.3303 26.8855 29.8992 25.8164C30.4681 24.7474 30.7526 23.4658 30.7526 21.9779C30.7526 20.49 30.4681 19.2178 29.8961 18.1519ZM26.864 24.4442C26.5764 25.06 26.1576 25.507 25.6012 25.7789C25.4918 25.8321 25.3792 25.879 25.2636 25.9196C24.7759 26.0978 24.2102 26.1853 23.5662 26.1853H21.872V17.7861H23.5194C24.1852 17.7861 24.7697 17.8768 25.2636 18.0581C25.3761 18.0987 25.4824 18.1425 25.5855 18.1925C26.1482 18.4644 26.5733 18.9083 26.8609 19.5179C27.1485 20.1305 27.2923 20.9495 27.2923 21.9779C27.2923 23.0063 27.1485 23.8284 26.864 24.4442ZM42.5183 17.6455V14.8416H32.7625V29.1298H36.2166V23.3877H41.8962V20.5744H36.2166V17.6455H42.5183Z" fill="#D61A1A"/>
<path d="M16.0884 17.2016C15.6664 16.4608 15.0631 15.8794 14.2848 15.4637C13.5064 15.0511 12.5812 14.8385 11.5122 14.8385H5.60742V29.1299H9.06461V24.6912H11.4059C12.4999 24.6912 13.4471 24.4911 14.241 24.0848C14.9225 23.7409 15.4695 23.2689 15.8821 22.6781C15.9509 22.5812 16.0165 22.4781 16.079 22.3718C16.1822 22.1936 16.2728 22.0092 16.3541 21.8185C16.601 21.2121 16.7261 20.5338 16.7261 19.7867C16.7261 18.8052 16.5135 17.9456 16.0884 17.2016ZM13.1282 20.1056C13.0938 20.4119 13.0094 20.687 12.875 20.9339C12.6906 21.2621 12.4249 21.5184 12.0748 21.6997C11.7247 21.881 11.2871 21.9717 10.7682 21.9717H9.06461V17.6236H10.7682C11.284 17.6236 11.7185 17.7112 12.0717 17.8893C12.4249 18.0644 12.6906 18.3144 12.875 18.6395C13.0532 18.9646 13.147 19.346 13.147 19.7867C13.147 19.8961 13.1407 20.0024 13.1282 20.1056Z" fill="white"/>
<path d="M13.1468 19.7898C13.1468 19.8992 13.1406 20.0055 13.1281 20.1087C13.0937 20.415 13.0093 20.6901 12.8749 20.937C12.6904 21.2652 12.4247 21.5215 12.0746 21.7028C11.7246 21.8841 11.2869 21.9748 10.768 21.9748H9.06445V17.6267H10.768C11.2838 17.6267 11.7183 17.7143 12.0715 17.8924C12.4247 18.0675 12.6904 18.3176 12.8749 18.6426C13.053 18.9677 13.1468 19.3491 13.1468 19.7898Z" fill="#D61A1A"/>
<path d="M29.9 18.1519C29.328 17.0829 28.5152 16.2639 27.4618 15.695C26.8085 15.3418 26.0771 15.098 25.2675 14.9636C24.7736 14.8823 24.2485 14.8416 23.6952 14.8416H18.4219V29.1299H23.7046C24.2547 29.1299 24.7767 29.0893 25.2675 29.008C26.0771 28.8736 26.8085 28.6298 27.465 28.2765C28.5215 27.7076 29.3342 26.8855 29.9031 25.8165C30.472 24.7475 30.7565 23.4659 30.7565 21.978C30.7565 20.4901 30.472 19.2178 29.9 18.1519ZM26.8679 24.4443C26.5803 25.06 26.1615 25.507 25.6051 25.779C25.4957 25.8321 25.3831 25.879 25.2675 25.9197C24.7799 26.0978 24.2141 26.1854 23.5701 26.1854H21.8759V17.7862H23.5233C24.1891 17.7862 24.7736 17.8768 25.2675 18.0581C25.38 18.0988 25.4863 18.1425 25.5894 18.1926C26.1521 18.4645 26.5772 18.9084 26.8648 19.5179C27.1524 20.1306 27.2962 20.9496 27.2962 21.978C27.2962 23.0064 27.1524 23.8285 26.8679 24.4443Z" fill="white"/>
<path d="M42.5214 17.6455V14.8416H32.7656V29.1299H36.2197V23.3877H41.8994V20.5745H36.2197V17.6455H42.5214Z" fill="white"/>
<path d="M85.2989 59.463C82.9357 61.8481 80.5757 64.23 78.197 66.6306C78.272 66.7119 78.3657 66.815 78.4626 66.9119C80.4788 68.9312 82.4919 70.9474 84.508 72.9636C84.7675 73.2199 85.0363 73.4668 85.2989 73.72V73.8044C84.9332 74.1545 84.5612 74.4984 84.2048 74.8578C82.9514 76.1051 81.7042 77.3554 80.4538 78.6057C80.3444 78.7151 80.2319 78.8152 80.0975 78.9433C77.7124 76.5552 75.3493 74.1889 72.9612 71.7976C70.573 74.1983 68.213 76.5708 65.8874 78.9121C64.1213 77.146 62.4052 75.4299 60.6516 73.6731C62.9741 71.3631 65.3528 68.9937 67.7472 66.6087C65.3497 64.2112 62.9834 61.8449 60.6484 59.5037C62.3895 57.7626 64.1025 56.0496 65.8373 54.3179C68.1692 56.656 70.5386 59.0317 72.933 61.4323C75.3493 59.0098 77.7124 56.6404 80.0975 54.2491C80.2319 54.3773 80.3444 54.4773 80.4507 54.5867C81.9511 56.0871 83.4515 57.5875 84.9519 59.0848C85.0582 59.1911 85.1864 59.2786 85.302 59.3755V59.4599L85.2989 59.463Z" fill="#1E1E1E"/>
</svg>
