<svg width="30" height="37" viewBox="0 0 30 37" fill="none" xmlns="http://www.w3.org/2000/svg">
<path d="M29.7834 6.63332C29.1825 5.19626 28.0614 4.52728 26.5376 4.5025C25.2492 4.48392 23.967 4.5025 22.6786 4.5025C22.5547 4.5025 22.4246 4.49011 22.2822 4.48392C22.2822 4.14943 22.2822 3.86449 22.2822 3.57337C22.2388 1.51688 20.8823 0.0550375 18.8939 0.0240663C16.3047 -0.0130991 13.7155 -0.000710657 11.1325 0.0178721C9.33001 0.0302605 7.89914 1.40538 7.77525 3.1026C7.74428 3.56717 7.73189 4.02554 7.70712 4.5025C7.57704 4.5025 7.48413 4.5025 7.38502 4.5025C5.90459 4.51489 4.42417 4.49011 2.94994 4.55825C1.46332 4.63258 0.236865 5.88382 0.0262605 7.42618C-0.165761 8.85086 0.713821 10.3561 2.05797 10.8516C2.36149 10.9631 2.46679 11.0994 2.46679 11.4339C2.4544 18.2847 2.4544 25.1417 2.4544 31.9925C2.4544 32.1969 2.4544 32.4014 2.46679 32.6058C2.55351 34.5446 3.79855 36.2108 5.56391 36.7559C5.79929 36.8302 6.04087 36.886 6.28244 36.9541H23.744C23.8059 36.9293 23.8679 36.8984 23.936 36.886C24.7599 36.7311 25.4846 36.3719 26.0916 35.7958C27.1508 34.7861 27.5535 33.5163 27.5535 32.0854C27.5535 25.2098 27.5535 18.3342 27.5411 11.4524C27.5411 11.1118 27.6464 10.9631 27.9623 10.8392C29.5852 10.2198 30.44 8.23143 29.771 6.63332H29.7834ZM9.52203 3.07783C9.65211 2.2478 10.3397 1.74606 11.2378 1.74606C13.7527 1.74606 16.2676 1.74606 18.7762 1.74606C18.9559 1.74606 19.1417 1.76465 19.3089 1.8142C19.9965 2.01861 20.4239 2.47699 20.5044 3.18932C20.554 3.60434 20.5106 4.02554 20.5106 4.48392H9.50964C9.50964 4.00077 9.4477 3.53001 9.52203 3.07783ZM25.8253 32.0916C25.8253 32.8102 25.7014 33.4977 25.2678 34.1048C24.7475 34.8357 24.0413 35.2135 23.1556 35.2135C17.717 35.2197 12.2847 35.2259 6.84612 35.2135C5.52055 35.2135 4.47372 34.2534 4.25073 32.9031C4.20737 32.6429 4.18879 32.3766 4.18879 32.1102C4.18879 25.2346 4.18879 18.3528 4.18879 11.4772V11.0994H25.8067C25.8067 11.2356 25.8253 11.3657 25.8253 11.4896C25.8253 18.3528 25.8253 25.2222 25.8253 32.0854V32.0916ZM26.8783 9.32781C26.6987 9.3464 26.519 9.35259 26.3394 9.35259C22.5671 9.35259 18.7886 9.35259 15.0163 9.35259C11.244 9.35259 7.44077 9.35259 3.65609 9.35259C3.40832 9.35259 3.14816 9.35259 2.90658 9.29065C2.21283 9.1234 1.71729 8.43584 1.75445 7.73589C1.79781 6.98639 2.33052 6.38555 3.06144 6.27405C3.24107 6.24928 3.4207 6.23689 3.60034 6.23689C11.2131 6.23689 18.8196 6.23689 26.4323 6.23689C27.5101 6.23689 28.1729 6.76959 28.2472 7.68015C28.3154 8.51637 27.7207 9.24109 26.8845 9.32781H26.8783Z" fill="white"/>
<path d="M10.7552 30.3758C10.7552 30.6174 10.6995 30.8838 10.588 31.0944C10.4269 31.3917 10.1234 31.5032 9.78271 31.4536C9.43583 31.3979 9.18806 31.2059 9.08895 30.8528C9.05179 30.7165 9.0332 30.5679 9.0332 30.4254C9.0332 25.1045 9.0332 19.7775 9.0332 14.4566C9.0332 14.2584 9.06417 14.0416 9.15089 13.8682C9.31194 13.5337 9.60307 13.385 9.98092 13.4222C10.3588 13.4532 10.6065 13.6638 10.7056 14.0169C10.7552 14.1841 10.7552 14.3699 10.7552 14.5496C10.7552 17.1697 10.7552 19.7899 10.7552 22.41C10.7552 25.0302 10.7552 27.7247 10.749 30.3758H10.7552Z" fill="white"/>
<path d="M15.8766 14.5186C15.8766 19.7961 15.8766 25.0674 15.8766 30.3449C15.8766 30.4997 15.8642 30.6546 15.8271 30.8094C15.7342 31.2121 15.3873 31.4784 14.997 31.4722C14.6068 31.4722 14.2599 31.1873 14.1794 30.7909C14.1484 30.6422 14.1484 30.4811 14.1484 30.3263C14.1484 27.6937 14.1484 25.0612 14.1484 22.4348C14.1484 19.8085 14.1484 17.1202 14.1484 14.469C14.1484 13.8434 14.421 13.478 14.9165 13.4284C15.3749 13.385 15.7342 13.639 15.8395 14.0974C15.8704 14.2337 15.8828 14.3823 15.8828 14.5248L15.8766 14.5186Z" fill="white"/>
<path d="M20.9805 14.562C20.9805 19.8147 20.9805 25.0612 20.9805 30.3139C20.9805 31.0634 20.6522 31.4846 20.0885 31.466C19.5372 31.4536 19.2461 31.0572 19.2461 30.3077C19.2461 27.6875 19.2461 25.0674 19.2461 22.4472C19.2461 19.8271 19.2461 17.1821 19.2461 14.5558C19.2461 13.8063 19.5372 13.416 20.0885 13.4036C20.6584 13.3912 20.9743 13.8063 20.9743 14.5558L20.9805 14.562Z" fill="white"/>
</svg>
