<svg width="39" height="38" viewBox="0 0 39 38" fill="none" xmlns="http://www.w3.org/2000/svg">
<path d="M8.45976 38C6.19162 38 3.98088 37.0223 2.39556 35.318C0.794402 33.5972 -0.0546656 31.2826 0.00273061 28.802C0.0343975 27.488 0.0264808 26.1554 0.018564 24.8663C0.0146057 24.146 0.0106473 23.4257 0.0126265 22.7054C0.0146057 21.8273 0.337212 21.3831 0.972528 21.3831H0.994299C1.48909 21.3914 1.94826 21.5595 1.95024 22.7282C1.95024 23.6125 1.95024 24.4989 1.95024 25.3832C1.95024 26.61 1.94826 27.8368 1.95222 29.0657C1.96608 32.9641 4.72901 35.92 8.37862 35.9387C12.0975 35.9595 15.8817 35.9699 19.6263 35.9699C23.3709 35.9699 26.975 35.9595 30.6424 35.9408C34.29 35.9221 37.051 32.9682 37.0668 29.0698C37.0708 27.8866 37.0708 26.7034 37.0688 25.5222C37.0688 24.5632 37.0688 23.6063 37.0688 22.6472C37.0728 21.5201 37.615 21.3851 38.0247 21.3789C38.3335 21.3789 38.5591 21.4619 38.7155 21.628C38.9055 21.8314 39.0044 22.1698 39.0005 22.6078C38.9926 23.3779 38.9965 24.1626 39.0005 24.9203C39.0123 26.8072 39.0242 28.7584 38.8342 30.6433C38.4364 34.6185 34.9194 37.8962 30.9967 37.9502C29.6805 37.9668 28.2733 37.9751 26.5673 37.9751C25.3857 37.9751 24.2041 37.9709 23.0226 37.9668C21.839 37.9626 20.6574 37.9585 19.4739 37.9585H19.0781V37.9689C18.1083 37.9689 17.1365 37.9585 16.1667 37.9502C15.0623 37.9419 13.9579 37.9315 12.8535 37.9315C11.2682 37.9315 9.958 37.9502 8.73091 37.9917C8.63987 37.9938 8.54883 37.9959 8.45778 37.9959L8.45976 38Z" fill="white"/>
<path d="M29.987 17.7545C29.227 18.5744 28.4413 19.3965 27.6813 20.1936L27.1905 20.7084C24.9243 23.0873 22.6581 25.4662 20.39 27.843C20.0575 28.1938 19.7705 28.364 19.5152 28.364C19.2599 28.364 18.9729 28.1959 18.6404 27.8471C15.9091 24.9867 12.9998 21.931 9.20369 17.9392C8.67524 17.3829 8.60004 16.7623 9.01171 16.318C9.18587 16.1312 9.38775 16.0357 9.61338 16.0357C9.91223 16.0357 10.2408 16.208 10.5396 16.5194C11.9092 17.9496 13.2749 19.3819 14.6405 20.8122C15.4876 21.6986 16.3327 22.5849 17.1778 23.4713C17.2985 23.5959 17.4212 23.7163 17.5855 23.8761C17.6746 23.9633 17.7755 24.0608 17.8943 24.1792L18.5612 24.8393V18.5578C18.5612 12.8099 18.5612 7.06194 18.5652 1.31399C18.5652 0.149459 19.0501 0 19.4736 0C19.5112 0 19.5469 0.00207582 19.5845 0.00415164C20.101 0.0373648 20.3663 0.292691 20.4434 0.830328C20.4712 1.03583 20.4692 1.25795 20.4672 1.49252V25.1465L21.5716 23.7723H21.5736L22.6265 22.6617C24.5245 20.6689 26.4839 18.6056 28.4235 16.59C28.7105 16.289 28.946 16.1187 29.1439 16.0669C29.233 16.0419 29.3201 16.0295 29.4032 16.0295C29.708 16.0295 29.9633 16.1935 30.1394 16.5049C30.3967 16.9595 30.3473 17.3684 29.987 17.7545Z" fill="white"/>
</svg>
