<svg width="33" height="27" viewBox="0 0 33 27" fill="none" xmlns="http://www.w3.org/2000/svg">
<path d="M32.9712 24.291C32.6486 25.4744 31.7861 26.1294 30.6789 26.4617C30.2282 26.5979 29.7079 26.6271 29.2394 26.5622C28.3526 26.4374 27.7398 25.7419 27.6166 24.8341C27.4496 23.6166 27.3167 22.3878 26.9066 21.2239C26.6926 20.6127 26.4251 20.0048 26.0798 19.4601C25.6194 18.7306 25.1071 18.729 24.6257 19.452C24.3241 19.9059 24.1037 20.4328 23.9367 20.9548C23.6335 21.8999 23.2882 22.8158 22.6511 23.5923C22.1275 24.2294 21.4872 24.6931 20.6588 24.8373C19.5402 25.0335 18.6227 24.6331 17.8737 23.8225C17.1329 23.0217 16.747 22.0458 16.6109 20.9791C16.5347 20.3825 16.5152 19.7714 16.5363 19.1699C16.5914 17.6526 16.4844 16.1579 15.883 14.7475C15.6658 14.2353 15.3626 13.7376 15.0092 13.308C14.424 12.5947 13.6329 12.3904 12.7364 12.6222C11.741 12.8784 10.9435 13.4685 10.2107 14.1558C8.47126 15.7883 7.26353 17.7806 6.3395 19.9578C5.53867 21.8464 4.99559 23.8031 4.87239 25.8635C4.84807 26.2818 4.53357 26.6287 4.13802 26.7114C3.71653 26.8005 3.31125 26.606 3.10699 26.2185C3.07133 26.1504 3.03566 26.0824 3 26.0143V25.3107C3.09727 24.6963 3.16535 24.0754 3.29666 23.4691C4.1591 19.4634 5.84668 15.8823 8.76792 12.9481C9.63684 12.0759 10.6176 11.361 11.7962 10.9493C13.7593 10.2651 15.5377 10.8098 16.7681 12.4861C17.5835 13.5965 17.9921 14.8707 18.2352 16.2082C18.4298 17.2813 18.4476 18.3626 18.386 19.4471C18.3438 20.1945 18.4038 20.9386 18.7086 21.6292C18.8675 21.9874 19.0831 22.3408 19.3489 22.6278C19.8191 23.1384 20.4027 23.1644 20.8955 22.6732C21.2327 22.336 21.5147 21.9177 21.7304 21.4914C21.9524 21.0537 22.0675 20.5592 22.2232 20.0875C22.5247 19.1748 22.9494 18.3399 23.6935 17.7012C24.7408 16.8047 26.0425 16.8193 27.0638 17.745C27.8095 18.421 28.2294 19.298 28.5585 20.2253C29.0286 21.5481 29.2669 22.9212 29.429 24.3089C29.4809 24.753 29.549 24.8292 29.9867 24.7206C30.5346 24.5861 30.9999 24.3348 31.1944 23.7366C31.3468 23.2681 31.8672 23.0249 32.3324 23.1627C32.8074 23.3022 33.1009 23.8047 32.9679 24.2927L32.9712 24.291Z" fill="white"/>
<path d="M9.15812 6.2057C8.94509 6.28047 8.70487 6.30086 8.47598 6.30539C7.77118 6.31672 7.06411 6.30992 6.30945 6.30992C6.30945 7.0372 6.31172 7.72822 6.30945 8.42152C6.30945 8.61183 6.30492 8.80668 6.2596 8.98793C6.10549 9.63364 5.48908 10.0664 4.85906 9.99162C4.20639 9.91232 3.70555 9.38442 3.69422 8.72285C3.68062 7.9344 3.68969 7.14822 3.68969 6.31219C2.88744 6.31219 2.12825 6.32125 1.36906 6.30992C0.578144 6.29633 0.0138509 5.7571 0.000253509 5.02983C-0.0133439 4.29349 0.521488 3.71348 1.25801 3.69762C2.04893 3.68176 2.83758 3.69309 3.68969 3.69309V2.69846C3.68969 2.234 3.68289 1.76954 3.68969 1.30735C3.70555 0.552884 4.25171 0.00459486 4.97917 6.35394e-05C5.70437 -0.00673344 6.27773 0.532493 6.30266 1.27789C6.32532 1.91908 6.30719 2.56026 6.30945 3.20144V3.69309C7.15023 3.69309 7.95021 3.68176 8.75019 3.69535C9.37341 3.70895 9.88558 4.187 9.98529 4.80326C10.0782 5.381 9.72241 6.01086 9.15812 6.2057Z" fill="white"/>
</svg>
