<svg width="30" height="33" viewBox="0 0 30 33" fill="none" xmlns="http://www.w3.org/2000/svg">
<path d="M27.2779 9.39576C22.3659 14.7669 17.4973 20.0867 12.5467 25.4993C10.256 23.3504 8.07881 21.3066 5.79297 19.1625C10.6905 13.8085 15.5591 8.48386 20.5169 3.0614C22.7859 5.18589 24.9848 7.24682 27.2779 9.39576Z" fill="#888888"/>
<path d="M29.4827 6.96079C29.1351 7.40329 28.732 7.80179 28.2372 8.34697C25.961 6.2127 23.7669 4.15666 21.4883 2.01995C21.9372 1.52611 22.309 1.05672 22.741 0.653333C23.6148 -0.16077 24.672 -0.234112 25.5675 0.548209C26.871 1.68746 28.1358 2.87561 29.362 4.09799C30.1851 4.91698 30.1996 6.0489 29.4827 6.96079Z" fill="#888888"/>
<path d="M2.70467 30.9194L0.112286 32.0928C0.083321 32.0904 0.0543558 32.0855 0.0253906 32.0782L1.13814 29.4378L2.70467 30.9194Z" fill="#888888"/>
<path d="M2.70583 30.9194L0.113447 32.0928L0 32.1442L0.0265514 32.0782L1.1393 29.4378L2.70583 30.9194Z" fill="#888888"/>
<path d="M11.6809 26.7829L8.53814 28.0468L3.46681 30.0857C3.1482 29.7948 2.81992 29.499 2.49165 29.2032C2.31545 29.0418 2.13442 28.8853 1.89062 28.6751L3.65026 23.0522L4.56508 20.1234L8.9702 24.2477C9.26227 24.5215 9.55675 24.7977 9.85605 25.0764L11.6809 26.7829Z" fill="#888888"/>
</svg>
