<svg width="92" height="92" viewBox="0 0 92 92" fill="none" xmlns="http://www.w3.org/2000/svg">
<path d="M67.5778 64.43H66.7056V67.3746H67.4058C68.0716 67.3746 68.6561 67.4652 69.15 67.6465V64.5519C68.6561 64.4706 68.131 64.43 67.5778 64.43ZM67.4527 75.7737H66.7056V78.7183H67.5871C68.1372 78.7183 68.6593 78.6776 69.15 78.5964V75.508C68.6624 75.6862 68.0966 75.7737 67.4527 75.7737ZM69.15 56.5372V21.1964L67.5402 19.5866L58.5472 10.5966L49.5916 1.64107L47.9537 0H2.9164C1.30659 0 0 1.30973 0 2.91017V89.0867C0 90.6934 1.30659 92 2.9164 92H66.2305C67.8434 92 69.15 90.6934 69.15 89.0867V86.6079H66.7056V89.0867C66.7056 89.3493 66.4931 89.5587 66.2305 89.5587H2.9164C2.65696 89.5587 2.43818 89.3493 2.43818 89.0867V2.91017C2.43818 2.65072 2.65696 2.43816 2.9164 2.43816H46.4345V20.0742C46.4345 21.5402 47.6286 22.7343 49.0946 22.7343H66.7056V56.5372H69.15ZM49.0946 20.2899C48.9727 20.2899 48.8758 20.1961 48.8758 20.0742V4.8607L64.7113 20.2899H49.0946Z" fill="#077D3F"/>
<path d="M71.179 71.5663C71.179 72.5947 71.0352 73.4168 70.7508 74.0326C70.4632 74.6484 70.0443 75.0954 69.4879 75.3673C69.3785 75.4205 69.266 75.4674 69.1503 75.508C68.6627 75.6862 68.0969 75.7737 67.453 75.7737H65.7588V67.3745H67.4061C68.0719 67.3745 68.6564 67.4652 69.1503 67.6465C69.2629 67.6871 69.3691 67.7309 69.4723 67.7809C70.035 68.0529 70.4601 68.4967 70.7476 69.1063C71.0352 69.7189 71.179 70.5379 71.179 71.5663Z" fill="#D61A1A"/>
<path d="M29.7517 7.27072H11.4529C9.40894 7.27072 7.75195 8.92772 7.75195 10.9717V29.2704C7.75195 31.3145 9.40894 32.9715 11.4529 32.9715H29.7517C31.7957 32.9715 33.4527 31.3145 33.4527 29.2704V10.9717C33.4527 8.92772 31.7957 7.27072 29.7517 7.27072Z" fill="#077D3F"/>
<path d="M60.2385 49.4009H8.91211V51.9766H60.2385V49.4009Z" fill="#077D3F"/>
<path d="M60.2385 39.2544H8.91211V41.8301H60.2385V39.2544Z" fill="#077D3F"/>
<path d="M8.91211 59.5475H37.8325C37.7043 59.9538 37.6355 60.3852 37.6355 60.8353V62.12H8.91211V59.5475Z" fill="#077D3F"/>
<path d="M37.6355 69.6939H8.91211V72.2665H37.6355V69.6939Z" fill="#077D3F"/>
<path d="M60.2376 71.4069V72.2665H59.7656C59.8344 72.1696 59.9 72.0665 59.9626 71.9602C60.0657 71.782 60.1564 71.5976 60.2376 71.4069Z" fill="#077D3F"/>
<path d="M37.6355 82.313C37.6355 82.3474 37.6355 82.3786 37.6387 82.413H8.91211V79.8405H37.6355V82.313Z" fill="#077D3F"/>
<path d="M59.9616 71.9601C59.8991 72.0664 59.8334 72.1696 59.7646 72.2665H60.2367V71.4069C60.1554 71.5975 60.0647 71.782 59.9616 71.9601Z" fill="#D61A1A"/>
<path d="M86.403 67.2339V64.43H76.6472V78.7183H80.1013V72.9761H85.781V70.1628H80.1013V67.2339H86.403ZM71.3427 65.2834C70.6894 64.9301 69.9579 64.6863 69.1483 64.5519C68.6544 64.4706 68.1293 64.43 67.576 64.43H62.3027V78.7183H67.5854C68.1355 78.7183 68.6576 78.6776 69.1483 78.5963C69.9579 78.4619 70.6894 78.2181 71.3458 77.8649C72.4023 77.296 73.2151 76.4739 73.784 75.4049C74.3529 74.3358 74.6373 73.0542 74.6373 71.5663C74.6373 70.0784 74.3529 68.8062 73.7808 67.7403C73.2088 66.6712 72.3961 65.8523 71.3427 65.2834ZM70.7487 74.0326C70.4612 74.6484 70.0423 75.0954 69.4859 75.3673C69.3765 75.4205 69.264 75.4674 69.1483 75.508C68.6607 75.6862 68.0949 75.7737 67.451 75.7737H65.7568V67.3745H67.4041C68.0699 67.3745 68.6544 67.4652 69.1483 67.6465C69.2608 67.6871 69.3671 67.7309 69.4703 67.7809C70.0329 68.0529 70.458 68.4967 70.7456 69.1063C71.0332 69.7189 71.177 70.5379 71.177 71.5663C71.177 72.5947 71.0332 73.4168 70.7487 74.0326Z" fill="#D61A1A"/>
<path d="M90.836 59.6631H45.0579C44.4109 59.6631 43.8857 60.1882 43.8857 60.8352V82.313C43.8857 82.3473 43.8857 82.3817 43.892 82.413C43.942 83.0132 44.4453 83.482 45.0579 83.482H90.836C91.483 83.482 92.0082 82.96 92.0082 82.313V60.8352C92.0082 60.1882 91.483 59.6631 90.836 59.6631ZM60.237 71.4069V72.2665H59.765C59.3524 72.8573 58.8054 73.3293 58.124 73.6731C57.33 74.0795 56.3829 74.2795 55.2888 74.2795H52.9476V78.7182H49.4904V64.4269H55.3951C56.4641 64.4269 57.3894 64.6394 58.1677 65.052C58.9461 65.4678 59.5494 66.0492 59.9714 66.79C60.3965 67.5339 60.609 68.3936 60.609 69.3751C60.609 70.1222 60.484 70.8005 60.237 71.4069ZM73.7845 75.4048C73.2156 76.4739 72.4029 77.296 71.3463 77.8649C70.6899 78.2181 69.9584 78.4619 69.1488 78.5963C68.6581 78.6776 68.1361 78.7182 67.5859 78.7182H62.3033V64.43H67.5766C68.1298 64.43 68.655 64.4706 69.1488 64.5519C69.9584 64.6863 70.6899 64.9301 71.3432 65.2833C72.3966 65.8522 73.2093 66.6712 73.7814 67.7403C74.3534 68.8062 74.6378 70.0815 74.6378 71.5663C74.6378 73.0511 74.3534 74.3358 73.7845 75.4048ZM86.4036 67.2339H80.1018V70.1628H85.7815V72.9761H80.1018V78.7182H76.6478V64.43H86.4036V67.2339Z" fill="#D61A1A"/>
<path d="M59.9616 71.9601C59.8991 72.0664 59.8334 72.1696 59.7646 72.2665H60.2367V71.4069C60.1554 71.5975 60.0647 71.782 59.9616 71.9601Z" fill="#D61A1A"/>
<path d="M86.403 67.2339V64.43H76.6472V78.7183H80.1013V72.9761H85.781V70.1628H80.1013V67.2339H86.403ZM71.3427 65.2834C70.6894 64.9301 69.9579 64.6863 69.1483 64.5519C68.6544 64.4706 68.1293 64.43 67.576 64.43H62.3027V78.7183H67.5854C68.1355 78.7183 68.6576 78.6776 69.1483 78.5963C69.9579 78.4619 70.6894 78.2181 71.3458 77.8649C72.4023 77.296 73.2151 76.4739 73.784 75.4049C74.3529 74.3358 74.6373 73.0542 74.6373 71.5663C74.6373 70.0784 74.3529 68.8062 73.7808 67.7403C73.2088 66.6712 72.3961 65.8523 71.3427 65.2834ZM70.7487 74.0326C70.4612 74.6484 70.0423 75.0954 69.4859 75.3673C69.3765 75.4205 69.264 75.4674 69.1483 75.508C68.6607 75.6862 68.0949 75.7737 67.451 75.7737H65.7568V67.3745H67.4041C68.0699 67.3745 68.6544 67.4652 69.1483 67.6465C69.2608 67.6871 69.3671 67.7309 69.4703 67.7809C70.0329 68.0529 70.458 68.4967 70.7456 69.1063C71.0332 69.7189 71.177 70.5379 71.177 71.5663C71.177 72.5947 71.0332 73.4168 70.7487 74.0326Z" fill="#D61A1A"/>
<path d="M59.9722 66.79C59.5502 66.0492 58.9469 65.4678 58.1686 65.052C57.3902 64.6394 56.465 64.4268 55.3959 64.4268H49.4912V78.7182H52.9484V74.2795H55.2897C56.3837 74.2795 57.3308 74.0795 58.1248 73.6731C58.8062 73.3293 59.3533 72.8573 59.7659 72.2665C59.8346 72.1696 59.9003 72.0664 59.9628 71.9601C60.066 71.782 60.1566 71.5975 60.2379 71.4069C60.4848 70.8005 60.6099 70.1221 60.6099 69.3751C60.6099 68.3936 60.3973 67.5339 59.9722 66.79ZM56.7588 70.5223C56.5744 70.8505 56.3087 71.1068 55.9586 71.2881C55.6085 71.4694 55.1709 71.56 54.652 71.56H52.9484V67.212H54.652C55.1678 67.212 55.6023 67.2995 55.9555 67.4777C56.3087 67.6527 56.5744 67.9028 56.7588 68.2279C56.937 68.553 57.0308 68.9343 57.0308 69.3751C57.0308 69.4845 57.0245 69.5908 57.012 69.6939C56.9776 70.0002 56.8932 70.2753 56.7588 70.5223Z" fill="white"/>
<path d="M57.0316 69.3751C57.0316 69.4845 57.0253 69.5907 57.0128 69.6939C56.9784 70.0002 56.894 70.2753 56.7596 70.5222C56.5752 70.8505 56.3095 71.1068 55.9594 71.2881C55.6093 71.4694 55.1717 71.56 54.6528 71.56H52.9492V67.212H54.6528C55.1686 67.212 55.6031 67.2995 55.9563 67.4777C56.3095 67.6527 56.5752 67.9028 56.7596 68.2279C56.9378 68.553 57.0316 68.9343 57.0316 69.3751Z" fill="#D61A1A"/>
<path d="M73.7828 67.7402C73.2108 66.6712 72.398 65.8522 71.3446 65.2833C70.6913 64.9301 69.9599 64.6863 69.1503 64.5519C68.6564 64.4706 68.1313 64.43 67.578 64.43H62.3047V78.7182H67.5873C68.1375 78.7182 68.6595 78.6776 69.1503 78.5963C69.9599 78.4619 70.6913 78.2181 71.3477 77.8649C72.4043 77.296 73.217 76.4739 73.7859 75.4048C74.3548 74.3358 74.6393 73.0542 74.6393 71.5663C74.6393 70.0784 74.3548 68.8062 73.7828 67.7402ZM70.7507 74.0326C70.4631 74.6484 70.0443 75.0954 69.4879 75.3673C69.3785 75.4205 69.2659 75.4673 69.1503 75.508C68.6626 75.6861 68.0969 75.7737 67.453 75.7737H65.7587V67.3745H67.4061C68.0719 67.3745 68.6564 67.4652 69.1503 67.6465C69.2628 67.6871 69.3691 67.7309 69.4722 67.7809C70.0349 68.0528 70.46 68.4967 70.7476 69.1062C71.0351 69.7189 71.1789 70.5379 71.1789 71.5663C71.1789 72.5947 71.0352 73.4168 70.7507 74.0326Z" fill="white"/>
<path d="M86.4052 67.2338V64.43H76.6494V78.7182H80.1035V72.976H85.7832V70.1628H80.1035V67.2338H86.4052Z" fill="white"/>
<path d="M79.5622 26.1446C80.4468 26.0759 81.1752 26.0165 82.016 25.9508C81.8441 25.0818 81.7378 24.2222 81.4971 23.4064C78.9839 14.8166 73.7388 8.60549 65.4146 5.13892C63.5547 4.36371 61.5855 4.03237 59.5568 4.09489C59.4161 4.09801 59.2755 4.07301 59.1379 4.06363C59.1254 4.01362 59.116 3.9636 59.1035 3.91046C59.3505 3.82294 59.5881 3.71353 59.8381 3.65414C63.014 2.91644 66.096 3.35094 69.1094 4.43873C74.1857 6.27048 78.2837 9.47135 81.7097 13.5725C84.6167 17.0515 86.711 20.9588 87.7363 25.4632C88.4897 25.4163 89.2336 25.3694 90.162 25.3132C88.5897 28.5297 87.0799 31.6274 85.5045 34.847C83.5008 31.9149 81.5659 29.0861 79.5528 26.1384L79.5622 26.1446Z" fill="#888888"/>
<path d="M26.4319 26.6479C26.2787 26.6635 26.1881 26.6791 26.0943 26.6823C25.2816 26.6823 24.472 26.676 23.6593 26.6885C23.428 26.6917 23.3091 26.6073 23.2029 26.4072C22.3589 24.8068 21.5087 23.2126 20.6584 21.6184C20.649 21.5996 20.6303 21.5903 20.6116 21.5684C20.1896 22.3373 19.7707 23.1063 19.3487 23.8721C18.8861 24.7192 18.4172 25.5601 17.9639 26.4103C17.8577 26.6073 17.7358 26.6948 17.5045 26.6885C16.6917 26.676 15.8821 26.6854 15.0694 26.6823C14.9756 26.6823 14.8787 26.6698 14.7975 26.6666C14.7818 26.6323 14.7756 26.6229 14.7725 26.6135C14.7725 26.6041 14.7725 26.5916 14.7725 26.5822C14.7787 26.5604 14.7818 26.5385 14.7943 26.5197C14.8162 26.4822 14.8381 26.4447 14.8631 26.4072C16.2104 24.316 17.5545 22.2217 18.9017 20.1305C18.9079 20.1211 18.9048 20.1086 18.9111 20.068C17.6451 17.9361 16.3635 15.7856 15.0601 13.5912C15.2038 13.5756 15.2851 13.56 15.3695 13.56C16.226 13.56 17.0793 13.5662 17.9358 13.5537C18.1578 13.5506 18.2672 13.6319 18.3641 13.8225C19.1268 15.3636 19.902 16.9015 20.6709 18.4394C20.6834 18.4675 20.7084 18.4894 20.7397 18.5301C20.771 18.4863 20.7991 18.455 20.8178 18.4207C21.6431 16.8859 22.4683 15.3511 23.2841 13.8132C23.3873 13.6225 23.5061 13.5537 23.7218 13.5568C24.4782 13.5693 25.2347 13.56 25.9911 13.5631C26.0787 13.5631 26.1631 13.5725 26.2568 13.5787C26.2975 13.7413 26.185 13.835 26.1224 13.9382C25.1284 15.5636 24.1281 17.1891 23.131 18.8145C22.8778 19.224 22.6277 19.6366 22.3652 20.0649C23.7124 22.2467 25.0565 24.4254 26.4288 26.651L26.4319 26.6479Z" fill="white"/>
</svg>
