<svg width="52" height="31" viewBox="0 0 52 31" fill="none" xmlns="http://www.w3.org/2000/svg">
<path d="M52.0006 5.10371V25.2001C51.7198 25.7872 51.2522 25.996 50.6082 25.996C41.4198 25.984 32.2314 25.9874 23.0447 25.9874C22.1267 25.9874 21.5718 25.4842 21.6814 24.7585C21.7705 24.1645 22.2124 23.8153 22.9231 23.8102C24.1083 23.7999 25.2917 23.8068 26.4769 23.8068C34.0571 23.8068 41.6373 23.8068 49.2193 23.8068H49.805V6.52951C49.5772 6.51924 49.3494 6.50041 49.1217 6.50041C40.5087 6.4987 31.8957 6.50041 23.2828 6.49698C23.0139 6.49698 22.7381 6.49698 22.4778 6.43879C21.988 6.32924 21.6643 5.88935 21.666 5.40325C21.6694 4.92056 22 4.48923 22.4881 4.37455C22.6816 4.32834 22.8906 4.31807 23.091 4.31807C32.2468 4.31464 41.401 4.31807 50.5552 4.30951C51.2077 4.30951 51.7078 4.49437 52.0006 5.102V5.10371Z" fill="white"/>
<path d="M15.1536 24.8834C15.1587 25.3729 14.8796 25.782 14.4137 25.9138C14.2065 25.972 13.9804 25.9857 13.7629 25.9857C9.66796 25.9891 5.57299 25.9891 1.47802 25.9874C0.340819 25.9874 0 25.6434 0 24.5034V5.77981C0 4.67923 0.359658 4.31636 1.45233 4.31465C5.51305 4.31465 9.57376 4.31465 13.6362 4.31636C13.8708 4.31636 14.1123 4.32321 14.3401 4.37285C14.8419 4.48582 15.1485 4.89147 15.1519 5.39812C15.1553 5.90476 14.8573 6.31727 14.3589 6.4388C14.15 6.49014 13.9239 6.49528 13.7064 6.49528C10.0687 6.4987 6.43104 6.4987 2.79335 6.4987H2.1922V23.8034H2.81904C6.42247 23.8034 10.0276 23.8034 13.6311 23.8068C13.8828 23.8068 14.1431 23.8154 14.3846 23.8753C14.8573 23.9917 15.1485 24.399 15.1536 24.8834Z" fill="white"/>
<path d="M21.6486 29.2087C21.6572 29.8164 21.2513 30.2819 20.6159 30.2922C19.1635 30.3162 17.7078 30.3162 16.2537 30.2956C15.6183 30.2871 15.1987 29.8301 15.197 29.2327C15.1953 28.6199 15.644 28.1732 16.2966 28.1492C16.6168 28.1372 16.9371 28.1475 17.3002 28.1475V2.15798C16.9679 2.15798 16.6357 2.16654 16.3034 2.15798C15.6457 2.13744 15.197 1.69584 15.1953 1.08308C15.1936 0.466885 15.6286 0.0167242 16.2966 0.00987766C17.7164 -0.00381545 19.1379 -0.00381545 20.5594 0.0133009C21.2307 0.0218591 21.6538 0.468597 21.6486 1.09335C21.6418 1.70611 21.1913 2.13916 20.532 2.15798C20.2117 2.16654 19.8914 2.15798 19.5369 2.15798V28.1475C19.9051 28.1475 20.2425 28.1355 20.5782 28.1509C21.2033 28.18 21.6401 28.6199 21.6486 29.2104V29.2087Z" fill="white"/>
<path d="M14.1243 11.7688C14.138 12.4158 13.6893 12.8557 12.9443 12.878C12.2883 12.8968 11.6324 12.8814 10.9114 12.8814V13.5318C10.9114 15.5584 10.9199 17.585 10.9062 19.6133C10.8994 20.5735 10.067 21.1212 9.30316 20.6848C8.875 20.44 8.73799 20.0463 8.7397 19.5722C8.74484 17.5456 8.74141 15.519 8.74141 13.4908V12.8848C8.03066 12.8848 7.40554 12.8934 6.78213 12.8831C6.01828 12.8711 5.52504 12.4295 5.53531 11.7825C5.54559 11.1321 6.03541 10.7093 6.80782 10.7059C8.83561 10.7008 10.8634 10.6991 12.8912 10.7059C13.6328 10.7093 14.1089 11.1321 14.1209 11.7688H14.1243Z" fill="white"/>
</svg>
