<svg width="99" height="91" viewBox="0 0 99 91" fill="none" xmlns="http://www.w3.org/2000/svg">
<path d="M60.3393 57.9231V58.3866C60.1007 59.1292 59.5742 59.3835 58.8226 59.37C57.3645 59.343 55.9086 59.3632 54.4504 59.361C53.7258 59.361 53.2375 58.9312 53.1678 58.2584C53.107 57.662 53.5413 57.0905 54.1331 56.996C54.2771 56.9735 54.4234 56.9645 54.5674 56.9645C55.9828 56.9622 57.396 56.9825 58.8114 56.9555C59.5584 56.942 60.0917 57.1895 60.3393 57.9253V57.9231Z" fill="#888888" fill-opacity="0.5"/>
<path d="M40.5034 59.2259C40.3076 59.3137 40.0758 59.3519 39.8598 59.3542C39.106 59.3699 38.3522 59.3609 37.5983 59.3609C36.8017 59.3609 36.0052 59.3677 35.2108 59.3564C34.646 59.3497 34.2095 59.0144 34.0542 58.5059C33.908 58.0221 34.0587 57.4865 34.493 57.2142C34.7203 57.0725 35.0173 56.9757 35.2828 56.9712C36.8243 56.9487 38.3657 56.9555 39.9071 56.9622C40.5439 56.9667 41.0232 57.3335 41.1469 57.8758C41.273 58.4294 41.0209 58.9964 40.5079 59.2237L40.5034 59.2259Z" fill="#888888" fill-opacity="0.5"/>
<path d="M43.0323 63.9649C42.9062 64.1269 42.7555 64.2687 42.6092 64.4127C41.6169 65.4073 40.6223 66.3974 39.6322 67.392C39.3734 67.6508 39.0809 67.8218 38.7028 67.8173C38.2168 67.8038 37.8477 67.5878 37.6317 67.149C37.4202 66.7192 37.4697 66.3029 37.7487 65.9159C37.8027 65.8393 37.868 65.7696 37.9332 65.7021C39.0111 64.6242 40.0867 63.5441 41.1668 62.4685C41.7136 61.9262 42.4337 61.8992 42.9287 62.3942C43.3518 62.815 43.4013 63.4924 43.0323 63.9627V63.9649Z" fill="#888888" fill-opacity="0.5"/>
<path d="M42.9227 53.9357C42.4389 54.4082 41.7143 54.3947 41.199 53.8839C40.0919 52.7881 38.9916 51.6832 37.8935 50.5783C37.5154 50.1981 37.4007 49.7435 37.6032 49.235C37.7832 48.7849 38.222 48.5014 38.7125 48.5059C39.0478 48.5059 39.3314 48.6364 39.5631 48.8682C40.6792 49.9798 41.7976 51.0891 42.9047 52.212C43.4088 52.7228 43.402 53.4676 42.9227 53.9379V53.9357Z" fill="#888888" fill-opacity="0.5"/>
<path d="M56.5882 50.4096C56.5386 50.4793 56.4801 50.5423 56.4216 50.6031C55.3325 51.6944 54.2457 52.7858 53.1498 53.8727C52.585 54.433 51.7974 54.4105 51.3226 53.8344C50.9896 53.4271 50.9671 52.8308 51.2709 52.401C51.3001 52.3583 51.3316 52.3178 51.3676 52.2817C52.5242 51.1251 53.6786 49.9663 54.8397 48.8141C55.0535 48.6026 55.328 48.5036 55.6341 48.5059C56.1201 48.5216 56.4869 48.7376 56.7029 49.1764C56.9144 49.6062 56.8649 50.0225 56.5882 50.4118V50.4096Z" fill="#888888" fill-opacity="0.5"/>
<path d="M48.3567 48.5869C48.3567 49.4015 48.3657 50.2138 48.3545 51.0284C48.3455 51.5482 48.0147 51.96 47.5242 52.1152C47.0449 52.266 46.5071 52.1153 46.2258 51.6945C46.0975 51.5054 45.994 51.2557 45.9917 51.0329C45.9715 49.3992 45.9715 47.7633 45.985 46.1274C45.9917 45.4816 46.5341 44.9955 47.1776 45C47.8099 45.0045 48.3365 45.4861 48.35 46.1206C48.368 46.942 48.3545 47.7656 48.3545 48.5869H48.3567Z" fill="#888888" fill-opacity="0.5"/>
<path d="M48.3586 68.9019C48.3496 69.613 47.8478 70.1238 47.175 70.126C46.491 70.1305 45.9892 69.6175 45.9757 68.8929C45.9689 68.5081 45.9757 68.1211 45.9757 67.7363C45.9757 67.3515 45.9689 66.9645 45.9757 66.5797C45.9892 65.8731 46.4887 65.3556 47.1593 65.3488C47.8298 65.3398 48.3496 65.8709 48.3586 66.5887C48.3676 67.3605 48.3676 68.1323 48.3586 68.9042V68.9019Z" fill="#888888" fill-opacity="0.5"/>
<path d="M78.3984 55.9227V20.966L76.8061 19.3737L67.9108 10.4814L59.0526 1.62323L57.4324 0H12.8847C11.2924 0 10 1.29549 10 2.87853V88.1184C10 89.7076 11.2924 91 12.8847 91H75.5106C77.106 91 78.3984 89.7076 78.3984 88.1184V85.6665H75.9806V88.1184C75.9806 88.3781 75.7703 88.5852 75.5106 88.5852H12.8847C12.6281 88.5852 12.4117 88.3781 12.4117 88.1184V2.87853C12.4117 2.62191 12.6281 2.41166 12.8847 2.41166H55.9298V19.856C55.9298 21.3061 57.1109 22.4872 58.561 22.4872H75.9806V55.9227H78.3984ZM58.561 20.0693C58.4404 20.0693 58.3445 19.9766 58.3445 19.856V4.80786L74.0079 20.0693H58.561Z" fill="#707070"/>
<path d="M15.9013 29.9757C15.8395 30.0808 15.7746 30.1829 15.7065 30.2787H16.1734V29.4284C16.093 29.617 16.0034 29.7995 15.9013 29.9757Z" fill="#D61A1A"/>
<path d="M47.5994 18.9717V40.216C47.5994 40.856 47.0799 41.3723 46.4399 41.3723H1.15945C0.553445 41.3723 0.0556537 40.9085 0.00618375 40.3149C0 40.284 0 40.25 0 40.216V18.9717C0 18.3317 0.519435 17.8123 1.15945 17.8123H46.4399C47.0799 17.8123 47.5994 18.3317 47.5994 18.9717Z" fill="#686868"/>
<path d="M15.9013 29.9757C15.8395 30.0808 15.7746 30.1829 15.7065 30.2787H16.1734V29.4284C16.093 29.617 16.0034 29.7995 15.9013 29.9757Z" fill="#D61A1A"/>
<path d="M88.3721 25.8604C89.2471 25.7924 89.9675 25.7337 90.7992 25.6687C90.6291 24.8092 90.524 23.9589 90.2859 23.1519C87.8001 14.6555 82.6119 8.51192 74.3782 5.08304C72.5386 4.31625 70.5907 3.98851 68.5841 4.05035C68.4449 4.05344 68.3058 4.02871 68.1698 4.01943C68.1574 3.96996 68.1481 3.92049 68.1357 3.86793C68.38 3.78136 68.615 3.67314 68.8623 3.6144C72.0037 2.88471 75.0523 3.31448 78.0328 4.39046C83.054 6.20229 87.1075 9.36837 90.4962 13.4249C93.3716 16.8662 95.4432 20.731 96.4573 25.1864C97.2024 25.14 97.9383 25.0936 98.8566 25.038C97.3014 28.2195 95.808 31.2836 94.2497 34.4682C92.2678 31.568 90.3539 28.7699 88.3628 25.8542L88.3721 25.8604Z" fill="#888888"/>
<path d="M21.4917 35.538C21.4948 35.8905 21.4082 36.0667 21.0465 36.1656C18.6595 36.8118 16.2571 37.1087 13.8269 36.4594C11.1432 35.739 9.37155 33.6891 9.06545 30.9249C8.82119 28.7173 9.18913 26.6519 10.698 24.9174C11.8852 23.5539 13.4374 22.8273 15.1935 22.5367C17.0672 22.2275 18.9223 22.3141 20.7311 22.951C20.8053 22.9788 20.8733 23.0159 21.0063 23.0747C20.7837 23.9218 20.5703 24.7381 20.3601 25.542C19.6397 25.3874 18.9471 25.1926 18.239 25.0936C17.1723 24.9421 16.0964 24.9607 15.0699 25.3503C13.4745 25.9532 12.5902 27.1343 12.4109 28.8163C12.2223 30.591 12.55 32.2111 14.0526 33.383C14.8967 34.0415 15.8892 34.2487 16.9374 34.2239C18.3905 34.1899 18.3905 34.1807 18.3905 32.7615V31.0702H16.2479V28.5875H21.4546C21.4639 28.7637 21.4824 28.9152 21.4824 29.0698C21.4824 31.2248 21.4731 33.383 21.4917 35.5411V35.538Z" fill="white"/>
<path d="M33.2313 25.1122V28.3618H38.234V30.9682H33.1911V36.6387H30.0034V22.5428H38.6019V25.1122H33.2313Z" fill="white"/>
<path d="M27.1651 22.5428H24.0083V36.6511H27.1651V22.5428Z" fill="white"/>
<path d="M89.5007 57.9046H81.0259V66.3794H89.5007V57.9046Z" fill="#707070"/>
<path d="M72.5388 57.9046H64.064V66.3794H72.5388V57.9046Z" fill="#707070"/>
<path d="M81.0446 66.3763H72.5698V74.8511H81.0446V66.3763Z" fill="#707070"/>
<path d="M89.4851 74.8511H81.0103V83.326H89.4851V74.8511Z" fill="#707070"/>
<path d="M72.5232 74.8511H64.0483V83.326H72.5232V74.8511Z" fill="#707070"/>
</svg>
