<svg width="99" height="91" viewBox="0 0 99 91" fill="none" xmlns="http://www.w3.org/2000/svg">
<path d="M60.6724 58.2826V58.7411C60.4364 59.4756 59.9156 59.7271 59.1722 59.7138C57.7299 59.6871 56.2898 59.7071 54.8475 59.7049C54.1308 59.7049 53.6479 59.2797 53.5789 58.6142C53.5188 58.0244 53.9483 57.4591 54.5337 57.3656C54.6762 57.3433 54.8208 57.3344 54.9633 57.3344C56.3633 57.3322 57.7611 57.3522 59.1611 57.3255C59.9 57.3122 60.4275 57.557 60.6724 58.2848V58.2826Z" fill="#888888" fill-opacity="0.5"/>
<path d="M41.0523 59.5713C40.8587 59.6581 40.6294 59.696 40.4157 59.6982C39.6701 59.7138 38.9245 59.7049 38.1788 59.7049C37.3909 59.7049 36.603 59.7115 35.8173 59.7004C35.2586 59.6937 34.8268 59.3621 34.6733 58.8591C34.5286 58.3805 34.6777 57.8508 35.1073 57.5815C35.3321 57.4413 35.6259 57.3455 35.8885 57.3411C37.4132 57.3188 38.9378 57.3255 40.4625 57.3322C41.0924 57.3366 41.5665 57.6994 41.6889 58.2359C41.8135 58.7834 41.5642 59.3443 41.0568 59.5691L41.0523 59.5713Z" fill="#888888" fill-opacity="0.5"/>
<path d="M43.5537 64.2588C43.429 64.419 43.2799 64.5592 43.1352 64.7017C42.1537 65.6855 41.1699 66.6648 40.1905 67.6486C39.9346 67.9046 39.6452 68.0737 39.2713 68.0693C38.7905 68.0559 38.4255 67.8422 38.2118 67.4082C38.0026 66.9831 38.0516 66.5713 38.3276 66.1885C38.381 66.1128 38.4455 66.0438 38.5101 65.9771C39.5762 64.9109 40.6401 63.8425 41.7085 62.7786C42.2494 62.2422 42.9616 62.2155 43.4513 62.7052C43.8697 63.1214 43.9187 63.7913 43.5537 64.2565V64.2588Z" fill="#888888" fill-opacity="0.5"/>
<path d="M43.4454 54.3385C42.9668 54.806 42.2501 54.7926 41.7404 54.2873C40.6453 53.2034 39.5569 52.1105 38.4708 51.0177C38.0968 50.6415 37.9833 50.1919 38.1836 49.6889C38.3617 49.2438 38.7957 48.9633 39.281 48.9678C39.6126 48.9678 39.893 49.0969 40.1223 49.3261C41.2263 50.4256 42.3325 51.5229 43.4276 52.6336C43.9261 53.1389 43.9195 53.8756 43.4454 54.3408V54.3385Z" fill="#888888" fill-opacity="0.5"/>
<path d="M56.9621 50.8507C56.9131 50.9197 56.8553 50.9821 56.7974 51.0422C55.7201 52.1217 54.6451 53.2012 53.5611 54.2762C53.0025 54.8304 52.2235 54.8082 51.7538 54.2384C51.4244 53.8355 51.4021 53.2457 51.7026 52.8206C51.7316 52.7783 51.7627 52.7382 51.7983 52.7026C52.9424 51.5585 54.0842 50.4123 55.2327 49.2727C55.4441 49.0635 55.7157 48.9655 56.0184 48.9677C56.4992 48.9833 56.862 49.197 57.0756 49.631C57.2849 50.0561 57.2359 50.4679 56.9621 50.853V50.8507Z" fill="#888888" fill-opacity="0.5"/>
<path d="M48.8201 49.0479C48.8201 49.8536 48.829 50.6571 48.8179 51.4629C48.809 51.977 48.4818 52.3843 47.9966 52.5379C47.5225 52.687 46.9905 52.5379 46.7123 52.1217C46.5854 51.9347 46.4831 51.6877 46.4808 51.4673C46.4608 49.8514 46.4608 48.2333 46.4742 46.6151C46.4808 45.9763 47.0172 45.4956 47.6538 45.5C48.2793 45.5045 48.8001 45.9808 48.8134 46.6085C48.8312 47.4209 48.8179 48.2355 48.8179 49.0479H48.8201Z" fill="#888888" fill-opacity="0.5"/>
<path d="M48.822 69.1421C48.8131 69.8454 48.3167 70.3507 47.6512 70.3529C46.9746 70.3574 46.4782 69.8499 46.4649 69.1332C46.4582 68.7526 46.4649 68.3698 46.4649 67.9892C46.4649 67.6085 46.4582 67.2257 46.4649 66.8451C46.4782 66.1462 46.9724 65.6343 47.6356 65.6276C48.2989 65.6187 48.8131 66.144 48.822 66.854C48.8309 67.6175 48.8309 68.3809 48.822 69.1443V69.1421Z" fill="#888888" fill-opacity="0.5"/>
<path d="M78.2895 55.9227V20.966L76.6972 19.3737L67.8019 10.4814L58.9437 1.62323L57.3235 0H12.7758C11.1835 0 9.89111 1.29549 9.89111 2.87853V88.1184C9.89111 89.7076 11.1835 91 12.7758 91H75.4017C76.9971 91 78.2895 89.7076 78.2895 88.1184V85.6665H75.8717V88.1184C75.8717 88.3781 75.6614 88.5852 75.4017 88.5852H12.7758C12.5192 88.5852 12.3028 88.3781 12.3028 88.1184V2.87853C12.3028 2.62191 12.5192 2.41166 12.7758 2.41166H55.8209V19.856C55.8209 21.3061 57.002 22.4872 58.4521 22.4872H75.8717V55.9227H78.2895ZM58.4521 20.0693C58.3315 20.0693 58.2356 19.9766 58.2356 19.856V4.80786L73.8991 20.0693H58.4521Z" fill="#707070"/>
<path d="M15.9013 29.9757C15.8395 30.0808 15.7746 30.1829 15.7065 30.2787H16.1734V29.4284C16.093 29.617 16.0034 29.7995 15.9013 29.9757Z" fill="#D61A1A"/>
<path d="M47.5994 18.9717V40.216C47.5994 40.856 47.0799 41.3724 46.4399 41.3724H1.15945C0.553445 41.3724 0.0556537 40.9086 0.00618374 40.3149C0 40.284 0 40.25 0 40.216V18.9717C0 18.3317 0.519435 17.8123 1.15945 17.8123H46.4399C47.0799 17.8123 47.5994 18.3317 47.5994 18.9717Z" fill="#707070"/>
<path d="M15.9013 29.9757C15.8395 30.0808 15.7746 30.1829 15.7065 30.2787H16.1734V29.4284C16.093 29.617 16.0034 29.7995 15.9013 29.9757Z" fill="#D61A1A"/>
<path d="M88.3725 25.8605C89.2475 25.7924 89.9679 25.7337 90.7997 25.6688C90.6296 24.8092 90.5245 23.9589 90.2864 23.152C87.8005 14.6555 82.6124 8.51195 74.3787 5.08307C72.5391 4.31628 70.5912 3.98854 68.5846 4.05038C68.4454 4.05347 68.3063 4.02874 68.1702 4.01946C68.1579 3.96999 68.1486 3.92052 68.1362 3.86796C68.3805 3.78139 68.6155 3.67317 68.8628 3.61443C72.0042 2.88474 75.0528 3.31451 78.0333 4.39049C83.0545 6.20232 87.108 9.3684 90.4967 13.4249C93.3721 16.8662 95.4437 20.731 96.4578 25.1864C97.2029 25.14 97.9388 25.0937 98.8571 25.038C97.3019 28.2196 95.8085 31.2836 94.2502 34.4682C92.2683 31.568 90.3544 28.7699 88.3633 25.8543L88.3725 25.8605Z" fill="#888888"/>
<path d="M85.8241 57.9046H67.7243C65.7025 57.9046 64.0635 59.5436 64.0635 61.5653V79.6652C64.0635 81.687 65.7025 83.326 67.7243 83.326H85.8241C87.8459 83.326 89.4849 81.687 89.4849 79.6652V61.5653C89.4849 59.5436 87.8459 57.9046 85.8241 57.9046Z" fill="#14A085"/>
<path d="M84.4606 77.2876C84.2627 77.3123 84.0586 77.3061 83.8608 77.3061C79.1426 77.3061 74.4213 77.3061 69.7 77.3061C69.4495 77.3061 69.1929 77.3061 68.9517 77.2567C68.4354 77.1453 68.1664 76.762 68.4138 76.3105C69.3599 74.5729 70.3462 72.8507 71.3758 71.1595C71.6942 70.6339 72.291 70.7266 72.6558 71.311C73.1876 72.1612 73.6669 73.0455 74.1739 73.9112C74.2481 74.0411 74.3409 74.1586 74.4676 74.3472C75.522 72.523 76.5485 70.7452 77.5781 68.9673C77.878 68.4448 78.1686 67.9161 78.484 67.4059C79.0189 66.534 79.5847 66.5433 80.1072 67.44C81.647 70.0866 83.1713 72.7394 84.7048 75.3892C84.8409 75.6272 84.9893 75.8622 85.1037 76.1127C85.4005 76.7712 85.1686 77.1917 84.4637 77.2876H84.4606Z" fill="white"/>
<path d="M74.712 65.9187C74.7212 67.0658 73.8277 67.9872 72.693 67.9965C71.5799 68.0027 70.6338 67.0566 70.6338 65.9404C70.6338 64.8459 71.5304 63.9399 72.6342 63.9183C73.7968 63.8936 74.6996 64.7655 74.712 65.9187Z" fill="white"/>
<path d="M21.4917 35.538C21.4948 35.8905 21.4082 36.0667 21.0465 36.1656C18.6595 36.8118 16.2571 37.1087 13.8269 36.4594C11.1432 35.739 9.37155 33.6891 9.06545 30.9249C8.82119 28.7173 9.18913 26.6519 10.698 24.9174C11.8852 23.5539 13.4374 22.8273 15.1935 22.5367C17.0672 22.2275 18.9223 22.3141 20.7311 22.951C20.8053 22.9788 20.8733 23.0159 21.0063 23.0747C20.7837 23.9218 20.5703 24.7381 20.3601 25.542C19.6397 25.3874 18.9471 25.1926 18.239 25.0936C17.1723 24.9421 16.0964 24.9607 15.0699 25.3503C13.4745 25.9532 12.5902 27.1343 12.4109 28.8163C12.2223 30.591 12.55 32.2111 14.0526 33.383C14.8967 34.0415 15.8892 34.2487 16.9374 34.2239C18.3905 34.1899 18.3905 34.1807 18.3905 32.7615V31.0702H16.2479V28.5875H21.4546C21.4639 28.7637 21.4824 28.9152 21.4824 29.0698C21.4824 31.2248 21.4731 33.383 21.4917 35.5411V35.538Z" fill="white"/>
<path d="M33.2318 25.1122V28.3618H38.2345V30.9682H33.1916V36.6387H30.0039V22.5429H38.6024V25.1122H33.2318Z" fill="white"/>
<path d="M27.1656 22.5429H24.0088V36.6511H27.1656V22.5429Z" fill="white"/>
</svg>
