<svg width="55" height="34" viewBox="0 0 55 34" fill="none" xmlns="http://www.w3.org/2000/svg">
<path d="M21.6375 3.91756L18.3277 0.605809L17.7219 0H1.07834C0.482628 0 0 0.482625 0 1.07632V32.9237C0 33.5174 0.482628 34 1.07834 34H24.4767C25.0724 34 25.555 33.5174 25.555 32.9237V7.83311L21.6375 3.91756ZM18.0632 1.79723L23.9153 7.49991H18.144C18.0995 7.49991 18.0632 7.46356 18.0632 7.41913V1.79723ZM24.6524 32.9237C24.6524 33.0206 24.5736 33.0994 24.4767 33.0994H1.07834C0.98141 33.0994 0.900636 33.0206 0.900636 32.9237V1.07632C0.900636 0.981407 0.98141 0.902655 1.07834 0.902655H17.1605V7.41913C17.1605 7.96032 17.6008 8.40256 18.144 8.40256H24.6524V32.9237Z" fill="#1E1E1E"/>
<path d="M50.6843 3.91756L47.3746 0.605809L46.7688 0H30.1252C29.5295 0 29.0469 0.482625 29.0469 1.07632V32.9237C29.0469 33.5174 29.5295 34 30.1252 34H53.5236C54.1193 34 54.6019 33.5174 54.6019 32.9237V7.83311L50.6843 3.91756ZM47.1101 1.79723L52.9622 7.49991H47.1908C47.1464 7.49991 47.1101 7.46356 47.1101 7.41913V1.79723ZM53.6993 32.9237C53.6993 33.0206 53.6205 33.0994 53.5236 33.0994H30.1252C30.0283 33.0994 29.9475 33.0206 29.9475 32.9237V1.07632C29.9475 0.981407 30.0283 0.902655 30.1252 0.902655H46.2074V7.41913C46.2074 7.96032 46.6476 8.40256 47.1908 8.40256H53.6993V32.9237Z" fill="#1E1E1E"/>
</svg>
