<svg width="36" height="30" viewBox="0 0 36 30" fill="none" xmlns="http://www.w3.org/2000/svg">
<path d="M33.7285 7.8699C29.628 12.3689 25.5637 16.8249 21.4309 21.3586C19.5187 19.5586 17.7012 17.8467 15.793 16.0508C19.8814 11.5661 23.9457 7.10608 28.0845 2.5641C29.9786 4.34362 31.8142 6.0699 33.7285 7.8699Z" fill="white"/>
<path d="M20.706 22.4337C19.7449 22.8412 18.9812 23.345 18.1571 23.4801C15.7653 23.8733 15.7572 23.8139 13.849 25.2003C13.583 24.9566 13.309 24.7088 13.0349 24.461C12.8878 24.3259 12.7367 24.1948 12.5332 24.0187C13.6213 22.616 14.0868 21.1027 14.0021 19.3436C13.9659 18.5982 14.4495 17.8262 14.7658 16.8556C16.7889 18.7559 18.6205 20.476 20.706 22.4337Z" fill="white"/>
<path d="M35.5682 5.83032C35.2781 6.20097 34.9415 6.53476 34.5285 6.99141C32.6283 5.2037 30.7967 3.48151 28.8945 1.69175C29.2693 1.2781 29.5796 0.884926 29.9403 0.547042C30.6697 -0.134869 31.5523 -0.196302 32.2999 0.458988C33.388 1.41325 34.4438 2.40848 35.4675 3.43237C36.1546 4.11837 36.1667 5.0665 35.5682 5.83032Z" fill="white"/>
<path d="M12.0195 27.8522C10.8548 29.132 9.70223 30.1518 7.81417 29.9819C5.58558 29.7812 3.32677 29.9122 1.08206 29.947C0.312325 29.9593 0 29.7115 0 28.8965C0 28.0815 0.308295 27.8358 1.07803 27.8399C4.72518 27.8685 8.37233 27.8522 12.0195 27.8522Z" fill="white"/>
<path d="M13.2154 25.8986C12.4214 27.0023 11.8552 27.1457 10.082 26.6644C10.7006 25.9846 11.2709 25.358 11.9076 24.6576C12.4114 25.1368 12.8184 25.5218 13.2154 25.8986Z" fill="white"/>
</svg>
