<svg width="41" height="42" viewBox="0 0 41 42" fill="none" xmlns="http://www.w3.org/2000/svg">
<path d="M40.9682 18.7225C40.8821 17.7982 40.3487 17.1527 39.6917 16.5484C36.4014 13.5135 33.1279 10.46 29.8488 7.41024C27.7545 5.4625 25.6489 3.52411 23.5713 1.55766C22.9818 1.00009 22.3829 0.483687 21.6005 0.244194C19.9198 -0.268468 18.3869 0.0103156 17.1011 1.23023C15.1415 3.0919 13.2175 4.991 11.2747 6.87139C7.8122 10.2261 4.3478 13.5772 0.885282 16.9319C0.439834 17.3641 0.149731 17.8843 0.0580206 18.5055C0.0486625 18.5672 0.0187163 18.6252 0 18.687V19.1884C0.0711221 19.4466 0.112298 19.7179 0.215238 19.9611C0.698119 21.1043 1.5834 21.6806 2.81119 21.7386C3.20985 21.7573 3.61038 21.7554 4.01091 21.7386C4.24112 21.7292 4.31224 21.8022 4.31037 22.0361C4.29914 23.1606 4.30476 24.2851 4.30476 25.4096C4.30476 29.4342 4.30476 33.4569 4.30476 37.4815C4.30476 39.7884 5.8264 41.5753 8.10043 41.9439C8.15471 41.9514 8.20337 41.9794 8.25577 42H15.8977C15.9632 41.9719 16.0268 41.9383 16.096 41.9177C16.8316 41.6894 17.2827 41.0869 17.2827 40.3179C17.2845 36.8996 17.2827 33.4831 17.2883 30.0647C17.2883 29.857 17.3257 29.6362 17.4024 29.4454C17.5147 29.1647 17.7487 29.0207 18.0613 29.0207C19.6671 29.0207 21.2749 29.0169 22.8826 29.0207C23.3149 29.0207 23.65 29.335 23.7061 29.7766C23.7211 29.8963 23.7173 30.0179 23.7173 30.1377C23.7173 33.4625 23.7173 36.7873 23.7173 40.1121C23.7173 41.1786 24.0112 41.5959 25.0106 41.9607C25.0256 41.9663 25.035 41.9869 25.0462 42H32.6881C33.0792 41.8934 33.4835 41.8185 33.8616 41.6726C35.5816 41.0065 36.6859 39.3899 36.6878 37.5432C36.6915 32.4147 36.6896 27.2862 36.6896 22.1577C36.6896 21.882 36.8319 21.7442 37.1164 21.7442C37.4776 21.7442 37.8407 21.7517 38.2038 21.7405C39.6281 21.6937 40.7249 20.7189 40.9401 19.3175C40.9551 19.2183 40.9794 19.1192 41 19.0219V18.7992C40.9888 18.773 40.9719 18.7487 40.9682 18.7225ZM38.0802 19.3381C37.4851 19.3437 36.8899 19.3381 36.2947 19.3381C35.6995 19.3381 35.1605 19.3512 34.5934 19.3325C34.3407 19.325 34.2827 19.4092 34.2846 19.6487C34.2846 20.4251 34.2865 21.2016 34.2883 21.9781C34.2883 23.0146 34.2883 24.0512 34.2883 25.0859C34.2883 26.2665 34.2883 27.4471 34.2883 28.6259C34.2883 30.0853 34.2883 31.5447 34.2883 33.0041C34.2883 34.4635 34.2883 35.9229 34.2883 37.3823C34.2883 38.4881 33.6669 39.3413 32.6787 39.5789C32.4916 39.6238 32.2913 39.6331 32.0985 39.6331C29.9611 39.6369 27.8218 39.635 25.6826 39.635C25.4355 39.635 25.312 39.5146 25.312 39.2739C25.312 35.8911 25.312 32.5064 25.312 29.1236C25.312 28.3377 24.8703 27.7184 24.1684 27.5313C23.9831 27.4808 23.7828 27.464 23.5901 27.4621C21.5257 27.4583 19.4612 27.4621 17.3987 27.4583C16.9196 27.4583 16.4779 27.5519 16.111 27.8868C15.7311 28.233 15.5626 28.6633 15.5626 29.1778C15.5664 32.5419 15.5626 35.9079 15.5626 39.272C15.5626 39.635 15.5626 39.635 15.1977 39.635C13.0977 39.635 10.994 39.6013 8.894 39.6481C7.68493 39.6743 6.63681 38.7107 6.64243 37.3804C6.66301 31.4979 6.65178 25.6135 6.65178 19.7291C6.65178 19.4684 6.52264 19.3374 6.26436 19.3362C5.16758 19.3362 4.0708 19.3343 2.97403 19.3362C2.75692 19.3362 2.55478 19.3081 2.46307 19.0836C2.37136 18.8572 2.50425 18.6982 2.65959 18.5485C7.19269 14.1591 11.7239 9.76774 16.2551 5.37643C17.0749 4.58124 17.8984 3.78793 18.7182 2.99087C19.5211 2.21439 20.7321 2.18258 21.5425 2.93474C24.7898 5.95271 28.0333 8.97443 31.2806 11.9924C33.607 14.1572 35.9372 16.3201 38.2618 18.4868C38.3685 18.5859 38.4827 18.7 38.5332 18.831C38.638 19.0967 38.4209 19.3306 38.0784 19.3343L38.0802 19.3381Z" fill="white"/>
</svg>
