<svg width="33" height="44" viewBox="0 0 33 44" fill="none" xmlns="http://www.w3.org/2000/svg">
<path d="M27.9411 5.06979L23.6672 0.783988L22.8849 0H1.39249C0.623232 0 0 0.624577 0 1.39288V42.6071C0 43.3754 0.623232 44 1.39249 44H31.6075C32.3768 44 33 43.3754 33 42.6071V10.137L27.9411 5.06979ZM23.3256 2.32583L30.8826 9.70577H23.4299C23.3725 9.70577 23.3256 9.65873 23.3256 9.60124V2.32583ZM31.8344 42.6071C31.8344 42.7326 31.7327 42.8345 31.6075 42.8345H1.39249C1.26733 42.8345 1.16302 42.7326 1.16302 42.6071V1.39288C1.16302 1.27006 1.26733 1.16814 1.39249 1.16814H22.1599V9.60124C22.1599 10.3016 22.7284 10.8739 23.4299 10.8739H31.8344V42.6071Z" fill="white"/>
<path d="M17.2441 36V16H15.8787L15.8787 36H17.2441Z" fill="white"/>
<path d="M27.6627 26.3379C26.5935 27.4145 25.5192 28.486 24.437 29.5548C24.1632 29.824 23.7929 29.8136 23.5451 29.5627C23.3052 29.317 23.3026 28.9355 23.566 28.6663C24.1945 28.0287 24.8307 27.4015 25.4618 26.7691C25.5322 26.6985 25.5974 26.6227 25.7095 26.5025H25.321C21.1461 26.5025 25.0993 26.5025 20.9244 26.5025C20.8097 26.5025 20.695 26.5103 20.5828 26.4947C20.2673 26.4529 20.0378 26.1811 20.0431 25.8701C20.0457 25.5565 20.2804 25.2952 20.5985 25.2586C20.7002 25.2455 20.8071 25.2534 20.9088 25.2534C25.0837 25.2534 21.1305 25.2534 25.3053 25.2534H25.6965C25.6078 25.1514 25.5557 25.0809 25.4957 25.0208C24.8568 24.3805 24.2101 23.7455 23.5764 23.1C23.227 22.7446 23.3261 22.2246 23.7616 22.0495C24.0119 21.9502 24.2362 22.0024 24.4213 22.188C25.5061 23.2646 26.5909 24.3413 27.6679 25.4258C27.9495 25.7107 27.9443 26.053 27.6574 26.3405L27.6627 26.3379Z" fill="white"/>
<path d="M5.33822 26.3379C6.40736 27.4145 7.48172 28.486 8.5639 29.5548C8.8377 29.824 9.20799 29.8136 9.45572 29.5627C9.69562 29.317 9.69823 28.9355 9.43486 28.6663C8.80641 28.0287 8.17014 27.4015 7.53909 26.7691C7.46868 26.6985 7.40349 26.6227 7.29136 26.5025H7.6799C11.8548 26.5025 7.90155 26.5025 12.0764 26.5025C12.1912 26.5025 12.3059 26.5103 12.418 26.4947C12.7336 26.4529 12.963 26.1811 12.9578 25.8701C12.9552 25.5565 12.7205 25.2952 12.4024 25.2586C12.3007 25.2455 12.1938 25.2534 12.0921 25.2534C7.9172 25.2534 11.8704 25.2534 7.69555 25.2534H7.3044C7.39306 25.1514 7.44521 25.0809 7.50519 25.0208C8.14406 24.3805 8.79076 23.7455 9.42443 23.1C9.77385 22.7446 9.67476 22.2246 9.23928 22.0495C8.98895 21.9502 8.76469 22.0024 8.57954 22.188C7.49476 23.2646 6.40997 24.3413 5.333 25.4258C5.05137 25.7107 5.05659 26.053 5.34343 26.3405L5.33822 26.3379Z" fill="white"/>
</svg>
