<svg width="34" height="44" viewBox="0 0 34 44" fill="none" xmlns="http://www.w3.org/2000/svg">
<path d="M28.0014 5.06979L23.7182 0.783988L22.9343 0H1.3955C0.624577 0 0 0.624577 0 1.39288V42.6071C0 43.3754 0.624577 44 1.3955 44H31.6757C32.4466 44 33.0712 43.3754 33.0712 42.6071V10.137L28.0014 5.06979ZM23.3759 2.32583L30.9492 9.70577H23.4804C23.4229 9.70577 23.3759 9.65873 23.3759 9.60124V2.32583ZM31.9031 42.6071C31.9031 42.7326 31.8012 42.8345 31.6757 42.8345H1.3955C1.27006 42.8345 1.16553 42.7326 1.16553 42.6071V1.39288C1.16553 1.27006 1.27006 1.16814 1.3955 1.16814H22.2078V9.60124C22.2078 10.3016 22.7775 10.8739 23.4804 10.8739H31.9031V42.6071Z" fill="white"/>
<path d="M27.235 21.399H5.83594V23.399H27.235V21.399Z" fill="white"/>
<path d="M27.235 28.2078H5.83594V30.2078H27.235V28.2078Z" fill="white"/>
<path d="M27.235 35.0166H5.83594V37.0166H27.235V35.0166Z" fill="white"/>
</svg>
