<svg width="97" height="92" viewBox="0 0 97 92" fill="none" xmlns="http://www.w3.org/2000/svg">
<path d="M57.2831 70.3785C56.8655 70.4317 56.4387 70.4192 56.015 70.4192C46.0555 70.4192 36.096 70.4191 26.1365 70.4129C25.6076 70.4129 25.0694 70.4191 24.556 70.3097C23.4703 70.0722 22.8981 69.2532 23.4177 68.2936C25.4158 64.5863 27.4974 60.9166 29.6687 57.3093C30.343 56.1903 31.6018 56.3841 32.372 57.6313C33.4948 59.4474 34.5093 61.3292 35.5733 63.1766C35.731 63.4516 35.9259 63.7048 36.195 64.1049C38.4188 60.2133 40.587 56.4247 42.7552 52.6331C43.3924 51.5203 43.9986 50.395 44.6667 49.3009C45.7957 47.4442 46.9865 47.4598 48.0907 49.3728C51.3383 55.015 54.5581 60.6728 57.7903 66.3274C58.0811 66.8338 58.3904 67.3371 58.6316 67.8716C59.2564 69.2751 58.7708 70.1722 57.28 70.3785H57.2831Z" fill="#888888" fill-opacity="0.5"/>
<path d="M36.7081 46.1376C36.7298 48.5851 34.8399 50.5513 32.449 50.57C30.1014 50.5857 28.1003 48.5695 28.1065 46.1845C28.1096 43.8494 29.9994 41.9177 32.3253 41.8739C34.775 41.8239 36.6834 43.6838 36.7081 46.1376Z" fill="#888888" fill-opacity="0.5"/>
<path d="M72.868 64.43H72.0051V67.3746H72.6979C73.3567 67.3746 73.9351 67.4652 74.4238 67.6465V64.5519C73.9351 64.4706 73.4155 64.43 72.868 64.43ZM72.7443 75.7737H72.0051V78.7183H72.8773C73.4217 78.7183 73.9382 78.6776 74.4238 78.5964V75.508C73.9413 75.6862 73.3815 75.7737 72.7443 75.7737ZM74.4238 56.5372V21.1964L72.8309 19.5866L63.9323 10.5966L55.0709 1.64107L53.4501 0H8.88919C7.29629 0 6.00342 1.30973 6.00342 2.91017V89.0867C6.00342 90.6934 7.29629 92 8.88919 92H71.538C73.134 92 74.4269 90.6934 74.4269 89.0867V86.6079H72.0082V89.0867C72.0082 89.3493 71.7979 89.5587 71.538 89.5587H8.88919C8.63247 89.5587 8.41596 89.3493 8.41596 89.0867V2.91017C8.41596 2.65072 8.63247 2.43816 8.88919 2.43816H51.95V20.0742C51.95 21.5402 53.1316 22.7343 54.5822 22.7343H72.0082V56.5372H74.4269H74.4238ZM54.5791 20.2899C54.4585 20.2899 54.3626 20.1961 54.3626 20.0742V4.8607L70.0318 20.2899H54.5791Z" fill="#14A085"/>
<path d="M47.6168 11.2468V32.7246C47.6168 33.3716 47.0972 33.8936 46.457 33.8936H1.15988C0.553648 33.8936 0.0556741 33.4247 0.00618601 32.8246C0 32.7933 0 32.7589 0 32.7246V11.2468C0 10.5998 0.519625 10.0746 1.15988 10.0746H46.457C47.0972 10.0746 47.6168 10.5998 47.6168 11.2468Z" fill="#14A085"/>
<path d="M84.7301 26.1446C85.6054 26.0758 86.3261 26.0164 87.1581 25.9508C86.988 25.0818 86.8828 24.2222 86.6446 23.4064C84.1579 14.8165 78.9678 8.60546 70.7311 5.13889C68.8908 4.36368 66.9422 4.03234 64.9348 4.09486C64.7956 4.09798 64.6564 4.07298 64.5204 4.0636C64.508 4.01359 64.4987 3.96357 64.4863 3.91043C64.7307 3.82291 64.9657 3.7135 65.2132 3.65411C68.3557 2.91641 71.4054 3.35091 74.387 4.4387C79.4101 6.27045 83.465 9.47132 86.855 13.5724C89.7315 17.0515 91.8038 20.9588 92.8183 25.4632C93.5637 25.4163 94.2998 25.3694 95.2184 25.3131C93.6627 28.5296 92.1687 31.6273 90.6099 34.847C88.6273 31.9149 86.7127 29.086 84.7208 26.1383L84.7301 26.1446Z" fill="#888888"/>
<path d="M39.745 27.6575C39.745 27.8044 39.6213 28.0482 39.5069 28.0826C37.2211 28.789 34.9014 29.0766 32.5507 28.4327C29.9928 27.7294 28.3256 25.6757 28.1122 22.9937C27.9607 21.0838 28.27 19.2833 29.4948 17.7423C30.6516 16.2856 32.2136 15.5386 33.9982 15.2572C35.7056 14.9884 37.4005 15.0947 39.0491 15.673C39.1172 15.698 39.1821 15.7355 39.3027 15.7918C39.1017 16.5763 38.8975 17.3703 38.7243 18.0392C37.6665 17.8986 36.6706 17.7141 35.6684 17.6454C34.7158 17.5797 33.7941 17.8017 32.9713 18.3331C31.6104 19.2146 31.1867 20.5618 31.2207 22.0997C31.2424 23.0343 31.4465 23.9283 32.0001 24.7035C32.8724 25.9258 34.1096 26.3634 35.5416 26.3196C36.8531 26.2821 36.8531 26.2602 36.8531 24.9442V23.3438H34.8519V21.0119H39.7172C39.7296 21.137 39.7481 21.2526 39.7481 21.3683C39.7481 23.4657 39.7543 25.5632 39.7388 27.6606L39.745 27.6575Z" fill="white"/>
<path d="M24.8145 15.8731C24.0505 15.448 23.2123 15.2323 22.3587 15.2323C20.8153 15.2323 19.2749 15.3385 17.7346 15.3823C17.3635 15.3917 17.2397 15.498 17.2397 15.8981C17.2552 19.9898 17.249 24.0815 17.249 28.1733V28.6015H20.2276V23.8659C20.9204 23.8659 21.5514 23.9003 22.1793 23.8596C24.9197 23.6814 26.4909 22.206 26.7538 19.6085C26.9054 18.1143 26.1167 16.5983 24.8145 15.8762V15.8731ZM22.2442 21.4433C21.6782 21.5652 21.0782 21.534 20.4936 21.5434C20.407 21.5434 20.2431 21.3777 20.2431 21.287C20.2276 20.0555 20.2307 18.8239 20.2307 17.5767C20.9947 17.411 21.7246 17.3829 22.4422 17.5829C23.3268 17.8299 23.7969 18.4957 23.7876 19.4365C23.7815 20.4462 23.2216 21.2339 22.2411 21.4465L22.2442 21.4433Z" fill="white"/>
<path d="M14.7447 23.7439C14.7324 24.5348 14.621 25.3506 14.4107 26.1133C14.0241 27.5199 13.059 28.3702 11.6394 28.6796C10.3805 28.9547 9.13402 28.8922 7.86279 28.5452C7.97414 27.7262 8.0824 26.9385 8.19065 26.1446C8.62058 26.2008 9.00721 26.2696 9.40002 26.304C10.9187 26.4321 11.661 25.782 11.7445 24.2347C11.7785 23.5814 11.7631 22.9281 11.7662 22.2716C11.7662 20.1148 11.7662 17.958 11.7662 15.8011V15.2854H14.7324C14.7416 15.4135 14.7602 15.5386 14.7602 15.6667C14.7602 18.3581 14.7849 21.0526 14.7447 23.7439Z" fill="white"/>
<path d="M96.9998 60.1726V81.891C96.9998 82.5443 96.4739 83.0726 95.8275 83.0726H50.0263C49.4138 83.0726 48.9097 82.5974 48.8602 81.991C48.854 81.9597 48.854 81.9254 48.854 81.891V60.1726C48.854 59.5193 49.3798 58.9879 50.0263 58.9879H95.8275C96.4739 58.9879 96.9998 59.5193 96.9998 60.1726Z" fill="#707070"/>
<path d="M79.1811 78.2494C77.9624 78.2494 76.8118 78.2588 75.6582 78.2338C75.5375 78.2338 75.3829 78.0493 75.3148 77.9118C74.5818 76.4552 73.8642 74.9891 73.1404 73.5294C73.0724 73.3887 72.9982 73.2512 72.893 73.048C72.5651 73.8044 72.2744 74.5015 71.9651 75.1892C71.5537 76.1113 71.1455 77.0303 70.7093 77.9368C70.6444 78.0743 70.4526 78.2338 70.3165 78.2338C69.2092 78.2588 68.0988 78.2463 66.9111 78.2463C67.0194 78.0462 67.0936 77.8962 67.1771 77.7493C68.3741 75.6331 69.5587 73.5137 70.7774 71.41C70.9846 71.0537 70.963 70.8067 70.765 70.4598C69.6082 68.4311 68.4793 66.3899 67.3411 64.3519C67.2575 64.1987 67.1771 64.0455 67.0472 63.8048H68.5597C69.1474 63.8048 69.735 63.8236 70.3196 63.7955C70.6382 63.783 70.796 63.8861 70.929 64.1831C71.6218 65.7085 72.3425 67.2245 73.1002 68.8406C73.425 68.0591 73.7034 67.3496 74.0096 66.6525C74.3807 65.8023 74.7674 64.9583 75.1726 64.1237C75.2406 63.9861 75.4262 63.8173 75.5623 63.8173C76.6727 63.7923 77.78 63.8017 78.9584 63.8017C78.8594 64.0018 78.7945 64.1549 78.711 64.3019C77.5387 66.3555 76.3696 68.4123 75.1818 70.4598C75.0148 70.7442 75.0117 70.9505 75.1787 71.2381C76.4345 73.3949 77.6686 75.5612 78.9058 77.7242C78.9893 77.8743 79.0636 78.0275 79.1749 78.24L79.1811 78.2494Z" fill="white"/>
<path d="M90.9341 63.8549V66.5494H87.0988V78.215H83.8418V66.5744H80.0034V63.8549H90.9341Z" fill="white"/>
<path d="M65.8192 63.8361V66.5493H61.9777V78.215H58.73V66.5837H54.9194V63.8361H65.8192Z" fill="white"/>
</svg>
