<svg width="30" height="26" viewBox="0 0 30 26" fill="none" xmlns="http://www.w3.org/2000/svg">
<path d="M27.9234 0.199997H2.0766C0.762474 0.199997 0 0.964833 0 2.28655C0 9.49434 0 16.7057 0 23.917C0 25.2352 0.762474 26 2.0766 26H27.9234C29.2375 26 30 25.2352 30 23.9134C30 16.7021 30 9.49434 30 2.28303C30 0.964833 29.2375 0.199997 27.9199 0.199997L27.9234 0.199997ZM27.8602 20.6497C26.5074 19.187 25.2214 17.8018 23.9389 16.4166C23.0499 15.4579 22.1644 14.4957 21.272 13.537C20.7309 12.9555 20.1862 12.9097 19.5643 13.4066C19.1813 13.7133 18.8124 14.0411 18.4364 14.3548C17.6423 15.0209 17.1434 14.9998 16.4231 14.2279C15.2776 13.0048 14.1497 11.7642 13.0112 10.5306C12.1469 9.59656 11.2474 9.6177 10.4357 10.5975C7.78637 13.8014 5.13703 17.0088 2.49122 20.2126C2.39635 20.3289 2.29445 20.4452 2.14336 20.6285V3.42852C2.14336 2.67073 2.46311 2.35 3.21855 2.35C11.0717 2.35 18.9283 2.35 26.7815 2.35C27.5158 2.35 27.8391 2.66016 27.8391 3.37565C27.8461 9.01852 27.8496 14.6579 27.8531 20.3007V20.6497H27.8602Z" fill="white"/>
<path d="M25.7137 7.7109C25.7207 9.48729 24.2801 10.9429 22.5127 10.9465C20.7453 10.9535 19.2942 9.50491 19.2871 7.73557C19.2801 5.95918 20.7207 4.50352 22.4881 4.5C24.259 4.49295 25.7067 5.93803 25.7137 7.7109Z" fill="white"/>
</svg>
