<svg width="97" height="92" viewBox="0 0 97 92" fill="none" xmlns="http://www.w3.org/2000/svg">
<path d="M57.6246 70.3785C57.2045 70.4316 56.7751 70.4191 56.3489 70.4191C46.3299 70.4191 36.311 70.4191 26.2921 70.4129C25.76 70.4129 25.2186 70.4191 24.7021 70.3097C23.61 70.0722 23.0344 69.2532 23.5571 68.2936C25.5671 64.5863 27.6611 60.9166 29.8454 57.3093C30.5237 56.1903 31.79 56.3841 32.5648 57.6313C33.6943 59.4474 34.7148 61.3292 35.7852 63.1765C35.9439 63.4516 36.1399 63.7048 36.4106 64.1049C38.6477 60.2132 40.8289 56.4247 43.01 52.6331C43.651 51.5203 44.2608 50.3949 44.9329 49.3009C46.0686 47.4441 47.2665 47.4598 48.3773 49.3728C51.6443 55.0149 54.8834 60.6727 58.1348 66.3274C58.4273 66.8338 58.7385 67.337 58.9812 67.8716C59.6097 69.2751 59.1212 70.1722 57.6215 70.3785H57.6246Z" fill="#888888" fill-opacity="0.5"/>
<path d="M36.9269 46.1375C36.9487 48.5851 35.0476 50.5512 32.6424 50.57C30.2808 50.5856 28.2677 48.5694 28.2739 46.1844C28.2771 43.8494 30.1782 41.9176 32.518 41.8739C34.9823 41.8239 36.902 43.6837 36.9269 46.1375Z" fill="#888888" fill-opacity="0.5"/>
<path d="M74.8715 56.5372V21.1964L73.2691 19.5866L64.3174 10.5966L55.403 1.64107L53.7726 0H8.94255C7.34015 0 6.03955 1.30973 6.03955 2.91017V89.0867C6.03955 90.6934 7.34015 92 8.94255 92H71.9654C73.5709 92 74.8715 90.6934 74.8715 89.0867V86.6079H72.4383V89.0867C72.4383 89.3493 72.2267 89.5587 71.9654 89.5587H8.94255C8.6843 89.5587 8.4665 89.3493 8.4665 89.0867V2.91017C8.4665 2.65072 8.6843 2.43816 8.94255 2.43816H52.2604V20.0742C52.2604 21.5402 53.449 22.7343 54.9083 22.7343H72.4383V56.5372H74.8715ZM54.9083 20.2899C54.7869 20.2899 54.6905 20.1961 54.6905 20.0742V4.8607L70.4532 20.2899H54.9083Z" fill="#14A085"/>
<path d="M47.9011 11.2468V32.7245C47.9011 33.3716 47.3783 33.8936 46.7343 33.8936H1.1668C0.556953 33.8936 0.0560065 33.4247 0.00622294 32.8245C0 32.7933 0 32.7589 0 32.7245V11.2468C0 10.5998 0.522727 10.0746 1.1668 10.0746H46.7343C47.3783 10.0746 47.9011 10.5998 47.9011 11.2468Z" fill="#14A085"/>
<path d="M85.2357 26.1446C86.1162 26.0758 86.8412 26.0164 87.6782 25.9508C87.507 25.0818 87.4012 24.2222 87.1617 23.4064C84.66 14.8165 79.439 8.60546 71.1531 5.13889C69.3018 4.36368 67.3416 4.03234 65.3223 4.09486C65.1822 4.09798 65.0422 4.07298 64.9053 4.0636C64.8929 4.01359 64.8835 3.96357 64.8711 3.91043C65.1169 3.82291 65.3534 3.7135 65.6023 3.65411C68.7635 2.91641 71.8314 3.35091 74.8309 4.4387C79.8839 6.27045 83.9631 9.47132 87.3732 13.5724C90.2669 17.0515 92.3516 20.9588 93.3722 25.4632C94.122 25.4163 94.8625 25.3694 95.7867 25.3131C94.2216 28.5296 92.7187 31.6273 91.1506 34.847C89.1561 31.9149 87.2301 29.086 85.2263 26.1383L85.2357 26.1446Z" fill="#888888"/>
<path d="M39.9826 27.6575C39.9826 27.8044 39.8582 28.0483 39.7431 28.0826C37.4437 28.7891 35.1101 29.0767 32.7454 28.4327C30.1722 27.7294 28.4951 25.6757 28.2804 22.9938C28.128 21.0839 28.4391 19.2834 29.6712 17.7423C30.8349 16.2857 32.4062 15.5386 34.2015 15.2573C35.9191 14.9885 37.6242 15.0947 39.2826 15.673C39.351 15.698 39.4164 15.7355 39.5377 15.7918C39.3355 16.5764 39.1301 17.3703 38.9559 18.0393C37.8917 17.8986 36.8898 17.7142 35.8817 17.6454C34.9234 17.5798 33.9962 17.8017 33.1685 18.3331C31.7995 19.2146 31.3732 20.5618 31.4074 22.0998C31.4292 23.0344 31.6346 23.9284 32.1915 24.7036C33.069 25.9258 34.3136 26.3634 35.7542 26.3197C37.0734 26.2821 37.0734 26.2603 37.0734 24.9443V23.3438H35.0603V21.012H39.9546C39.9671 21.137 39.9858 21.2527 39.9858 21.3683C39.9858 23.4658 39.992 25.5632 39.9764 27.6606L39.9826 27.6575Z" fill="white"/>
<path d="M24.9637 15.8731C24.1952 15.448 23.352 15.2323 22.4932 15.2323C20.9406 15.2323 19.3911 15.3385 17.8416 15.3823C17.4682 15.3917 17.3438 15.498 17.3438 15.8981C17.3593 19.9898 17.3531 24.0815 17.3531 28.1733V28.6015H20.3494V23.8659C21.0464 23.8659 21.6811 23.9003 22.3128 23.8596C25.0695 23.6814 26.6502 22.206 26.9146 19.6085C27.0671 18.1143 26.2737 16.5983 24.9637 15.8762V15.8731ZM22.3781 21.4433C21.8087 21.5652 21.2051 21.534 20.617 21.5434C20.5299 21.5434 20.365 21.3777 20.365 21.287C20.3494 20.0555 20.3525 18.8239 20.3525 17.5767C21.1211 17.411 21.8554 17.3829 22.5772 17.5829C23.4671 17.8299 23.9401 18.4957 23.9307 19.4365C23.9245 20.4462 23.3613 21.2339 22.375 21.4465L22.3781 21.4433Z" fill="white"/>
<path d="M14.8327 23.7439C14.8202 24.5348 14.7082 25.3506 14.4966 26.1133C14.1077 27.52 13.1369 28.3702 11.7088 28.6797C10.4424 28.9547 9.18848 28.8922 7.90967 28.5453C8.02168 27.7263 8.13058 26.9386 8.23948 26.1446C8.67198 26.2009 9.06091 26.2696 9.45607 26.304C10.9838 26.4322 11.7306 25.782 11.8146 24.2347C11.8488 23.5814 11.8332 22.9281 11.8363 22.2717C11.8363 20.1148 11.8363 17.958 11.8363 15.8012V15.2854H14.8202C14.8296 15.4136 14.8482 15.5386 14.8482 15.6668C14.8482 18.3581 14.8731 21.0526 14.8327 23.7439Z" fill="white"/>
<path d="M97.0002 60.2976V81.7753C97.0002 82.4224 96.4775 82.9444 95.8334 82.9444H50.2659C49.6561 82.9444 49.1551 82.4755 49.1053 81.8754C49.0991 81.8441 49.0991 81.8097 49.0991 81.7753V60.2976C49.0991 59.6506 49.6218 59.1254 50.2659 59.1254H95.8334C96.4775 59.1254 97.0002 59.6506 97.0002 60.2976Z" fill="#FBBE41"/>
<path d="M69.9487 75.5674V78.1712H59.0243C58.9808 77.2554 58.9683 76.427 59.5751 75.5924C61.5788 72.8292 63.4831 69.9909 65.4246 67.1808C65.5211 67.0432 65.6082 66.8994 65.7513 66.6806H59.6622V64.0518H69.8429C69.8647 64.9895 69.9456 65.8554 69.3171 66.7275C67.3506 69.4595 65.4869 72.2696 63.5857 75.0485C63.4924 75.1861 63.4022 75.3267 63.2404 75.5705H69.9456L69.9487 75.5674Z" fill="white"/>
<path d="M84.8961 64.2237C82.6122 63.6642 80.3129 63.9236 77.9917 64.1987V78.1806H81.153V73.2293C82.1611 73.1574 83.1256 73.1761 84.056 73.0042C86.0348 72.6416 87.4848 71.6288 87.9889 69.5189C88.5707 67.0932 87.2981 64.8145 84.8992 64.2268L84.8961 64.2237ZM83.6857 70.4285C82.8891 70.788 82.0459 70.7942 81.1592 70.6379V66.4556C82.0957 66.2899 83.0136 66.2086 83.8879 66.6243C84.6502 66.9869 84.9521 67.6465 84.9334 68.478C84.9116 69.3845 84.5071 70.0534 83.6857 70.4254V70.4285Z" fill="white"/>
<path d="M75.1793 64.0393H72.0273V78.1744H75.1793V64.0393Z" fill="white"/>
</svg>
