<svg width="97" height="92" viewBox="0 0 97 92" fill="none" xmlns="http://www.w3.org/2000/svg">
<path d="M58.3544 70.3785C57.929 70.4316 57.4942 70.4191 57.0626 70.4191C46.9167 70.4191 36.7709 70.4191 26.6251 70.4129C26.0863 70.4129 25.538 70.4191 25.015 70.3097C23.909 70.0721 23.3261 69.2532 23.8555 68.2935C25.8909 64.5863 28.0115 60.9165 30.2234 57.3093C30.9103 56.1903 32.1927 56.3841 32.9773 57.6313C34.121 59.4474 35.1545 61.3292 36.2384 63.1765C36.3991 63.4516 36.5976 63.7048 36.8717 64.1049C39.1372 60.2132 41.346 56.4247 43.5547 52.633C44.2038 51.5202 44.8214 50.3949 45.502 49.3009C46.6521 47.4441 47.8651 47.4598 48.99 49.3728C52.2984 55.0149 55.5785 60.6727 58.8712 66.3274C59.1673 66.8338 59.4824 67.337 59.7282 67.8716C60.3647 69.2751 59.87 70.1722 58.3513 70.3785H58.3544Z" fill="#888888" fill-opacity="0.5"/>
<path d="M37.3944 46.1375C37.4165 48.5851 35.4913 50.5512 33.0557 50.57C30.6642 50.5856 28.6255 48.5694 28.6319 46.1844C28.635 43.8494 30.5602 41.9176 32.9296 41.8739C35.4251 41.8239 37.3692 43.6837 37.3944 46.1375Z" fill="#888888" fill-opacity="0.5"/>
<path d="M75.8194 56.5372V21.1964L74.1967 19.5866L65.1316 10.5966L56.1044 1.64107L54.4533 0H9.05549C7.43279 0 6.11572 1.30973 6.11572 2.91017V89.0867C6.11572 90.6934 7.43279 92 9.05549 92H72.8765C74.5024 92 75.8194 90.6934 75.8194 89.0867V86.6079H73.3554V89.0867C73.3554 89.3493 73.1412 89.5587 72.8765 89.5587H9.05549C8.79397 89.5587 8.57341 89.3493 8.57341 89.0867V2.91017C8.57341 2.65072 8.79397 2.43816 9.05549 2.43816H52.922V20.0742C52.922 21.5402 54.1256 22.7343 55.6034 22.7343H73.3554V56.5372H75.8194ZM55.6034 20.2899C55.4805 20.2899 55.3828 20.1961 55.3828 20.0742V4.8607L71.3452 20.2899H55.6034Z" fill="#14A085"/>
<path d="M48.5078 11.2468V32.7245C48.5078 33.3716 47.9784 33.8936 47.3262 33.8936H1.18158C0.564007 33.8936 0.0567158 33.4247 0.00630175 32.8245C0 32.7933 0 32.7589 0 32.7245V11.2468C0 10.5998 0.529347 10.0746 1.18158 10.0746H47.3262C47.9784 10.0746 48.5078 10.5998 48.5078 11.2468Z" fill="#14A085"/>
<path d="M86.3154 26.1446C87.2071 26.0758 87.9412 26.0164 88.7888 25.9508C88.6155 25.0818 88.5084 24.2222 88.2658 23.4064C85.7325 14.8165 80.4453 8.60546 72.0545 5.13889C70.1797 4.36368 68.1947 4.03234 66.1497 4.09486C66.008 4.09798 65.8662 4.07298 65.7275 4.0636C65.7149 4.01359 65.7055 3.96357 65.6929 3.91043C65.9418 3.82291 66.1813 3.7135 66.4333 3.65411C69.6346 2.91641 72.7414 3.35091 75.7788 4.4387C80.8959 6.27045 85.0267 9.47132 88.48 13.5724C91.4103 17.0515 93.5214 20.9588 94.5549 25.4632C95.3143 25.4163 96.0642 25.3694 97 25.3131C95.4151 28.5296 93.8932 31.6273 92.3052 34.847C90.2855 31.9149 88.3351 29.086 86.3059 26.1383L86.3154 26.1446Z" fill="#888888"/>
<path d="M40.4887 27.6575C40.4887 27.8045 40.3627 28.0483 40.2461 28.0827C37.9176 28.7891 35.5545 29.0767 33.1598 28.4327C30.554 27.7294 28.8557 25.6757 28.6383 22.9938C28.4839 21.0839 28.799 19.2834 30.0467 17.7423C31.2252 16.2857 32.8164 15.5386 34.6344 15.2573C36.3737 14.9885 38.1004 15.0947 39.7798 15.673C39.8491 15.698 39.9153 15.7355 40.0382 15.7918C39.8334 16.5764 39.6254 17.3704 39.4489 18.0393C38.3713 17.8986 37.3568 17.7142 36.3359 17.6454C35.3654 17.5798 34.4264 17.8017 33.5883 18.3331C32.2019 19.2146 31.7703 20.5619 31.8049 22.0998C31.827 23.0344 32.0349 23.9284 32.5989 24.7036C33.4875 25.9258 34.7478 26.3634 36.2067 26.3197C37.5427 26.2822 37.5427 26.2603 37.5427 24.9443V23.3439H35.5041V21.012H40.4604C40.473 21.137 40.4919 21.2527 40.4919 21.3683C40.4919 23.4658 40.4982 25.5632 40.4824 27.6607L40.4887 27.6575Z" fill="white"/>
<path d="M25.2795 15.8731C24.5012 15.448 23.6473 15.2323 22.7777 15.2323C21.2054 15.2323 19.6363 15.3385 18.0671 15.3823C17.689 15.3917 17.563 15.498 17.563 15.8981C17.5787 19.9898 17.5724 24.0815 17.5724 28.1733V28.6015H20.6067V23.8659C21.3125 23.8659 21.9553 23.9003 22.5949 23.8596C25.3866 23.6814 26.9873 22.206 27.2551 19.6085C27.4095 18.1143 26.606 16.5983 25.2795 15.8762V15.8731ZM22.6611 21.4433C22.0845 21.5652 21.4732 21.534 20.8777 21.5434C20.7895 21.5434 20.6225 21.3777 20.6225 21.287C20.6067 20.0555 20.6099 18.8239 20.6099 17.5767C21.3882 17.411 22.1318 17.3829 22.8628 17.5829C23.7639 17.8299 24.2428 18.4957 24.2334 19.4365C24.2271 20.4462 23.6568 21.2339 22.658 21.4465L22.6611 21.4433Z" fill="white"/>
<path d="M15.0205 23.744C15.0079 24.5348 14.8944 25.3507 14.6802 26.1134C14.2863 27.52 13.3032 28.3702 11.857 28.6797C10.5746 28.9548 9.30478 28.8923 8.00977 28.5453C8.1232 27.7263 8.23348 26.9386 8.34376 26.1446C8.78173 26.2009 9.17559 26.2697 9.57575 26.304C11.1228 26.4322 11.879 25.782 11.9641 24.2347C11.9988 23.5814 11.983 22.9281 11.9862 22.2717C11.9862 20.1149 11.9862 17.958 11.9862 15.8012V15.2854H15.0079C15.0173 15.4136 15.0362 15.5386 15.0362 15.6668C15.0362 18.3581 15.0614 21.0526 15.0205 23.744Z" fill="white"/>
<path d="M86.5582 58.7628H78.3911V66.865H86.5582V58.7628Z" fill="#707070"/>
<path d="M70.2047 58.7628H62.0376V66.865H70.2047V58.7628Z" fill="#707070"/>
<path d="M78.4029 66.865H70.2358V74.9672H78.4029V66.865Z" fill="#707070"/>
<path d="M86.5426 74.9672H78.3755V83.0694H86.5426V74.9672Z" fill="#707070"/>
<path d="M70.192 74.9672H62.0249V83.0694H70.192V74.9672Z" fill="#707070"/>
</svg>
