<svg width="98" height="92" viewBox="0 0 98 92" fill="none" xmlns="http://www.w3.org/2000/svg">
<path d="M57.8908 70.3785C57.4688 70.4316 57.0375 70.4191 56.6092 70.4191C46.544 70.4191 36.4788 70.4191 26.4135 70.4129C25.879 70.4129 25.3351 70.4191 24.8162 70.3097C23.719 70.0721 23.1408 69.2532 23.6659 68.2935C25.6852 64.5863 27.7889 60.9165 29.9832 57.3093C30.6647 56.1903 31.9369 56.3841 32.7152 57.6313C33.8499 59.4474 34.8752 61.3292 35.9505 63.1765C36.1099 63.4516 36.3068 63.7048 36.5788 64.1049C38.8263 60.2132 41.0175 56.4247 43.2087 52.633C43.8526 51.5202 44.4653 50.3949 45.1405 49.3009C46.2814 47.4441 47.4849 47.4598 48.6008 49.3728C51.8829 55.0149 55.137 60.6727 58.4035 66.3274C58.6973 66.8338 59.0099 67.337 59.2537 67.8716C59.8851 69.2751 59.3944 70.1722 57.8877 70.3785H57.8908Z" fill="#888888" fill-opacity="0.5"/>
<path d="M37.0973 46.1375C37.1192 48.5851 35.2093 50.5512 32.793 50.57C30.4205 50.5856 28.3981 48.5694 28.4043 46.1844C28.4074 43.8494 30.3173 41.9176 32.668 41.8739C35.1436 41.8239 37.0723 43.6837 37.0973 46.1375Z" fill="#888888" fill-opacity="0.5"/>
<path d="M73.642 64.43H72.7699V67.3746H73.4701C74.1359 67.3746 74.7204 67.4652 75.2143 67.6465V64.5519C74.7204 64.4706 74.1953 64.43 73.642 64.43ZM73.517 75.7737H72.7699V78.7183H73.6514C74.2015 78.7183 74.7235 78.6776 75.2143 78.5964V75.508C74.7267 75.6862 74.1609 75.7737 73.517 75.7737ZM75.2143 56.5372V21.1964L73.6045 19.5866L64.6114 10.5966L55.6559 1.64107L54.0179 0H8.9838C7.37399 0 6.06738 1.30973 6.06738 2.91017V89.0867C6.06738 90.6934 7.37399 92 8.9838 92H72.2979C73.9108 92 75.2174 90.6934 75.2174 89.0867V86.6079H72.773V89.0867C72.773 89.3493 72.5604 89.5587 72.2979 89.5587H8.9838C8.72435 89.5587 8.50554 89.3493 8.50554 89.0867V2.91017C8.50554 2.65072 8.72435 2.43816 8.9838 2.43816H52.5019V20.0742C52.5019 21.5402 53.6959 22.7343 55.162 22.7343H72.773V56.5372H75.2174H75.2143ZM55.1588 20.2899C55.0369 20.2899 54.94 20.1961 54.94 20.0742V4.8607L70.7756 20.2899H55.1588Z" fill="#14A085"/>
<path d="M76.9305 71.2537C76.9305 72.2821 76.7867 73.1042 76.5022 73.72C76.2147 74.3358 75.7958 74.7828 75.2394 75.0547C75.13 75.1079 75.0175 75.1548 74.9018 75.1954C74.4142 75.3736 73.8484 75.4611 73.2045 75.4611H71.5103V67.062H73.1576C73.8234 67.062 74.4079 67.1526 74.9018 67.3339C75.0143 67.3745 75.1206 67.4183 75.2238 67.4683C75.7864 67.7403 76.2115 68.1841 76.4991 68.7937C76.7867 69.4063 76.9305 70.2253 76.9305 71.2537Z" fill="#D61A1A"/>
<path d="M48.1225 11.2468V32.7246C48.1225 33.3716 47.5973 33.8936 46.9503 33.8936H1.17219C0.559527 33.8936 0.0562653 33.4247 0.0062517 32.8246C0 32.7933 0 32.7589 0 32.7246V11.2468C0 10.5998 0.525143 10.0746 1.17219 10.0746H46.9503C47.5973 10.0746 48.1225 10.5998 48.1225 11.2468Z" fill="#14A085"/>
<path d="M85.6291 26.1446C86.5137 26.0758 87.242 26.0164 88.0829 25.9508C87.911 25.0818 87.8047 24.2222 87.564 23.4064C85.0508 14.8165 79.8056 8.60546 71.4815 5.13889C69.6216 4.36368 67.6523 4.03234 65.6237 4.09486C65.483 4.09798 65.3423 4.07298 65.2048 4.0636C65.1923 4.01359 65.1829 3.96357 65.1704 3.91043C65.4174 3.82291 65.6549 3.7135 65.905 3.65411C69.0808 2.91641 72.1629 3.35091 75.1763 4.4387C80.2526 6.27045 84.3506 9.47132 87.7766 13.5724C90.6836 17.0515 92.7779 20.9588 93.8032 25.4632C94.5565 25.4163 95.3005 25.3694 96.2289 25.3131C94.6565 28.5296 93.1468 31.6273 91.5713 34.847C89.5677 31.9149 87.6328 29.086 85.6197 26.1383L85.6291 26.1446Z" fill="#888888"/>
<path d="M65.7052 71.6445C65.6427 71.7507 65.5771 71.8539 65.5083 71.9508H65.9803V71.0912C65.899 71.2819 65.8084 71.4663 65.7052 71.6445Z" fill="#D61A1A"/>
<path d="M92.1442 66.9182V64.1143H82.3885V78.4025H85.8425V72.6604H91.5222V69.8471H85.8425V66.9182H92.1442ZM77.0839 64.9676C76.4306 64.6144 75.6992 64.3706 74.8896 64.2362C74.3957 64.1549 73.8705 64.1143 73.3173 64.1143H68.0439V78.4025H73.3266C73.8768 78.4025 74.3988 78.3619 74.8896 78.2806C75.6992 78.1462 76.4306 77.9024 77.087 77.5492C78.1436 76.9803 78.9563 76.1582 79.5252 75.0891C80.0941 74.0201 80.3786 72.7385 80.3786 71.2506C80.3786 69.7627 80.0941 68.4905 79.5221 67.4246C78.95 66.3555 78.1373 65.5365 77.0839 64.9676ZM76.49 73.7169C76.2024 74.3327 75.7836 74.7797 75.2272 75.0516C75.1177 75.1048 75.0052 75.1517 74.8896 75.1923C74.4019 75.3705 73.8361 75.458 73.1922 75.458H71.498V67.0588H73.1453C73.8111 67.0588 74.3957 67.1495 74.8896 67.3308C75.0021 67.3714 75.1084 67.4152 75.2115 67.4652C75.7742 67.7371 76.1993 68.181 76.4869 68.7906C76.7744 69.4032 76.9182 70.2222 76.9182 71.2506C76.9182 72.279 76.7744 73.1011 76.49 73.7169Z" fill="#D61A1A"/>
<path d="M96.5792 59.3474H50.8011C50.154 59.3474 49.6289 59.8725 49.6289 60.5195V81.9973C49.6289 82.0316 49.6289 82.066 49.6352 82.0973C49.6852 82.6975 50.1884 83.1663 50.8011 83.1663H96.5792C97.2262 83.1663 97.7514 82.6443 97.7514 81.9973V60.5195C97.7514 59.8725 97.2262 59.3474 96.5792 59.3474ZM65.9802 71.0912V71.9508H65.5082C65.0956 72.5416 64.5486 73.0136 63.8672 73.3574C63.0732 73.7638 62.1261 73.9638 61.032 73.9638H58.6907V78.4025H55.2336V64.1111H61.1383C62.2073 64.1111 63.1326 64.3237 63.9109 64.7363C64.6892 65.1521 65.2925 65.7335 65.7145 66.4743C66.1396 67.2182 66.3522 68.0778 66.3522 69.0594C66.3522 69.8064 66.2272 70.4847 65.9802 71.0912ZM79.5277 75.0891C78.9587 76.1582 78.146 76.9803 77.0895 77.5492C76.4331 77.9024 75.7016 78.1462 74.892 78.2806C74.4013 78.3619 73.8792 78.4025 73.3291 78.4025H68.0464V64.1143H73.3197C73.873 64.1143 74.3981 64.1549 74.892 64.2362C75.7016 64.3706 76.4331 64.6144 77.0864 64.9676C78.1398 65.5365 78.9525 66.3555 79.5245 67.4245C80.0966 68.4905 80.381 69.7658 80.381 71.2506C80.381 72.7354 80.0966 74.0201 79.5277 75.0891ZM92.1467 66.9182H85.845V69.8471H91.5247V72.6603H85.845V78.4025H82.3909V64.1143H92.1467V66.9182Z" fill="#D61A1A"/>
<path d="M65.7052 71.6445C65.6427 71.7507 65.5771 71.8539 65.5083 71.9508H65.9803V71.0912C65.899 71.2819 65.8084 71.4663 65.7052 71.6445Z" fill="#D61A1A"/>
<path d="M92.1442 66.9182V64.1143H82.3885V78.4025H85.8425V72.6604H91.5222V69.8471H85.8425V66.9182H92.1442ZM77.0839 64.9676C76.4306 64.6144 75.6992 64.3706 74.8896 64.2362C74.3957 64.1549 73.8705 64.1143 73.3173 64.1143H68.0439V78.4025H73.3266C73.8768 78.4025 74.3988 78.3619 74.8896 78.2806C75.6992 78.1462 76.4306 77.9024 77.087 77.5492C78.1436 76.9803 78.9563 76.1582 79.5252 75.0891C80.0941 74.0201 80.3786 72.7385 80.3786 71.2506C80.3786 69.7627 80.0941 68.4905 79.5221 67.4246C78.95 66.3555 78.1373 65.5365 77.0839 64.9676ZM76.49 73.7169C76.2024 74.3327 75.7836 74.7797 75.2272 75.0516C75.1177 75.1048 75.0052 75.1517 74.8896 75.1923C74.4019 75.3705 73.8361 75.458 73.1922 75.458H71.498V67.0588H73.1453C73.8111 67.0588 74.3957 67.1495 74.8896 67.3308C75.0021 67.3714 75.1084 67.4152 75.2115 67.4652C75.7742 67.7371 76.1993 68.181 76.4869 68.7906C76.7744 69.4032 76.9182 70.2222 76.9182 71.2506C76.9182 72.279 76.7744 73.1011 76.49 73.7169Z" fill="#D61A1A"/>
<path d="M65.7119 66.4743C65.2899 65.7335 64.6867 65.1521 63.9083 64.7363C63.13 64.3237 62.2047 64.1111 61.1357 64.1111H55.231V78.4025H58.6881V73.9638H61.0294C62.1235 73.9638 63.0706 73.7638 63.8646 73.3574C64.546 73.0136 65.093 72.5416 65.5056 71.9508C65.5744 71.8539 65.64 71.7507 65.7026 71.6444C65.8057 71.4663 65.8964 71.2818 65.9776 71.0912C66.2246 70.4847 66.3496 69.8064 66.3496 69.0594C66.3496 68.0778 66.137 67.2182 65.7119 66.4743ZM62.4986 70.2066C62.3141 70.5348 62.0484 70.7911 61.6983 70.9724C61.3482 71.1537 60.9106 71.2443 60.3917 71.2443H58.6881V66.8963H60.3917C60.9075 66.8963 61.342 66.9838 61.6952 67.162C62.0484 67.337 62.3141 67.5871 62.4986 67.9122C62.6767 68.2373 62.7705 68.6186 62.7705 69.0594C62.7705 69.1688 62.7643 69.275 62.7518 69.3782C62.7174 69.6845 62.633 69.9596 62.4986 70.2066Z" fill="white"/>
<path d="M62.7738 69.0593C62.7738 69.1687 62.7675 69.275 62.755 69.3782C62.7206 69.6845 62.6362 69.9596 62.5018 70.2065C62.3174 70.5347 62.0517 70.7911 61.7016 70.9724C61.3515 71.1536 60.9139 71.2443 60.395 71.2443H58.6914V66.8962H60.395C60.9108 66.8962 61.3453 66.9838 61.6985 67.1619C62.0517 67.337 62.3174 67.5871 62.5018 67.9121C62.68 68.2372 62.7738 68.6186 62.7738 69.0593Z" fill="#D61A1A"/>
<path d="M79.5221 67.4245C78.95 66.3555 78.1373 65.5365 77.0839 64.9676C76.4306 64.6144 75.6992 64.3706 74.8896 64.2362C74.3957 64.1549 73.8705 64.1143 73.3173 64.1143H68.0439V78.4025H73.3266C73.8768 78.4025 74.3988 78.3619 74.8896 78.2806C75.6992 78.1462 76.4306 77.9024 77.087 77.5492C78.1436 76.9803 78.9563 76.1582 79.5252 75.0891C80.0941 74.0201 80.3786 72.7385 80.3786 71.2506C80.3786 69.7627 80.0941 68.4904 79.5221 67.4245ZM76.49 73.7169C76.2024 74.3327 75.7836 74.7797 75.2272 75.0516C75.1177 75.1047 75.0052 75.1516 74.8896 75.1923C74.4019 75.3704 73.8361 75.458 73.1922 75.458H71.498V67.0588H73.1453C73.8111 67.0588 74.3957 67.1495 74.8896 67.3308C75.0021 67.3714 75.1084 67.4152 75.2115 67.4652C75.7742 67.7371 76.1993 68.181 76.4869 68.7905C76.7744 69.4032 76.9182 70.2222 76.9182 71.2506C76.9182 72.279 76.7744 73.1011 76.49 73.7169Z" fill="white"/>
<path d="M92.144 66.9181V64.1143H82.3882V78.4025H85.8422V72.6603H91.5219V69.8471H85.8422V66.9181H92.144Z" fill="white"/>
<path d="M40.1658 27.6575C40.1658 27.8044 40.0408 28.0482 39.9251 28.0826C37.6151 28.7891 35.2707 29.0766 32.8951 28.4327C30.31 27.7294 28.6252 25.6757 28.4095 22.9937C28.2563 21.0838 28.5689 19.2834 29.8067 17.7423C30.9758 16.2857 32.5544 15.5386 34.358 15.2573C36.0834 14.9884 37.7964 15.0947 39.4625 15.673C39.5313 15.698 39.5969 15.7355 39.7188 15.7918C39.5156 16.5764 39.3093 17.3703 39.1343 18.0393C38.0652 17.8986 37.0587 17.7142 36.0459 17.6454C35.0832 17.5798 34.1517 17.8017 33.3202 18.3331C31.9448 19.2146 31.5166 20.5618 31.551 22.0997C31.5728 23.0344 31.7792 23.9284 32.3387 24.7036C33.2202 25.9258 34.4705 26.3634 35.9178 26.3196C37.2431 26.2821 37.2431 26.2603 37.2431 24.9443V23.3438H35.2207V21.0119H40.1377C40.1502 21.137 40.1689 21.2526 40.1689 21.3683C40.1689 23.4657 40.1752 25.5632 40.1596 27.6606L40.1658 27.6575Z" fill="white"/>
<path d="M25.0776 15.873C24.3055 15.4479 23.4584 15.2322 22.5956 15.2322C21.0358 15.2322 19.4792 15.3385 17.9225 15.3823C17.5474 15.3917 17.4224 15.4979 17.4224 15.898C17.438 19.9898 17.4317 24.0815 17.4317 28.1733V28.6015H20.4419V23.8658C21.1421 23.8658 21.7798 23.9002 22.4143 23.8596C25.1838 23.6814 26.7718 22.206 27.0375 19.6084C27.1906 18.1143 26.3936 16.5982 25.0776 15.8762V15.873ZM22.48 21.4433C21.908 21.5652 21.3015 21.5339 20.7108 21.5433C20.6232 21.5433 20.4576 21.3777 20.4576 21.287C20.4419 20.0554 20.4451 18.8238 20.4451 17.5766C21.2171 17.411 21.9548 17.3828 22.68 17.5829C23.574 17.8298 24.0492 18.4956 24.0398 19.4365C24.0335 20.4462 23.4678 21.2339 22.4769 21.4464L22.48 21.4433Z" fill="white"/>
<path d="M14.8994 23.7439C14.8868 24.5348 14.7743 25.3506 14.5618 26.1133C14.171 27.52 13.1958 28.3702 11.761 28.6797C10.4888 28.9547 9.22906 28.8922 7.94434 28.5453C8.05687 27.7263 8.16627 26.9386 8.27568 26.1446C8.71017 26.2009 9.1009 26.2696 9.49788 26.304C11.0327 26.4322 11.7829 25.782 11.8673 24.2347C11.9017 23.5814 11.886 22.9281 11.8892 22.2717C11.8892 20.1148 11.8892 17.958 11.8892 15.8012V15.2854H14.8868C14.8962 15.4136 14.915 15.5386 14.915 15.6668C14.915 18.3581 14.94 21.0526 14.8994 23.7439Z" fill="white"/>
</svg>
