<svg width="98" height="92" viewBox="0 0 98 92" fill="none" xmlns="http://www.w3.org/2000/svg">
<g opacity="0.5">
<path d="M57.8908 70.3785C57.4688 70.4316 57.0375 70.4191 56.6092 70.4191C46.544 70.4191 36.4788 70.4191 26.4135 70.4129C25.879 70.4129 25.3351 70.4191 24.8162 70.3097C23.719 70.0721 23.1408 69.2532 23.6659 68.2935C25.6852 64.5863 27.7889 60.9165 29.9832 57.3093C30.6647 56.1903 31.9369 56.3841 32.7152 57.6313C33.8499 59.4474 34.8752 61.3292 35.9505 63.1765C36.1099 63.4516 36.3068 63.7048 36.5788 64.1049C38.8263 60.2132 41.0175 56.4247 43.2087 52.633C43.8526 51.5202 44.4653 50.3949 45.1405 49.3009C46.2814 47.4441 47.4849 47.4598 48.6008 49.3728C51.8829 55.0149 55.137 60.6727 58.4035 66.3274C58.6973 66.8338 59.0099 67.337 59.2537 67.8716C59.8851 69.2751 59.3944 70.1722 57.8877 70.3785H57.8908Z" fill="#888888"/>
<path d="M37.0973 46.1375C37.1192 48.5851 35.2093 50.5512 32.793 50.57C30.4205 50.5856 28.3981 48.5694 28.4043 46.1844C28.4074 43.8494 30.3173 41.9176 32.668 41.8739C35.1436 41.8239 37.0723 43.6837 37.0973 46.1375Z" fill="#888888"/>
</g>
<path d="M73.642 64.43H72.7699V67.3746H73.4701C74.1359 67.3746 74.7204 67.4652 75.2143 67.6465V64.5519C74.7204 64.4706 74.1953 64.43 73.642 64.43ZM73.517 75.7737H72.7699V78.7183H73.6514C74.2015 78.7183 74.7235 78.6776 75.2143 78.5964V75.508C74.7267 75.6862 74.1609 75.7737 73.517 75.7737ZM75.2143 56.5372V21.1964L73.6045 19.5866L64.6114 10.5966L55.6559 1.64107L54.0179 0H8.9838C7.37399 0 6.06738 1.30973 6.06738 2.91017V89.0867C6.06738 90.6934 7.37399 92 8.9838 92H72.2979C73.9108 92 75.2174 90.6934 75.2174 89.0867V86.6079H72.773V89.0867C72.773 89.3493 72.5604 89.5587 72.2979 89.5587H8.9838C8.72435 89.5587 8.50554 89.3493 8.50554 89.0867V2.91017C8.50554 2.65072 8.72435 2.43816 8.9838 2.43816H52.5019V20.0742C52.5019 21.5402 53.6959 22.7343 55.162 22.7343H72.773V56.5372H75.2174H75.2143ZM55.1588 20.2899C55.0369 20.2899 54.94 20.1961 54.94 20.0742V4.8607L70.7756 20.2899H55.1588Z" fill="#14A085"/>
<path d="M76.931 71.2537C76.931 72.2821 76.7872 73.1042 76.5027 73.72C76.2151 74.3358 75.7963 74.7828 75.2399 75.0547C75.1305 75.1079 75.0179 75.1548 74.9023 75.1954C74.4147 75.3736 73.8489 75.4611 73.205 75.4611H71.5107V67.062H73.1581C73.8239 67.062 74.4084 67.1526 74.9023 67.3339C75.0148 67.3745 75.1211 67.4183 75.2242 67.4683C75.7869 67.7403 76.212 68.1841 76.4996 68.7937C76.7872 69.4063 76.931 70.2253 76.931 71.2537Z" fill="#D61A1A"/>
<path d="M48.1225 11.2468V32.7246C48.1225 33.3716 47.5973 33.8936 46.9503 33.8936H1.17219C0.559527 33.8936 0.0562653 33.4247 0.0062517 32.8246C0 32.7933 0 32.7589 0 32.7246V11.2468C0 10.5998 0.525143 10.0746 1.17219 10.0746H46.9503C47.5973 10.0746 48.1225 10.5998 48.1225 11.2468Z" fill="#14A085"/>
<path d="M85.6296 26.1446C86.5142 26.0758 87.2425 26.0164 88.0834 25.9508C87.9115 25.0818 87.8052 24.2222 87.5645 23.4064C85.0513 14.8165 79.8061 8.60546 71.482 5.13889C69.6221 4.36368 67.6528 4.03234 65.6241 4.09486C65.4835 4.09798 65.3428 4.07298 65.2053 4.0636C65.1928 4.01359 65.1834 3.96357 65.1709 3.91043C65.4178 3.82291 65.6554 3.7135 65.9055 3.65411C69.0813 2.91641 72.1634 3.35091 75.1767 4.4387C80.2531 6.27045 84.3511 9.47132 87.777 13.5724C90.6841 17.0515 92.7784 20.9588 93.8037 25.4632C94.557 25.4163 95.301 25.3694 96.2293 25.3131C94.657 28.5296 93.1473 31.6273 91.5718 34.847C89.5682 31.9149 87.6333 29.086 85.6202 26.1383L85.6296 26.1446Z" fill="#888888"/>
<path d="M65.7047 71.6445C65.6422 71.7507 65.5766 71.8539 65.5078 71.9508H65.9798V71.0912C65.8985 71.2819 65.8079 71.4663 65.7047 71.6445Z" fill="#D61A1A"/>
<path d="M92.1442 66.9182V64.1143H82.3885V78.4025H85.8425V72.6604H91.5222V69.8471H85.8425V66.9182H92.1442ZM77.0839 64.9676C76.4306 64.6144 75.6992 64.3706 74.8896 64.2362C74.3957 64.1549 73.8705 64.1143 73.3173 64.1143H68.0439V78.4025H73.3266C73.8768 78.4025 74.3988 78.3619 74.8896 78.2806C75.6992 78.1462 76.4306 77.9024 77.087 77.5492C78.1436 76.9803 78.9563 76.1582 79.5252 75.0891C80.0941 74.0201 80.3786 72.7385 80.3786 71.2506C80.3786 69.7627 80.0941 68.4905 79.5221 67.4246C78.95 66.3555 78.1373 65.5365 77.0839 64.9676ZM76.49 73.7169C76.2024 74.3327 75.7836 74.7797 75.2272 75.0516C75.1177 75.1048 75.0052 75.1517 74.8896 75.1923C74.4019 75.3705 73.8361 75.458 73.1922 75.458H71.498V67.0588H73.1453C73.8111 67.0588 74.3957 67.1495 74.8896 67.3308C75.0021 67.3714 75.1084 67.4152 75.2115 67.4652C75.7742 67.7371 76.1993 68.181 76.4869 68.7906C76.7744 69.4032 76.9182 70.2222 76.9182 71.2506C76.9182 72.279 76.7744 73.1011 76.49 73.7169Z" fill="#D61A1A"/>
<path d="M96.5792 59.3474H50.8011C50.154 59.3474 49.6289 59.8725 49.6289 60.5195V81.9973C49.6289 82.0316 49.6289 82.066 49.6352 82.0973C49.6852 82.6975 50.1884 83.1663 50.8011 83.1663H96.5792C97.2262 83.1663 97.7514 82.6443 97.7514 81.9973V60.5195C97.7514 59.8725 97.2262 59.3474 96.5792 59.3474ZM65.9802 71.0912V71.9508H65.5082C65.0956 72.5416 64.5486 73.0136 63.8672 73.3574C63.0732 73.7638 62.1261 73.9638 61.032 73.9638H58.6907V78.4025H55.2336V64.1111H61.1383C62.2073 64.1111 63.1326 64.3237 63.9109 64.7363C64.6892 65.1521 65.2925 65.7335 65.7145 66.4743C66.1396 67.2182 66.3522 68.0778 66.3522 69.0594C66.3522 69.8064 66.2272 70.4847 65.9802 71.0912ZM79.5277 75.0891C78.9587 76.1582 78.146 76.9803 77.0895 77.5492C76.4331 77.9024 75.7016 78.1462 74.892 78.2806C74.4013 78.3619 73.8792 78.4025 73.3291 78.4025H68.0464V64.1143H73.3197C73.873 64.1143 74.3981 64.1549 74.892 64.2362C75.7016 64.3706 76.4331 64.6144 77.0864 64.9676C78.1398 65.5365 78.9525 66.3555 79.5245 67.4245C80.0966 68.4905 80.381 69.7658 80.381 71.2506C80.381 72.7354 80.0966 74.0201 79.5277 75.0891ZM92.1467 66.9182H85.845V69.8471H91.5247V72.6603H85.845V78.4025H82.3909V64.1143H92.1467V66.9182Z" fill="#D61A1A"/>
<path d="M65.7047 71.6445C65.6422 71.7507 65.5766 71.8539 65.5078 71.9508H65.9798V71.0912C65.8985 71.2819 65.8079 71.4663 65.7047 71.6445Z" fill="#D61A1A"/>
<path d="M92.1442 66.9182V64.1143H82.3885V78.4025H85.8425V72.6604H91.5222V69.8471H85.8425V66.9182H92.1442ZM77.0839 64.9676C76.4306 64.6144 75.6992 64.3706 74.8896 64.2362C74.3957 64.1549 73.8705 64.1143 73.3173 64.1143H68.0439V78.4025H73.3266C73.8768 78.4025 74.3988 78.3619 74.8896 78.2806C75.6992 78.1462 76.4306 77.9024 77.087 77.5492C78.1436 76.9803 78.9563 76.1582 79.5252 75.0891C80.0941 74.0201 80.3786 72.7385 80.3786 71.2506C80.3786 69.7627 80.0941 68.4905 79.5221 67.4246C78.95 66.3555 78.1373 65.5365 77.0839 64.9676ZM76.49 73.7169C76.2024 74.3327 75.7836 74.7797 75.2272 75.0516C75.1177 75.1048 75.0052 75.1517 74.8896 75.1923C74.4019 75.3705 73.8361 75.458 73.1922 75.458H71.498V67.0588H73.1453C73.8111 67.0588 74.3957 67.1495 74.8896 67.3308C75.0021 67.3714 75.1084 67.4152 75.2115 67.4652C75.7742 67.7371 76.1993 68.181 76.4869 68.7906C76.7744 69.4032 76.9182 70.2222 76.9182 71.2506C76.9182 72.279 76.7744 73.1011 76.49 73.7169Z" fill="#D61A1A"/>
<path d="M65.7124 66.4743C65.2904 65.7335 64.6871 65.1521 63.9088 64.7363C63.1305 64.3237 62.2052 64.1111 61.1362 64.1111H55.2314V78.4025H58.6886V73.9638H61.0299C62.1239 73.9638 63.0711 73.7638 63.865 73.3574C64.5465 73.0136 65.0935 72.5416 65.5061 71.9508C65.5749 71.8539 65.6405 71.7507 65.703 71.6444C65.8062 71.4663 65.8968 71.2818 65.9781 71.0912C66.2251 70.4847 66.3501 69.8064 66.3501 69.0594C66.3501 68.0778 66.1375 67.2182 65.7124 66.4743ZM62.499 70.2066C62.3146 70.5348 62.0489 70.7911 61.6988 70.9724C61.3487 71.1537 60.9111 71.2443 60.3922 71.2443H58.6886V66.8963H60.3922C60.908 66.8963 61.3425 66.9838 61.6957 67.162C62.0489 67.337 62.3146 67.5871 62.499 67.9122C62.6772 68.2373 62.771 68.6186 62.771 69.0594C62.771 69.1688 62.7647 69.275 62.7522 69.3782C62.7179 69.6845 62.6335 69.9596 62.499 70.2066Z" fill="white"/>
<path d="M62.7747 69.0593C62.7747 69.1687 62.7685 69.275 62.756 69.3782C62.7216 69.6845 62.6372 69.9596 62.5028 70.2065C62.3184 70.5347 62.0527 70.7911 61.7026 70.9724C61.3525 71.1536 60.9149 71.2443 60.396 71.2443H58.6924V66.8962H60.396C60.9117 66.8962 61.3462 66.9838 61.6995 67.1619C62.0527 67.337 62.3184 67.5871 62.5028 67.9121C62.681 68.2372 62.7747 68.6186 62.7747 69.0593Z" fill="#D61A1A"/>
<path d="M79.523 67.4245C78.951 66.3555 78.1383 65.5365 77.0849 64.9676C76.4316 64.6144 75.7001 64.3706 74.8905 64.2362C74.3967 64.1549 73.8715 64.1143 73.3182 64.1143H68.0449V78.4025H73.3276C73.8778 78.4025 74.3998 78.3619 74.8905 78.2806C75.7001 78.1462 76.4316 77.9024 77.088 77.5492C78.1445 76.9803 78.9573 76.1582 79.5262 75.0891C80.0951 74.0201 80.3795 72.7385 80.3795 71.2506C80.3795 69.7627 80.0951 68.4904 79.523 67.4245ZM76.491 73.7169C76.2034 74.3327 75.7845 74.7797 75.2281 75.0516C75.1187 75.1047 75.0062 75.1516 74.8905 75.1923C74.4029 75.3704 73.8371 75.458 73.1932 75.458H71.499V67.0588H73.1463C73.8121 67.0588 74.3967 67.1495 74.8905 67.3308C75.0031 67.3714 75.1093 67.4152 75.2125 67.4652C75.7751 67.7371 76.2003 68.181 76.4878 68.7905C76.7754 69.4032 76.9192 70.2222 76.9192 71.2506C76.9192 72.279 76.7754 73.1011 76.491 73.7169Z" fill="white"/>
<path d="M92.1444 66.9181V64.1143H82.3887V78.4025H85.8427V72.6603H91.5224V69.8471H85.8427V66.9181H92.1444Z" fill="white"/>
<path d="M40.1663 27.6575C40.1663 27.8044 40.0413 28.0482 39.9256 28.0826C37.6156 28.7891 35.2712 29.0766 32.8956 28.4327C30.3105 27.7294 28.6257 25.6757 28.41 22.9937C28.2568 21.0838 28.5694 19.2834 29.8072 17.7423C30.9763 16.2857 32.5548 15.5386 34.3585 15.2573C36.0839 14.9884 37.7969 15.0947 39.463 15.673C39.5317 15.698 39.5974 15.7355 39.7193 15.7918C39.5161 16.5764 39.3098 17.3703 39.1348 18.0393C38.0657 17.8986 37.0592 17.7142 36.0464 17.6454C35.0837 17.5798 34.1522 17.8017 33.3207 18.3331C31.9453 19.2146 31.5171 20.5618 31.5515 22.0997C31.5733 23.0344 31.7796 23.9284 32.3392 24.7036C33.2207 25.9258 34.471 26.3634 35.9183 26.3196C37.2436 26.2821 37.2436 26.2603 37.2436 24.9443V23.3438H35.2212V21.0119H40.1382C40.1507 21.137 40.1694 21.2526 40.1694 21.3683C40.1694 23.4657 40.1757 25.5632 40.16 27.6606L40.1663 27.6575Z" fill="white"/>
<path d="M25.0781 15.873C24.306 15.4479 23.4589 15.2322 22.5961 15.2322C21.0363 15.2322 19.4797 15.3385 17.923 15.3823C17.5479 15.3917 17.4229 15.4979 17.4229 15.898C17.4385 19.9898 17.4322 24.0815 17.4322 28.1733V28.6015H20.4424V23.8658C21.1426 23.8658 21.7803 23.9002 22.4148 23.8596C25.1843 23.6814 26.7723 22.206 27.038 19.6084C27.1911 18.1143 26.394 16.5982 25.0781 15.8762V15.873ZM22.4805 21.4433C21.9084 21.5652 21.302 21.5339 20.7112 21.5433C20.6237 21.5433 20.458 21.3777 20.458 21.287C20.4424 20.0554 20.4455 18.8238 20.4455 17.5766C21.2176 17.411 21.9553 17.3828 22.6805 17.5829C23.5745 17.8298 24.0497 18.4956 24.0403 19.4365C24.034 20.4462 23.4682 21.2339 22.4774 21.4464L22.4805 21.4433Z" fill="white"/>
<path d="M14.8994 23.7439C14.8868 24.5348 14.7743 25.3506 14.5618 26.1133C14.171 27.52 13.1958 28.3702 11.761 28.6797C10.4888 28.9547 9.22906 28.8922 7.94434 28.5453C8.05687 27.7263 8.16627 26.9386 8.27568 26.1446C8.71017 26.2009 9.1009 26.2696 9.49788 26.304C11.0327 26.4322 11.7829 25.782 11.8673 24.2347C11.9017 23.5814 11.886 22.9281 11.8892 22.2717C11.8892 20.1148 11.8892 17.958 11.8892 15.8012V15.2854H14.8868C14.8962 15.4136 14.915 15.5386 14.915 15.6668C14.915 18.3581 14.94 21.0526 14.8994 23.7439Z" fill="white"/>
</svg>
