<svg width="23" height="21" viewBox="0 0 23 21" fill="none" xmlns="http://www.w3.org/2000/svg">
<path d="M16.5993 2.66296V4.66223H16.3426C15.5191 4.66223 14.6956 4.66458 13.8721 4.65989C13.7408 4.65989 13.6699 4.68743 13.6253 4.82693C12.8751 7.16146 11.6829 9.2463 10.064 11.0873C10.0271 11.1295 9.99546 11.1764 9.92571 11.269C9.99136 11.3141 10.064 11.3499 10.1191 11.4038C10.86 12.1318 11.5962 12.8644 12.3388 13.5907C12.4431 13.6926 12.4777 13.7735 12.4197 13.9206C12.1817 14.5249 11.9596 15.1351 11.7275 15.7546C10.6883 14.7166 9.66196 13.6909 8.6251 12.6552C6.94645 14.3344 5.28772 15.9938 3.64247 17.639C3.16126 17.1584 2.69764 16.6953 2.2217 16.22C3.89274 14.5683 5.57726 12.9037 7.28054 11.2204C6.06726 9.8588 5.06792 8.36067 4.31123 6.67498C4.38919 6.6697 4.44897 6.66208 4.50876 6.6615C5.01048 6.66091 5.5122 6.67263 6.01275 6.65564C6.22493 6.6486 6.34215 6.71015 6.44297 6.90357C7.00037 7.975 7.69434 8.95441 8.48737 9.86466C8.52429 9.90745 8.55653 9.95434 8.60225 10.0147C10.0254 8.42397 11.0698 6.65388 11.7802 4.64347H0.609863V2.66648C2.8512 2.66472 5.09312 2.66296 7.33446 2.6612H7.6117V0.666626H9.60979V2.66296H16.5993Z" fill="white"/>
<path d="M22.5453 20.48C21.0905 16.5963 19.6346 12.7138 18.1816 8.82958C18.1347 8.70356 18.0731 8.65374 17.9342 8.65609C17.3903 8.66371 16.8458 8.66547 16.3013 8.65492C16.1507 8.65257 16.0909 8.70943 16.0411 8.84189C14.5939 12.7126 13.1427 16.5822 11.6926 20.4524C11.6692 20.5157 11.6492 20.5808 11.6211 20.6658C12.2682 20.6658 12.8836 20.6704 13.499 20.6581C13.5588 20.657 13.645 20.5608 13.6714 20.4911C14.0095 19.6096 14.3413 18.7263 14.6666 17.8401C14.7164 17.7029 14.7821 17.6595 14.9286 17.6601C16.3898 17.666 17.851 17.666 19.3122 17.6601C19.4517 17.6601 19.5121 17.707 19.5578 17.8324C19.8462 18.6178 20.141 19.4009 20.4346 20.184C20.555 20.5056 20.7863 20.6662 21.1286 20.6658H22.6015C22.5781 20.586 22.5652 20.5315 22.5453 20.48ZM15.4948 15.6468C16.0317 14.2137 16.5604 12.8029 17.089 11.3921C17.1055 11.3921 17.1225 11.3927 17.1389 11.3927C17.6675 12.8041 18.1962 14.2155 18.7325 15.6468H15.4948Z" fill="white"/>
</svg>
