<svg width="30" height="33" viewBox="0 0 30 33" fill="none" xmlns="http://www.w3.org/2000/svg">
<path d="M19.6225 32.0201C11.8342 34.8629 3.45193 31.2638 0 24.5351C0.693025 24.1765 1.39265 23.8179 2.08568 23.4593C4.54097 27.7299 8.1909 30.2075 13.1741 30.5987C16.7844 30.8791 20.0053 29.7903 22.7774 27.5082C28.2292 23.0224 29.1995 15.0679 25.0017 9.40848C20.8238 3.76861 13.6031 2.75147 8.59352 5.0987C9.05553 5.97239 9.51755 6.85261 9.99277 7.76542C7.03586 7.63502 4.11195 7.51113 1.14184 7.38725C2.7391 4.91614 4.31656 2.47111 5.90722 0C6.43524 1.00409 6.95665 1.98862 7.47147 2.96012C12.2698 0.951932 17.0088 1.03669 21.6158 3.44912C25.3779 5.41819 27.9058 8.46959 29.2259 12.4664C31.8528 20.4274 27.5824 29.1122 19.6225 32.0136V32.0201Z" fill="white"/>
</svg>
