<svg width="30" height="30" viewBox="0 0 30 30" fill="none" xmlns="http://www.w3.org/2000/svg">
<path d="M18.7267 22.7367C18.4918 23.0068 18.2747 23.2947 18.022 23.547C16.6423 24.9362 15.2982 26.3669 13.8561 27.6907C11.3583 29.9822 8.42937 30.5996 5.26255 29.4004C2.13142 28.2131 0.377034 25.8237 0.0439979 22.4903C-0.208753 19.9555 0.632758 17.759 2.43175 15.9424C3.72821 14.6334 5.02764 13.3304 6.34195 12.0392C10.3086 8.14188 16.9485 9.24606 19.4374 14.209C19.479 14.2921 19.5177 14.3782 19.5712 14.4909C18.7059 15.0608 17.799 15.1618 16.8564 14.8115C16.562 14.7017 16.2706 14.4998 16.0535 14.2683C14.0464 12.1164 10.6774 11.9264 8.52155 13.9299C7.04073 15.3072 5.61046 16.7409 4.23074 18.2161C2.29794 20.282 2.41093 23.5827 4.40915 25.5536C6.46684 27.5809 9.74664 27.6492 11.8341 25.6753C12.9075 24.6601 13.9334 23.5916 14.989 22.5527C15.0752 22.4666 15.2298 22.3716 15.328 22.3924C16.4371 22.6388 17.5522 22.7545 18.7267 22.7337V22.7367Z" fill="white"/>
<path d="M27.6335 13.9567C26.3162 15.3161 24.9692 16.6518 23.6132 17.9727C19.6198 21.8611 12.9234 20.6708 10.5029 15.6515C10.4791 15.604 10.4643 15.5536 10.4375 15.4883C11.3415 14.8264 12.7152 14.7848 13.6251 15.3814C13.7203 15.4438 13.8006 15.5358 13.8779 15.6219C15.8761 17.8807 19.3968 18.0558 21.5674 15.9662C22.962 14.6245 24.3358 13.2562 25.6769 11.8611C27.1904 10.2879 27.5591 7.99051 26.6849 6.02553C25.8047 4.05165 23.863 2.81686 21.6656 2.86732C20.2145 2.89997 18.9775 3.458 17.9546 4.48205C16.9763 5.46157 16.001 6.44108 15.0138 7.4117C14.9216 7.50075 14.7521 7.5987 14.6451 7.57495C13.5448 7.33452 12.4387 7.22173 11.2404 7.31671C11.3385 7.18314 11.392 7.08519 11.4663 7.01099C12.3852 6.06412 13.2921 5.10834 14.2288 4.17929C15.0881 3.32443 15.9118 2.41318 16.8663 1.67706C21.7548 -2.0837 29.0013 0.851888 29.8963 6.94272C30.2948 9.63788 29.5335 12.0006 27.6305 13.9626L27.6335 13.9567Z" fill="white"/>
</svg>
