<svg width="83" height="92" viewBox="0 0 83 92" fill="none" xmlns="http://www.w3.org/2000/svg">
<path d="M73.5848 51.017C73.7254 51.017 73.8661 51.0107 74.0067 51.0045C74.1161 51.0014 74.2256 51.0014 74.3381 51.0014C74.6319 51.0014 74.9226 51.0139 75.2164 51.042V21.1964L73.6066 19.5866L64.6136 10.5966L55.658 1.64107L54.0201 0H8.98282C7.37301 0 6.06641 1.30973 6.06641 2.91017V89.0867C6.06641 90.6934 7.37301 92 8.98282 92H72.2969C73.9098 92 75.2164 90.6934 75.2164 89.0867V82.6725C74.4006 82.6693 73.5879 82.6693 72.772 82.6725V89.0867C72.772 89.3493 72.5595 89.5587 72.2969 89.5587H8.98282C8.72338 89.5587 8.50457 89.3493 8.50457 89.0867V2.91017C8.50457 2.65072 8.72338 2.43816 8.98282 2.43816H52.5009V20.0742C52.5009 21.5402 53.695 22.7343 55.161 22.7343H72.772V51.0451C73.0534 51.0295 73.3253 51.0232 73.5848 51.017ZM55.161 20.2899C55.0391 20.2899 54.9422 20.1961 54.9422 20.0742V4.8607L70.7777 20.2899H55.161Z" fill="#D61A1A"/>
<path d="M57.9632 49.4009H14.9766V51.9766H57.9632V49.4009Z" fill="#D61A1A"/>
<path d="M66.3022 51.8891V51.9767H66.2334C66.2522 51.9485 66.2772 51.9173 66.3022 51.8891Z" fill="#D61A1A"/>
<path d="M66.303 39.2544H14.9766V41.8301H66.303V39.2544Z" fill="#D61A1A"/>
<path d="M57.9632 59.5474H14.9766V62.12H57.9632V59.5474Z" fill="#D61A1A"/>
<path d="M57.9632 69.6939H14.9766V72.2665H57.9632V69.6939Z" fill="#D61A1A"/>
<path d="M57.9632 79.8405H14.9766V82.413H57.9632V79.8405Z" fill="#D61A1A"/>
<path d="M16.0855 17.2015C16.5106 17.9455 16.7231 18.8051 16.7231 19.7866C16.7231 20.5337 16.5981 21.212 16.3512 21.8184V22.678H15.8792C15.4665 23.2688 14.9195 23.7408 14.2381 24.0846C13.4441 24.491 12.497 24.6911 11.4029 24.6911H9.06168V29.1298H5.60449V14.8384H11.5092C12.5783 14.8384 13.5035 15.0509 14.2818 15.4635C15.0602 15.8793 15.6635 16.4607 16.0855 17.2015Z" fill="#D61A1A"/>
<path d="M29.8971 18.1518C30.4691 19.2177 30.7535 20.4931 30.7535 21.9778C30.7535 23.4626 30.4691 24.7473 29.9002 25.8164C29.3313 26.8854 28.5186 27.7075 27.462 28.2764C26.8056 28.6296 26.0742 28.8735 25.2646 29.0079C24.7738 29.0891 24.2518 29.1298 23.7016 29.1298H18.4189V14.8415H23.6923C24.2455 14.8415 24.7707 14.8822 25.2646 14.9634C26.0742 15.0978 26.8056 15.3417 27.4589 15.6949C28.5123 16.2638 29.325 17.0828 29.8971 18.1518Z" fill="#D61A1A"/>
<path d="M36.2158 17.6454V20.5743H41.8955V23.3876H36.2158V29.1298H32.7617V14.8415H42.5175V17.6454H36.2158Z" fill="#D61A1A"/>
<path d="M16.0758 22.3716C16.0133 22.4779 15.9477 22.5811 15.8789 22.678H16.3509V21.8184C16.2696 22.009 16.179 22.1935 16.0758 22.3716Z" fill="#D61A1A"/>
<path d="M29.8961 18.1518C29.3241 17.0828 28.5113 16.2638 27.4579 15.6949C26.8046 15.3417 26.0732 15.0978 25.2636 14.9634C24.7697 14.8822 24.2446 14.8415 23.6913 14.8415H18.418V29.1298H23.7007C24.2508 29.1298 24.7728 29.0891 25.2636 29.0079C26.0732 28.8735 26.8046 28.6296 27.4611 28.2764C28.5176 27.7075 29.3303 26.8854 29.8992 25.8164C30.4681 24.7473 30.7526 23.4657 30.7526 21.9778C30.7526 20.4899 30.4681 19.2177 29.8961 18.1518ZM26.864 24.4441C26.5764 25.0599 26.1576 25.5069 25.6012 25.7789C25.4918 25.832 25.3792 25.8789 25.2636 25.9195C24.7759 26.0977 24.2102 26.1852 23.5662 26.1852H21.872V17.7861H23.5194C24.1852 17.7861 24.7697 17.8767 25.2636 18.058C25.3761 18.0987 25.4824 18.1424 25.5855 18.1924C26.1482 18.4644 26.5733 18.9083 26.8609 19.5178C27.1485 20.1305 27.2923 20.9494 27.2923 21.9778C27.2923 23.0062 27.1485 23.8283 26.864 24.4441ZM42.5183 17.6454V14.8415H32.7625V29.1298H36.2166V23.3876H41.8962V20.5743H36.2166V17.6454H42.5183Z" fill="#D61A1A"/>
<path d="M46.9503 10.0746H1.17219C0.525143 10.0746 0 10.5997 0 11.2468V32.7245C0 32.7589 0 32.7933 0.0062517 32.8245C0.0562653 33.4247 0.559527 33.8936 1.17219 33.8936H46.9503C47.5973 33.8936 48.1225 33.3715 48.1225 32.7245V11.2468C48.1225 10.5997 47.5973 10.0746 46.9503 10.0746ZM5.60465 29.1298V14.8384H11.5094C12.5784 14.8384 13.5037 15.0509 14.282 15.4635C15.0603 15.8793 15.6636 16.4607 16.0856 17.2015C16.5107 17.9455 16.7233 18.8051 16.7233 19.7866C16.7233 20.5337 16.5983 21.212 16.3513 21.8184V22.678H15.8793C15.4667 23.2688 14.9197 23.7408 14.2382 24.0846C13.4443 24.491 12.4971 24.6911 11.4031 24.6911H9.06184V29.1298H5.60465ZM18.4175 29.1298V14.8415H23.6908C24.2441 14.8415 24.7692 14.8821 25.2631 14.9634C26.0727 15.0978 26.8042 15.3416 27.4575 15.6949C28.5109 16.2638 29.3236 17.0827 29.8956 18.1518C30.4677 19.2177 30.7521 20.493 30.7521 21.9778C30.7521 23.4626 30.4677 24.7473 29.8988 25.8164C29.3298 26.8854 28.5171 27.7075 27.4606 28.2764C26.8042 28.6296 26.0727 28.8734 25.2631 29.0079C24.7724 29.0891 24.2503 29.1298 23.7002 29.1298H18.4175ZM32.762 29.1298V14.8415H42.5178V17.6454H36.2161V20.5743H41.8958V23.3876H36.2161V29.1298H32.762Z" fill="#D61A1A"/>
<path d="M16.0758 22.3716C16.0133 22.4779 15.9477 22.5811 15.8789 22.678H16.3509V21.8184C16.2696 22.009 16.179 22.1935 16.0758 22.3716Z" fill="#D61A1A"/>
<path d="M29.8961 18.1518C29.3241 17.0828 28.5113 16.2638 27.4579 15.6949C26.8046 15.3417 26.0732 15.0978 25.2636 14.9634C24.7697 14.8822 24.2446 14.8415 23.6913 14.8415H18.418V29.1298H23.7007C24.2508 29.1298 24.7728 29.0891 25.2636 29.0079C26.0732 28.8735 26.8046 28.6296 27.4611 28.2764C28.5176 27.7075 29.3303 26.8854 29.8992 25.8164C30.4681 24.7473 30.7526 23.4657 30.7526 21.9778C30.7526 20.4899 30.4681 19.2177 29.8961 18.1518ZM26.864 24.4441C26.5764 25.0599 26.1576 25.5069 25.6012 25.7789C25.4918 25.832 25.3792 25.8789 25.2636 25.9195C24.7759 26.0977 24.2102 26.1852 23.5662 26.1852H21.872V17.7861H23.5194C24.1852 17.7861 24.7697 17.8767 25.2636 18.058C25.3761 18.0987 25.4824 18.1424 25.5855 18.1924C26.1482 18.4644 26.5733 18.9083 26.8609 19.5178C27.1485 20.1305 27.2923 20.9494 27.2923 21.9778C27.2923 23.0062 27.1485 23.8283 26.864 24.4441ZM42.5183 17.6454V14.8415H32.7625V29.1298H36.2166V23.3876H41.8962V20.5743H36.2166V17.6454H42.5183Z" fill="#D61A1A"/>
<path d="M16.0855 17.2015C15.6635 16.4607 15.0602 15.8793 14.2818 15.4635C13.5035 15.0509 12.5783 14.8383 11.5092 14.8383H5.60449V29.1297H9.06168V24.691H11.4029C12.497 24.691 13.4441 24.491 14.2381 24.0846C14.9195 23.7408 15.4665 23.2688 15.8792 22.678C15.9479 22.5811 16.0136 22.4779 16.0761 22.3716C16.1792 22.1935 16.2699 22.009 16.3512 21.8184C16.5981 21.212 16.7231 20.5336 16.7231 19.7866C16.7231 18.8051 16.5106 17.9454 16.0855 17.2015ZM13.1253 20.1054C13.0909 20.4117 13.0065 20.6868 12.8721 20.9338C12.6877 21.262 12.422 21.5183 12.0719 21.6996C11.7218 21.8809 11.2842 21.9715 10.7653 21.9715H9.06168V17.6235H10.7653C11.281 17.6235 11.7155 17.711 12.0687 17.8892C12.422 18.0642 12.6877 18.3143 12.8721 18.6394C13.0503 18.9645 13.144 19.3458 13.144 19.7866C13.144 19.896 13.1378 20.0023 13.1253 20.1054Z" fill="white"/>
<path d="M13.1449 19.7897C13.1449 19.8991 13.1386 20.0054 13.1261 20.1085C13.0917 20.4149 13.0073 20.69 12.8729 20.9369C12.6885 21.2651 12.4228 21.5214 12.0727 21.7027C11.7226 21.884 11.285 21.9747 10.7661 21.9747H9.0625V17.6266H10.7661C11.2819 17.6266 11.7163 17.7141 12.0696 17.8923C12.4228 18.0674 12.6885 18.3174 12.8729 18.6425C13.0511 18.9676 13.1449 19.349 13.1449 19.7897Z" fill="#D61A1A"/>
<path d="M29.8961 18.1518C29.3241 17.0827 28.5113 16.2638 27.4579 15.6948C26.8046 15.3416 26.0732 15.0978 25.2636 14.9634C24.7697 14.8821 24.2446 14.8415 23.6913 14.8415H18.418V29.1297H23.7007C24.2508 29.1297 24.7728 29.0891 25.2636 29.0078C26.0732 28.8734 26.8046 28.6296 27.4611 28.2764C28.5176 27.7075 29.3303 26.8854 29.8992 25.8163C30.4681 24.7473 30.7526 23.4657 30.7526 21.9778C30.7526 20.4899 30.4681 19.2177 29.8961 18.1518ZM26.864 24.4441C26.5764 25.0599 26.1576 25.5069 25.6012 25.7788C25.4918 25.832 25.3792 25.8789 25.2636 25.9195C24.7759 26.0977 24.2102 26.1852 23.5662 26.1852H21.872V17.786H23.5194C24.1852 17.786 24.7697 17.8767 25.2636 18.058C25.3761 18.0986 25.4824 18.1424 25.5855 18.1924C26.1482 18.4644 26.5733 18.9082 26.8609 19.5178C27.1485 20.1304 27.2923 20.9494 27.2923 21.9778C27.2923 23.0062 27.1485 23.8283 26.864 24.4441Z" fill="white"/>
<path d="M42.5175 17.6454V14.8415H32.7617V29.1297H36.2158V23.3876H41.8955V20.5743H36.2158V17.6454H42.5175Z" fill="white"/>
<path d="M66.2334 51.9767H66.3022V51.8891C66.2772 51.9173 66.2522 51.9485 66.2334 51.9767Z" fill="black"/>
<path d="M82.8759 66.4024C82.8759 66.3024 82.8759 66.2024 82.8603 66.1024C82.804 65.6679 82.5946 65.4616 82.157 65.4366C81.935 65.4209 81.7194 65.4459 81.4974 65.4584C81.1536 65.4741 80.9848 65.3209 80.9879 64.9989C80.9973 64.0987 81.0192 63.2016 81.0192 62.3013C81.0192 61.8137 81.0285 61.3136 80.9692 60.8259C80.6472 58.1846 79.3656 56.1747 76.9931 54.9275C76.3992 54.6149 75.774 54.3836 75.1113 54.296C74.8644 54.2585 74.6112 54.246 74.3549 54.2554C74.0454 54.2648 73.7391 54.2679 73.4359 54.2867C73.1358 54.3054 72.8357 54.3429 72.5387 54.4211C71.0665 54.8243 69.913 55.6495 69.0065 56.7873V56.8467H68.9596C68.8002 57.0468 68.6502 57.2562 68.5064 57.475C67.6624 58.7629 67.3061 60.2039 67.3061 61.7356C67.3061 62.8577 67.3061 63.9737 67.2998 65.0958C67.2998 65.3584 67.2498 65.4147 66.9904 65.4241C66.6621 65.4334 66.3371 65.4334 66.0088 65.4209C65.6587 65.4053 65.3868 65.5303 65.1899 65.8179C65.1649 65.8554 65.1336 65.8836 65.1055 65.9179V78.587C65.3305 78.8715 65.6337 78.9496 65.987 78.9496C68.4689 78.9496 70.9539 78.9465 73.4359 78.9465C73.9954 78.9465 74.5549 78.9465 75.1113 78.9465C77.4119 78.9465 79.7094 78.9465 82.0101 78.9465C82.7196 78.9465 82.8822 78.7871 82.8822 78.0744C82.8822 74.1827 82.8822 70.2973 82.879 66.4087L82.8759 66.4024ZM75.1113 71.5288C75.0113 71.6695 74.8925 71.8102 74.755 71.954C74.6799 72.029 74.5674 72.0727 74.4643 72.1165C74.2173 72.2165 74.1767 72.2822 74.2298 72.5416C74.383 73.2824 74.533 74.0264 74.6831 74.7703C74.7737 75.233 74.8706 75.6956 74.9581 76.1582C75.005 76.4052 74.9675 76.4583 74.7112 76.4614C74.4361 76.4614 74.1642 76.4614 73.8922 76.4614H73.0733C72.8419 76.4614 72.7888 76.4177 72.8138 76.1926C72.892 75.5831 72.9826 74.9798 73.0764 74.3765C73.1702 73.7669 73.2702 73.1574 73.3796 72.5479C73.4202 72.3134 73.3515 72.1634 73.1577 72.0227C72.6356 71.6414 72.298 71.1506 72.3418 70.4692C72.3668 70.0753 72.5012 69.7127 72.7388 69.397C72.9138 69.1657 73.1639 69.0157 73.439 68.9438C74.0391 68.7843 74.7612 68.9938 75.1144 69.5189C75.1519 69.5721 75.1863 69.6314 75.2145 69.6908C75.5583 70.4317 75.4895 70.9849 75.1144 71.5257L75.1113 71.5288ZM78.3028 64.9927C78.3028 65.4022 78.2778 65.4241 77.8777 65.4241H70.5507C70.4632 65.4241 70.3788 65.4241 70.2913 65.4241C70.0974 65.4241 70.0162 65.3303 70.0224 65.1365C70.0381 63.808 70.0224 62.4733 70.0631 61.1448C70.1068 59.6506 71.4197 57.6407 73.2671 57.275C73.3233 57.2656 73.3827 57.2531 73.439 57.2437C74.0485 57.1437 74.6081 57.1687 75.1144 57.2875C76.593 57.6282 77.6026 58.7816 78.0496 60.0695C78.234 60.604 78.3153 61.1573 78.3153 61.7168C78.3153 62.8108 78.3153 63.9018 78.3059 64.9896L78.3028 64.9927Z" fill="#404040"/>
</svg>
