<svg width="85" height="92" viewBox="0 0 85 92" fill="none" xmlns="http://www.w3.org/2000/svg">
<path d="M73.5808 51.017C73.7215 51.017 73.8622 51.0107 74.0028 51.0045C74.1122 51.0014 74.2216 51.0014 74.3342 51.0014C74.628 51.0014 74.9187 51.0139 75.2125 51.042V21.1964L73.6027 19.5866L64.6097 10.5966L55.6541 1.64107L54.0162 0H8.97892C7.3691 0 6.0625 1.30973 6.0625 2.91017V89.0867C6.0625 90.6934 7.3691 92 8.97892 92H72.293C73.9059 92 75.2125 90.6934 75.2125 89.0867V82.6725C74.3967 82.6693 73.584 82.6693 72.7681 82.6725V89.0867C72.7681 89.3493 72.5556 89.5587 72.293 89.5587H8.97892C8.71947 89.5587 8.50066 89.3493 8.50066 89.0867V2.91017C8.50066 2.65072 8.71947 2.43816 8.97892 2.43816H52.497V20.0742C52.497 21.5402 53.6911 22.7343 55.1571 22.7343H72.7681V51.0451C73.0495 51.0295 73.3214 51.0232 73.5808 51.017ZM55.1571 20.2899C55.0352 20.2899 54.9383 20.1961 54.9383 20.0742V4.8607L70.7738 20.2899H55.1571Z" fill="#D61A1A"/>
<path d="M56.3984 49.4009H14.9746V51.9766H56.3984V49.4009Z" fill="#D61A1A"/>
<path d="M66.301 39.2544H14.9746V41.8301H66.301V39.2544Z" fill="#D61A1A"/>
<path d="M56.3984 59.5474H14.9746V62.12H56.3984V59.5474Z" fill="#D61A1A"/>
<path d="M56.3984 69.6939H14.9746V72.2665H56.3984V69.6939Z" fill="#D61A1A"/>
<path d="M56.3984 79.8404H14.9746V82.413H56.3984V79.8404Z" fill="#D61A1A"/>
<path d="M16.0845 17.2015C16.5096 17.9455 16.7222 18.8051 16.7222 19.7866C16.7222 20.5337 16.5971 21.212 16.3502 21.8184V22.678H15.8782C15.4656 23.2688 14.9185 23.7408 14.2371 24.0846C13.4431 24.491 12.496 24.6911 11.402 24.6911H9.0607V29.1298H5.60352V14.8384H11.5082C12.5773 14.8384 13.5025 15.0509 14.2809 15.4635C15.0592 15.8793 15.6625 16.4607 16.0845 17.2015Z" fill="#D61A1A"/>
<path d="M29.8941 18.1518C30.4662 19.2177 30.7506 20.493 30.7506 21.9778C30.7506 23.4626 30.4662 24.7473 29.8973 25.8163C29.3284 26.8854 28.5156 27.7075 27.4591 28.2764C26.8027 28.6296 26.0712 28.8734 25.2616 29.0078C24.7709 29.0891 24.2489 29.1298 23.6987 29.1298H18.416V14.8415H23.6893C24.2426 14.8415 24.7677 14.8821 25.2616 14.9634C26.0712 15.0978 26.8027 15.3416 27.456 15.6948C28.5094 16.2638 29.3221 17.0827 29.8941 18.1518Z" fill="#D61A1A"/>
<path d="M36.2158 17.6454V20.5743H41.8954V23.3876H36.2158V29.1298H32.7617V14.8415H42.5175V17.6454H36.2158Z" fill="#D61A1A"/>
<path d="M16.0778 22.3717C16.0153 22.4779 15.9496 22.5811 15.8809 22.678H16.3529V21.8184C16.2716 22.0091 16.1809 22.1935 16.0778 22.3717Z" fill="#D61A1A"/>
<path d="M29.8961 18.1518C29.3241 17.0827 28.5113 16.2638 27.4579 15.6948C26.8046 15.3416 26.0732 15.0978 25.2636 14.9634C24.7697 14.8821 24.2446 14.8415 23.6913 14.8415H18.418V29.1298H23.7007C24.2508 29.1298 24.7728 29.0891 25.2636 29.0078C26.0732 28.8734 26.8046 28.6296 27.4611 28.2764C28.5176 27.7075 29.3303 26.8854 29.8992 25.8163C30.4681 24.7473 30.7526 23.4657 30.7526 21.9778C30.7526 20.4899 30.4681 19.2177 29.8961 18.1518ZM26.864 24.4441C26.5764 25.0599 26.1576 25.5069 25.6012 25.7788C25.4918 25.832 25.3792 25.8789 25.2636 25.9195C24.7759 26.0977 24.2102 26.1852 23.5662 26.1852H21.872V17.786H23.5194C24.1852 17.786 24.7697 17.8767 25.2636 18.058C25.3761 18.0986 25.4824 18.1424 25.5855 18.1924C26.1482 18.4644 26.5733 18.9082 26.8609 19.5178C27.1485 20.1304 27.2923 20.9494 27.2923 21.9778C27.2923 23.0062 27.1485 23.8283 26.864 24.4441ZM42.5183 17.6454V14.8415H32.7625V29.1298H36.2166V23.3876H41.8962V20.5743H36.2166V17.6454H42.5183Z" fill="#D61A1A"/>
<path d="M46.9503 10.0746H1.17219C0.525143 10.0746 0 10.5997 0 11.2468V32.7245C0 32.7589 0 32.7933 0.0062517 32.8245C0.0562653 33.4247 0.559527 33.8936 1.17219 33.8936H46.9503C47.5973 33.8936 48.1225 33.3715 48.1225 32.7245V11.2468C48.1225 10.5997 47.5973 10.0746 46.9503 10.0746ZM5.60465 29.1298V14.8384H11.5094C12.5784 14.8384 13.5037 15.0509 14.282 15.4635C15.0603 15.8793 15.6636 16.4607 16.0856 17.2015C16.5107 17.9455 16.7233 18.8051 16.7233 19.7866C16.7233 20.5337 16.5983 21.212 16.3513 21.8184V22.678H15.8793C15.4667 23.2688 14.9197 23.7408 14.2382 24.0846C13.4443 24.491 12.4971 24.6911 11.4031 24.6911H9.06184V29.1298H5.60465ZM18.4175 29.1298V14.8415H23.6908C24.2441 14.8415 24.7692 14.8821 25.2631 14.9634C26.0727 15.0978 26.8042 15.3416 27.4575 15.6949C28.5109 16.2638 29.3236 17.0827 29.8956 18.1518C30.4677 19.2177 30.7521 20.493 30.7521 21.9778C30.7521 23.4626 30.4677 24.7473 29.8988 25.8164C29.3298 26.8854 28.5171 27.7075 27.4606 28.2764C26.8042 28.6296 26.0727 28.8734 25.2631 29.0079C24.7724 29.0891 24.2503 29.1298 23.7002 29.1298H18.4175ZM32.762 29.1298V14.8415H42.5178V17.6454H36.2161V20.5743H41.8958V23.3876H36.2161V29.1298H32.762Z" fill="#D61A1A"/>
<path d="M16.0778 22.3717C16.0153 22.4779 15.9496 22.5811 15.8809 22.678H16.3529V21.8184C16.2716 22.0091 16.1809 22.1935 16.0778 22.3717Z" fill="#D61A1A"/>
<path d="M29.8961 18.1518C29.3241 17.0827 28.5113 16.2638 27.4579 15.6948C26.8046 15.3416 26.0732 15.0978 25.2636 14.9634C24.7697 14.8821 24.2446 14.8415 23.6913 14.8415H18.418V29.1298H23.7007C24.2508 29.1298 24.7728 29.0891 25.2636 29.0078C26.0732 28.8734 26.8046 28.6296 27.4611 28.2764C28.5176 27.7075 29.3303 26.8854 29.8992 25.8163C30.4681 24.7473 30.7526 23.4657 30.7526 21.9778C30.7526 20.4899 30.4681 19.2177 29.8961 18.1518ZM26.864 24.4441C26.5764 25.0599 26.1576 25.5069 25.6012 25.7788C25.4918 25.832 25.3792 25.8789 25.2636 25.9195C24.7759 26.0977 24.2102 26.1852 23.5662 26.1852H21.872V17.786H23.5194C24.1852 17.786 24.7697 17.8767 25.2636 18.058C25.3761 18.0986 25.4824 18.1424 25.5855 18.1924C26.1482 18.4644 26.5733 18.9082 26.8609 19.5178C27.1485 20.1304 27.2923 20.9494 27.2923 21.9778C27.2923 23.0062 27.1485 23.8283 26.864 24.4441ZM42.5183 17.6454V14.8415H32.7625V29.1298H36.2166V23.3876H41.8962V20.5743H36.2166V17.6454H42.5183Z" fill="#D61A1A"/>
<path d="M16.0864 17.2015C15.6645 16.4607 15.0612 15.8793 14.2828 15.4635C13.5045 15.0509 12.5792 14.8383 11.5102 14.8383H5.60547V29.1297H9.06266V24.691H11.4039C12.498 24.691 13.4451 24.491 14.2391 24.0846C14.9205 23.7408 15.4675 23.2688 15.8801 22.678C15.9489 22.5811 16.0145 22.4779 16.0771 22.3716C16.1802 22.1935 16.2709 22.009 16.3521 21.8184C16.5991 21.212 16.7241 20.5336 16.7241 19.7866C16.7241 18.8051 16.5116 17.9454 16.0864 17.2015ZM13.1263 20.1054C13.0919 20.4117 13.0075 20.6868 12.8731 20.9338C12.6886 21.262 12.4229 21.5183 12.0729 21.6996C11.7228 21.8809 11.2851 21.9715 10.7662 21.9715H9.06266V17.6235H10.7662C11.282 17.6235 11.7165 17.711 12.0697 17.8892C12.4229 18.0642 12.6886 18.3143 12.8731 18.6394C13.0512 18.9645 13.145 19.3458 13.145 19.7866C13.145 19.896 13.1388 20.0023 13.1263 20.1054Z" fill="white"/>
<path d="M13.1429 19.7897C13.1429 19.8991 13.1367 20.0054 13.1242 20.1085C13.0898 20.4148 13.0054 20.6899 12.871 20.9369C12.6865 21.2651 12.4208 21.5214 12.0707 21.7027C11.7206 21.884 11.283 21.9746 10.7641 21.9746H9.06055V17.6266H10.7641C11.2799 17.6266 11.7144 17.7141 12.0676 17.8923C12.4208 18.0673 12.6865 18.3174 12.871 18.6425C13.0491 18.9676 13.1429 19.3489 13.1429 19.7897Z" fill="#D61A1A"/>
<path d="M29.898 18.1517C29.326 17.0827 28.5133 16.2637 27.4599 15.6948C26.8066 15.3416 26.0751 15.0978 25.2655 14.9634C24.7716 14.8821 24.2465 14.8415 23.6932 14.8415H18.4199V29.1297H23.7026C24.2528 29.1297 24.7748 29.0891 25.2655 29.0078C26.0751 28.8734 26.8066 28.6296 27.463 28.2764C28.5195 27.7075 29.3323 26.8854 29.9012 25.8163C30.4701 24.7473 30.7545 23.4657 30.7545 21.9778C30.7545 20.4899 30.4701 19.2177 29.898 18.1517ZM26.866 24.4441C26.5784 25.0599 26.1595 25.5069 25.6031 25.7788C25.4937 25.8319 25.3812 25.8788 25.2655 25.9195C24.7779 26.0976 24.2121 26.1852 23.5682 26.1852H21.874V17.786H23.5213C24.1871 17.786 24.7716 17.8767 25.2655 18.058C25.3781 18.0986 25.4843 18.1424 25.5875 18.1924C26.1501 18.4643 26.5753 18.9082 26.8628 19.5177C27.1504 20.1304 27.2942 20.9494 27.2942 21.9778C27.2942 23.0062 27.1504 23.8283 26.866 24.4441Z" fill="white"/>
<path d="M42.5175 17.6453V14.8415H32.7617V29.1297H36.2158V23.3875H41.8954V20.5743H36.2158V17.6453H42.5175Z" fill="white"/>
<path d="M84.5477 67.0218C84.5423 67.5588 84.2163 67.9889 83.7682 68.0643C83.6807 68.08 83.5932 68.08 83.5057 68.08C81.2337 68.08 78.9616 68.08 76.6869 68.08C75.7802 68.08 74.8735 68.08 73.9668 68.08H64.4465C63.7413 68.08 63.3887 67.6655 63.3887 66.8334C63.3887 66.3876 63.3887 65.9386 63.3887 65.4927C63.394 64.8992 63.736 64.4628 64.2344 64.4094C64.3033 64.4031 64.3723 64.4 64.4412 64.4C70.7881 64.4 77.1323 64.4 83.4792 64.4C83.861 64.4 84.2003 64.4942 84.3992 64.9149C84.4761 65.0782 84.5291 65.276 84.537 65.4613C84.5556 65.9825 84.5477 66.5037 84.5424 67.0281L84.5477 67.0218Z" fill="#1E1E1E"/>
<path d="M77.7077 59.337C76.6543 60.5123 75.6009 61.6908 74.5412 62.863C74.1661 63.2787 73.5222 63.2818 73.144 62.863C72.0968 61.7002 71.0528 60.5342 70.0087 59.3714C69.7086 59.0369 69.7899 58.74 70.2275 58.6118C70.3651 58.5712 70.5182 58.5649 70.6652 58.5618C71.2278 58.5555 71.7873 58.5618 72.3719 58.5618V58.2805C72.3719 56.8988 72.3719 55.5203 72.3719 54.1418C72.3719 53.6792 72.6344 53.376 73.0939 53.3573C73.591 53.3354 74.088 53.3354 74.585 53.3573C75.0445 53.376 75.307 53.6823 75.307 54.1418C75.307 55.5203 75.307 56.902 75.307 58.2805V58.5649C75.9072 58.5649 76.4824 58.5587 77.0575 58.5681C77.2232 58.5681 77.4014 58.5962 77.5545 58.6556C77.8952 58.7931 77.9484 59.0682 77.7014 59.3401L77.7077 59.337Z" fill="#1E1E1E"/>
<path d="M77.6376 74.5306C77.4969 74.5869 77.3375 74.6119 77.1843 74.615C76.5998 74.6244 76.0153 74.6182 75.4026 74.6182V74.8995C75.4026 76.2874 75.4026 77.6753 75.4026 79.0631C75.4026 79.4914 75.1557 79.7946 74.7243 79.8165C74.1992 79.8446 73.6709 79.8415 73.1457 79.8165C72.7237 79.7977 72.4643 79.4882 72.4643 79.0631C72.4643 77.6815 72.4643 76.303 72.4643 74.9214V74.6182C71.861 74.6182 71.2827 74.6275 70.7045 74.6119C70.5169 74.6057 70.3168 74.5713 70.1512 74.49C69.8698 74.3493 69.8386 74.1055 70.048 73.8711C70.8389 72.9865 71.6328 72.105 72.4268 71.2204C72.6925 70.9234 72.9613 70.6265 73.227 70.3264C73.599 69.9106 74.2523 69.8981 74.6243 70.3108C75.6808 71.4861 76.7342 72.6614 77.7908 73.8398C78.0471 74.1274 77.9939 74.39 77.6376 74.5338V74.5306Z" fill="#1E1E1E"/>
</svg>
