<svg width="30" height="30" viewBox="0 0 30 30" fill="none" xmlns="http://www.w3.org/2000/svg">
<path d="M30 14.8V15.2C28.5707 16.6547 27.1493 18.116 25.7067 19.5573C25.408 19.856 25.0133 19.9013 24.704 19.5573C24.392 19.212 24.5027 18.8693 24.8133 18.5627C25.74 17.648 26.6627 16.7307 27.6813 15.72H15.712V27.7027C16.688 26.7147 17.5627 25.836 18.428 24.948C18.784 24.5827 19.18 24.2853 19.6107 24.76C19.9933 25.18 19.7293 25.564 19.38 25.904C17.9813 27.264 16.592 28.6333 15.2 30H14.8C13.3453 28.5707 11.8827 27.1493 10.44 25.708C10.1373 25.4053 10.08 24.96 10.4533 24.7267C10.672 24.5907 11.18 24.6213 11.3707 24.7893C12.184 25.508 12.9333 26.3 13.696 27.076C13.864 27.2467 13.9907 27.4573 14.136 27.6493C14.188 27.612 14.24 27.5747 14.2907 27.5373V15.7027H2.33067C2.788 16.1613 3.16667 16.54 3.544 16.92C4.108 17.4853 4.71067 18.0187 5.21333 18.636C5.37733 18.8373 5.408 19.336 5.27067 19.552C5.03733 19.9187 4.59467 19.868 4.28933 19.5613C2.85067 18.116 1.428 16.6547 0 15.2V14.8C1.42933 13.3453 2.85067 11.884 4.292 10.4427C4.592 10.1427 4.98533 10.0987 5.29467 10.4413C5.60667 10.7853 5.496 11.1307 5.18667 11.436C4.26 12.352 3.33733 13.2693 2.31733 14.28H14.288V2.3C13.3133 3.28533 12.4387 4.164 11.572 5.052C11.216 5.41733 10.8213 5.71467 10.3907 5.24C10.0093 4.82 10.268 4.43733 10.62 4.096C12.0187 2.736 13.4067 1.36667 14.8 0H15.2C16.6547 1.42933 18.116 2.85067 19.56 4.29067C19.864 4.59467 19.916 5.04 19.5453 5.27333C19.328 5.40933 18.82 5.37867 18.6293 5.21067C17.816 4.49333 17.0667 3.7 16.304 2.92533C16.136 2.75467 16.0093 2.54267 15.8627 2.35067C15.812 2.388 15.76 2.42533 15.7093 2.46267V14.2973H27.668C27.2427 13.8707 26.8973 13.5227 26.5507 13.176C25.956 12.5773 25.3227 12.012 24.7867 11.3653C24.6213 11.1653 24.5907 10.6653 24.728 10.4493C24.9627 10.0787 25.4067 10.136 25.7093 10.44C27.1493 11.8827 28.5707 13.3453 30 14.8Z" fill="white"/>
</svg>
