<svg width="40" height="35" viewBox="0 0 40 35" fill="none" xmlns="http://www.w3.org/2000/svg">
<path d="M38.8587 0.0756243C26.3147 0.0791418 13.7724 0.077383 1.23022 0.0826592C0.819556 0.0826592 0.410667 0.142455 0 0.175871V34.8241C0.371556 34.8769 0.743111 34.9754 1.11467 34.9754C13.6907 34.9842 26.2684 34.9824 38.8462 34.9824C39.2302 34.9824 39.616 34.9947 40 35V0C39.6196 0.0263806 39.2391 0.0756243 38.8587 0.0756243ZM36.6471 2.46746C31.0542 7.28808 25.5893 11.9979 20.0498 16.7728C14.5689 12.0348 9.10578 7.31446 3.49689 2.46746H36.6471ZM2.43556 3.08125C8.064 7.94231 13.5804 12.7049 19.1698 17.5325C13.6053 22.325 8.08178 27.0823 2.43556 31.9451V3.08125ZM3.408 32.631C9.01156 27.8016 14.5049 23.0689 20.048 18.2923C25.5467 23.0426 31.024 27.7752 36.6453 32.631H3.408ZM37.6498 31.9768C32.0391 27.1298 26.5156 22.3602 20.9262 17.5343C26.5316 12.7049 32.0338 7.96518 37.6498 3.12698V31.9768Z" fill="#888888"/>
</svg>
