<svg width="34" height="44" viewBox="0 0 34 44" fill="none" xmlns="http://www.w3.org/2000/svg">
<path d="M28.0014 5.06979L23.7182 0.783988L22.9343 0H1.3955C0.624577 0 0 0.624577 0 1.39288V42.6071C0 43.3754 0.624577 44 1.3955 44H31.6757C32.4466 44 33.0712 43.3754 33.0712 42.6071V10.137L28.0014 5.06979ZM23.3759 2.32583L30.9492 9.70577H23.4804C23.4229 9.70577 23.3759 9.65873 23.3759 9.60124V2.32583ZM31.9031 42.6071C31.9031 42.7326 31.8012 42.8345 31.6757 42.8345H1.3955C1.27006 42.8345 1.16553 42.7326 1.16553 42.6071V1.39288C1.16553 1.27006 1.27006 1.16814 1.3955 1.16814H22.2078V9.60124C22.2078 10.3016 22.7775 10.8739 23.4804 10.8739H31.9031V42.6071Z" fill="white"/>
<path d="M20.6199 28.3202H23.6357V30.8473H20.3194L19.8542 34.5582H17.2331L17.6983 30.8473H14.2879L13.8228 34.5582H11.2251L11.6877 30.8473H8.64844V28.3202H11.9882L12.4743 24.5623H9.43504V22.0353H12.7748L13.24 18.3244H15.8376L15.3724 22.0353H18.7828L19.248 18.3244H21.8456L21.3804 22.0353H24.3961L24.4197 24.5623H21.0799L20.6147 28.3202H20.6199ZM17.9988 28.3202L18.4849 24.5623H15.0745L14.5885 28.3202H17.9988Z" fill="white"/>
</svg>
