<svg width="33" height="44" viewBox="0 0 33 44" fill="none" xmlns="http://www.w3.org/2000/svg">
<path d="M27.9411 5.06979L23.6672 0.783988L22.8849 0H1.39249C0.623232 0 0 0.624577 0 1.39288V42.6071C0 43.3754 0.623232 44 1.39249 44H31.6075C32.3768 44 33 43.3754 33 42.6071V10.137L27.9411 5.06979ZM23.3256 2.32583L30.8826 9.70577H23.4299C23.3725 9.70577 23.3256 9.65873 23.3256 9.60124V2.32583ZM31.8344 42.6071C31.8344 42.7326 31.7327 42.8345 31.6075 42.8345H1.39249C1.26733 42.8345 1.16302 42.7326 1.16302 42.6071V1.39288C1.16302 1.27006 1.26733 1.16814 1.39249 1.16814H22.1599V9.60124C22.1599 10.3016 22.7284 10.8739 23.4299 10.8739H31.8344V42.6071Z" fill="white"/>
<path d="M16.0203 1.16815V19.8767C15.8795 19.7722 15.7622 19.6938 15.6552 19.6049C14.0228 18.2434 12.38 16.8923 10.7659 15.5099C10.4399 15.2303 10.26 15.2852 9.97053 15.5308C8.41376 16.8557 6.84394 18.1572 5.27674 19.469C5.1281 19.5945 4.97686 19.7147 4.75781 19.895V1.16815H16.0229H16.0203Z" fill="white"/>
</svg>
