<svg width="30" height="37" viewBox="0 0 30 37" fill="none" xmlns="http://www.w3.org/2000/svg">
<path d="M29.9884 8.50068C30.0076 14.5637 30.0076 20.6019 29.9884 26.6462C29.9884 27.4298 29.9307 28.2133 29.8027 28.9844C29.0663 33.1881 26.2424 35.9553 21.9265 36.7388C21.2861 36.8445 20.6202 36.9192 19.9798 37.0062H17.5914C16.855 36.9192 16.1058 36.8445 15.3502 36.7202C11.9884 36.1294 9.29253 34.5437 7.38432 31.7454C5.1111 28.3936 2.81228 25.0419 0.539065 21.6714C0.449418 21.5284 0.353366 21.3667 0.282929 21.205C-0.229344 20.2225 -0.0500488 18.9975 0.705554 18.2077C1.40353 17.4615 2.54333 17.2625 3.62551 17.6729C4.26585 17.9217 4.70769 18.3881 5.09189 18.9042C5.97556 20.0795 6.87204 21.2548 7.75571 22.4363C7.81334 22.5234 7.88378 22.5793 7.99264 22.7224V5.27328C7.99264 5.0432 8.01185 4.79446 8.05027 4.55816C8.26799 3.46992 9.29894 2.74236 10.4195 2.86673C11.6298 2.9911 12.4046 3.88034 12.4046 5.13026V15.3286C12.4046 15.5089 12.4046 15.683 12.4622 15.8634C12.5519 16.1867 12.7952 16.3422 13.1218 16.3422C13.4676 16.3608 13.7301 16.1805 13.8197 15.8634C13.8774 15.683 13.8774 15.5089 13.8774 15.3286V2.3879C13.8774 2.26353 13.8774 2.12051 13.8966 1.99614C13.9862 0.603197 15.3822 -0.323357 16.7397 0.105718C17.713 0.410424 18.2829 1.21261 18.2829 2.33194V15.341C18.2829 15.5027 18.2829 15.6644 18.3021 15.8074C18.3726 16.1432 18.6671 16.3422 19.0001 16.3422C19.3459 16.3422 19.6212 16.1494 19.6981 15.8074C19.7365 15.7017 19.7557 15.5773 19.7557 15.4529C19.7557 11.5477 19.7557 7.63009 19.7365 3.70622C19.7365 3.02841 19.9414 2.42521 20.4921 1.95883C21.1901 1.36807 21.9969 1.2437 22.8422 1.62303C23.7771 2.01479 24.1613 2.79832 24.1613 3.74353C24.1613 8.09026 24.1613 12.4245 24.1421 16.7526C24.1421 17.4491 24.379 17.7662 24.8592 17.7849C25.3715 17.7849 25.6148 17.4491 25.6148 16.734V8.50068C25.6148 8.19597 25.6148 7.89748 25.6533 7.61143C25.7621 6.56051 26.5882 5.77698 27.6191 5.70236C28.7205 5.63395 29.6554 6.2558 29.9307 7.28807C30.0204 7.67984 30.0012 8.09026 30.0012 8.50068H29.9884Z" fill="#888888"/>
</svg>
