<svg width="100" height="92" viewBox="0 0 100 92" fill="none" xmlns="http://www.w3.org/2000/svg">
<path d="M77.357 64.43H76.4849V67.3746H77.1851C77.8509 67.3746 78.4355 67.4652 78.9293 67.6465V64.5519C78.4355 64.4706 77.9103 64.43 77.357 64.43ZM77.232 75.7737H76.4849V78.7183H77.3664C77.9166 78.7183 78.4386 78.6776 78.9293 78.5964V75.508C78.4417 75.6862 77.8759 75.7737 77.232 75.7737ZM78.9293 56.5372V21.1964L77.3195 19.5866L68.3265 10.5966L59.3709 1.64107L57.733 0H12.6957C11.0859 0 9.7793 1.30973 9.7793 2.91017V89.0867C9.7793 90.6934 11.0859 92 12.6957 92H76.0098C77.6227 92 78.9293 90.6934 78.9293 89.0867V86.6079H76.4849V89.0867C76.4849 89.3493 76.2724 89.5587 76.0098 89.5587H12.6957C12.4363 89.5587 12.2175 89.3493 12.2175 89.0867V2.91017C12.2175 2.65072 12.4363 2.43816 12.6957 2.43816H56.2138V20.0742C56.2138 21.5402 57.4079 22.7343 58.8739 22.7343H76.4849V56.5372H78.9293ZM58.8739 20.2899C58.752 20.2899 58.6551 20.1961 58.6551 20.0742V4.8607L74.4906 20.2899H58.8739Z" fill="#D61A1A"/>
<path d="M80.9573 71.5663C80.9573 72.5947 80.8135 73.4168 80.5291 74.0326C80.2415 74.6484 79.8226 75.0954 79.2662 75.3673C79.1568 75.4205 79.0443 75.4674 78.9287 75.508C78.441 75.6862 77.8752 75.7737 77.2313 75.7737H75.5371V67.3745H77.1844C77.8502 67.3745 78.4348 67.4652 78.9287 67.6465C79.0412 67.6871 79.1475 67.7309 79.2506 67.7809C79.8133 68.0529 80.2384 68.4967 80.526 69.1063C80.8135 69.7189 80.9573 70.5379 80.9573 71.5663Z" fill="#D61A1A"/>
<path d="M86.7673 58.5409H68.4686C66.4246 58.5409 64.7676 60.1979 64.7676 62.2419V80.5406C64.7676 82.5846 66.4246 84.2416 68.4686 84.2416H86.7673C88.8113 84.2416 90.4683 82.5846 90.4683 80.5406V62.2419C90.4683 60.1979 88.8113 58.5409 86.7673 58.5409Z" fill="#325499"/>
<path d="M86.0178 64.8519C86.0085 64.9238 86.0053 64.9988 85.9866 65.0707C85.2114 68.3591 84.4362 71.6507 83.661 74.939C83.4422 75.8705 83.2233 76.7989 83.0045 77.7304C82.9514 77.9617 82.9514 77.9649 82.7076 77.9649C81.8948 77.9649 81.079 77.9649 80.2663 77.9649C80.0068 77.9649 80.0068 77.9649 79.9506 77.7242C79.4473 75.6299 78.9409 73.5387 78.4408 71.4443C78.2345 70.5847 78.025 69.7251 77.8281 68.8655C77.7343 68.4498 77.6624 68.0278 77.5781 67.5808C77.5093 67.9965 77.4561 68.3904 77.3749 68.7811C77.2123 69.5626 77.0435 70.344 76.8654 71.1224C76.3746 73.298 75.8776 75.4736 75.3806 77.6492C75.3087 77.9586 75.3806 77.9649 74.9961 77.9649C74.1834 77.9649 73.3675 77.9649 72.5548 77.9649C72.3172 77.9649 72.3141 77.9649 72.2579 77.7273C71.6796 75.286 71.0982 72.8447 70.5199 70.4003C70.101 68.6248 69.6822 66.8493 69.2633 65.0707C69.2477 65.002 69.2383 64.9332 69.2227 64.8269H69.4977C70.1823 64.8269 70.8669 64.8269 71.5545 64.8269C71.8046 64.8269 71.8077 64.8269 71.8577 65.077C72.1203 66.3336 72.3798 67.5902 72.6423 68.8468C72.9924 70.5347 73.3488 72.2227 73.6926 73.9138C73.7864 74.3795 73.8458 74.8546 73.9177 75.3204C73.9177 75.3235 73.9302 75.311 73.9333 75.2985C74.0802 74.192 74.3678 73.1167 74.6179 72.0351C75.1493 69.7283 75.6838 67.4214 76.2183 65.1176C76.2965 64.78 76.2746 64.83 76.5778 64.83C77.3342 64.83 78.0907 64.83 78.8471 64.83C79.066 64.83 79.0691 64.83 79.1191 65.0395C79.838 67.9903 80.5601 70.9411 81.2697 73.895C81.3853 74.3795 81.451 74.8765 81.5322 75.3329C81.5666 75.0766 81.5979 74.7796 81.651 74.4858C81.7979 73.6731 81.9542 72.8604 82.1074 72.0476C82.4137 70.4503 82.7232 68.8561 83.0295 67.2588C83.1733 66.5086 83.3171 65.7615 83.464 65.0113C83.4734 64.9582 83.4984 64.9051 83.514 64.8582C83.7141 64.8082 85.7834 64.805 86.0241 64.8582L86.0178 64.8519Z" fill="white"/>
<path d="M70.0188 49.4009H18.6924V51.9766H70.0188V49.4009Z" fill="#D61A1A"/>
<path d="M18.6924 59.5474H57.4342C57.2622 59.9538 57.1716 60.3852 57.1716 60.8353V62.12H18.6924V59.5474Z" fill="#D61A1A"/>
<path d="M57.1716 69.6939H18.6924V72.2665H57.1716V69.6939Z" fill="#D61A1A"/>
<path d="M57.1716 82.313C57.1716 82.3474 57.1716 82.3786 57.1747 82.413H18.6924V79.8405H57.1716V82.313Z" fill="#D61A1A"/>
<path d="M16.0864 25.135C16.5116 25.8789 16.7241 26.7385 16.7241 27.72C16.7241 28.4671 16.5991 29.1454 16.3521 29.7518V30.6115H15.8801C15.4675 31.2022 14.9205 31.6742 14.2391 32.0181C13.4451 32.4244 12.498 32.6245 11.4039 32.6245H9.06266V37.0632H5.60547V22.7718H11.5102C12.5792 22.7718 13.5045 22.9844 14.2828 23.397C15.0612 23.8127 15.6645 24.3941 16.0864 25.135Z" fill="#D61A1A"/>
<path d="M29.8961 26.0852C30.4681 27.1512 30.7526 28.4265 30.7526 29.9113C30.7526 31.3961 30.4681 32.6808 29.8992 33.7498C29.3303 34.8189 28.5176 35.641 27.4611 36.2099C26.8046 36.5631 26.0732 36.8069 25.2636 36.9413C24.7728 37.0226 24.2508 37.0632 23.7007 37.0632H18.418V22.775H23.6913C24.2446 22.775 24.7697 22.8156 25.2636 22.8969C26.0732 23.0313 26.8046 23.2751 27.4579 23.6283C28.5113 24.1972 29.3241 25.0162 29.8961 26.0852Z" fill="#D61A1A"/>
<path d="M36.2158 25.5789V28.5078H41.8955V31.321H36.2158V37.0632H32.7617V22.775H42.5175V25.5789H36.2158Z" fill="#D61A1A"/>
<path d="M16.0758 30.3051C16.0133 30.4114 15.9477 30.5146 15.8789 30.6115H16.3509V29.7519C16.2696 29.9425 16.179 30.127 16.0758 30.3051Z" fill="#D61A1A"/>
<path d="M29.8961 26.0852C29.3241 25.0162 28.5113 24.1972 27.4579 23.6283C26.8046 23.2751 26.0732 23.0313 25.2636 22.8969C24.7697 22.8156 24.2446 22.775 23.6913 22.775H18.418V37.0632H23.7007C24.2508 37.0632 24.7728 37.0226 25.2636 36.9413C26.0732 36.8069 26.8046 36.5631 27.4611 36.2099C28.5176 35.641 29.3303 34.8189 29.8992 33.7498C30.4681 32.6808 30.7526 31.3992 30.7526 29.9113C30.7526 28.4234 30.4681 27.1512 29.8961 26.0852ZM26.864 32.3776C26.5764 32.9934 26.1576 33.4404 25.6012 33.7123C25.4918 33.7654 25.3792 33.8123 25.2636 33.853C24.7759 34.0311 24.2102 34.1187 23.5662 34.1187H21.872V25.7195H23.5194C24.1852 25.7195 24.7697 25.8102 25.2636 25.9915C25.3761 26.0321 25.4824 26.0759 25.5855 26.1259C26.1482 26.3978 26.5733 26.8417 26.8609 27.4512C27.1485 28.0639 27.2923 28.8829 27.2923 29.9113C27.2923 30.9397 27.1485 31.7618 26.864 32.3776ZM42.5183 25.5789V22.775H32.7625V37.0632H36.2166V31.321H41.8962V28.5078H36.2166V25.5789H42.5183Z" fill="#D61A1A"/>
<path d="M46.9503 18.008H1.17219C0.525143 18.008 0 18.5331 0 19.1802V40.6579C0 40.6923 0 40.7267 0.0062517 40.7579C0.0562653 41.3581 0.559527 41.827 1.17219 41.827H46.9503C47.5973 41.827 48.1225 41.305 48.1225 40.6579V19.1802C48.1225 18.5331 47.5973 18.008 46.9503 18.008ZM5.60465 37.0632V22.7718H11.5094C12.5784 22.7718 13.5037 22.9843 14.282 23.397C15.0603 23.8127 15.6636 24.3941 16.0856 25.1349C16.5107 25.8789 16.7233 26.7385 16.7233 27.72C16.7233 28.4671 16.5983 29.1454 16.3513 29.7518V30.6114H15.8793C15.4667 31.2022 14.9197 31.6742 14.2382 32.0181C13.4443 32.4244 12.4971 32.6245 11.4031 32.6245H9.06184V37.0632H5.60465ZM18.4175 37.0632V22.7749H23.6908C24.2441 22.7749 24.7692 22.8156 25.2631 22.8968C26.0727 23.0312 26.8042 23.2751 27.4575 23.6283C28.5109 24.1972 29.3236 25.0161 29.8956 26.0852C30.4677 27.1511 30.7521 28.4265 30.7521 29.9112C30.7521 31.396 30.4677 32.6807 29.8988 33.7498C29.3298 34.8188 28.5171 35.6409 27.4606 36.2098C26.8042 36.563 26.0727 36.8069 25.2631 36.9413C24.7724 37.0225 24.2503 37.0632 23.7002 37.0632H18.4175ZM32.762 37.0632V22.7749H42.5178V25.5788H36.2161V28.5077H41.8958V31.321H36.2161V37.0632H32.762Z" fill="#D61A1A"/>
<path d="M16.0758 30.3051C16.0133 30.4114 15.9477 30.5146 15.8789 30.6115H16.3509V29.7519C16.2696 29.9425 16.179 30.127 16.0758 30.3051Z" fill="#D61A1A"/>
<path d="M29.8961 26.0852C29.3241 25.0162 28.5113 24.1972 27.4579 23.6283C26.8046 23.2751 26.0732 23.0313 25.2636 22.8969C24.7697 22.8156 24.2446 22.775 23.6913 22.775H18.418V37.0632H23.7007C24.2508 37.0632 24.7728 37.0226 25.2636 36.9413C26.0732 36.8069 26.8046 36.5631 27.4611 36.2099C28.5176 35.641 29.3303 34.8189 29.8992 33.7498C30.4681 32.6808 30.7526 31.3992 30.7526 29.9113C30.7526 28.4234 30.4681 27.1512 29.8961 26.0852ZM26.864 32.3776C26.5764 32.9934 26.1576 33.4404 25.6012 33.7123C25.4918 33.7654 25.3792 33.8123 25.2636 33.853C24.7759 34.0311 24.2102 34.1187 23.5662 34.1187H21.872V25.7195H23.5194C24.1852 25.7195 24.7697 25.8102 25.2636 25.9915C25.3761 26.0321 25.4824 26.0759 25.5855 26.1259C26.1482 26.3978 26.5733 26.8417 26.8609 27.4512C27.1485 28.0639 27.2923 28.8829 27.2923 29.9113C27.2923 30.9397 27.1485 31.7618 26.864 32.3776ZM42.5183 25.5789V22.775H32.7625V37.0632H36.2166V31.321H41.8962V28.5078H36.2166V25.5789H42.5183Z" fill="#D61A1A"/>
<path d="M16.0855 25.135C15.6635 24.3941 15.0602 23.8127 14.2818 23.397C13.5035 22.9844 12.5783 22.7718 11.5092 22.7718H5.60449V37.0632H9.06168V32.6245H11.4029C12.497 32.6245 13.4441 32.4244 14.2381 32.0181C14.9195 31.6742 15.4665 31.2022 15.8792 30.6115C15.9479 30.5145 16.0136 30.4114 16.0761 30.3051C16.1792 30.1269 16.2699 29.9425 16.3512 29.7518C16.5981 29.1454 16.7231 28.4671 16.7231 27.72C16.7231 26.7385 16.5106 25.8789 16.0855 25.135ZM13.1253 28.0389C13.0909 28.3452 13.0065 28.6203 12.8721 28.8672C12.6877 29.1954 12.422 29.4518 12.0719 29.6331C11.7218 29.8144 11.2842 29.905 10.7653 29.905H9.06168V25.557H10.7653C11.281 25.557 11.7155 25.6445 12.0687 25.8226C12.422 25.9977 12.6877 26.2478 12.8721 26.5729C13.0503 26.8979 13.144 27.2793 13.144 27.72C13.144 27.8294 13.1378 27.9357 13.1253 28.0389Z" fill="white"/>
<path d="M13.1439 27.7201C13.1439 27.8295 13.1376 27.9357 13.1251 28.0389C13.0907 28.3452 13.0063 28.6203 12.8719 28.8672C12.6875 29.1955 12.4218 29.4518 12.0717 29.6331C11.7216 29.8144 11.284 29.905 10.7651 29.905H9.06152V25.557H10.7651C11.2809 25.557 11.7154 25.6445 12.0686 25.8227C12.4218 25.9977 12.6875 26.2478 12.8719 26.5729C13.0501 26.898 13.1439 27.2793 13.1439 27.7201Z" fill="#D61A1A"/>
<path d="M29.8951 26.0852C29.3231 25.0162 28.5104 24.1972 27.4569 23.6283C26.8036 23.2751 26.0722 23.0313 25.2626 22.8969C24.7687 22.8156 24.2436 22.775 23.6903 22.775H18.417V37.0632H23.6997C24.2498 37.0632 24.7718 37.0226 25.2626 36.9413C26.0722 36.8069 26.8036 36.5631 27.4601 36.2099C28.5166 35.641 29.3293 34.8189 29.8982 33.7498C30.4671 32.6808 30.7516 31.3992 30.7516 29.9113C30.7516 28.4234 30.4671 27.1512 29.8951 26.0852ZM26.863 32.3776C26.5755 32.9934 26.1566 33.4404 25.6002 33.7123C25.4908 33.7654 25.3783 33.8123 25.2626 33.853C24.775 34.0311 24.2092 34.1187 23.5653 34.1187H21.8711V25.7195H23.5184C24.1842 25.7195 24.7687 25.8102 25.2626 25.9915C25.3751 26.0321 25.4814 26.0759 25.5846 26.1259C26.1472 26.3978 26.5723 26.8417 26.8599 27.4512C27.1475 28.0639 27.2913 28.8829 27.2913 29.9113C27.2913 30.9397 27.1475 31.7618 26.863 32.3776Z" fill="white"/>
<path d="M42.5175 25.5789V22.775H32.7617V37.0632H36.2158V31.321H41.8955V28.5078H36.2158V25.5789H42.5175Z" fill="white"/>
<path d="M89.3454 26.1446C90.23 26.0758 90.9583 26.0164 91.7992 25.9508C91.6273 25.0818 91.521 24.2222 91.2803 23.4064C88.7671 14.8165 83.5219 8.60546 75.1978 5.13889C73.3379 4.36368 71.3686 4.03234 69.34 4.09486C69.1993 4.09798 69.0586 4.07298 68.9211 4.0636C68.9086 4.01359 68.8992 3.96357 68.8867 3.91043C69.1337 3.82291 69.3712 3.7135 69.6213 3.65411C72.7972 2.91641 75.8792 3.35091 78.8926 4.4387C83.9689 6.27045 88.0669 9.47132 91.4929 13.5724C94.3999 17.0515 96.4942 20.9588 97.5195 25.4632C98.2728 25.4163 99.0168 25.3694 99.9452 25.3131C98.3729 28.5296 96.8631 31.6273 95.2876 34.847C93.284 31.9149 91.3491 29.086 89.336 26.1383L89.3454 26.1446Z" fill="#888888"/>
</svg>
