<svg width="99" height="92" viewBox="0 0 99 92" fill="none" xmlns="http://www.w3.org/2000/svg">
<path d="M77.7594 56.5372V21.1964L76.1496 19.5866L67.1565 10.5966L58.201 1.64107L56.563 0H11.5258C9.91598 0 8.60938 1.30973 8.60938 2.91017V89.0867C8.60938 90.6934 9.91598 92 11.5258 92H74.8399C76.4528 92 77.7594 90.6934 77.7594 89.0867V86.6079H75.315V89.0867C75.315 89.3493 75.1024 89.5587 74.8399 89.5587H11.5258C11.2663 89.5587 11.0475 89.3493 11.0475 89.0867V2.91017C11.0475 2.65072 11.2663 2.43816 11.5258 2.43816H55.0439V20.0742C55.0439 21.5402 56.2379 22.7343 57.704 22.7343H75.315V56.5372H77.7594ZM57.704 20.2899C57.5821 20.2899 57.4851 20.1961 57.4851 20.0742V4.8607L73.3207 20.2899H57.704Z" fill="#D61A1A"/>
<path d="M68.847 49.4009H17.5205V51.9766H68.847V49.4009Z" fill="#D61A1A"/>
<path d="M17.5205 59.5474H38.1074C38.0167 59.9538 37.9667 60.3852 37.9667 60.8353V62.12H17.5205V59.5474Z" fill="#D61A1A"/>
<path d="M37.9667 69.6939H17.5205V72.2665H37.9667V69.6939Z" fill="#D61A1A"/>
<path d="M37.9667 82.313C37.9667 82.3474 37.9667 82.3786 37.9667 82.413H17.5205V79.8404H37.9667V82.313Z" fill="#D61A1A"/>
<path d="M14.9136 25.135C15.3387 25.8789 15.5513 26.7385 15.5513 27.72C15.5513 28.4671 15.4262 29.1454 15.1793 29.7518V30.6115H14.7073C14.2947 31.2022 13.7476 31.6742 13.0662 32.0181C12.2722 32.4244 11.3251 32.6245 10.2311 32.6245H7.88981V37.0632H4.43262V22.7718H10.3373C11.4064 22.7718 12.3316 22.9844 13.11 23.397C13.8883 23.8127 14.4916 24.3941 14.9136 25.135Z" fill="#D61A1A"/>
<path d="M28.7232 26.0852C29.2953 27.1511 29.5797 28.4265 29.5797 29.9112C29.5797 31.396 29.2953 32.6807 28.7264 33.7498C28.1575 34.8188 27.3447 35.6409 26.2882 36.2098C25.6318 36.5631 24.9003 36.8069 24.0907 36.9413C23.6 37.0226 23.078 37.0632 22.5278 37.0632H17.2451V22.7749H22.5184C23.0717 22.7749 23.5968 22.8156 24.0907 22.8968C24.9003 23.0313 25.6318 23.2751 26.2851 23.6283C27.3385 24.1972 28.1512 25.0162 28.7232 26.0852Z" fill="#D61A1A"/>
<path d="M35.0439 25.5788V28.5077H40.7236V31.321H35.0439V37.0632H31.5898V22.7749H41.3456V25.5788H35.0439Z" fill="#D61A1A"/>
<path d="M14.904 30.3051C14.8414 30.4114 14.7758 30.5145 14.707 30.6114H15.179V29.7518C15.0978 29.9425 15.0071 30.1269 14.904 30.3051Z" fill="#D61A1A"/>
<path d="M28.7232 26.0852C28.1512 25.0162 27.3385 24.1972 26.2851 23.6283C25.6318 23.2751 24.9003 23.0313 24.0907 22.8968C23.5968 22.8156 23.0717 22.7749 22.5184 22.7749H17.2451V37.0632H22.5278C23.078 37.0632 23.6 37.0226 24.0907 36.9413C24.9003 36.8069 25.6318 36.5631 26.2882 36.2098C27.3447 35.6409 28.1575 34.8188 28.7264 33.7498C29.2953 32.6807 29.5797 31.3992 29.5797 29.9112C29.5797 28.4233 29.2953 27.1511 28.7232 26.0852ZM25.6912 32.3775C25.4036 32.9933 24.9847 33.4403 24.4283 33.7123C24.3189 33.7654 24.2064 33.8123 24.0907 33.8529C23.6031 34.0311 23.0373 34.1186 22.3934 34.1186H20.6992V25.7195H22.3465C23.0123 25.7195 23.5968 25.8101 24.0907 25.9914C24.2033 26.0321 24.3095 26.0758 24.4127 26.1258C24.9753 26.3978 25.4005 26.8417 25.688 27.4512C25.9756 28.0639 26.1194 28.8828 26.1194 29.9112C26.1194 30.9397 25.9756 31.7618 25.6912 32.3775ZM41.3454 25.5788V22.7749H31.5896V37.0632H35.0437V31.321H40.7234V28.5077H35.0437V25.5788H41.3454Z" fill="#D61A1A"/>
<path d="M0 41.827H45.7781C46.4251 41.827 46.9503 41.305 46.9503 40.6579V19.1802C46.9503 18.5332 46.4251 18.008 45.7781 18.008H0" fill="#D61A1A"/>
<path d="M4.43262 37.0632V22.7718H10.3373C11.4064 22.7718 12.3316 22.9844 13.11 23.397C13.8883 23.8127 14.4916 24.3941 14.9136 25.135C15.3387 25.8789 15.5513 26.7385 15.5513 27.72C15.5513 28.4671 15.4262 29.1454 15.1793 29.7518V30.6115H14.7073C14.2947 31.2022 13.7476 31.6742 13.0662 32.0181C12.2722 32.4244 11.3251 32.6245 10.2311 32.6245H7.88981V37.0632H4.43262Z" fill="#D61A1A"/>
<path d="M17.2451 37.0632V22.7749H22.5184C23.0717 22.7749 23.5968 22.8156 24.0907 22.8968C24.9003 23.0313 25.6318 23.2751 26.2851 23.6283C27.3385 24.1972 28.1512 25.0162 28.7232 26.0852C29.2953 27.1511 29.5797 28.4265 29.5797 29.9112C29.5797 31.396 29.2953 32.6807 28.7264 33.7498C28.1575 34.8188 27.3447 35.6409 26.2882 36.2098C25.6318 36.5631 24.9003 36.8069 24.0907 36.9413C23.6 37.0226 23.078 37.0632 22.5278 37.0632H17.2451Z" fill="#D61A1A"/>
<path d="M31.5898 37.0632V22.7749H41.3456V25.5788H35.0439V28.5077H40.7236V31.321H35.0439V37.0632H31.5898Z" fill="#D61A1A"/>
<path d="M14.904 30.3051C14.8414 30.4114 14.7758 30.5145 14.707 30.6114H15.179V29.7518C15.0978 29.9425 15.0071 30.1269 14.904 30.3051Z" fill="#D61A1A"/>
<path d="M28.7232 26.0852C28.1512 25.0162 27.3385 24.1972 26.2851 23.6283C25.6318 23.2751 24.9003 23.0313 24.0907 22.8968C23.5968 22.8156 23.0717 22.7749 22.5184 22.7749H17.2451V37.0632H22.5278C23.078 37.0632 23.6 37.0226 24.0907 36.9413C24.9003 36.8069 25.6318 36.5631 26.2882 36.2098C27.3447 35.6409 28.1575 34.8188 28.7264 33.7498C29.2953 32.6807 29.5797 31.3992 29.5797 29.9112C29.5797 28.4233 29.2953 27.1511 28.7232 26.0852ZM25.6912 32.3775C25.4036 32.9933 24.9847 33.4403 24.4283 33.7123C24.3189 33.7654 24.2064 33.8123 24.0907 33.8529C23.6031 34.0311 23.0373 34.1186 22.3934 34.1186H20.6992V25.7195H22.3465C23.0123 25.7195 23.5968 25.8101 24.0907 25.9914C24.2033 26.0321 24.3095 26.0758 24.4127 26.1258C24.9753 26.3978 25.4005 26.8417 25.688 27.4512C25.9756 28.0639 26.1194 28.8828 26.1194 29.9112C26.1194 30.9397 25.9756 31.7618 25.6912 32.3775ZM41.3454 25.5788V22.7749H31.5896V37.0632H35.0437V31.321H40.7234V28.5077H35.0437V25.5788H41.3454Z" fill="#D61A1A"/>
<path d="M14.9126 25.135C14.4906 24.3941 13.8873 23.8127 13.109 23.397C12.3307 22.9844 11.4054 22.7718 10.3364 22.7718H4.43164V37.0632H7.88883V32.6245H10.2301C11.3241 32.6245 12.2713 32.4244 13.0652 32.0181C13.7467 31.6742 14.2937 31.2022 14.7063 30.6115C14.7751 30.5145 14.8407 30.4114 14.9032 30.3051C15.0064 30.1269 15.097 29.9425 15.1783 29.7518C15.4253 29.1454 15.5503 28.4671 15.5503 27.72C15.5503 26.7385 15.3377 25.8789 14.9126 25.135ZM11.9524 28.0389C11.9181 28.3452 11.8337 28.6203 11.6992 28.8672C11.5148 29.1954 11.2491 29.4518 10.899 29.6331C10.5489 29.8144 10.1113 29.905 9.59242 29.905H7.88883V25.557H9.59242C10.1082 25.557 10.5427 25.6445 10.8959 25.8226C11.2491 25.9977 11.5148 26.2478 11.6992 26.5729C11.8774 26.8979 11.9712 27.2793 11.9712 27.72C11.9712 27.8294 11.9649 27.9357 11.9524 28.0389Z" fill="white"/>
<path d="M11.971 27.72C11.971 27.8294 11.9648 27.9357 11.9523 28.0389C11.9179 28.3452 11.8335 28.6203 11.6991 28.8672C11.5147 29.1954 11.249 29.4518 10.8989 29.6331C10.5488 29.8144 10.1112 29.905 9.59226 29.905H7.88867V25.5569H9.59226C10.108 25.5569 10.5425 25.6445 10.8957 25.8226C11.249 25.9977 11.5147 26.2478 11.6991 26.5728C11.8773 26.8979 11.971 27.2793 11.971 27.72Z" fill="#D61A1A"/>
<path d="M28.7223 26.0852C28.1502 25.0162 27.3375 24.1972 26.2841 23.6283C25.6308 23.2751 24.8993 23.0313 24.0898 22.8969C23.5959 22.8156 23.0707 22.775 22.5174 22.775H17.2441V37.0632H22.5268C23.077 37.0632 23.599 37.0226 24.0898 36.9413C24.8993 36.8069 25.6308 36.5631 26.2872 36.2099C27.3438 35.641 28.1565 34.8189 28.7254 33.7498C29.2943 32.6808 29.5787 31.3992 29.5787 29.9113C29.5787 28.4234 29.2943 27.1512 28.7223 26.0852ZM25.6902 32.3776C25.4026 32.9934 24.9837 33.4404 24.4273 33.7123C24.3179 33.7654 24.2054 33.8123 24.0898 33.853C23.6021 34.0311 23.0363 34.1187 22.3924 34.1187H20.6982V25.7195H22.3455C23.0113 25.7195 23.5959 25.8102 24.0898 25.9915C24.2023 26.0321 24.3086 26.0759 24.4117 26.1259C24.9744 26.3978 25.3995 26.8417 25.6871 27.4512C25.9746 28.0639 26.1184 28.8829 26.1184 29.9113C26.1184 30.9397 25.9746 31.7618 25.6902 32.3776Z" fill="white"/>
<path d="M41.3446 25.5789V22.775H31.5889V37.0632H35.0429V31.321H40.7226V28.5078H35.0429V25.5789H41.3446Z" fill="white"/>
<path d="M91.7777 60.9353V82.413C91.7777 83.0601 91.2526 83.5821 90.6055 83.5821H44.8275C44.2148 83.5821 43.7115 83.1132 43.6615 82.5131C43.6553 82.4818 43.6553 82.4474 43.6553 82.413V60.9353C43.6553 60.2883 44.1804 59.7631 44.8275 59.7631H90.6055C91.2526 59.7631 91.7777 60.2883 91.7777 60.9353Z" fill="#707070"/>
<path d="M88.1735 26.1446C89.0581 26.0758 89.7865 26.0164 90.6273 25.9508C90.4554 25.0818 90.3491 24.2222 90.1084 23.4064C87.5952 14.8165 82.3501 8.60546 74.0259 5.13889C72.1661 4.36368 70.1968 4.03234 68.1681 4.09486C68.0274 4.09798 67.8868 4.07298 67.7492 4.0636C67.7367 4.01359 67.7273 3.96357 67.7148 3.91043C67.9618 3.82291 68.1993 3.7135 68.4494 3.65411C71.6253 2.91641 74.7074 3.35091 77.7207 4.4387C82.7971 6.27045 86.8951 9.47132 90.321 13.5724C93.228 17.0515 95.3223 20.9588 96.3476 25.4632C97.101 25.4163 97.8449 25.3694 98.7733 25.3131C97.201 28.5296 95.6912 31.6273 94.1158 34.847C92.1121 31.9149 90.1772 29.086 88.1641 26.1383L88.1735 26.1446Z" fill="#888888"/>
<path d="M73.9688 78.8152C72.7528 78.8152 71.5994 78.8245 70.4459 78.7995C70.3271 78.7995 70.1709 78.6151 70.1021 78.4807C69.3706 77.0397 68.6517 75.5924 67.9296 74.1451C67.8609 74.0045 67.7858 73.8701 67.6827 73.67C67.3576 74.4171 67.0638 75.1048 66.7574 75.7862C66.3479 76.6958 65.9353 77.6055 65.504 78.5057C65.4383 78.6401 65.2476 78.7995 65.1101 78.7995C64.0036 78.8245 62.8908 78.812 61.7061 78.812C61.8123 78.6151 61.8905 78.4651 61.9718 78.3213C63.169 76.2301 64.3536 74.1326 65.5696 72.0539C65.7759 71.7007 65.754 71.4569 65.5571 71.1162C64.4005 69.1125 63.2721 67.0901 62.1343 65.077C62.0499 64.927 61.9718 64.7738 61.8405 64.5363H63.3534C63.941 64.5363 64.5287 64.555 65.1132 64.53C65.4321 64.5175 65.5884 64.6207 65.7228 64.9145C66.4167 66.4243 67.1357 67.9216 67.8921 69.522C68.2172 68.7468 68.4954 68.0466 68.8017 67.3589C69.1737 66.5181 69.5613 65.6835 69.9614 64.8582C70.0302 64.7207 70.2177 64.555 70.3522 64.555C71.4618 64.53 72.5715 64.5394 73.7468 64.5394C73.6499 64.7363 73.5812 64.8895 73.4999 65.0333C72.3277 67.0651 71.1618 69.1 69.9739 71.1224C69.8083 71.4038 69.802 71.6069 69.9708 71.8914C71.2243 74.0232 72.459 76.1644 73.6968 78.3056C73.7812 78.4526 73.8562 78.6057 73.9656 78.8152H73.9688Z" fill="white"/>
<path d="M85.7149 64.5769V67.2433H81.8795V78.7777H78.6255V67.2683H74.79V64.5769H85.7149Z" fill="white"/>
<path d="M60.6145 64.5613V67.2433H56.7728V78.7808H53.5282V67.2776H49.7178V64.5613H60.6145Z" fill="white"/>
</svg>
