<svg width="100" height="92" viewBox="0 0 100 92" fill="none" xmlns="http://www.w3.org/2000/svg">
<path d="M78.9323 56.5372V21.1964L77.3225 19.5866L68.3294 10.5966L59.3738 1.64107L57.7359 0H12.6986C11.0888 0 9.78223 1.30973 9.78223 2.91017V89.0867C9.78223 90.6934 11.0888 92 12.6986 92H76.0127C77.6257 92 78.9323 90.6934 78.9323 89.0867V86.6079H76.4878V89.0867C76.4878 89.3493 76.2753 89.5587 76.0127 89.5587H12.6986C12.4392 89.5587 12.2204 89.3493 12.2204 89.0867V2.91017C12.2204 2.65072 12.4392 2.43816 12.6986 2.43816H56.2167V20.0742C56.2167 21.5402 57.4108 22.7343 58.8768 22.7343H76.4878V56.5372H78.9323ZM58.8768 20.2899C58.7549 20.2899 58.658 20.1961 58.658 20.0742V4.8607L74.4936 20.2899H58.8768Z" fill="#D61A1A"/>
<path d="M70.0198 49.4009H18.6934V51.9766H70.0198V49.4009Z" fill="#D61A1A"/>
<path d="M18.6934 59.5474H57.4351C57.2632 59.9538 57.1726 60.3852 57.1726 60.8353V62.12H18.6934V59.5474Z" fill="#D61A1A"/>
<path d="M57.1726 69.694H18.6934V72.2665H57.1726V69.694Z" fill="#D61A1A"/>
<path d="M57.1726 82.313C57.1726 82.3474 57.1726 82.3786 57.1757 82.413H18.6934V79.8405H57.1726V82.313Z" fill="#D61A1A"/>
<path d="M16.0855 25.1349C16.5106 25.8789 16.7231 26.7385 16.7231 27.72C16.7231 28.4671 16.5981 29.1454 16.3512 29.7518V30.6114H15.8792C15.4665 31.2022 14.9195 31.6742 14.2381 32.0181C13.4441 32.4244 12.497 32.6245 11.4029 32.6245H9.06168V37.0632H5.60449V22.7718H11.5092C12.5783 22.7718 13.5035 22.9843 14.2818 23.397C15.0602 23.8127 15.6635 24.3941 16.0855 25.1349Z" fill="#D61A1A"/>
<path d="M29.8961 26.0852C30.4681 27.1511 30.7526 28.4264 30.7526 29.9112C30.7526 31.396 30.4681 32.6807 29.8992 33.7498C29.3303 34.8188 28.5176 35.6409 27.4611 36.2098C26.8046 36.563 26.0732 36.8068 25.2636 36.9413C24.7728 37.0225 24.2508 37.0632 23.7007 37.0632H18.418V22.7749H23.6913C24.2446 22.7749 24.7697 22.8155 25.2636 22.8968C26.0732 23.0312 26.8046 23.275 27.4579 23.6283C28.5113 24.1972 29.3241 25.0161 29.8961 26.0852Z" fill="#D61A1A"/>
<path d="M36.2168 25.5788V28.5077H41.8964V31.321H36.2168V37.0632H32.7627V22.7749H42.5185V25.5788H36.2168Z" fill="#D61A1A"/>
<path d="M16.0758 30.3051C16.0133 30.4114 15.9477 30.5146 15.8789 30.6115H16.3509V29.7519C16.2696 29.9425 16.179 30.127 16.0758 30.3051Z" fill="#D61A1A"/>
<path d="M29.8961 26.0852C29.3241 25.0161 28.5113 24.1972 27.4579 23.6283C26.8046 23.275 26.0732 23.0312 25.2636 22.8968C24.7697 22.8155 24.2446 22.7749 23.6913 22.7749H18.418V37.0632H23.7007C24.2508 37.0632 24.7728 37.0225 25.2636 36.9413C26.0732 36.8068 26.8046 36.563 27.4611 36.2098C28.5176 35.6409 29.3303 34.8188 29.8992 33.7498C30.4681 32.6807 30.7526 31.3991 30.7526 29.9112C30.7526 28.4233 30.4681 27.1511 29.8961 26.0852ZM26.864 32.3775C26.5764 32.9933 26.1576 33.4403 25.6012 33.7122C25.4918 33.7654 25.3792 33.8123 25.2636 33.8529C24.7759 34.0311 24.2102 34.1186 23.5662 34.1186H21.872V25.7195H23.5194C24.1852 25.7195 24.7697 25.8101 25.2636 25.9914C25.3761 26.032 25.4824 26.0758 25.5855 26.1258C26.1482 26.3978 26.5733 26.8416 26.8609 27.4512C27.1485 28.0638 27.2923 28.8828 27.2923 29.9112C27.2923 30.9396 27.1485 31.7617 26.864 32.3775ZM42.5183 25.5788V22.7749H32.7625V37.0632H36.2166V31.321H41.8962V28.5077H36.2166V25.5788H42.5183Z" fill="#D61A1A"/>
<path d="M46.9503 18.008H1.17219C0.525143 18.008 0 18.5331 0 19.1802V40.6579C0 40.6923 0 40.7267 0.0062517 40.7579C0.0562653 41.3581 0.559527 41.827 1.17219 41.827H46.9503C47.5973 41.827 48.1225 41.305 48.1225 40.6579V19.1802C48.1225 18.5331 47.5973 18.008 46.9503 18.008ZM5.60465 37.0632V22.7718H11.5094C12.5784 22.7718 13.5037 22.9843 14.282 23.397C15.0603 23.8127 15.6636 24.3941 16.0856 25.1349C16.5107 25.8789 16.7233 26.7385 16.7233 27.72C16.7233 28.4671 16.5983 29.1454 16.3513 29.7518V30.6114H15.8793C15.4667 31.2022 14.9197 31.6742 14.2382 32.0181C13.4443 32.4244 12.4971 32.6245 11.4031 32.6245H9.06184V37.0632H5.60465ZM18.4175 37.0632V22.7749H23.6908C24.2441 22.7749 24.7692 22.8156 25.2631 22.8968C26.0727 23.0312 26.8042 23.2751 27.4575 23.6283C28.5109 24.1972 29.3236 25.0161 29.8956 26.0852C30.4677 27.1511 30.7521 28.4265 30.7521 29.9112C30.7521 31.396 30.4677 32.6807 29.8988 33.7498C29.3298 34.8188 28.5171 35.6409 27.4606 36.2098C26.8042 36.563 26.0727 36.8069 25.2631 36.9413C24.7724 37.0225 24.2503 37.0632 23.7002 37.0632H18.4175ZM32.762 37.0632V22.7749H42.5178V25.5788H36.2161V28.5077H41.8958V31.321H36.2161V37.0632H32.762Z" fill="#D61A1A"/>
<path d="M16.0758 30.3051C16.0133 30.4114 15.9477 30.5146 15.8789 30.6115H16.3509V29.7519C16.2696 29.9425 16.179 30.127 16.0758 30.3051Z" fill="#D61A1A"/>
<path d="M29.8961 26.0852C29.3241 25.0161 28.5113 24.1972 27.4579 23.6283C26.8046 23.275 26.0732 23.0312 25.2636 22.8968C24.7697 22.8155 24.2446 22.7749 23.6913 22.7749H18.418V37.0632H23.7007C24.2508 37.0632 24.7728 37.0225 25.2636 36.9413C26.0732 36.8068 26.8046 36.563 27.4611 36.2098C28.5176 35.6409 29.3303 34.8188 29.8992 33.7498C30.4681 32.6807 30.7526 31.3991 30.7526 29.9112C30.7526 28.4233 30.4681 27.1511 29.8961 26.0852ZM26.864 32.3775C26.5764 32.9933 26.1576 33.4403 25.6012 33.7122C25.4918 33.7654 25.3792 33.8123 25.2636 33.8529C24.7759 34.0311 24.2102 34.1186 23.5662 34.1186H21.872V25.7195H23.5194C24.1852 25.7195 24.7697 25.8101 25.2636 25.9914C25.3761 26.032 25.4824 26.0758 25.5855 26.1258C26.1482 26.3978 26.5733 26.8416 26.8609 27.4512C27.1485 28.0638 27.2923 28.8828 27.2923 29.9112C27.2923 30.9396 27.1485 31.7617 26.864 32.3775ZM42.5183 25.5788V22.7749H32.7625V37.0632H36.2166V31.321H41.8962V28.5077H36.2166V25.5788H42.5183Z" fill="#D61A1A"/>
<path d="M16.0855 25.135C15.6635 24.3941 15.0602 23.8127 14.2818 23.397C13.5035 22.9844 12.5783 22.7718 11.5092 22.7718H5.60449V37.0632H9.06168V32.6245H11.4029C12.497 32.6245 13.4441 32.4244 14.2381 32.0181C14.9195 31.6742 15.4665 31.2022 15.8792 30.6115C15.9479 30.5145 16.0136 30.4114 16.0761 30.3051C16.1792 30.1269 16.2699 29.9425 16.3512 29.7518C16.5981 29.1454 16.7231 28.4671 16.7231 27.72C16.7231 26.7385 16.5106 25.8789 16.0855 25.135ZM13.1253 28.0389C13.0909 28.3452 13.0065 28.6203 12.8721 28.8672C12.6877 29.1954 12.422 29.4518 12.0719 29.6331C11.7218 29.8144 11.2842 29.905 10.7653 29.905H9.06168V25.557H10.7653C11.281 25.557 11.7155 25.6445 12.0687 25.8226C12.422 25.9977 12.6877 26.2478 12.8721 26.5729C13.0503 26.8979 13.144 27.2793 13.144 27.72C13.144 27.8294 13.1378 27.9357 13.1253 28.0389Z" fill="white"/>
<path d="M13.1439 27.7201C13.1439 27.8295 13.1376 27.9357 13.1251 28.0389C13.0907 28.3452 13.0063 28.6203 12.8719 28.8672C12.6875 29.1955 12.4218 29.4518 12.0717 29.6331C11.7216 29.8144 11.284 29.905 10.7651 29.905H9.06152V25.557H10.7651C11.2809 25.557 11.7154 25.6445 12.0686 25.8227C12.4218 25.9977 12.6875 26.2478 12.8719 26.5729C13.0501 26.898 13.1439 27.2793 13.1439 27.7201Z" fill="#D61A1A"/>
<path d="M29.8951 26.0852C29.3231 25.0162 28.5104 24.1972 27.4569 23.6283C26.8036 23.2751 26.0722 23.0313 25.2626 22.8969C24.7687 22.8156 24.2436 22.775 23.6903 22.775H18.417V37.0632H23.6997C24.2498 37.0632 24.7718 37.0226 25.2626 36.9413C26.0722 36.8069 26.8036 36.5631 27.4601 36.2099C28.5166 35.641 29.3293 34.8189 29.8982 33.7498C30.4671 32.6808 30.7516 31.3992 30.7516 29.9113C30.7516 28.4234 30.4671 27.1512 29.8951 26.0852ZM26.863 32.3776C26.5755 32.9934 26.1566 33.4404 25.6002 33.7123C25.4908 33.7654 25.3783 33.8123 25.2626 33.853C24.775 34.0311 24.2092 34.1187 23.5653 34.1187H21.8711V25.7195H23.5184C24.1842 25.7195 24.7687 25.8102 25.2626 25.9915C25.3751 26.0321 25.4814 26.0759 25.5846 26.1259C26.1472 26.3978 26.5723 26.8417 26.8599 27.4512C27.1475 28.0639 27.2913 28.8829 27.2913 29.9113C27.2913 30.9397 27.1475 31.7618 26.863 32.3776Z" fill="white"/>
<path d="M42.5175 25.5789V22.775H32.7617V37.0632H36.2158V31.321H41.8955V28.5078H36.2158V25.5789H42.5175Z" fill="white"/>
<path d="M89.3454 26.1446C90.23 26.0758 90.9583 26.0164 91.7992 25.9508C91.6273 25.0818 91.521 24.2222 91.2803 23.4064C88.7671 14.8165 83.5219 8.60546 75.1978 5.13889C73.3379 4.36368 71.3686 4.03234 69.34 4.09486C69.1993 4.09798 69.0586 4.07298 68.9211 4.0636C68.9086 4.01359 68.8992 3.96357 68.8867 3.91043C69.1337 3.82291 69.3712 3.7135 69.6213 3.65411C72.7972 2.91641 75.8792 3.35091 78.8926 4.4387C83.9689 6.27045 88.0669 9.47132 91.4929 13.5724C94.3999 17.0515 96.4942 20.9588 97.5195 25.4632C98.2728 25.4163 99.0168 25.3694 99.9452 25.3131C98.3729 28.5296 96.8631 31.6273 95.2876 34.847C93.284 31.9149 91.3491 29.086 89.336 26.1383L89.3454 26.1446Z" fill="#888888"/>
<path d="M86.7663 58.5409H68.4676C66.4236 58.5409 64.7666 60.1979 64.7666 62.2419V80.5406C64.7666 82.5846 66.4236 84.2416 68.4676 84.2416H86.7663C88.8103 84.2416 90.4673 82.5846 90.4673 80.5406V62.2419C90.4673 60.1979 88.8103 58.5409 86.7663 58.5409Z" fill="#14A085"/>
<path d="M85.3875 78.1368C85.1874 78.1618 84.9811 78.1556 84.781 78.1556C80.011 78.1556 75.2378 78.1556 70.4646 78.1556C70.2115 78.1556 69.952 78.1556 69.7082 78.1056C69.1862 77.993 68.9142 77.6054 69.1643 77.149C70.1208 75.3923 71.118 73.6512 72.1589 71.9414C72.4808 71.41 73.0841 71.5038 73.453 72.0945C73.9906 72.9542 74.4751 73.8481 74.9878 74.7234C75.0628 74.8547 75.1565 74.9735 75.2847 75.1641C76.3506 73.3199 77.3884 71.5225 78.4293 69.7252C78.7325 69.1969 79.0263 68.6624 79.3452 68.1466C79.886 67.2651 80.458 67.2745 80.9863 68.181C82.5429 70.8567 84.084 73.5387 85.6344 76.2175C85.7719 76.4582 85.922 76.6958 86.0376 76.949C86.3377 77.6148 86.1033 78.0399 85.3906 78.1368H85.3875Z" fill="white"/>
<path d="M75.5322 66.6431C75.5416 67.8028 74.6382 68.7343 73.491 68.7436C72.3657 68.7499 71.4092 67.7934 71.4092 66.6649C71.4092 65.5584 72.3157 64.6425 73.4316 64.6206C74.6069 64.5956 75.5197 65.4771 75.5322 66.6431Z" fill="white"/>
</svg>
