<svg width="46" height="50" viewBox="0 0 46 50" fill="none" xmlns="http://www.w3.org/2000/svg">
<path d="M39.3404 5.75967L34.4727 0.891978L33.5841 6.10352e-05H9.10736C8.2319 6.10352e-05 7.521 0.710962 7.521 1.58313V5.4108C7.71189 5.5622 7.87974 5.73992 8.01797 5.94398C8.14962 5.92094 8.28456 5.91107 8.4195 5.91107C8.53798 5.91107 8.68279 5.92094 8.84735 5.95056V1.58313C8.84735 1.44161 8.96584 1.32642 9.10736 1.32642H32.758V10.9104C32.758 11.7069 33.4063 12.3552 34.2028 12.3552H43.7736V48.417C43.7736 48.5585 43.6584 48.6737 43.5169 48.6737H9.10736C8.96584 48.6737 8.84735 48.5585 8.84735 48.417V26.0862C8.52481 26.3396 8.09367 26.5371 7.521 26.6029V48.417C7.521 49.2892 8.2319 50.0001 9.10736 50.0001H43.5169C44.3924 50.0001 45.1033 49.2892 45.1033 48.417V11.5193L39.3404 5.75967ZM34.2028 11.0289C34.137 11.0289 34.0843 10.9762 34.0843 10.9104V2.6429L42.6908 11.0289H34.2028Z" fill="white"/>
<path d="M34.7297 28.8442H3.69038C3.01057 28.8442 2.45947 29.3953 2.45947 30.0751V44.1944C2.45947 44.8742 3.01057 45.4253 3.69038 45.4253H34.7297C35.4096 45.4253 35.9607 44.8742 35.9607 44.1944V30.0751C35.9607 29.3953 35.4096 28.8442 34.7297 28.8442Z" fill="white"/>
<path d="M13.6565 33.804C13.3603 33.2873 12.9423 32.8858 12.3992 32.5962C11.8595 32.3065 11.2144 32.1617 10.4706 32.1617H6.35986V42.111H8.76574V39.0206H10.3949C11.1551 39.0206 11.8134 38.8791 12.3663 38.5993C12.9225 38.3196 13.3471 37.918 13.6466 37.4046C13.9461 36.8945 14.0942 36.2922 14.0942 35.6043C14.0942 34.9165 13.9461 34.3208 13.6499 33.804H13.6565ZM11.4184 36.4041C11.2901 36.6312 11.1058 36.8089 10.8622 36.934C10.6187 37.0623 10.3126 37.1249 9.95057 37.1249H8.76574V34.1002H9.95057C10.3093 34.1002 10.6121 34.1595 10.8589 34.2846C11.1058 34.4096 11.2901 34.5808 11.4184 34.8079C11.5435 35.0317 11.6093 35.2982 11.6093 35.6076C11.6093 35.917 11.5435 36.177 11.4184 36.4074V36.4041Z" fill="#D61A1A"/>
<path d="M18.9551 42.111H15.2788V32.1617H18.9518C19.9655 32.1617 20.8377 32.3592 21.5716 32.7574C22.3055 33.1557 22.8716 33.7251 23.2699 34.4689C23.6681 35.2127 23.8689 36.1013 23.8689 37.1347C23.8689 38.1682 23.6714 39.0601 23.2731 39.8072C22.8749 40.5543 22.3121 41.1237 21.5749 41.5186C20.8409 41.9169 19.9655 42.1143 18.9551 42.1143V42.111ZM17.6814 40.0606H18.8629C19.4191 40.0606 19.8931 39.9652 20.2782 39.7776C20.6665 39.5867 20.9594 39.2773 21.1569 38.8495C21.3544 38.4216 21.4564 37.8489 21.4564 37.1314C21.4564 36.414 21.3577 35.8446 21.1536 35.42C20.9496 34.9955 20.6566 34.6861 20.2683 34.4985C19.8766 34.3076 19.3994 34.2154 18.8267 34.2154H17.6814V40.0639V40.0606Z" fill="#D61A1A"/>
<path d="M25.2679 42.111V32.1617H32.0577V34.1134H27.6705V36.154H31.6233V38.1122H27.6705V42.111H25.2646H25.2679Z" fill="#D61A1A"/>
<path d="M9.98644 11.0519C9.52567 10.9993 9.14389 10.16 9.41048 9.78482C9.86466 9.1529 9.85808 9.10354 9.31503 8.5539C9.18997 8.42555 9.05503 8.30377 8.93654 8.16883C8.61401 7.8068 8.29476 7.80022 7.91298 8.10301C7.44234 8.47821 6.56029 8.07997 6.51422 7.48097C6.4813 7.03666 6.26738 6.82602 5.82635 6.8359C5.66179 6.83919 5.50052 6.8359 5.33596 6.8359C4.75452 6.8359 4.39468 7.11016 4.25645 7.6587C4.16429 8.02073 3.29542 8.41238 2.99921 8.22478C2.49894 7.90883 2.03818 7.96039 1.6169 8.37947C1.52475 8.47162 1.43259 8.56378 1.34044 8.65593C0.92904 9.07721 0.919166 9.23848 1.26803 9.70583C1.36348 9.83418 1.44905 9.96583 1.52475 10.0777C1.38981 10.4069 1.30753 10.7162 1.13968 10.9697C1.07056 11.075 0.817139 11.0618 0.642705 11.0881C0.188518 11.1507 -0.0155365 11.4041 0.000919513 11.8583C0.00750192 12.0887 0.000919513 12.3158 0.000919513 12.5461C0.0140843 13.1221 0.145733 13.3262 0.705238 13.3262C1.19234 13.3262 1.25816 13.6289 1.42601 13.9515C1.59715 14.2806 1.44905 14.4583 1.26803 14.6788C0.909292 15.1297 0.925748 15.3173 1.32728 15.7287C1.4293 15.8341 1.53462 15.9361 1.63994 16.0414C2.25869 16.6536 2.29818 16.6766 2.97617 16.1434C3.36453 15.8373 3.61795 16.173 3.91087 16.2751C4.04252 16.3212 4.17746 16.5384 4.19392 16.6898C4.27949 17.4303 4.39468 17.5521 5.14507 17.5554C5.27672 17.5554 5.40508 17.5554 5.53673 17.5554C6.27067 17.5521 6.38257 17.4566 6.4846 16.7391C6.557 16.2356 7.41271 15.89 7.82082 16.2027C8.40337 16.6437 8.48565 16.6371 9.01224 16.1138C9.11756 16.0118 9.21959 15.9065 9.32491 15.8011C9.84492 15.2778 9.8515 15.1988 9.40719 14.613C9.10769 14.2148 9.45326 13.3689 9.94694 13.2867C10.6743 13.1649 10.7171 13.1122 10.7204 12.375V11.8846C10.7204 11.2362 10.6216 11.1309 9.97327 11.0552L9.98644 11.0519ZM5.42812 14.0041C4.37493 14.014 3.55542 13.211 3.55213 12.1611C3.55213 11.1046 4.3486 10.2982 5.40179 10.2982C6.45497 10.2982 7.26132 11.1046 7.25803 12.1578C7.25803 13.1715 6.43852 13.9943 5.42812 14.0041ZM17.7471 15.5543C17.7339 15.5049 17.576 15.4786 17.4838 15.4621C16.819 15.3502 16.6083 14.9125 16.8519 14.2938C16.9276 14.1029 16.8387 13.8067 16.7433 13.596C16.6676 13.4348 16.4569 13.336 16.3121 13.2044C16.0061 12.9279 15.7164 12.9279 15.4005 13.2044C15.0681 13.494 14.3605 13.257 14.265 12.8292C14.1959 12.5231 14.0544 12.3059 13.722 12.2993C13.4455 12.296 13.146 12.2763 12.8992 12.3717C12.7083 12.4441 12.4943 12.6613 12.4351 12.8555C12.2343 13.5236 11.8295 13.7474 11.191 13.4743C11.1186 13.4413 11.0363 13.4282 10.9541 13.4051C10.4439 13.4677 10.2201 13.8955 10.0062 14.251C9.91074 14.4155 10.0194 14.7743 10.1444 14.975C10.3945 15.3733 10.2596 15.9789 9.80213 16.0973C9.32491 16.2224 9.17351 16.5186 9.23275 16.9695C9.2525 17.1308 9.28212 17.2921 9.30187 17.4533C9.34136 17.7857 9.53883 17.9273 9.85808 17.9569C10.513 18.0194 10.75 18.467 10.4242 19.0331C10.2497 19.3359 10.2761 19.5926 10.5328 19.823C10.6644 19.9448 10.8158 20.0468 10.9475 20.1686C11.2667 20.4681 11.5596 20.4714 11.8888 20.1686C12.2738 19.8131 12.886 20.0205 13.0012 20.5405C13.0966 20.9716 13.3369 21.1526 13.768 21.0934C13.9293 21.0704 14.0906 21.0407 14.2551 21.0342C14.6567 21.0144 14.8344 20.8038 14.8574 20.4121C14.8903 19.8625 15.4959 19.5597 15.9863 19.8559C16.3088 20.0468 16.5688 20.0172 16.8058 19.7308C16.921 19.5926 17.0362 19.4544 17.1547 19.3194C17.4344 19.0101 17.418 18.7237 17.1316 18.4144C16.8157 18.0754 17.0428 17.4303 17.4706 17.2624C17.6813 17.1802 17.9841 16.9564 17.9841 16.7951C17.9841 16.3771 17.8491 15.9591 17.7438 15.5477L17.7471 15.5543ZM13.666 18.1609C12.8037 18.1642 12.1191 17.5027 12.1224 16.6634C12.1224 15.8373 12.8267 15.133 13.6561 15.133C14.4987 15.133 15.1602 15.8143 15.1536 16.6766C15.147 17.529 14.5184 18.1576 13.666 18.1609ZM10.2333 20.3496C9.84821 20.2574 9.66061 19.8164 9.86795 19.4906C10.0885 19.1417 9.99302 18.885 9.73302 18.6217C9.46314 18.3518 9.213 18.128 8.8016 18.3979C8.53502 18.5723 8.01171 18.3617 7.94918 18.049C7.8669 17.6508 7.64968 17.5191 7.26461 17.5093C6.84992 17.4994 6.52409 17.5554 6.38915 18.0227C6.30687 18.3156 5.78686 18.5559 5.56964 18.3946C5.16482 18.0918 4.88836 18.2531 4.58557 18.546C4.28278 18.8389 4.18404 19.1318 4.45063 19.4939C4.48683 19.5432 4.50329 19.6124 4.58228 19.7967C4.40126 19.9514 4.21695 20.1916 3.9767 20.2936C3.57846 20.4648 3.51922 20.7544 3.52251 21.123C3.5258 21.4653 3.6015 21.7286 3.98986 21.8175C4.46709 21.9261 4.6119 22.2815 4.34202 22.7094C4.11164 23.0747 4.27949 23.315 4.52304 23.5684C4.78304 23.8416 5.04305 24.0028 5.42483 23.7724C5.82306 23.5322 6.1818 23.7033 6.29371 24.1641C6.37269 24.4932 6.56029 24.6709 6.91903 24.6545C7.29094 24.6413 7.68259 24.7269 7.81424 24.2003C7.92614 23.7461 8.37375 23.575 8.77198 23.8284C9.1406 24.0621 9.37756 23.8811 9.6277 23.6375C9.87454 23.394 10.072 23.1603 9.84492 22.7851C9.61453 22.4 9.7758 21.982 10.2069 21.8701C10.6381 21.7582 10.7039 21.4554 10.7072 21.0868C10.7138 20.7281 10.6414 20.4516 10.2267 20.3496H10.2333ZM7.13296 22.2651C6.41548 22.2651 5.90205 21.7418 5.91522 21.0276C5.92509 20.3529 6.45827 19.8329 7.13625 19.8329C7.84057 19.8329 8.35729 20.3595 8.34742 21.0802C8.34084 21.7681 7.82741 22.2684 7.12967 22.2684L7.13296 22.2651Z" fill="white"/>
</svg>
