<svg width="47" height="50" viewBox="0 0 47 50" fill="none" xmlns="http://www.w3.org/2000/svg">
<path d="M40.918 5.75961L36.0503 0.891917L35.1617 0H10.685C9.80953 0 9.09863 0.7109 9.09863 1.58307V6.25987C9.21712 6.3619 9.7108 6.84571 10.425 7.55003V1.58307C10.425 1.44155 10.5435 1.32636 10.685 1.32636H34.3356V10.9103C34.3356 11.7068 34.984 12.3552 35.7804 12.3552H45.3513V48.4169C45.3513 48.5585 45.2361 48.6736 45.0946 48.6736H10.685C10.5435 48.6736 10.425 48.5585 10.425 48.4169V22.5908L9.09863 21.2645V48.4169C9.09863 49.2891 9.80953 50 10.685 50H45.0946C45.97 50 46.6809 49.2891 46.6809 48.4169V11.5192L40.918 5.75961ZM35.7804 11.0288C35.7146 11.0288 35.662 10.9762 35.662 10.9103V2.64284L44.2685 11.0288H35.7804Z" fill="white"/>
<path d="M36.3074 28.8441H5.26802C4.58821 28.8441 4.03711 29.3952 4.03711 30.075V44.1943C4.03711 44.8741 4.58821 45.4252 5.26802 45.4252H36.3074C36.9872 45.4252 37.5383 44.8741 37.5383 44.1943V30.075C37.5383 29.3952 36.9872 28.8441 36.3074 28.8441Z" fill="white"/>
<path d="M15.2336 33.804C14.9374 33.2873 14.5194 32.8857 13.9764 32.5961C13.4366 32.3065 12.7915 32.1617 12.0477 32.1617H7.93701V42.111H10.3429V39.0205H11.972C12.7323 39.0205 13.3905 38.879 13.9435 38.5993C14.4997 38.3195 14.9242 37.918 15.2237 37.4046C15.5232 36.8944 15.6713 36.2921 15.6713 35.6043C15.6713 34.9164 15.5232 34.3207 15.227 33.804H15.2336ZM12.9956 36.404C12.8672 36.6311 12.6829 36.8088 12.4394 36.9339C12.1958 37.0623 11.8897 37.1248 11.5277 37.1248H10.3429V34.1002H11.5277C11.8865 34.1002 12.1892 34.1594 12.4361 34.2845C12.6829 34.4096 12.8672 34.5807 12.9956 34.8078C13.1207 35.0316 13.1865 35.2982 13.1865 35.6076C13.1865 35.9169 13.1207 36.1769 12.9956 36.4073V36.404Z" fill="#D61A1A"/>
<path d="M20.5327 42.111H16.8564V32.1617H20.5294C21.5431 32.1617 22.4153 32.3591 23.1492 32.7574C23.8832 33.1556 24.4493 33.725 24.8475 34.4688C25.2457 35.2126 25.4465 36.1012 25.4465 37.1347C25.4465 38.1681 25.249 39.06 24.8508 39.8071C24.4525 40.5542 23.8898 41.1236 23.1525 41.5185C22.4186 41.9168 21.5431 42.1143 20.5327 42.1143V42.111ZM19.259 40.0605H20.4406C20.9968 40.0605 21.4707 39.9651 21.8558 39.7775C22.2442 39.5866 22.5371 39.2772 22.7345 38.8494C22.932 38.4215 23.034 37.8489 23.034 37.1314C23.034 36.4139 22.9353 35.8445 22.7312 35.4199C22.5272 34.9954 22.2343 34.686 21.8459 34.4984C21.4543 34.3075 20.977 34.2154 20.4044 34.2154H19.259V40.0638V40.0605Z" fill="#D61A1A"/>
<path d="M26.8451 42.111V32.1617H33.6348V34.1133H29.2477V36.1539H33.2004V38.1122H29.2477V42.111H26.8418H26.8451Z" fill="#D61A1A"/>
<path d="M18.0873 18.0062C18.0774 18.0753 18.0181 18.1082 17.9754 18.1543C17.4948 18.6348 17.0143 19.1153 16.5338 19.5991C15.5399 20.5931 14.5459 21.587 13.552 22.581C13.5026 22.6303 13.4499 22.6797 13.394 22.7357C13.3611 22.7126 13.3282 22.6962 13.3018 22.6731C13.2558 22.6303 13.2097 22.5843 13.1636 22.5382C9.88886 19.2634 6.61082 15.9854 3.33607 12.7106C3.28341 12.658 3.22746 12.602 3.1748 12.5461C3.19784 12.4671 3.26038 12.4276 3.30645 12.3815C3.97786 11.7101 4.64927 11.0387 5.32067 10.3673C6.12373 9.56425 6.92678 8.7612 7.72983 7.95814C7.7792 7.90877 7.82857 7.8627 7.87794 7.81662C8.003 7.91206 17.9359 17.8383 18.0873 18.0161V18.0062Z" fill="white"/>
<path d="M7.05508 6.97079C6.89381 7.16168 2.44739 11.5982 2.32891 11.6871C2.29271 11.6542 2.25321 11.6213 2.21701 11.5851C1.79903 11.1671 1.38104 10.7524 0.96635 10.3311C0.433175 9.79135 0.113928 9.14299 0.0250651 8.39259C-0.192154 6.53635 1.03217 5.07835 2.54613 4.72948C3.72438 4.4596 4.77428 4.73606 5.65961 5.56545C6.11709 5.99659 6.55153 6.45078 6.99584 6.89509C7.0123 6.91155 7.02875 6.93459 7.05508 6.96421V6.97079Z" fill="white"/>
<path d="M20.6742 24.8881C20.5887 25.2402 20.2233 25.3982 19.9436 25.3028C19.6276 25.1942 19.3117 25.0888 18.9957 24.9835C17.5246 24.4865 16.0567 23.9896 14.5855 23.4926C14.5197 23.4696 14.4539 23.4465 14.3716 23.4169C14.4868 23.2688 18.6172 19.135 18.7522 19.0297C18.818 19.0659 18.8147 19.1383 18.8345 19.1943C19.0681 19.8723 19.2952 20.5536 19.5256 21.2348C19.8942 22.3275 20.2628 23.4202 20.6347 24.5162C20.6775 24.6412 20.7039 24.763 20.671 24.8914L20.6742 24.8881Z" fill="white"/>
</svg>
