<svg width="100" height="92" viewBox="0 0 100 92" fill="none" xmlns="http://www.w3.org/2000/svg">
<path d="M78.9736 56.5372V21.1964L77.3629 19.5866L68.365 10.5966L59.4046 1.64107L57.7658 0H12.7041C11.0934 0 9.78613 1.30973 9.78613 2.91017V89.0867C9.78613 90.6934 11.0934 92 12.7041 92H76.0525C77.6663 92 78.9736 90.6934 78.9736 89.0867V86.6079H76.5279V89.0867C76.5279 89.3493 76.3152 89.5587 76.0525 89.5587H12.7041C12.4445 89.5587 12.2256 89.3493 12.2256 89.0867V2.91017C12.2256 2.65072 12.4445 2.43816 12.7041 2.43816H56.2458V20.0742C56.2458 21.5402 57.4405 22.7343 58.9073 22.7343H76.5279V56.5372H78.9736ZM58.9073 20.2899C58.7853 20.2899 58.6884 20.1961 58.6884 20.0742V4.8607L74.5325 20.2899H58.9073Z" fill="#D61A1A"/>
<path d="M70.0564 49.4009H18.7021V51.9766H70.0564V49.4009Z" fill="#D61A1A"/>
<path d="M18.7021 59.5474H57.4649C57.2929 59.9538 57.2022 60.3852 57.2022 60.8353V62.12H18.7021V59.5474Z" fill="#D61A1A"/>
<path d="M57.2022 69.6939H18.7021V72.2665H57.2022V69.6939Z" fill="#D61A1A"/>
<path d="M57.2022 82.313C57.2022 82.3474 57.2022 82.3786 57.2053 82.413H18.7021V79.8404H57.2022V82.313Z" fill="#D61A1A"/>
<path d="M16.0941 25.135C16.5194 25.8789 16.7321 26.7385 16.7321 27.72C16.7321 28.4671 16.607 29.1454 16.3599 29.7518V30.6115H15.8877C15.4748 31.2022 14.9275 31.6742 14.2457 32.0181C13.4513 32.4244 12.5037 32.6245 11.409 32.6245H9.06648V37.0632H5.60742V22.7718H11.5153C12.585 22.7718 13.5107 22.9844 14.2895 23.397C15.0682 23.8127 15.6719 24.3941 16.0941 25.135Z" fill="#D61A1A"/>
<path d="M29.9121 26.0852C30.4844 27.1512 30.769 28.4265 30.769 29.9113C30.769 31.3961 30.4844 32.6808 29.9152 33.7498C29.346 34.8189 28.5328 35.641 27.4757 36.2099C26.8189 36.5631 26.0871 36.8069 25.2771 36.9413C24.786 37.0226 24.2637 37.0632 23.7133 37.0632H18.4277V22.775H23.7039C24.2575 22.775 24.7829 22.8156 25.2771 22.8969C26.0871 23.0313 26.8189 23.2751 27.4726 23.6283C28.5266 24.1972 29.3397 25.0162 29.9121 26.0852Z" fill="#D61A1A"/>
<path d="M36.2372 25.5789V28.5078H41.9199V31.321H36.2372V37.0632H32.7812V22.775H42.5423V25.5789H36.2372Z" fill="#D61A1A"/>
<path d="M16.0857 30.3054C16.0232 30.4118 15.9575 30.515 15.8887 30.6119H16.3609V29.7519C16.2796 29.9426 16.1889 30.1272 16.0857 30.3054Z" fill="#D61A1A"/>
<path d="M29.9111 26.0852C29.3388 25.0162 28.5256 24.1972 27.4716 23.6283C26.818 23.2751 26.0861 23.0313 25.2761 22.8969C24.7819 22.8156 24.2565 22.775 23.7029 22.775H18.4268V37.0632H23.7123C24.2628 37.0632 24.7851 37.0226 25.2761 36.9413C26.0861 36.8069 26.818 36.5631 27.4747 36.2099C28.5318 35.641 29.345 34.8189 29.9142 33.7498C30.4834 32.6808 30.768 31.3992 30.768 29.9113C30.768 28.4234 30.4834 27.1512 29.9111 26.0852ZM26.8774 32.3776C26.5896 32.9934 26.1706 33.4404 25.6139 33.7123C25.5044 33.7654 25.3918 33.8123 25.2761 33.853C24.7882 34.0311 24.2221 34.1187 23.5778 34.1187H21.8827V25.7195H23.5309C24.1971 25.7195 24.7819 25.8102 25.2761 25.9915C25.3887 26.0321 25.495 26.0759 25.5982 26.1259C26.1612 26.3978 26.5865 26.8417 26.8742 27.4512C27.162 28.0639 27.3059 28.8829 27.3059 29.9113C27.3059 30.9397 27.162 31.7618 26.8774 32.3776ZM42.5401 25.5789V22.775H32.779V37.0632H36.235V31.321H41.9177V28.5078H36.235V25.5789H42.5401Z" fill="#D61A1A"/>
<path d="M46.9757 18.008H1.17283C0.525427 18.008 0 18.5331 0 19.1802V40.6579C0 40.6923 0 40.7267 0.00625508 40.7579C0.0562958 41.3581 0.55983 41.827 1.17283 41.827H46.9757C47.6231 41.827 48.1485 41.305 48.1485 40.6579V19.1802C48.1485 18.5331 47.6231 18.008 46.9757 18.008ZM5.60768 37.0632V22.7718H11.5156C12.5852 22.7718 13.511 22.9843 14.2897 23.397C15.0685 23.8127 15.6721 24.3941 16.0943 25.1349C16.5197 25.8789 16.7324 26.7385 16.7324 27.72C16.7324 28.4671 16.6072 29.1454 16.3602 29.7518V30.6114H15.8879C15.4751 31.2022 14.9278 31.6742 14.246 32.0181C13.4516 32.4244 12.5039 32.6245 11.4093 32.6245H9.06674V37.0632H5.60768ZM18.4275 37.0632V22.7749H23.7036C24.2572 22.7749 24.7826 22.8156 25.2768 22.8968C26.0868 23.0312 26.8187 23.2751 27.4723 23.6283C28.5263 24.1972 29.3395 25.0161 29.9118 26.0852C30.4842 27.1511 30.7688 28.4265 30.7688 29.9112C30.7688 31.396 30.4842 32.6807 29.9149 33.7498C29.3457 34.8188 28.5326 35.6409 27.4755 36.2098C26.8187 36.563 26.0868 36.8069 25.2768 36.9413C24.7858 37.0225 24.2635 37.0632 23.713 37.0632H18.4275ZM32.7798 37.0632V22.7749H42.5408V25.5788H36.2357V28.5077H41.9184V31.321H36.2357V37.0632H32.7798Z" fill="#D61A1A"/>
<path d="M16.0857 30.3054C16.0232 30.4118 15.9575 30.515 15.8887 30.6119H16.3609V29.7519C16.2796 29.9426 16.1889 30.1272 16.0857 30.3054Z" fill="#D61A1A"/>
<path d="M29.9111 26.0852C29.3388 25.0162 28.5256 24.1972 27.4716 23.6283C26.818 23.2751 26.0861 23.0313 25.2761 22.8969C24.7819 22.8156 24.2565 22.775 23.7029 22.775H18.4268V37.0632H23.7123C24.2628 37.0632 24.7851 37.0226 25.2761 36.9413C26.0861 36.8069 26.818 36.5631 27.4747 36.2099C28.5318 35.641 29.345 34.8189 29.9142 33.7498C30.4834 32.6808 30.768 31.3992 30.768 29.9113C30.768 28.4234 30.4834 27.1512 29.9111 26.0852ZM26.8774 32.3776C26.5896 32.9934 26.1706 33.4404 25.6139 33.7123C25.5044 33.7654 25.3918 33.8123 25.2761 33.853C24.7882 34.0311 24.2221 34.1187 23.5778 34.1187H21.8827V25.7195H23.5309C24.1971 25.7195 24.7819 25.8102 25.2761 25.9915C25.3887 26.0321 25.495 26.0759 25.5982 26.1259C26.1612 26.3978 26.5865 26.8417 26.8742 27.4512C27.162 28.0639 27.3059 28.8829 27.3059 29.9113C27.3059 30.9397 27.162 31.7618 26.8774 32.3776ZM42.5401 25.5789V22.775H32.779V37.0632H36.235V31.321H41.9177V28.5078H36.235V25.5789H42.5401Z" fill="#D61A1A"/>
<path d="M16.095 25.135C15.6728 24.3941 15.0692 23.8127 14.2905 23.397C13.5117 22.9844 12.5859 22.7718 11.5163 22.7718H5.6084V37.0632H9.06746V32.6245H11.41C12.5046 32.6245 13.4523 32.4244 14.2467 32.0181C14.9285 31.6742 15.4758 31.2022 15.8886 30.6115C15.9574 30.5145 16.0231 30.4114 16.0857 30.3051C16.1889 30.1269 16.2796 29.9425 16.3609 29.7518C16.608 29.1454 16.7331 28.4671 16.7331 27.72C16.7331 26.7385 16.5204 25.8789 16.095 25.135ZM13.1333 28.0389C13.0989 28.3452 13.0144 28.6203 12.8799 28.8672C12.6954 29.1954 12.4296 29.4518 12.0793 29.6331C11.729 29.8144 11.2911 29.905 10.772 29.905H9.06746V25.557H10.772C11.288 25.557 11.7227 25.6445 12.0762 25.8226C12.4296 25.9977 12.6954 26.2478 12.8799 26.5729C13.0582 26.8979 13.152 27.2793 13.152 27.72C13.152 27.8294 13.1458 27.9357 13.1333 28.0389Z" fill="white"/>
<path d="M13.152 27.72C13.152 27.8294 13.1457 27.9357 13.1332 28.0389C13.0988 28.3452 13.0143 28.6203 12.8799 28.8672C12.6953 29.1954 12.4295 29.4518 12.0792 29.6331C11.7289 29.8144 11.2911 29.905 10.7719 29.905H9.06738V25.5569H10.7719C11.2879 25.5569 11.7227 25.6445 12.0761 25.8226C12.4295 25.9977 12.6953 26.2478 12.8799 26.5728C13.0581 26.8979 13.152 27.2793 13.152 27.72Z" fill="#D61A1A"/>
<path d="M29.9121 26.0852C29.3397 25.0162 28.5266 24.1972 27.4726 23.6283C26.8189 23.2751 26.0871 23.0313 25.2771 22.8968C24.7829 22.8156 24.2575 22.7749 23.7039 22.7749H18.4277V37.0632H23.7133C24.2637 37.0632 24.786 37.0226 25.2771 36.9413C26.0871 36.8069 26.8189 36.5631 27.4757 36.2098C28.5328 35.6409 29.346 34.8188 29.9152 33.7498C30.4844 32.6807 30.769 31.3992 30.769 29.9112C30.769 28.4233 30.4844 27.1511 29.9121 26.0852ZM26.8784 32.3775C26.5906 32.9933 26.1715 33.4403 25.6148 33.7123C25.5054 33.7654 25.3928 33.8123 25.2771 33.8529C24.7892 34.0311 24.2231 34.1186 23.5788 34.1186H21.8837V25.7195H23.5319C24.198 25.7195 24.7829 25.8101 25.2771 25.9914C25.3896 26.0321 25.496 26.0758 25.5992 26.1258C26.1621 26.3978 26.5875 26.8417 26.8752 27.4512C27.163 28.0639 27.3068 28.8828 27.3068 29.9112C27.3068 30.9397 27.163 31.7618 26.8784 32.3775Z" fill="white"/>
<path d="M42.5413 25.5788V22.7749H32.7803V37.0632H36.2362V31.321H41.919V28.5077H36.2362V25.5788H42.5413Z" fill="white"/>
<path d="M89.3946 26.1446C90.2797 26.0759 91.0084 26.0165 91.8497 25.9508C91.6777 25.0818 91.5713 24.2222 91.3305 23.4064C88.816 14.8166 83.568 8.60549 75.2393 5.13892C73.3784 4.36371 71.4081 4.03237 69.3783 4.09489C69.2376 4.09801 69.0968 4.07301 68.9592 4.06363C68.9467 4.01362 68.9373 3.9636 68.9248 3.91046C69.1719 3.82294 69.4096 3.71353 69.6598 3.65414C72.8374 2.91644 75.9211 3.35094 78.9361 4.43873C84.0152 6.27048 88.1154 9.47135 91.5432 13.5725C94.4518 17.0515 96.5473 20.9588 97.5731 25.4632C98.3268 25.4163 99.0712 25.3694 100 25.3132C98.4269 28.5297 96.9163 31.6274 95.34 34.847C93.3353 31.9149 91.3993 29.0861 89.3852 26.1384L89.3946 26.1446Z" fill="#888888"/>
<path d="M86.7765 58.6128H68.496C66.4509 58.6128 64.793 60.2698 64.793 62.3138V80.5844C64.793 82.6284 66.4509 84.2854 68.496 84.2854H86.7765C88.8216 84.2854 90.4795 82.6284 90.4795 80.5844V62.3138C90.4795 60.2698 88.8216 58.6128 86.7765 58.6128Z" fill="#FF5722"/>
<path d="M83.8743 64.6738C83.8212 65.3646 83.7586 66.0555 83.6898 66.7463C83.6835 66.7994 83.6054 66.8619 83.5459 66.8869C83.4896 66.9119 83.4146 66.8932 83.3489 66.8932H74.1539C74.229 67.734 74.3009 68.553 74.376 69.4032H83.1519C83.4459 69.4032 83.4552 69.4032 83.4302 69.6846C83.3489 70.6536 83.2551 71.6257 83.1706 72.5947C83.0924 73.5075 83.0174 74.4171 82.9392 75.3299C82.8923 75.8675 82.8422 76.402 82.8016 76.9397C82.7891 77.1053 82.7109 77.1772 82.5545 77.221C80.9751 77.6555 79.3988 78.0962 77.8194 78.5276C77.7068 78.5589 77.5692 78.5557 77.4535 78.5276C75.8803 78.0962 74.3103 77.6555 72.7403 77.2241C72.5558 77.1741 72.4995 77.0741 72.487 76.899C72.39 75.7362 72.2837 74.5765 72.1805 73.4137C72.1492 73.0792 72.1492 73.0792 72.4807 73.0792C73.1469 73.0792 73.813 73.0855 74.4792 73.0761C74.6637 73.0761 74.72 73.1386 74.7325 73.3168C74.7669 73.8763 74.8232 74.4359 74.867 74.9954C74.8764 75.1142 74.9202 75.1923 75.0547 75.2267C75.8835 75.4455 76.706 75.6737 77.5317 75.8956C77.6036 75.9144 77.6943 75.9081 77.7694 75.8894C78.5825 75.6737 79.3926 75.4486 80.2057 75.2361C80.3527 75.1986 80.4153 75.1267 80.4278 74.9829C80.5091 73.992 80.5967 72.998 80.6842 71.9602H80.4059C77.7193 71.9602 75.0328 71.9602 72.3462 71.9602C72.0522 71.9602 72.0585 71.9602 72.0335 71.6601C71.9209 70.4191 71.8051 69.1751 71.6926 67.9341C71.6112 67.0151 71.5362 66.0961 71.458 65.1771C71.4392 64.9645 71.4298 64.7489 71.3986 64.5363C71.3767 64.3894 71.4111 64.3237 71.5643 64.3362C71.6238 64.3425 71.6832 64.3362 71.7426 64.3362H83.5522C83.8931 64.3362 83.9025 64.3362 83.8775 64.6676L83.8743 64.6738Z" fill="white"/>
</svg>
