<svg width="99" height="92" viewBox="0 0 99 92" fill="none" xmlns="http://www.w3.org/2000/svg">
<path d="M75.2145 56.5372V21.1964L73.6047 19.5866L64.6116 10.5966L55.6561 1.64106L54.0181 -1.52588e-05H8.98087C7.37106 -1.52588e-05 6.06445 1.30972 6.06445 2.91015V89.0867C6.06445 90.6934 7.37106 92 8.98087 92H72.295C73.9079 92 75.2145 90.6934 75.2145 89.0867V86.6079H72.7701V89.0867C72.7701 89.3493 72.5575 89.5587 72.295 89.5587H8.98087C8.72143 89.5587 8.50262 89.3493 8.50262 89.0867V2.91015C8.50262 2.65071 8.72143 2.43815 8.98087 2.43815H52.4989V20.0742C52.4989 21.5402 53.693 22.7343 55.159 22.7343H72.7701V56.5372H75.2145ZM55.159 20.2899C55.0371 20.2899 54.9402 20.1961 54.9402 20.0742V4.86068L70.7758 20.2899H55.159Z" fill="#D61A1A"/>
<path d="M66.3025 49.4009H14.9761V51.9766H66.3025V49.4009Z" fill="#D61A1A"/>
<path d="M66.3025 39.2544H14.9761V41.8301H66.3025V39.2544Z" fill="#D61A1A"/>
<path d="M14.9761 59.5474H43.8964C43.7683 59.9538 43.6995 60.3851 43.6995 60.8353V62.12H14.9761V59.5474Z" fill="#D61A1A"/>
<path d="M43.6995 69.6939H14.9761V72.2665H43.6995V69.6939Z" fill="#D61A1A"/>
<path d="M43.6995 82.313C43.6995 82.3474 43.6995 82.3786 43.7026 82.413H14.9761V79.8404H43.6995V82.313Z" fill="#D61A1A"/>
<path d="M16.0855 17.2015C16.5106 17.9455 16.7231 18.8051 16.7231 19.7866C16.7231 20.5337 16.5981 21.212 16.3512 21.8184V22.678H15.8792C15.4665 23.2688 14.9195 23.7408 14.2381 24.0847C13.4441 24.491 12.497 24.6911 11.4029 24.6911H9.06168V29.1298H5.60449V14.8384H11.5092C12.5783 14.8384 13.5035 15.051 14.2818 15.4636C15.0602 15.8793 15.6635 16.4607 16.0855 17.2015Z" fill="#D61A1A"/>
<path d="M29.8956 18.1518C30.4676 19.2177 30.7521 20.4931 30.7521 21.9778C30.7521 23.4626 30.4676 24.7473 29.8987 25.8164C29.3298 26.8854 28.5171 27.7075 27.4606 28.2764C26.8041 28.6296 26.0727 28.8735 25.2631 29.0079C24.7723 29.0891 24.2503 29.1298 23.7002 29.1298H18.4175V14.8415H23.6908C24.2441 14.8415 24.7692 14.8822 25.2631 14.9634C26.0727 15.0978 26.8041 15.3417 27.4574 15.6949C28.5108 16.2638 29.3236 17.0828 29.8956 18.1518Z" fill="#D61A1A"/>
<path d="M36.2163 17.6454V20.5743H41.8959V23.3876H36.2163V29.1298H32.7622V14.8415H42.518V17.6454H36.2163Z" fill="#D61A1A"/>
<path d="M16.0758 22.3717C16.0133 22.478 15.9477 22.5811 15.8789 22.678H16.3509V21.8184C16.2696 22.0091 16.179 22.1935 16.0758 22.3717Z" fill="#D61A1A"/>
<path d="M29.8956 18.1518C29.3236 17.0828 28.5108 16.2638 27.4574 15.6949C26.8041 15.3417 26.0727 15.0978 25.2631 14.9634C24.7692 14.8822 24.2441 14.8415 23.6908 14.8415H18.4175V29.1298H23.7002C24.2503 29.1298 24.7723 29.0891 25.2631 29.0079C26.0727 28.8735 26.8041 28.6296 27.4606 28.2764C28.5171 27.7075 29.3298 26.8854 29.8987 25.8164C30.4676 24.7473 30.7521 23.4657 30.7521 21.9778C30.7521 20.4899 30.4676 19.2177 29.8956 18.1518ZM26.8635 24.4441C26.5759 25.0599 26.1571 25.5069 25.6007 25.7789C25.4913 25.832 25.3787 25.8789 25.2631 25.9195C24.7755 26.0977 24.2097 26.1852 23.5658 26.1852H21.8715V17.7861H23.5189C24.1847 17.7861 24.7692 17.8767 25.2631 18.058C25.3756 18.0987 25.4819 18.1424 25.5851 18.1924C26.1477 18.4644 26.5728 18.9083 26.8604 19.5178C27.148 20.1305 27.2918 20.9494 27.2918 21.9778C27.2918 23.0062 27.148 23.8283 26.8635 24.4441ZM42.5178 17.6454V14.8415H32.762V29.1298H36.2161V23.3876H41.8957V20.5743H36.2161V17.6454H42.5178Z" fill="#D61A1A"/>
<path d="M46.9503 10.0746H1.17219C0.525143 10.0746 0 10.5997 0 11.2468V32.7245C0 32.7589 0 32.7933 0.0062517 32.8245C0.0562653 33.4247 0.559527 33.8936 1.17219 33.8936H46.9503C47.5973 33.8936 48.1225 33.3716 48.1225 32.7245V11.2468C48.1225 10.5997 47.5973 10.0746 46.9503 10.0746ZM5.60465 29.1298V14.8384H11.5094C12.5784 14.8384 13.5037 15.051 14.282 15.4636C15.0603 15.8793 15.6636 16.4607 16.0856 17.2015C16.5107 17.9455 16.7233 18.8051 16.7233 19.7866C16.7233 20.5337 16.5983 21.212 16.3513 21.8184V22.678H15.8793C15.4667 23.2688 14.9197 23.7408 14.2382 24.0847C13.4443 24.491 12.4971 24.6911 11.4031 24.6911H9.06184V29.1298H5.60465ZM18.4175 29.1298V14.8415H23.6908C24.2441 14.8415 24.7692 14.8822 25.2631 14.9634C26.0727 15.0978 26.8042 15.3417 27.4575 15.6949C28.5109 16.2638 29.3236 17.0828 29.8956 18.1518C30.4677 19.2177 30.7521 20.4931 30.7521 21.9778C30.7521 23.4626 30.4677 24.7473 29.8988 25.8164C29.3298 26.8854 28.5171 27.7075 27.4606 28.2764C26.8042 28.6296 26.0727 28.8735 25.2631 29.0079C24.7724 29.0891 24.2503 29.1298 23.7002 29.1298H18.4175ZM32.762 29.1298V14.8415H42.5178V17.6454H36.2161V20.5743H41.8958V23.3876H36.2161V29.1298H32.762Z" fill="#D61A1A"/>
<path d="M16.0758 22.3717C16.0133 22.478 15.9477 22.5811 15.8789 22.678H16.3509V21.8184C16.2696 22.0091 16.179 22.1935 16.0758 22.3717Z" fill="#D61A1A"/>
<path d="M29.8956 18.1518C29.3236 17.0828 28.5108 16.2638 27.4574 15.6949C26.8041 15.3417 26.0727 15.0978 25.2631 14.9634C24.7692 14.8822 24.2441 14.8415 23.6908 14.8415H18.4175V29.1298H23.7002C24.2503 29.1298 24.7723 29.0891 25.2631 29.0079C26.0727 28.8735 26.8041 28.6296 27.4606 28.2764C28.5171 27.7075 29.3298 26.8854 29.8987 25.8164C30.4676 24.7473 30.7521 23.4657 30.7521 21.9778C30.7521 20.4899 30.4676 19.2177 29.8956 18.1518ZM26.8635 24.4441C26.5759 25.0599 26.1571 25.5069 25.6007 25.7789C25.4913 25.832 25.3787 25.8789 25.2631 25.9195C24.7755 26.0977 24.2097 26.1852 23.5658 26.1852H21.8715V17.7861H23.5189C24.1847 17.7861 24.7692 17.8767 25.2631 18.058C25.3756 18.0987 25.4819 18.1424 25.5851 18.1924C26.1477 18.4644 26.5728 18.9083 26.8604 19.5178C27.148 20.1305 27.2918 20.9494 27.2918 21.9778C27.2918 23.0062 27.148 23.8283 26.8635 24.4441ZM42.5178 17.6454V14.8415H32.762V29.1298H36.2161V23.3876H41.8957V20.5743H36.2161V17.6454H42.5178Z" fill="#D61A1A"/>
<path d="M16.0855 17.2015C15.6635 16.4607 15.0602 15.8793 14.2818 15.4636C13.5035 15.051 12.5783 14.8384 11.5092 14.8384H5.60449V29.1298H9.06168V24.6911H11.4029C12.497 24.6911 13.4441 24.491 14.2381 24.0847C14.9195 23.7408 15.4665 23.2688 15.8792 22.678C15.9479 22.5811 16.0136 22.478 16.0761 22.3717C16.1792 22.1935 16.2699 22.0091 16.3512 21.8184C16.5981 21.212 16.7231 20.5337 16.7231 19.7866C16.7231 18.8051 16.5106 17.9455 16.0855 17.2015ZM13.1253 20.1054C13.0909 20.4118 13.0065 20.6869 12.8721 20.9338C12.6877 21.262 12.422 21.5183 12.0719 21.6996C11.7218 21.8809 11.2842 21.9716 10.7653 21.9716H9.06168V17.6235H10.7653C11.281 17.6235 11.7155 17.711 12.0687 17.8892C12.422 18.0643 12.6877 18.3143 12.8721 18.6394C13.0503 18.9645 13.144 19.3459 13.144 19.7866C13.144 19.896 13.1378 20.0023 13.1253 20.1054Z" fill="white"/>
<path d="M13.1444 19.7866C13.1444 19.896 13.1381 20.0023 13.1256 20.1054C13.0912 20.4118 13.0068 20.6869 12.8724 20.9338C12.688 21.262 12.4223 21.5183 12.0722 21.6996C11.7221 21.8809 11.2845 21.9716 10.7656 21.9716H9.06201V17.6235H10.7656C11.2814 17.6235 11.7159 17.711 12.0691 17.8892C12.4223 18.0643 12.688 18.3143 12.8724 18.6394C13.0506 18.9645 13.1444 19.3459 13.1444 19.7866Z" fill="#D61A1A"/>
<path d="M29.8956 18.1518C29.3236 17.0828 28.5108 16.2638 27.4574 15.6949C26.8041 15.3417 26.0727 15.0978 25.2631 14.9634C24.7692 14.8822 24.2441 14.8415 23.6908 14.8415H18.4175V29.1298H23.7002C24.2503 29.1298 24.7723 29.0891 25.2631 29.0079C26.0727 28.8735 26.8041 28.6296 27.4606 28.2764C28.5171 27.7075 29.3298 26.8854 29.8987 25.8164C30.4676 24.7473 30.7521 23.4657 30.7521 21.9778C30.7521 20.4899 30.4676 19.2177 29.8956 18.1518ZM26.8635 24.4441C26.5759 25.0599 26.1571 25.5069 25.6007 25.7789C25.4913 25.832 25.3787 25.8789 25.2631 25.9195C24.7755 26.0977 24.2097 26.1852 23.5658 26.1852H21.8715V17.7861H23.5189C24.1847 17.7861 24.7692 17.8767 25.2631 18.058C25.3756 18.0987 25.4819 18.1424 25.5851 18.1924C26.1477 18.4644 26.5728 18.9083 26.8604 19.5178C27.148 20.1305 27.2918 20.9494 27.2918 21.9778C27.2918 23.0062 27.148 23.8283 26.8635 24.4441Z" fill="white"/>
<path d="M42.518 17.6454V14.8415H32.7622V29.1298H36.2163V23.3876H41.8959V20.5743H36.2163V17.6454H42.518Z" fill="white"/>
<path d="M85.6301 26.1446C86.5147 26.0758 87.243 26.0164 88.0839 25.9508C87.9119 25.0818 87.8057 24.2222 87.565 23.4063C85.0518 14.8165 79.8066 8.60544 71.4825 5.13888C69.6226 4.36367 67.6533 4.03233 65.6246 4.09484C65.484 4.09797 65.3433 4.07296 65.2058 4.06358C65.1933 4.01357 65.1839 3.96356 65.1714 3.91042C65.4183 3.82289 65.6559 3.71349 65.906 3.6541C69.0818 2.9164 72.1639 3.35089 75.1772 4.43869C80.2536 6.27043 84.3516 9.4713 87.7775 13.5724C90.6846 17.0515 92.7789 20.9588 93.8042 25.4632C94.5575 25.4163 95.3014 25.3694 96.2298 25.3131C94.6575 28.5296 93.1477 31.6273 91.5723 34.847C89.5686 31.9149 87.6337 29.086 85.6207 26.1383L85.6301 26.1446Z" fill="#888888"/>
<path d="M98.1801 60.6102V82.0879C98.1801 82.735 97.6549 83.257 97.0079 83.257H51.2298C50.6171 83.257 50.1139 82.7881 50.0639 82.188C50.0576 82.1567 50.0576 82.1223 50.0576 82.0879V60.6102C50.0576 59.9632 50.5828 59.438 51.2298 59.438H97.0079C97.6549 59.438 98.1801 59.9632 98.1801 60.6102Z" fill="#FBBE41"/>
<path d="M71.0002 75.8831V78.4869H60.0254C59.9816 77.5711 59.9691 76.7427 60.5787 75.9081C62.5917 73.1449 64.5047 70.3066 66.4553 67.4964C66.5522 67.3589 66.6397 67.2151 66.7835 66.9963H60.6662V64.3675H70.894C70.9158 65.3052 70.9971 66.1711 70.3657 67.0432C68.3902 69.7752 66.5178 72.5853 64.6079 75.3642C64.5141 75.5017 64.4235 75.6424 64.2609 75.8862H70.9971L71.0002 75.8831Z" fill="white"/>
<path d="M86.0168 64.5363C83.7224 63.9767 81.4124 64.2362 79.0806 64.5113V78.4932H82.2564V73.5418C83.2692 73.4699 84.2382 73.4887 85.1728 73.3168C87.1609 72.9542 88.6175 71.9414 89.1239 69.8315C89.7085 67.4058 88.43 65.1271 86.02 64.5394L86.0168 64.5363ZM84.8009 70.7411C84.0007 71.1006 83.1536 71.1068 82.2627 70.9505V66.7681C83.2036 66.6025 84.1257 66.5212 85.004 66.9369C85.7699 67.2995 86.0731 67.9591 86.0543 68.7906C86.0324 69.697 85.6261 70.366 84.8009 70.738V70.7411Z" fill="white"/>
<path d="M76.2544 64.355H73.0879V78.4901H76.2544V64.355Z" fill="white"/>
</svg>
