<svg width="91" height="92" viewBox="0 0 91 92" fill="none" xmlns="http://www.w3.org/2000/svg">
<path d="M19.5337 34.0937H9.51221V44.1151H19.5337V34.0937Z" fill="#888888" fill-opacity="0.5"/>
<path d="M59.6572 34.0937H49.6357V44.1151H59.6572V34.0937Z" fill="#888888" fill-opacity="0.5"/>
<path d="M39.5957 34.0937H29.5742V44.1151H39.5957V34.0937Z" fill="#888888" fill-opacity="0.5"/>
<path d="M29.5928 44.1151H19.5713V54.1366H29.5928V44.1151Z" fill="#888888" fill-opacity="0.5"/>
<path d="M49.6548 44.1151H39.6333V54.1366H49.6548V44.1151Z" fill="#888888" fill-opacity="0.5"/>
<path d="M19.5151 54.1366H9.49365V64.158H19.5151V54.1366Z" fill="#888888" fill-opacity="0.5"/>
<path d="M59.6382 54.1366H49.6167V64.158H59.6382V54.1366Z" fill="#888888" fill-opacity="0.5"/>
<path d="M39.5771 54.1366H29.5557V64.158H39.5771V54.1366Z" fill="#888888" fill-opacity="0.5"/>
<path d="M69.15 56.5372V21.1964L67.5402 19.5866L58.5472 10.5966L49.5916 1.64107L47.9537 0H2.91642C1.3066 0 0 1.30973 0 2.91017V89.0867C0 90.6934 1.3066 92 2.91642 92H66.2305C67.8434 92 69.15 90.6934 69.15 89.0867V86.6079H66.7056V89.0867C66.7056 89.3493 66.4931 89.5587 66.2305 89.5587H2.91642C2.65697 89.5587 2.43816 89.3493 2.43816 89.0867V2.91017C2.43816 2.65072 2.65697 2.43816 2.91642 2.43816H46.4345V20.0742C46.4345 21.5402 47.6286 22.7343 49.0946 22.7343H66.7056V56.5372H69.15ZM49.0946 20.2899C48.9727 20.2899 48.8758 20.1961 48.8758 20.0742V4.8607L64.7113 20.2899H49.0946Z" fill="#707070"/>
<path d="M79.5656 26.1446C80.4502 26.0758 81.1786 26.0164 82.0194 25.9508C81.8475 25.0818 81.7412 24.2222 81.5005 23.4064C78.9873 14.8165 73.7422 8.60546 65.418 5.13889C63.5581 4.36368 61.5889 4.03234 59.5602 4.09486C59.4195 4.09798 59.2789 4.07298 59.1413 4.0636C59.1288 4.01359 59.1194 3.96357 59.1069 3.91043C59.3539 3.82291 59.5914 3.7135 59.8415 3.65411C63.0174 2.91641 66.0995 3.35091 69.1128 4.4387C74.1892 6.27045 78.2871 9.47132 81.7131 13.5724C84.6201 17.0515 86.7144 20.9588 87.7397 25.4632C88.493 25.4163 89.237 25.3694 90.1654 25.3131C88.5931 28.5296 87.0833 31.6273 85.5079 34.847C83.5042 31.9149 81.5693 29.086 79.5562 26.1383L79.5656 26.1446Z" fill="#888888"/>
<path d="M76.9865 58.5409H58.6878C56.6438 58.5409 54.9868 60.1979 54.9868 62.2419V80.5406C54.9868 82.5846 56.6438 84.2416 58.6878 84.2416H76.9865C79.0306 84.2416 80.6875 82.5846 80.6875 80.5406V62.2419C80.6875 60.1979 79.0306 58.5409 76.9865 58.5409Z" fill="#14A085"/>
<path d="M75.6082 78.1368C75.4081 78.1619 75.2018 78.1556 75.0017 78.1556C70.2317 78.1556 65.4585 78.1556 60.6854 78.1556C60.4322 78.1556 60.1727 78.1556 59.9289 78.1056C59.4069 77.9931 59.1349 77.6054 59.385 77.1491C60.3415 75.3923 61.3387 73.6512 62.3796 71.9414C62.7015 71.41 63.3048 71.5038 63.6737 72.0946C64.2113 72.9542 64.6958 73.8482 65.2085 74.7234C65.2835 74.8547 65.3773 74.9735 65.5054 75.1642C66.5713 73.3199 67.6091 71.5225 68.65 69.7252C68.9532 69.1969 69.2471 68.6624 69.5659 68.1466C70.1067 67.2651 70.6787 67.2745 71.207 68.181C72.7636 70.8567 74.3047 73.5387 75.8551 76.2176C75.9926 76.4583 76.1427 76.6958 76.2583 76.949C76.5584 77.6148 76.324 78.0399 75.6113 78.1368H75.6082Z" fill="white"/>
<path d="M65.7524 66.6431C65.7618 67.8028 64.8584 68.7343 63.7112 68.7437C62.5859 68.7499 61.6294 67.7934 61.6294 66.665C61.6294 65.5584 62.5359 64.6425 63.6518 64.6207C64.8271 64.5957 65.7399 65.4771 65.7524 66.6431Z" fill="white"/>
</svg>
