<svg width="92" height="92" viewBox="0 0 92 92" fill="none" xmlns="http://www.w3.org/2000/svg">
<path d="M67.5777 64.43H66.7056V67.3746H67.4058C68.0716 67.3746 68.6561 67.4652 69.15 67.6465V64.5519C68.6561 64.4706 68.131 64.43 67.5777 64.43ZM67.4527 75.7737H66.7056V78.7183H67.5871C68.1372 78.7183 68.6593 78.6776 69.15 78.5964V75.508C68.6624 75.6862 68.0966 75.7737 67.4527 75.7737ZM69.15 56.5372V21.1964L67.5402 19.5866L58.5471 10.5966L49.5916 1.64107L47.9536 0H2.9164C1.30659 0 0 1.30973 0 2.91017V89.0867C0 90.6934 1.30659 92 2.9164 92H66.2305C67.8434 92 69.15 90.6934 69.15 89.0867V86.6079H66.7056V89.0867C66.7056 89.3493 66.4931 89.5587 66.2305 89.5587H2.9164C2.65696 89.5587 2.43816 89.3493 2.43816 89.0867V2.91017C2.43816 2.65072 2.65696 2.43816 2.9164 2.43816H46.4345V20.0742C46.4345 21.5402 47.6286 22.7343 49.0946 22.7343H66.7056V56.5372H69.15ZM49.0946 20.2899C48.9727 20.2899 48.8758 20.1961 48.8758 20.0742V4.8607L64.7113 20.2899H49.0946Z" fill="#ED6C47"/>
<path d="M71.179 71.5663C71.179 72.5947 71.0352 73.4168 70.7508 74.0326C70.4632 74.6484 70.0443 75.0954 69.4879 75.3673C69.3785 75.4205 69.266 75.4674 69.1503 75.508C68.6627 75.6862 68.0969 75.7737 67.453 75.7737H65.7588V67.3745H67.4061C68.0719 67.3745 68.6564 67.4652 69.1503 67.6465C69.2629 67.6871 69.3691 67.7309 69.4723 67.7809C70.035 68.0529 70.4601 68.4967 70.7476 69.1063C71.0352 69.7189 71.179 70.5379 71.179 71.5663Z" fill="#D61A1A"/>
<path d="M29.7517 7.27072H11.4529C9.40894 7.27072 7.75195 8.92772 7.75195 10.9717V29.2704C7.75195 31.3145 9.40894 32.9715 11.4529 32.9715H29.7517C31.7957 32.9715 33.4527 31.3145 33.4527 29.2704V10.9717C33.4527 8.92772 31.7957 7.27072 29.7517 7.27072Z" fill="#ED6C47"/>
<path d="M60.2386 49.4009H8.91211V51.9766H60.2386V49.4009Z" fill="#ED6C47"/>
<path d="M60.2386 39.2544H8.91211V41.8301H60.2386V39.2544Z" fill="#ED6C47"/>
<path d="M8.91211 59.5474H37.8325C37.7043 59.9538 37.6355 60.3852 37.6355 60.8353V62.12H8.91211V59.5474Z" fill="#ED6C47"/>
<path d="M37.6355 69.6939H8.91211V72.2665H37.6355V69.6939Z" fill="#ED6C47"/>
<path d="M60.2386 71.4069V72.2665H59.7666C59.8354 72.1696 59.901 72.0665 59.9635 71.9602C60.0667 71.782 60.1573 71.5976 60.2386 71.4069Z" fill="#ED6C47"/>
<path d="M37.6355 82.313C37.6355 82.3474 37.6355 82.3786 37.6387 82.413H8.91211V79.8405H37.6355V82.313Z" fill="#ED6C47"/>
<path d="M59.9635 71.9602C59.901 72.0664 59.8354 72.1696 59.7666 72.2665H60.2386V71.4069C60.1573 71.5976 60.0667 71.782 59.9635 71.9602Z" fill="#D61A1A"/>
<path d="M86.404 67.2339V64.43H76.6482V78.7183H80.1023V72.9761H85.782V70.1628H80.1023V67.2339H86.404ZM71.3437 65.2834C70.6904 64.9301 69.9589 64.6863 69.1493 64.5519C68.6554 64.4706 68.1303 64.43 67.577 64.43H62.3037V78.7183H67.5864C68.1366 78.7183 68.6586 78.6776 69.1493 78.5963C69.9589 78.4619 70.6904 78.2181 71.3468 77.8649C72.4033 77.296 73.216 76.4739 73.785 75.4049C74.3539 74.3358 74.6383 73.0542 74.6383 71.5663C74.6383 70.0784 74.3539 68.8062 73.7818 67.7403C73.2098 66.6712 72.3971 65.8523 71.3437 65.2834ZM70.7498 74.0326C70.4622 74.6484 70.0433 75.0954 69.4869 75.3673C69.3775 75.4205 69.265 75.4674 69.1493 75.508C68.6617 75.6862 68.0959 75.7737 67.452 75.7737H65.7578V67.3745H67.4051C68.0709 67.3745 68.6554 67.4652 69.1493 67.6465C69.2619 67.6871 69.3681 67.7309 69.4713 67.7809C70.034 68.0529 70.4591 68.4967 70.7466 69.1063C71.0342 69.7189 71.178 70.5379 71.178 71.5663C71.178 72.5947 71.0342 73.4168 70.7498 74.0326Z" fill="#D61A1A"/>
<path d="M90.837 59.6631H45.0589C44.4119 59.6631 43.8867 60.1882 43.8867 60.8353V82.313C43.8867 82.3474 43.8867 82.3818 43.893 82.413C43.943 83.0132 44.4462 83.4821 45.0589 83.4821H90.837C91.484 83.4821 92.0092 82.96 92.0092 82.313V60.8353C92.0092 60.1882 91.484 59.6631 90.837 59.6631ZM60.238 71.4069V72.2665H59.766C59.3534 72.8573 58.8064 73.3293 58.125 73.6731C57.331 74.0795 56.3839 74.2796 55.2898 74.2796H52.9486V78.7183H49.4914V64.4269H55.3961C56.4651 64.4269 57.3904 64.6394 58.1687 65.0521C58.9471 65.4678 59.5504 66.0492 59.9723 66.79C60.3975 67.534 60.61 68.3936 60.61 69.3751C60.61 70.1222 60.485 70.8005 60.238 71.4069ZM73.7855 75.4049C73.2165 76.4739 72.4039 77.296 71.3473 77.8649C70.6909 78.2181 69.9594 78.4619 69.1498 78.5964C68.6591 78.6776 68.1371 78.7183 67.5869 78.7183H62.3042V64.43H67.5775C68.1308 64.43 68.6559 64.4706 69.1498 64.5519C69.9594 64.6863 70.6909 64.9301 71.3442 65.2834C72.3976 65.8523 73.2103 66.6712 73.7823 67.7403C74.3544 68.8062 74.6388 70.0815 74.6388 71.5663C74.6388 73.0511 74.3544 74.3358 73.7855 75.4049ZM86.4045 67.2339H80.1028V70.1628H85.7825V72.9761H80.1028V78.7183H76.6487V64.43H86.4045V67.2339Z" fill="#D61A1A"/>
<path d="M59.9635 71.9602C59.901 72.0664 59.8354 72.1696 59.7666 72.2665H60.2386V71.4069C60.1573 71.5976 60.0667 71.782 59.9635 71.9602Z" fill="#D61A1A"/>
<path d="M86.404 67.2339V64.43H76.6482V78.7183H80.1023V72.9761H85.782V70.1628H80.1023V67.2339H86.404ZM71.3437 65.2834C70.6904 64.9301 69.9589 64.6863 69.1493 64.5519C68.6554 64.4706 68.1303 64.43 67.577 64.43H62.3037V78.7183H67.5864C68.1366 78.7183 68.6586 78.6776 69.1493 78.5963C69.9589 78.4619 70.6904 78.2181 71.3468 77.8649C72.4033 77.296 73.216 76.4739 73.785 75.4049C74.3539 74.3358 74.6383 73.0542 74.6383 71.5663C74.6383 70.0784 74.3539 68.8062 73.7818 67.7403C73.2098 66.6712 72.3971 65.8523 71.3437 65.2834ZM70.7498 74.0326C70.4622 74.6484 70.0433 75.0954 69.4869 75.3673C69.3775 75.4205 69.265 75.4674 69.1493 75.508C68.6617 75.6862 68.0959 75.7737 67.452 75.7737H65.7578V67.3745H67.4051C68.0709 67.3745 68.6554 67.4652 69.1493 67.6465C69.2619 67.6871 69.3681 67.7309 69.4713 67.7809C70.034 68.0529 70.4591 68.4967 70.7466 69.1063C71.0342 69.7189 71.178 70.5379 71.178 71.5663C71.178 72.5947 71.0342 73.4168 70.7498 74.0326Z" fill="#D61A1A"/>
<path d="M59.9722 66.79C59.5502 66.0492 58.9469 65.4678 58.1686 65.052C57.3902 64.6394 56.465 64.4268 55.3959 64.4268H49.4912V78.7182H52.9484V74.2795H55.2897C56.3837 74.2795 57.3308 74.0795 58.1248 73.6731C58.8062 73.3293 59.3533 72.8573 59.7659 72.2665C59.8346 72.1696 59.9003 72.0664 59.9628 71.9601C60.066 71.782 60.1566 71.5975 60.2379 71.4069C60.4848 70.8005 60.6099 70.1221 60.6099 69.3751C60.6099 68.3936 60.3973 67.5339 59.9722 66.79ZM56.7588 70.5223C56.5744 70.8505 56.3087 71.1068 55.9586 71.2881C55.6085 71.4694 55.1709 71.56 54.652 71.56H52.9484V67.212H54.652C55.1678 67.212 55.6022 67.2995 55.9555 67.4777C56.3087 67.6527 56.5744 67.9028 56.7588 68.2279C56.937 68.553 57.0308 68.9343 57.0308 69.3751C57.0308 69.4845 57.0245 69.5908 57.012 69.6939C56.9776 70.0002 56.8932 70.2753 56.7588 70.5223Z" fill="white"/>
<path d="M57.0306 69.3751C57.0306 69.4845 57.0243 69.5907 57.0118 69.6939C56.9775 70.0002 56.8931 70.2753 56.7587 70.5222C56.5742 70.8505 56.3085 71.1068 55.9584 71.2881C55.6083 71.4694 55.1707 71.56 54.6518 71.56H52.9482V67.212H54.6518C55.1676 67.212 55.6021 67.2995 55.9553 67.4777C56.3085 67.6527 56.5742 67.9028 56.7587 68.2279C56.9368 68.553 57.0306 68.9343 57.0306 69.3751Z" fill="#D61A1A"/>
<path d="M73.7818 67.7402C73.2098 66.6712 72.3971 65.8522 71.3437 65.2833C70.6904 64.9301 69.9589 64.6863 69.1493 64.5519C68.6554 64.4706 68.1303 64.43 67.577 64.43H62.3037V78.7182H67.5864C68.1366 78.7182 68.6586 78.6776 69.1493 78.5963C69.9589 78.4619 70.6904 78.2181 71.3468 77.8649C72.4033 77.296 73.216 76.4739 73.7849 75.4048C74.3539 74.3358 74.6383 73.0542 74.6383 71.5663C74.6383 70.0784 74.3539 68.8062 73.7818 67.7402ZM70.7498 74.0326C70.4622 74.6484 70.0433 75.0954 69.4869 75.3673C69.3775 75.4205 69.265 75.4673 69.1493 75.508C68.6617 75.6861 68.0959 75.7737 67.452 75.7737H65.7578V67.3745H67.4051C68.0709 67.3745 68.6554 67.4652 69.1493 67.6465C69.2619 67.6871 69.3681 67.7309 69.4713 67.7809C70.034 68.0528 70.4591 68.4967 70.7466 69.1062C71.0342 69.7189 71.178 70.5379 71.178 71.5663C71.178 72.5947 71.0342 73.4168 70.7498 74.0326Z" fill="white"/>
<path d="M86.4032 67.2338V64.43H76.6475V78.7182H80.1015V72.976H85.7812V70.1628H80.1015V67.2338H86.4032Z" fill="white"/>
<path d="M79.5622 26.1446C80.4468 26.0759 81.1752 26.0165 82.016 25.9508C81.8441 25.0818 81.7378 24.2222 81.4971 23.4064C78.9839 14.8166 73.7387 8.60549 65.4146 5.13892C63.5547 4.36371 61.5854 4.03237 59.5568 4.09489C59.4161 4.09801 59.2755 4.07301 59.1379 4.06363C59.1254 4.01362 59.116 3.9636 59.1035 3.91046C59.3505 3.82294 59.588 3.71353 59.8381 3.65414C63.014 2.91644 66.096 3.35094 69.1094 4.43873C74.1857 6.27048 78.2837 9.47135 81.7097 13.5725C84.6167 17.0515 86.711 20.9588 87.7363 25.4632C88.4896 25.4163 89.2336 25.3694 90.162 25.3132C88.5896 28.5297 87.0799 31.6274 85.5044 34.847C83.5008 31.9149 81.5659 29.0861 79.5528 26.1384L79.5622 26.1446Z" fill="#888888"/>
<path d="M23.3937 14.1382C22.6091 13.735 21.7683 13.5662 20.893 13.5599C19.2426 13.5506 17.5922 13.5537 15.9417 13.5537C15.8229 13.5537 15.7041 13.5724 15.5635 13.585V26.6885H18.2923V22.1216C18.7362 22.1216 19.1113 22.1435 19.4833 22.1185C20.5211 22.0498 21.5839 22.0748 22.5935 21.8559C24.3471 21.4746 25.4255 20.1555 25.61 18.4175C25.8069 16.592 24.9535 14.9447 23.3906 14.1382H23.3937ZM21.29 19.7898C20.3179 19.8742 19.3333 19.8085 18.3267 19.8085V15.8137C18.5893 15.8137 18.855 15.8074 19.1176 15.8137C19.8428 15.8356 20.5773 15.8074 21.29 15.9012C22.234 16.0262 22.8248 16.8796 22.8155 17.9674C22.8092 18.9833 22.2684 19.7022 21.2869 19.7866L21.29 19.7898Z" fill="white"/>
</svg>
