<svg width="92" height="92" viewBox="0 0 92 92" fill="none" xmlns="http://www.w3.org/2000/svg">
<path d="M69.143 56.5372V21.1964L67.5333 19.5866L58.5412 10.5966L49.5865 1.64106L47.9488 -1.52588e-05H2.91612C1.30647 -1.52588e-05 0 1.30972 0 2.91015V89.0867C0 90.6934 1.30647 92 2.91612 92H66.2237C67.8365 92 69.143 90.6934 69.143 89.0867V86.6079H66.6988V89.0867C66.6988 89.3493 66.4863 89.5587 66.2237 89.5587H2.91612C2.6567 89.5587 2.43791 89.3493 2.43791 89.0867V2.91015C2.43791 2.65071 2.6567 2.43815 2.91612 2.43815H46.4298V20.0742C46.4298 21.5402 47.6237 22.7343 49.0896 22.7343H66.6988V56.5372H69.143ZM49.0896 20.2899C48.9677 20.2899 48.8708 20.1961 48.8708 20.0742V4.86068L64.7047 20.2899H49.0896Z" fill="#ED6C47"/>
<path d="M29.7485 7.27071H11.4516C9.4078 7.27071 7.75098 8.9277 7.75098 10.9717V29.2704C7.75098 31.3144 9.4078 32.9714 11.4516 32.9714H29.7485C31.7923 32.9714 33.4491 31.3144 33.4491 29.2704V10.9717C33.4491 8.9277 31.7923 7.27071 29.7485 7.27071Z" fill="#ED6C47"/>
<path d="M60.2289 49.3978H8.90771V51.9735H60.2289V49.3978Z" fill="#ED6C47"/>
<path d="M60.2289 39.2513H8.90771V41.827H60.2289V39.2513Z" fill="#ED6C47"/>
<path d="M8.91064 59.5474H37.8281C37.6999 59.9538 37.6311 60.3851 37.6311 60.8353V62.12H8.91064V59.5474Z" fill="#ED6C47"/>
<path d="M37.6311 69.6939H8.91064V72.2665H37.6311V69.6939Z" fill="#ED6C47"/>
<path d="M37.6311 82.313C37.6311 82.3474 37.6311 82.3786 37.6343 82.413H8.91064V79.8404H37.6311V82.313Z" fill="#ED6C47"/>
<path d="M91.9999 60.8353V82.313C91.9999 82.96 91.4748 83.482 90.8278 83.482H45.0544C44.4418 83.482 43.9386 83.0132 43.8886 82.413C43.8823 82.3817 43.8823 82.3474 43.8823 82.313V60.8353C43.8823 60.1882 44.4074 59.6631 45.0544 59.6631H90.8278C91.4748 59.6631 91.9999 60.1882 91.9999 60.8353Z" fill="#FBBE41"/>
<path d="M79.5543 26.1415C80.4388 26.0727 81.167 26.0133 82.0078 25.9477C81.8359 25.0787 81.7296 24.2191 81.489 23.4032C78.976 14.8134 73.7314 8.60233 65.4081 5.13576C63.5484 4.36055 61.5793 4.02921 59.5509 4.09173C59.4102 4.09486 59.2696 4.06985 59.132 4.06047C59.1195 4.01046 59.1102 3.96044 59.0977 3.9073C59.3446 3.81978 59.5821 3.71038 59.8322 3.65099C63.0077 2.91328 66.0895 3.34778 69.1025 4.43557C74.1783 6.26732 78.2759 9.46819 81.7015 13.5693C84.6082 17.0484 86.7023 20.9557 87.7275 25.46C88.4808 25.4131 89.2246 25.3663 90.1529 25.31C88.5808 28.5265 87.0712 31.6242 85.4959 34.8438C83.4924 31.9118 81.5577 29.0829 79.5449 26.1352L79.5543 26.1415Z" fill="#888888"/>
<path d="M23.3915 14.1382C22.607 13.735 21.7662 13.5662 20.891 13.5599C19.2408 13.5505 17.5905 13.5537 15.9402 13.5537C15.8214 13.5537 15.7027 13.5724 15.562 13.5849V26.6885H18.2906V22.1216C18.7344 22.1216 19.1095 22.1435 19.4814 22.1185C20.5191 22.0497 21.5818 22.0747 22.5913 21.8559C24.3448 21.4746 25.4231 20.1555 25.6075 18.4175C25.8044 16.592 24.9511 14.9447 23.3883 14.1382H23.3915ZM21.288 19.7897C20.3159 19.8741 19.3314 19.8085 18.325 19.8085V15.8137C18.5875 15.8137 18.8532 15.8074 19.1157 15.8137C19.8409 15.8355 20.5754 15.8074 21.288 15.9012C22.2319 16.0262 22.8226 16.8796 22.8132 17.9674C22.807 18.9833 22.2663 19.7022 21.2849 19.7866L21.288 19.7897Z" fill="white"/>
<path d="M64.8233 76.1082V78.712H53.8496C53.8058 77.7961 53.7933 76.9678 54.4028 76.1332C56.4157 73.3699 58.3285 70.5316 60.2788 67.7215C60.3757 67.584 60.4632 67.4402 60.607 67.2214H54.4903V64.5925H64.7171C64.739 65.5303 64.8202 66.3962 64.1889 67.2683C62.2135 70.0003 60.3413 72.8104 58.4316 75.5893C58.3379 75.7268 58.2472 75.8675 58.0847 76.1113H64.8202L64.8233 76.1082Z" fill="white"/>
<path d="M79.8418 64.7613C77.5477 64.2018 75.2379 64.4613 72.9062 64.7363V78.7182H76.0818V73.7669C77.0945 73.695 78.0634 73.7138 78.9979 73.5418C80.9857 73.1792 82.4423 72.1665 82.9486 70.0565C83.5331 67.6309 82.2547 65.3521 79.8449 64.7645L79.8418 64.7613ZM78.626 70.9661C77.8258 71.3256 76.9788 71.3319 76.088 71.1756V66.9932C77.0288 66.8275 77.9509 66.7462 78.8291 67.162C79.5949 67.5246 79.8981 68.1841 79.8793 69.0156C79.8574 69.9221 79.4511 70.591 78.626 70.963V70.9661Z" fill="white"/>
<path d="M70.0807 64.5769H66.9146V78.712H70.0807V64.5769Z" fill="white"/>
</svg>
