<svg width="45" height="43" viewBox="0 0 45 43" fill="none" xmlns="http://www.w3.org/2000/svg">
<path d="M22.5 43C18.3489 43 14.2002 43 10.0492 42.9954C8.30443 42.9954 7.25852 41.9468 7.2492 40.1977C7.24221 38.7872 7.24221 37.3791 7.24454 35.9339V33.9829H4.53075C3.97401 33.9829 3.42427 33.9829 2.87452 33.9806C1.0529 33.9759 0.00465887 32.9251 0.00465887 31.0994C0 25.3393 0 19.5792 0 13.8191C0 11.8032 1.00166 10.8242 3.05855 10.8219H7.19562C7.19562 10.8219 7.21426 10.525 7.21891 10.4415C7.23056 10.2721 7.23988 10.126 7.23988 9.9775C7.23988 9.05886 7.23988 8.13789 7.23988 7.21925C7.23988 5.76009 7.23988 4.30093 7.24454 2.84177C7.25386 1.06479 8.31608 0.00463962 10.0864 0.00231981C13.916 0.00231981 17.7433 0 21.5706 0C26.0174 0 30.4643 0 34.9112 0.00463962C36.7072 0.00463962 37.7415 1.04159 37.7485 2.84409C37.7578 4.64658 37.7555 6.41195 37.7531 8.2794C37.7531 9.0635 37.7531 10.7546 37.7531 10.7546L37.8603 10.7639C37.9372 10.7709 38.0094 10.7778 38.0793 10.7848C38.24 10.801 38.3891 10.8173 38.5428 10.8173C39.0273 10.8196 39.5142 10.8196 39.9987 10.8196H41.9391C44.024 10.8219 44.9953 11.7986 44.9977 13.8933C44.9977 16.7977 44.9977 19.7045 44.9977 22.6089V26.9655C44.9977 27.4178 44.9977 27.8725 44.9977 28.3249C44.9977 29.2992 45.0023 30.2735 44.9953 31.2455C44.9814 32.8856 43.9145 33.9551 42.2746 33.9759C41.7271 33.9806 41.1797 33.9829 40.6253 33.9829C40.1874 33.9829 39.7425 33.9829 39.2929 33.9829C38.827 33.9829 38.3541 33.9806 37.8696 33.9806H37.7531C37.7531 33.9806 37.7531 35.9965 37.7531 36.5277C37.7531 37.7294 37.7578 38.9728 37.7485 40.193C37.7345 41.9468 36.6886 42.993 34.9508 42.9954C30.7998 42.9954 26.6487 43 22.5 43ZM8.77498 29.392C8.77498 32.9158 8.77498 36.4373 8.77498 39.961C8.77498 41.2068 9.04752 41.4759 10.3031 41.4759H34.6783C35.9665 41.4759 36.2274 41.2114 36.2297 39.9077C36.2297 34.6232 36.2297 29.3386 36.2297 24.0541C36.2297 23.8848 36.218 23.7154 36.2064 23.5391C36.2017 23.4626 36.1854 23.1911 36.1854 23.1911H8.77265V29.392H8.77498ZM37.7881 32.4611H40.6509C41.0982 32.4611 41.5408 32.4611 41.9857 32.4611C43.183 32.4588 43.4742 32.1665 43.4742 30.9811C43.4766 25.272 43.4766 19.563 43.4742 13.8516C43.4742 12.6105 43.2017 12.3414 41.9391 12.3414H22.5093H3.07951C1.77736 12.3414 1.53277 12.5919 1.53277 13.9119C1.53277 17.6839 1.53277 21.4582 1.53277 25.2303V30.8883C1.53277 30.9439 1.52578 31.0066 1.52112 31.0669C1.50481 31.2386 1.48618 31.4172 1.57936 31.5471L1.66555 31.67C1.90082 32.0087 2.16637 32.3915 2.47386 32.4077C3.12377 32.4425 3.8226 32.4588 4.73108 32.4588C5.1201 32.4588 5.51144 32.4565 5.90278 32.4541C6.29879 32.4518 6.69712 32.4495 7.09545 32.4495H7.21193V23.1587H5.48815C5.16202 23.161 4.83823 23.1587 4.51444 23.1587C4.2186 23.1563 3.98566 23.0751 3.84124 22.929C3.71312 22.7991 3.65022 22.6112 3.65255 22.3769C3.65954 21.9222 3.94606 21.6809 4.50513 21.6531C4.63091 21.6461 4.7567 21.6461 4.88249 21.6461H5.10379C7.0908 21.6461 9.0778 21.6461 11.0648 21.6461H18.6098C25.7798 21.6461 32.9475 21.6485 40.1152 21.6531C40.6556 21.6531 41.026 21.7529 41.2147 21.95C41.3288 22.0684 41.3801 22.2261 41.3707 22.4326C41.3544 22.7945 41.1937 23.1656 40.1338 23.1679H37.7904V32.4681L37.7881 32.4611ZM24.6011 1.5218C19.7839 1.5218 14.9643 1.5218 10.147 1.52412C9.09877 1.52412 8.77731 1.84425 8.77498 2.89048C8.76799 5.29381 8.77032 7.69945 8.77498 10.1028C8.77498 10.2396 8.79594 10.3765 8.81458 10.5064C8.82389 10.5667 8.83321 10.6271 8.8402 10.6874L8.85185 10.7894H36.2274V8.31652C36.2274 6.50243 36.2297 4.71849 36.2274 2.93456C36.2274 1.82801 35.9245 1.52412 34.825 1.5218H24.6035H24.6011Z" fill="white"/>
<path d="M37.9978 17.7512C37.8207 17.7512 37.6414 17.7512 37.4643 17.7488C37.2826 17.7488 37.1102 17.7465 36.9402 17.7465C36.7841 17.7465 36.6281 17.7465 36.472 17.7488C36.472 17.7488 36.4627 17.7488 36.4487 17.7488C36.4347 17.7488 36.4254 17.7488 36.4137 17.7488H35.9199C35.8128 17.7488 35.7056 17.7488 35.5984 17.7488H35.5658C35.4727 17.7488 35.3771 17.7465 35.284 17.7419C34.7319 17.7256 34.45 17.4821 34.4454 17.0135C34.443 16.7745 34.5059 16.5889 34.6341 16.459C34.7762 16.3129 35.0091 16.2363 35.3049 16.234C35.8687 16.2294 36.4347 16.2247 37.0008 16.2247C37.5668 16.2247 38.1305 16.2271 38.6943 16.234C39.0693 16.2387 39.5189 16.3686 39.5329 16.9624C39.5445 17.4612 39.2533 17.7233 38.6686 17.7396C38.445 17.7465 38.2214 17.7488 37.9978 17.7488V17.7512Z" fill="white"/>
<path d="M13.6386 27.6707C13.5035 27.6707 13.3381 27.6614 13.238 27.5918C12.9957 27.4225 12.7441 27.1186 12.7441 26.9052C12.7441 26.6918 13.005 26.3739 13.238 26.2278C13.3568 26.1536 13.5431 26.1443 13.6899 26.1443C13.7505 26.1443 13.8134 26.1443 13.8762 26.1466C13.9391 26.1466 13.9997 26.1512 14.0579 26.1512C17.4706 26.1489 20.8809 26.1489 24.2935 26.1489H31.0977C32.16 26.1605 32.2951 26.5619 32.2951 26.9121C32.2951 27.2648 32.1576 27.6661 31.0931 27.6684C29.6488 27.6684 28.2023 27.6684 26.758 27.6684C25.3138 27.6684 23.8695 27.6684 22.4229 27.6684C21.016 27.6684 19.6067 27.6684 18.1997 27.6684C16.8859 27.6684 15.5697 27.6684 14.2559 27.6661H13.9787C13.9252 27.6661 13.8693 27.6661 13.811 27.6684C13.7551 27.6684 13.6969 27.6707 13.6386 27.6707Z" fill="white"/>
<path d="M13.6437 33.0805C13.5109 33.0805 13.3432 33.0712 13.243 33.004C12.9984 32.8346 12.7445 32.5354 12.7422 32.3243C12.7422 32.1062 12.9984 31.7907 13.229 31.6446C13.3478 31.568 13.5272 31.5587 13.6833 31.5587C13.7438 31.5587 13.8044 31.5587 13.865 31.561C13.9255 31.561 13.9861 31.5634 14.0443 31.5634C19.6769 31.5587 25.3072 31.5587 30.9374 31.5587C32.0648 31.5587 32.2978 31.8603 32.3001 32.315C32.3001 32.5238 32.2489 32.6792 32.1347 32.7929C31.9437 32.9854 31.5547 33.0782 30.949 33.0782H19.0969C17.3917 33.0782 15.6866 33.0782 13.9814 33.0759C13.9162 33.0759 13.8626 33.0759 13.8091 33.0782C13.7555 33.0782 13.6996 33.0805 13.6437 33.0805Z" fill="white"/>
<path d="M31.3735 38.5065C31.306 38.5065 31.2361 38.5019 31.1662 38.4973C31.0917 38.4926 31.0195 38.488 30.9496 38.488H22.5054H14.0612C12.9384 38.488 12.7055 38.1864 12.7031 37.7364C12.7031 37.5276 12.7567 37.3698 12.8685 37.2562C13.0595 37.0636 13.4462 36.9708 14.0519 36.9708H26.7962C28.1776 36.9708 29.5589 36.9708 30.9403 36.9708C31.0101 36.9708 31.0824 36.9662 31.1569 36.9616C31.2268 36.9569 31.299 36.9523 31.3665 36.9523C31.4853 36.9523 31.5622 36.9685 31.6111 37.001C32.0071 37.2794 32.2447 37.5508 32.2447 37.7248C32.2447 37.8988 32.0118 38.1725 31.6205 38.4555C31.5715 38.4903 31.4947 38.5065 31.3759 38.5065H31.3735Z" fill="white"/>
</svg>
