<svg width="58" height="58" viewBox="0 0 58 58" fill="none" xmlns="http://www.w3.org/2000/svg">
<path d="M55.9073 20.7583C54.8419 19.7428 53.762 18.7436 52.6918 17.7346C51.8202 16.9116 51.2294 15.9236 50.9566 14.7497C50.6079 13.2589 50.2577 11.7697 49.9009 10.2821C49.2423 7.53172 47.1294 5.67871 44.3885 5.47498C42.9422 5.36665 41.4959 5.26801 40.0464 5.23082C38.5823 5.19202 37.2942 4.73766 36.1385 3.84511C35.007 2.97358 33.8544 2.12469 32.7084 1.26933C31.6123 0.45116 30.3856 0.00488525 29.0071 3.44463e-05C27.5608 -0.00481636 26.2985 0.502901 25.1573 1.36958C24.0015 2.24596 22.8377 3.1094 21.6787 3.98093C20.7377 4.68915 19.6836 5.1144 18.5101 5.19687C17.0041 5.30035 15.4964 5.39252 13.9888 5.45073C11.0494 5.56229 8.79118 7.39267 8.10192 10.2676C7.76941 11.6581 7.44011 13.0487 7.13181 14.4457C6.8348 15.7862 6.20366 16.9229 5.19157 17.8526C4.15366 18.8082 3.12866 19.7768 2.10366 20.7469C-0.120669 22.8538 -0.601692 25.5492 0.759055 28.2883C1.40472 29.5867 2.05685 30.8819 2.72189 32.1706C3.30299 33.2992 3.50638 34.4925 3.36756 35.7456C3.20937 37.1685 3.04795 38.5898 2.85748 40.0079C2.45232 43.0235 3.8502 45.5249 6.63626 46.7246C7.92921 47.2809 9.21409 47.8565 10.5167 48.3885C11.8113 48.9172 12.8089 49.7709 13.5578 50.9497C14.3907 52.2578 15.2027 53.5853 16.1195 54.8336C17.6094 56.8661 19.661 57.7602 22.1404 57.2477C23.8869 56.8871 25.5818 56.2775 27.2977 55.7746C28.4082 55.448 29.5204 55.4302 30.6293 55.7536C32.0772 56.1772 33.5203 56.6138 34.9618 57.052C37.8769 57.9365 40.4725 57.0051 42.1577 54.4568C42.9358 53.2813 43.7106 52.1026 44.4676 50.9125C45.2053 49.7532 46.1996 48.9204 47.47 48.3949C48.9001 47.8015 50.3303 47.2081 51.733 46.55C54.1333 45.4262 55.4682 43.017 55.1922 40.383C55.0727 39.2398 54.963 38.0934 54.7644 36.9632C54.4158 34.9614 54.6369 33.089 55.6974 31.3152C56.2753 30.3499 56.7337 29.3135 57.2357 28.3029C58.5997 25.5638 58.1267 22.8732 55.9073 20.7583ZM28.9603 48.4887C18.0113 48.4111 9.22216 39.5826 9.23992 28.6829C9.25767 17.7362 18.1776 8.82365 29.041 8.89803C39.9883 8.97403 48.7807 17.8025 48.7613 28.7039C48.7419 39.6522 39.8204 48.5663 28.9603 48.4887Z" fill="url(#paint0_linear_60_332)"/>
<path d="M29.0395 10.8351C19.2447 10.7721 11.2368 18.7598 11.1722 28.6554C11.1093 38.4654 19.0833 46.487 28.962 46.5516C38.7568 46.6163 46.7728 38.6206 46.8293 28.7314C46.8842 18.9117 38.9183 10.8982 29.0395 10.8351ZM39.0506 25.2598C35.5656 28.8106 32.0693 32.3501 28.5617 35.8766C27.4415 37.002 25.8677 36.9875 24.7345 35.8637C22.8024 33.9509 20.8815 32.0251 18.9703 30.0912C17.8468 28.9529 17.8404 27.3247 18.9219 26.2559C19.9695 25.221 21.6063 25.242 22.712 26.3335C24.0178 27.6206 25.3027 28.927 26.5198 30.1478C28.9507 27.7742 31.3462 25.4425 33.7351 23.1061C34.2678 22.5838 34.7731 22.0357 35.3106 21.5182C36.434 20.4349 38.0514 20.4187 39.099 21.4665C40.1499 22.5175 40.1531 24.1377 39.0506 25.2598Z" fill="url(#paint1_linear_60_332)"/>
<defs>
<linearGradient id="paint0_linear_60_332" x1="29" y1="-13.5" x2="29" y2="68.5" gradientUnits="userSpaceOnUse">
<stop stop-color="#D3A42E"/>
<stop offset="0.494" stop-color="#F5C068"/>
<stop offset="1" stop-color="#D3A42E"/>
</linearGradient>
<linearGradient id="paint1_linear_60_332" x1="29.0007" y1="2.43283" x2="29.0007" y2="53.4669" gradientUnits="userSpaceOnUse">
<stop stop-color="#D3A42E"/>
<stop offset="0.494" stop-color="#F5C068"/>
<stop offset="1" stop-color="#D3A42E"/>
</linearGradient>
</defs>
</svg>
