<svg width="50" height="30" viewBox="0 0 50 30" fill="none" xmlns="http://www.w3.org/2000/svg">
<path d="M33.0153 18.3648C32.676 18.6888 32.551 18.9771 32.6403 19.4643C33.2041 22.5587 33.7296 25.6608 34.2653 28.7628C34.301 28.972 34.324 29.1812 34.3648 29.4899C34.0714 29.347 33.875 29.2552 33.6862 29.1557C30.8979 27.699 28.1071 26.2475 25.3291 24.773C24.9464 24.5715 24.6556 24.5562 24.2653 24.7654C21.5051 26.2322 18.7295 27.6761 15.9566 29.1251C15.7474 29.2348 15.5357 29.3343 15.2066 29.5001C15.255 29.1735 15.2806 28.949 15.3188 28.7271C15.8571 25.6098 16.3903 22.4898 16.9489 19.375C17.0178 18.9847 16.9413 18.7322 16.6556 18.4592C14.3622 16.2526 12.0841 14.0281 9.79585 11.8138C9.65299 11.676 9.45656 11.5919 9.28564 11.4847C9.32391 11.4133 9.36217 11.3419 9.40044 11.2679C10.0612 11.1658 10.7244 11.0587 11.3851 10.9618C14.079 10.5664 16.7729 10.1658 19.4693 9.78829C19.8673 9.73217 20.0714 9.55359 20.2423 9.20665C21.6428 6.34695 23.0561 3.49491 24.4694 0.642859C24.5561 0.466838 24.653 0.295919 24.7908 0.0382652C24.926 0.285715 25.0255 0.451532 25.1097 0.625001C26.5204 3.47705 27.9388 6.3291 29.3342 9.1888C29.5153 9.56125 29.7347 9.73217 30.153 9.79084C33.3393 10.2373 36.523 10.7092 39.7092 11.1786C39.8648 11.2016 40.0179 11.2526 40.1709 11.2908C40.2245 11.3623 40.2781 11.4337 40.3316 11.5051C40.1531 11.6021 39.9413 11.6633 39.801 11.7985C37.5383 13.9822 35.2908 16.1837 33.0204 18.3623L33.0153 18.3648Z" fill="white"/>
<path d="M43.3243 15.8674C42.9901 16.1863 42.9136 16.4822 42.9952 16.9312C43.4799 19.5919 43.9289 22.2577 44.3906 24.9235C44.4162 25.0817 44.4264 25.245 44.4595 25.5256C41.8371 24.1557 39.3039 22.8317 36.7121 21.4771C36.8702 21.1429 37.0131 20.8393 37.1865 20.4771C39.1304 21.5001 41.0207 22.495 43.0309 23.5536C42.8498 22.4592 42.6917 21.5026 42.5309 20.546C42.2988 19.1684 42.0769 17.7858 41.8167 16.4133C41.7452 16.0358 41.8447 15.7985 42.1075 15.5434C43.6534 14.0485 45.1891 12.5357 46.7248 11.0306C46.8626 10.8954 46.9927 10.75 47.2172 10.5128C46.3906 10.3878 45.6917 10.2806 44.9901 10.1786C43.3524 9.9388 41.7146 9.6939 40.0743 9.47707C39.7146 9.4286 39.5335 9.26533 39.383 8.9541C38.4417 7.02043 37.4825 5.09185 36.5258 3.16327C36.4365 2.9847 36.3422 2.80868 36.1789 2.50001C35.3013 4.26022 34.4697 5.92093 33.6202 7.62502C33.2809 7.44645 32.9978 7.29849 32.6636 7.12502C33.8294 4.76277 34.9723 2.44644 36.1738 0.0127563C36.3217 0.285716 36.4161 0.451533 36.4978 0.619901C37.6993 3.06378 38.9085 5.50512 40.0947 7.9541C40.258 8.29084 40.4621 8.4388 40.8345 8.48982C43.5131 8.85972 46.1866 9.25513 48.8626 9.64543C49.0743 9.67605 49.2861 9.72451 49.4978 9.76533C49.5412 9.83166 49.5871 9.89543 49.6305 9.95921C49.457 10.0638 49.2555 10.1378 49.1126 10.2755C47.1789 12.1403 45.2605 14.0204 43.3167 15.875L43.3243 15.8674Z" fill="white"/>
<path d="M16.9031 7.10461C16.5944 7.27808 16.3138 7.43369 15.9567 7.63267C15.1097 5.93114 14.2806 4.26787 13.3954 2.4949C13.2424 2.78317 13.1454 2.95409 13.0613 3.12756C12.1072 5.05613 11.1429 6.98216 10.2092 8.92094C10.0357 9.27808 9.8138 9.42859 9.42349 9.48217C7.27298 9.77298 5.12501 10.0919 2.97705 10.4031C2.81888 10.426 2.66072 10.4694 2.39796 10.5281C2.57654 10.7271 2.69644 10.8725 2.82909 11.0026C4.35205 12.4975 5.86991 13.9949 7.40818 15.4771C7.71686 15.773 7.8291 16.046 7.75002 16.4873C7.35971 18.6404 7.00767 20.8011 6.64542 22.9618C6.61991 23.1046 6.60971 23.2475 6.574 23.5383C8.55359 22.495 10.4388 21.5026 12.3725 20.4873C12.5408 20.8062 12.6939 21.0919 12.8903 21.4618C10.3138 22.8087 7.76788 24.1404 5.0842 25.546C5.28318 24.3853 5.45154 23.3929 5.62246 22.398C5.94644 20.5307 6.26022 18.6633 6.60206 16.7985C6.67093 16.4286 6.5791 16.1888 6.31124 15.9312C4.3597 14.0587 2.42603 12.1709 0.482144 10.2908C0.339287 10.1505 0.163266 10.0459 0 9.92604C0.0229592 9.87247 0.0459185 9.8189 0.0714287 9.76278C0.528063 9.68625 0.984696 9.60206 1.44133 9.53319C3.86225 9.18114 6.28318 8.82145 8.7041 8.48982C9.09441 8.43624 9.3138 8.28573 9.48727 7.92859C10.6658 5.49491 11.8648 3.06889 13.0587 0.642859C13.1454 0.466838 13.2398 0.293368 13.3929 0C14.5893 2.42092 15.7322 4.73726 16.9031 7.10461Z" fill="white"/>
</svg>
