<svg width="50" height="45" viewBox="0 0 50 45" fill="none" xmlns="http://www.w3.org/2000/svg">
<path d="M27.8048 44.9987C22.4947 44.9987 17.2872 43.0514 13.4291 39.6395L14.7197 38.332C18.5241 41.5247 22.8987 43.1439 27.7323 43.1439C28.3401 43.1439 28.9629 43.1173 29.5845 43.0666C34.2292 42.6827 38.3237 40.8241 41.7529 37.5414C48.6925 30.8974 50.1945 20.4323 45.4072 12.0919C41.7742 5.76342 35.0309 1.83203 27.8098 1.83203C25.7726 1.83203 23.7479 2.14243 21.7894 2.75438C13.2015 5.43781 7.29607 13.5616 7.42488 22.5101L7.44989 24.2585H12.7562L6.37687 30.6896L0 24.2813H5.49519L5.53896 22.5519C5.6265 19.0273 6.3331 15.7965 7.63748 12.9484C8.95688 10.066 10.9366 7.47508 13.5216 5.24776C17.3185 1.97646 21.7756 0.216651 26.7693 0.0177375C27.0745 0.00506785 27.3821 0 27.686 0C32.7085 0 37.4345 1.61158 41.3527 4.65989C45.2734 7.70947 48.0172 11.9095 49.2853 16.8075C50.5472 21.6765 50.1283 26.923 48.106 31.5816C46.085 36.2351 42.5608 40.0766 38.1812 42.3989C34.9258 44.1245 31.4341 45 27.8036 45L27.8048 44.9987Z" fill="white"/>
</svg>
