<svg width="30" height="33" viewBox="0 0 30 33" fill="none" xmlns="http://www.w3.org/2000/svg">
<path d="M10.3775 32.0201C18.1658 34.8629 26.5481 31.2638 30 24.5351C29.307 24.1765 28.6073 23.8179 27.9143 23.4593C25.459 27.7299 21.8091 30.2075 16.8259 30.5987C13.2156 30.8791 9.99467 29.7903 7.22257 27.5082C1.77077 23.0224 0.800529 15.0679 4.99828 9.40848C9.17624 3.76861 16.3969 2.75147 21.4065 5.0987C20.9445 5.97239 20.4825 6.85261 20.0072 7.76542C22.9641 7.63502 25.888 7.51113 28.8582 7.38725C27.2609 4.91614 25.6834 2.47111 24.0928 0C23.5648 1.00409 23.0433 1.98862 22.5285 2.96012C17.7302 0.951932 12.9912 1.03669 8.38421 3.44912C4.62207 5.41819 2.09418 8.46959 0.77413 12.4664C-1.85277 20.4274 2.41759 29.1122 10.3775 32.0136V32.0201Z" fill="white"/>
</svg>
