<svg width="39" height="45" viewBox="0 0 39 45" fill="none" xmlns="http://www.w3.org/2000/svg">
<path d="M38.9709 6.5662C38.9685 5.98559 38.6617 5.28225 38.2652 4.84797C36.9765 3.43185 35.6194 2.06765 34.2009 0.783702C33.7383 0.365946 32.9972 0.0378779 32.3835 0.0355177C22.6807 -0.0116863 12.9779 0.000114679 3.27514 0.00483509C0.945623 0.00483509 0.00626176 0.946556 0.00626176 3.27372C0.00154136 9.53534 0.00154136 15.7946 0.00154136 22.0539C0.00154136 28.3131 -0.00317905 34.7305 0.00390156 41.07C0.00390156 43.088 1.01879 44.1406 3.00372 44.143C13.9975 44.1524 24.9914 44.1524 35.9876 44.143C37.9678 44.143 38.9945 43.0833 38.9945 41.0747C38.9992 29.5711 39.0086 18.0675 38.9685 6.5662H38.9709ZM21.2387 1.48232H25.7962V9.31112H21.2387V1.48232ZM6.11211 1.50356H19.7541V6.11304C19.7541 7.28606 19.7777 8.46144 19.7446 9.63446C19.721 10.4818 20.068 10.8358 20.9271 10.8193C22.6477 10.7839 24.3706 10.7839 26.0912 10.8193C26.9551 10.8358 27.2737 10.4818 27.2642 9.6321C27.2359 6.93911 27.2548 4.24612 27.2548 1.46108H28.6662C28.6662 4.85977 28.7087 8.21362 28.6426 11.5651C28.619 12.6815 27.7505 13.0072 26.7308 13.0048C23.0536 12.9954 19.3764 13.0025 15.6993 13.0025C13.2328 13.0025 10.7688 13.0096 8.30238 13.0001C6.61011 12.993 6.11683 12.5092 6.11447 10.8618C6.10739 7.77226 6.11211 4.68276 6.11211 1.50356ZM32.1145 41.4618C32.1145 41.8442 32.0791 42.2265 32.0578 42.6702H7.56363C7.54475 42.243 7.51171 41.863 7.51171 41.483C7.50935 35.5353 7.50699 29.5876 7.51171 23.6399C7.51171 21.8886 7.95779 21.4496 9.7539 21.4473C16.4451 21.4449 23.1363 21.4449 29.8274 21.4473C31.6637 21.4473 32.1145 21.8981 32.1145 23.739C32.1192 29.6466 32.1168 35.5542 32.1145 41.4618ZM37.5854 40.5366C37.5854 42.5097 37.3541 42.7363 35.3479 42.7387H33.5896C33.566 42.2147 33.5306 41.7616 33.5306 41.3108C33.5259 35.4787 33.5306 29.6466 33.5259 23.8169C33.5235 21.0862 32.485 20.0382 29.7779 20.0382C23.1221 20.0335 16.4687 20.0335 9.81527 20.0382C7.14824 20.0382 6.10031 21.0744 6.10031 23.7036C6.09795 29.5758 6.10031 35.4456 6.10031 41.3178V42.7387C5.02169 42.7387 4.12482 42.7434 3.2303 42.7363C1.78586 42.7245 1.41766 42.3681 1.4153 40.9449C1.40822 37.1875 1.4153 33.43 1.4153 29.6726V3.84017C1.4153 1.53189 1.57108 1.37847 3.88172 1.41388C4.11066 1.41624 4.33723 1.43512 4.70543 1.45164V3.44837C4.70543 6.07056 4.68418 8.69274 4.71251 11.3149C4.73139 13.0898 5.86665 14.369 7.59432 14.3808C14.1297 14.4257 20.6651 14.4257 27.2029 14.3832C28.9329 14.3714 30.0705 13.0992 30.0847 11.3244C30.1083 8.08145 30.0918 4.83617 30.0918 1.52717C31.6353 1.29351 32.9925 1.20146 34.1159 2.59634C35.1426 3.86849 36.8254 4.78425 37.4084 6.19329C37.9914 7.59997 37.5854 9.42441 37.5854 11.0647C37.5925 20.8903 37.5901 30.7134 37.5854 40.5366Z" fill="black"/>
<path d="M38.9709 6.5662C38.9685 5.98559 38.6617 5.28225 38.2652 4.84797C36.9765 3.43185 35.6194 2.06765 34.2009 0.783702C33.7383 0.365946 32.9972 0.0378779 32.3835 0.0355177C22.6807 -0.0116863 12.9779 0.000114679 3.27514 0.00483509C0.945623 0.00483509 0.00626176 0.946556 0.00626176 3.27372C0.00154136 9.53534 0.00154136 15.7946 0.00154136 22.0539C0.00154136 28.3131 -0.00317905 34.7305 0.00390156 41.07C0.00390156 43.088 1.01879 44.1406 3.00372 44.143C13.9975 44.1524 24.9914 44.1524 35.9876 44.143C37.9678 44.143 38.9945 43.0833 38.9945 41.0747C38.9992 29.5711 39.0086 18.0675 38.9685 6.5662H38.9709ZM21.2387 1.48232H25.7962V9.31112H21.2387V1.48232ZM6.11211 1.50356H19.7541V6.11304C19.7541 7.28606 19.7777 8.46144 19.7446 9.63446C19.721 10.4818 20.068 10.8358 20.9271 10.8193C22.6477 10.7839 24.3706 10.7839 26.0912 10.8193C26.9551 10.8358 27.2737 10.4818 27.2642 9.6321C27.2359 6.93911 27.2548 4.24612 27.2548 1.46108H28.6662C28.6662 4.85977 28.7087 8.21362 28.6426 11.5651C28.619 12.6815 27.7505 13.0072 26.7308 13.0048C23.0536 12.9954 19.3764 13.0025 15.6993 13.0025C13.2328 13.0025 10.7688 13.0096 8.30238 13.0001C6.61011 12.993 6.11683 12.5092 6.11447 10.8618C6.10739 7.77226 6.11211 4.68276 6.11211 1.50356ZM32.1145 41.4618C32.1145 41.8442 32.0791 42.2265 32.0578 42.6702H7.56363C7.54475 42.243 7.51171 41.863 7.51171 41.483C7.50935 35.5353 7.50699 29.5876 7.51171 23.6399C7.51171 21.8886 7.95779 21.4496 9.7539 21.4473C16.4451 21.4449 23.1363 21.4449 29.8274 21.4473C31.6637 21.4473 32.1145 21.8981 32.1145 23.739C32.1192 29.6466 32.1168 35.5542 32.1145 41.4618ZM37.5854 40.5366C37.5854 42.5097 37.3541 42.7363 35.3479 42.7387H33.5896C33.566 42.2147 33.5306 41.7616 33.5306 41.3108C33.5259 35.4787 33.5306 29.6466 33.5259 23.8169C33.5235 21.0862 32.485 20.0382 29.7779 20.0382C23.1221 20.0335 16.4687 20.0335 9.81527 20.0382C7.14824 20.0382 6.10031 21.0744 6.10031 23.7036C6.09795 29.5758 6.10031 35.4456 6.10031 41.3178V42.7387C5.02169 42.7387 4.12482 42.7434 3.2303 42.7363C1.78586 42.7245 1.41766 42.3681 1.4153 40.9449C1.40822 37.1875 1.4153 33.43 1.4153 29.6726V3.84017C1.4153 1.53189 1.57108 1.37847 3.88172 1.41388C4.11066 1.41624 4.33723 1.43512 4.70543 1.45164V3.44837C4.70543 6.07056 4.68418 8.69274 4.71251 11.3149C4.73139 13.0898 5.86665 14.369 7.59432 14.3808C14.1297 14.4257 20.6651 14.4257 27.2029 14.3832C28.9329 14.3714 30.0705 13.0992 30.0847 11.3244C30.1083 8.08145 30.0918 4.83617 30.0918 1.52717C31.6353 1.29351 32.9925 1.20146 34.1159 2.59634C35.1426 3.86849 36.8254 4.78425 37.4084 6.19329C37.9914 7.59997 37.5854 9.42441 37.5854 11.0647C37.5925 20.8903 37.5901 30.7134 37.5854 40.5366Z" fill="white"/>
<path d="M28.0578 38.5068C25.3199 38.5163 22.5821 38.5116 19.8442 38.5116C17.1064 38.5116 14.2883 38.5399 11.5127 38.4809C11.0785 38.4714 10.3067 38.0914 10.2831 37.8295C10.2028 36.9562 10.984 37.1049 11.5481 37.1049C17.0639 37.0978 22.5797 37.086 28.0932 37.1285C28.5227 37.1332 29.2898 37.5014 29.3157 37.7586C29.4007 38.6248 28.6266 38.5045 28.0578 38.5068Z" fill="black"/>
<path d="M28.0578 38.5068C25.3199 38.5163 22.5821 38.5116 19.8442 38.5116C17.1064 38.5116 14.2883 38.5399 11.5127 38.4809C11.0785 38.4714 10.3067 38.0914 10.2831 37.8295C10.2028 36.9562 10.984 37.1049 11.5481 37.1049C17.0639 37.0978 22.5797 37.086 28.0932 37.1285C28.5227 37.1332 29.2898 37.5014 29.3157 37.7586C29.4007 38.6248 28.6266 38.5045 28.0578 38.5068Z" fill="white"/>
<path d="M29.3781 32.0446C29.135 32.2972 28.9179 32.7267 28.6441 32.7668C27.9172 32.8754 27.1643 32.8211 26.4232 32.8211C21.6131 32.8235 16.8053 32.8211 11.9976 32.8211C11.6837 32.8211 11.325 32.9132 11.0701 32.7904C10.7396 32.63 10.4942 32.2972 10.2109 32.0399C10.4965 31.8322 10.7609 31.4876 11.0677 31.4451C11.7191 31.3507 12.3941 31.4121 13.0573 31.4121C15.3255 31.4097 17.5937 31.4121 19.8594 31.4121C22.5194 31.4121 25.177 31.4097 27.8346 31.4121C28.1084 31.4121 28.4175 31.3413 28.6465 31.4428C28.925 31.5655 29.1374 31.8393 29.3781 32.0446Z" fill="black"/>
<path d="M29.3781 32.0446C29.135 32.2972 28.9179 32.7267 28.6441 32.7668C27.9172 32.8754 27.1643 32.8211 26.4232 32.8211C21.6131 32.8235 16.8053 32.8211 11.9976 32.8211C11.6837 32.8211 11.325 32.9132 11.0701 32.7904C10.7396 32.63 10.4942 32.2972 10.2109 32.0399C10.4965 31.8322 10.7609 31.4876 11.0677 31.4451C11.7191 31.3507 12.3941 31.4121 13.0573 31.4121C15.3255 31.4097 17.5937 31.4121 19.8594 31.4121C22.5194 31.4121 25.177 31.4097 27.8346 31.4121C28.1084 31.4121 28.4175 31.3413 28.6465 31.4428C28.925 31.5655 29.1374 31.8393 29.3781 32.0446Z" fill="white"/>
<path d="M29.3765 26.4085C28.9588 26.6398 28.5434 27.0599 28.1209 27.067C25.3453 27.1283 22.5697 27.0977 19.7941 27.0977C17.0185 27.0977 14.2429 27.1283 11.4697 27.067C11.0472 27.0575 10.6341 26.6327 10.2188 26.4014C10.6389 26.163 11.0566 25.724 11.4791 25.7193C17.0303 25.6745 22.5815 25.6745 28.1303 25.7193C28.5481 25.724 28.9611 26.1701 29.3765 26.4085Z" fill="black"/>
<path d="M29.3765 26.4085C28.9588 26.6398 28.5434 27.0599 28.1209 27.067C25.3453 27.1283 22.5697 27.0977 19.7941 27.0977C17.0185 27.0977 14.2429 27.1283 11.4697 27.067C11.0472 27.0575 10.6341 26.6327 10.2188 26.4014C10.6389 26.163 11.0566 25.724 11.4791 25.7193C17.0303 25.6745 22.5815 25.6745 28.1303 25.7193C28.5481 25.724 28.9611 26.1701 29.3765 26.4085Z" fill="white"/>
</svg>
