<svg width="30" height="30" viewBox="0 0 30 30" fill="none" xmlns="http://www.w3.org/2000/svg">
<path d="M16.7539 16.7579V30H29.9996V16.7579H16.7539ZM28.2292 28.2216H18.5288V18.5317H28.2292V28.2216Z" fill="white"/>
<path d="M29.9446 6.27907C29.7712 5.63155 29.6708 4.95212 29.4108 4.34108C27.864 0.784314 23.9491 -0.866393 20.2944 0.474236C17.0502 1.66439 15.0791 5.26676 15.832 8.63657C16.6624 12.3438 20.0617 14.7606 23.8214 14.2271C26.5818 13.8349 28.4845 12.2617 29.5157 9.6808C29.7621 9.0652 29.8442 8.38577 29.9993 7.73369V6.56179C29.9811 6.46603 29.9628 6.37027 29.94 6.27907H29.9446ZM22.8313 12.549C19.8427 12.5353 17.429 10.114 17.4472 7.13634C17.4609 4.14957 19.8928 1.73735 22.8678 1.75559C25.8427 1.76926 28.2655 4.21796 28.2427 7.1865C28.2199 10.155 25.7925 12.5581 22.8313 12.549Z" fill="white"/>
<path d="M14.7783 23.2923C13.6194 21.3041 12.4696 19.3114 11.3243 17.3142C11.2239 17.1409 11.1144 17.0725 10.9137 17.0725C8.61859 17.0816 6.32353 17.0816 4.02846 17.0725C3.80488 17.0725 3.68169 17.1363 3.56762 17.3324C2.43149 19.3205 1.28168 21.3041 0.127303 23.2877C0.0223593 23.4701 0.0177965 23.5978 0.127303 23.7847C1.27712 25.7546 2.41324 27.7337 3.55393 29.7127C3.60412 29.8039 3.64063 29.9042 3.68169 30H11.1829C12.3783 27.9297 13.5692 25.8595 14.7692 23.7939C14.8741 23.6115 14.8833 23.4792 14.7692 23.2923H14.7783ZM12.7753 23.7437C11.9448 25.1664 11.119 26.5937 10.3023 28.0255C10.2064 28.1942 10.0969 28.2444 9.90985 28.2398C9.08856 28.2307 8.26726 28.2398 7.45053 28.2398C6.63379 28.2398 5.82619 28.2353 5.01858 28.2398C4.82238 28.2398 4.70831 28.1897 4.60337 28.0073C3.79576 26.58 2.97446 25.1619 2.1486 23.7483C2.06191 23.5978 2.04822 23.4838 2.13948 23.3242C2.9699 21.9015 3.79576 20.4742 4.61249 19.0378C4.70831 18.8691 4.81782 18.8189 5.00489 18.8189C6.63836 18.8281 8.26726 18.8281 9.90073 18.8189C10.1015 18.8189 10.2156 18.8828 10.3159 19.0561C11.1281 20.4788 11.9494 21.8969 12.7753 23.3151C12.8665 23.4655 12.8711 23.5795 12.7798 23.7346L12.7753 23.7437Z" fill="white"/>
<path d="M7.68825 0C5.11485 4.53716 2.56883 9.01961 0 13.5385H15.3811C12.8077 9.00593 10.2616 4.52348 7.68825 0ZM7.68825 3.55677C9.25327 6.30643 10.7909 9.01961 12.3559 11.7738H3.02511C4.58557 9.02417 6.12778 6.31099 7.69281 3.55677H7.68825Z" fill="white"/>
</svg>
