<svg width="46" height="40" viewBox="0 0 46 40" fill="none" xmlns="http://www.w3.org/2000/svg">
<path d="M39.1316 4.49386C28.0833 4.49699 17.0365 4.49542 5.98979 4.50012C5.62809 4.50012 5.26795 4.55336 4.90625 4.58311V35.431C5.2335 35.478 5.56076 35.5656 5.88801 35.5656C16.9645 35.5735 28.0426 35.5719 39.1206 35.5719C39.4588 35.5719 39.7986 35.5829 40.1368 35.5876V4.42653C39.8017 4.45002 39.4667 4.49386 39.1316 4.49386ZM37.1837 6.62335C32.2577 10.9152 27.4444 15.1084 22.5654 19.3596C17.738 15.1413 12.9263 10.9387 7.98618 6.62335H37.1837ZM7.0514 7.16982C12.0087 11.4977 16.8674 15.7379 21.7903 20.036C16.8893 24.3028 12.0244 28.5383 7.0514 32.8678V7.16982ZM7.90789 33.4784C12.8433 29.1787 17.6816 24.9652 22.5638 20.7124C27.4068 24.9417 32.2311 29.1553 37.1821 33.4784H7.90789ZM38.0668 32.896C33.1251 28.5806 28.2602 24.3341 23.3373 20.0376C28.2743 15.7379 33.1205 11.518 38.0668 7.21053V32.896Z" fill="#888888"/>
<path d="M45.0417 40H43.3193V38.4342H43.4759V38.2776H45.0417V40Z" fill="#888888"/>
<path d="M41.5108 40H39.7023V38.4342H41.5108V40ZM37.8938 40H36.0853V38.4342H37.8938V40ZM34.2768 40H32.4683V38.4342H34.2768V40ZM30.6598 40H28.8513V38.4342H30.6598V40ZM27.0428 40H25.2343V38.4342H27.0428V40ZM23.4258 40H21.6172V38.4342H23.4258V40ZM19.8087 40H18.0002V38.4342H19.8087V40ZM16.1917 40H14.3832V38.4342H16.1917V40ZM12.5747 40H10.7662V38.4342H12.5747V40ZM8.95773 40H7.14923V38.4342H8.95773V40ZM5.34073 40H3.53223V38.4342H5.34073V40Z" fill="#888888"/>
<path d="M1.72238 40H0V38.2776H1.5658V38.4342H1.72238V40Z" fill="#888888"/>
<path d="M1.5658 36.3533H0V34.4289H1.5658V36.3533ZM1.5658 32.5061H0V30.5817H1.5658V32.5061ZM1.5658 28.6589H0V26.7345H1.5658V28.6589ZM1.5658 24.8117H0V22.8873H1.5658V24.8117ZM1.5658 20.9645H0V19.0402H1.5658V20.9645ZM1.5658 17.1174H0V15.193H1.5658V17.1174ZM1.5658 13.2702H0V11.3458H1.5658V13.2702ZM1.5658 9.42301H0V7.49864H1.5658V9.42301ZM1.5658 5.57583H0V3.65146H1.5658V5.57583Z" fill="#888888"/>
<path d="M1.5658 1.72238H0V0H1.72238V1.5658H1.5658V1.72238Z" fill="#888888"/>
<path d="M41.5108 1.5658H39.7023V0H41.5108V1.5658ZM37.8938 1.5658H36.0853V0H37.8938V1.5658ZM34.2768 1.5658H32.4683V0H34.2768V1.5658ZM30.6598 1.5658H28.8513V0H30.6598V1.5658ZM27.0428 1.5658H25.2343V0H27.0428V1.5658ZM23.4258 1.5658H21.6172V0H23.4258V1.5658ZM19.8087 1.5658H18.0002V0H19.8087V1.5658ZM16.1917 1.5658H14.3832V0H16.1917V1.5658ZM12.5747 1.5658H10.7662V0H12.5747V1.5658ZM8.95773 1.5658H7.14923V0H8.95773V1.5658ZM5.34073 1.5658H3.53223V0H5.34073V1.5658Z" fill="#888888"/>
<path d="M45.0417 1.72238H43.4759V1.5658H43.3193V0H45.0417V1.72238Z" fill="#888888"/>
<path d="M45.0424 36.3533H43.4766V34.4289H45.0424V36.3533ZM45.0424 32.5061H43.4766V30.5817H45.0424V32.5061ZM45.0424 28.6589H43.4766V26.7345H45.0424V28.6589ZM45.0424 24.8117H43.4766V22.8873H45.0424V24.8117ZM45.0424 20.9645H43.4766V19.0402H45.0424V20.9645ZM45.0424 17.1174H43.4766V15.193H45.0424V17.1174ZM45.0424 13.2702H43.4766V11.3458H45.0424V13.2702ZM45.0424 9.42301H43.4766V7.49864H45.0424V9.42301ZM45.0424 5.57583H43.4766V3.65146H45.0424V5.57583Z" fill="#888888"/>
</svg>
