<svg width="757" height="305" viewBox="0 0 757 305" fill="none" xmlns="http://www.w3.org/2000/svg">
<path d="M220.441 167.506C219.36 167.318 218.295 167.145 217.215 166.973V273.423C219.533 273.043 221.831 272.648 224.145 272.273V168.103C222.912 167.916 221.674 167.708 220.441 167.501V167.506Z" fill="white"/>
<path d="M220.44 167.506C221.673 167.713 222.911 167.916 224.144 168.108V101.958L194.102 71.9067L168.731 46.511L164.1 41.8555H36.5135C31.9512 41.8555 28.2422 45.5631 28.2422 50.115V294.479C28.2422 299.031 31.9463 302.739 36.5135 302.739H215.878C220.44 302.739 224.149 299.031 224.149 294.479V272.278C221.831 272.658 219.533 273.053 217.22 273.428V294.479C217.22 295.22 216.618 295.817 215.883 295.817H36.5135C35.7737 295.817 35.1571 295.215 35.1571 294.479V50.1199C35.1571 49.3794 35.7737 48.782 36.5135 48.782H159.794V98.7884C159.794 102.945 163.173 106.327 167.325 106.327H217.215V166.983C218.295 167.155 219.36 167.328 220.44 167.516V167.506ZM167.325 99.4006C166.98 99.4006 166.709 99.1241 166.709 98.7835V55.6444L211.572 99.4006H167.325Z" fill="white"/>
<path d="M28.4638 227.767V265.139C24.8139 265.041 16.2664 264.414 8.22199 259.743C4.24663 257.433 1.63749 255.048 0 253.093V227.767H28.4638Z" fill="#D1CFCF"/>
<path d="M194.013 175.341V241.462H28.4736C8.56231 242.148 0 253.098 0 253.098V203.156C0 191.055 7.02839 184.677 7.02839 184.677C16.7498 174.674 31.3244 175.78 38.0322 175.272C38.7129 175.222 39.3985 175.341 40.0791 175.341H194.013Z" fill="white"/>
<path d="M93.9678 192.803C92.5868 190.389 90.6337 188.493 88.0936 187.14C85.5634 185.787 82.5448 185.101 79.0676 185.101H59.832V231.696H71.0923V217.226H78.7224C82.2884 217.226 85.3661 216.569 87.9505 215.251C90.5449 213.933 92.5375 212.067 93.9432 209.662C95.339 207.268 96.0443 204.449 96.0443 201.24C96.0443 198.031 95.3489 195.232 93.9678 192.808V192.803ZM83.4968 204.977C82.9049 206.049 82.0368 206.878 80.8926 207.465C79.7483 208.058 78.3229 208.354 76.6361 208.354H71.0873V194.185H76.6361C78.3179 194.185 79.7335 194.466 80.8876 195.044C82.0368 195.622 82.9049 196.436 83.5017 197.498C84.0886 198.549 84.3895 199.793 84.3895 201.24C84.3895 202.687 84.0886 203.911 83.5017 204.982L83.4968 204.977Z" fill="#D61A1A"/>
<path d="M118.766 231.696H101.562V185.101H118.746C123.486 185.101 127.575 186.029 131.008 187.89C134.441 189.747 137.089 192.418 138.949 195.898C140.813 199.379 141.745 203.536 141.745 208.379C141.745 213.222 140.818 217.404 138.958 220.889C137.104 224.379 134.455 227.05 131.013 228.907C127.575 230.763 123.491 231.696 118.761 231.696H118.766ZM112.813 222.094H118.337C120.941 222.094 123.151 221.649 124.961 220.761C126.771 219.872 128.142 218.426 129.074 216.416C130.007 214.407 130.47 211.726 130.47 208.374C130.47 205.022 130.002 202.351 129.06 200.356C128.118 198.362 126.736 196.92 124.912 196.031C123.087 195.143 120.838 194.699 118.174 194.699H112.808V222.089L112.813 222.094Z" fill="#D61A1A"/>
<path d="M148.293 231.696V185.101H180.066V194.249H159.543V203.802H178.044V212.97H159.543V231.696H148.293Z" fill="#D61A1A"/>
<path d="M734.788 56.7896C734.265 56.755 733.752 56.7254 733.234 56.6958L738.433 107.147C739.513 106.855 740.583 106.554 741.663 106.263L736.578 56.8982C735.982 56.8686 735.39 56.834 734.793 56.7945L734.788 56.7896Z" fill="white"/>
<path d="M734.788 56.7898C735.385 56.8293 735.977 56.8639 736.574 56.8935L733.343 25.5438L717.639 12.772L704.376 1.97484L701.955 -0.00488281L641.491 6.23542C639.33 6.45759 637.752 8.39781 637.974 10.5553L649.905 126.361C650.127 128.519 652.065 130.094 654.226 129.872L739.227 121.099C741.388 120.876 742.966 118.936 742.744 116.779L741.659 106.258C740.579 106.549 739.508 106.851 738.428 107.142L739.454 117.119C739.489 117.47 739.237 117.786 738.887 117.82L653.885 126.593C653.535 126.628 653.214 126.376 653.18 126.026L641.249 10.2195C641.214 9.86902 641.476 9.55306 641.826 9.5185L700.253 3.49048L702.694 27.1878C702.897 29.1577 704.662 30.5943 706.63 30.3919L730.275 27.9531L733.235 56.696C733.757 56.7256 734.265 56.7553 734.788 56.7898ZM706.29 27.1138C706.127 27.1286 705.984 27.0151 705.969 26.8521L703.863 6.40822L727.262 24.9514L706.295 27.1138H706.29Z" fill="white"/>
<path d="M646.747 94.7402L648.572 112.454C646.836 112.587 642.757 112.706 638.718 110.884C636.72 109.986 635.369 108.978 634.496 108.134L633.258 96.1325L646.747 94.7402Z" fill="#D1CFCF"/>
<path d="M722.643 61.7959L725.869 93.1308L647.417 101.227C638.011 102.526 634.49 108.134 634.49 108.134L632.053 84.4664C631.461 78.7297 634.485 75.3627 634.485 75.3627C638.603 70.1493 645.563 69.9567 648.719 69.389C649.04 69.3297 649.37 69.3544 649.691 69.3199L722.643 61.791V61.7959Z" fill="white"/>
<path d="M665.595 72.1979L670.883 71.6499L672.466 87.0038C672.609 88.4454 672.392 89.734 671.825 90.8793C671.258 92.0247 670.404 92.9528 669.27 93.6687C668.135 94.3846 666.784 94.824 665.221 94.9869C663.835 95.13 662.552 95.0165 661.369 94.6512C660.19 94.2809 659.213 93.6243 658.439 92.6714C657.664 91.7236 657.201 90.4498 657.043 88.8601L662.385 88.3072C662.463 88.8749 662.626 89.3489 662.868 89.729C663.11 90.1092 663.415 90.3856 663.79 90.5486C664.165 90.7164 664.599 90.7707 665.087 90.7213C665.6 90.667 666.02 90.514 666.355 90.2573C666.69 90.0006 666.922 89.6451 667.06 89.1909C667.198 88.7367 667.238 88.1887 667.184 87.5469L665.6 72.193L665.595 72.1979Z" fill="#14A085"/>
<path d="M676.527 93.5158L674.238 71.3094L683.402 70.3615C685.064 70.1887 686.534 70.3615 687.807 70.8898C689.084 71.4131 690.11 72.2178 690.884 73.299C691.659 74.3851 692.127 75.6885 692.285 77.214C692.443 78.7445 692.246 80.1219 691.698 81.3364C691.151 82.5509 690.288 83.5382 689.119 84.2936C687.95 85.049 686.515 85.518 684.818 85.6908L679.161 86.2733L678.727 82.0423L683.388 81.5635C684.196 81.4795 684.857 81.2672 685.375 80.9315C685.893 80.5958 686.263 80.1564 686.495 79.6183C686.722 79.0802 686.801 78.468 686.732 77.7916C686.662 77.1054 686.46 76.5228 686.125 76.0489C685.789 75.5749 685.336 75.2294 684.759 75.0121C684.182 74.7949 683.491 74.7258 682.692 74.8097L680.048 75.0812L681.888 92.9629L676.527 93.5158Z" fill="#14A085"/>
<path d="M709.439 75.007C709.271 74.5627 709.049 74.1825 708.773 73.8517C708.497 73.5259 708.176 73.2593 707.801 73.047C707.432 72.8347 707.012 72.6916 706.554 72.6126C706.095 72.5336 705.597 72.5188 705.059 72.5731C703.984 72.6866 703.081 73.0421 702.351 73.6444C701.621 74.2467 701.094 75.0662 700.773 76.103C700.448 77.1398 700.359 78.3691 700.507 79.786C700.655 81.2078 700.985 82.4026 701.498 83.3653C702.011 84.328 702.687 85.0339 703.52 85.4783C704.354 85.9275 705.33 86.0905 706.44 85.9769C707.422 85.8732 708.24 85.6264 708.886 85.2364C709.538 84.8463 710.006 84.3329 710.302 83.7059C710.593 83.074 710.702 82.3581 710.618 81.5583L711.624 81.5731L706.228 82.131L705.824 78.216L715.387 77.2286L715.688 80.1661C715.895 82.1557 715.649 83.8985 714.953 85.4042C714.258 86.91 713.212 88.1146 711.821 89.0279C710.43 89.9413 708.778 90.4942 706.874 90.6917C704.758 90.9089 702.849 90.6423 701.153 89.8919C699.456 89.1366 698.07 87.9566 697 86.3472C695.93 84.7377 695.274 82.7629 695.032 80.4179C694.845 78.5962 694.948 76.9522 695.343 75.4809C695.737 74.0097 696.373 72.736 697.242 71.6499C698.11 70.5687 699.16 69.7047 700.393 69.0678C701.621 68.431 702.978 68.036 704.457 67.883C705.745 67.7497 706.958 67.8089 708.107 68.0656C709.256 68.3174 710.287 68.7371 711.214 69.3246C712.142 69.9071 712.916 70.6378 713.547 71.5067C714.179 72.3756 714.613 73.3581 714.859 74.4491L709.434 75.007H709.439Z" fill="#14A085"/>
<path d="M639.929 231.968C639.406 231.928 638.893 231.899 638.375 231.874L643.524 282.33C644.604 282.038 645.675 281.742 646.755 281.446L641.714 232.076C641.117 232.047 640.525 232.007 639.929 231.973V231.968Z" fill="white"/>
<path d="M639.928 231.968C640.524 232.007 641.116 232.042 641.713 232.072L638.512 200.722L622.823 187.935L609.57 177.128L607.148 175.148L546.674 181.334C544.509 181.557 542.936 183.492 543.153 185.649L554.975 301.465C555.197 303.623 557.131 305.203 559.296 304.98L644.307 296.286C646.473 296.064 648.046 294.129 647.829 291.972L646.754 281.446C645.674 281.737 644.603 282.033 643.523 282.33L644.544 292.307C644.579 292.658 644.322 292.969 643.977 293.008L558.965 301.702C558.615 301.737 558.295 301.485 558.26 301.135L546.438 185.319C546.403 184.968 546.665 184.652 547.015 184.618L605.447 178.644L607.868 202.346C608.071 204.316 609.836 205.758 611.804 205.555L635.449 203.136L638.384 231.884C638.907 231.914 639.415 231.943 639.938 231.978L639.928 231.968ZM611.459 202.262C611.296 202.277 611.153 202.163 611.138 202.001L609.052 181.557L632.431 200.12L611.459 202.262Z" fill="white"/>
<path d="M551.852 269.834L553.662 287.548C551.926 287.676 547.847 287.795 543.807 285.973C541.81 285.069 540.458 284.067 539.59 283.218L538.367 271.216L551.857 269.839L551.852 269.834Z" fill="#D1CFCF"/>
<path d="M627.779 236.964L630.98 268.304L552.518 276.326C543.113 277.615 539.586 283.223 539.586 283.223L537.169 259.555C536.582 253.819 539.606 250.457 539.606 250.457C543.729 245.243 550.689 245.06 553.845 244.498C554.166 244.438 554.496 244.463 554.817 244.429L627.774 236.969L627.779 236.964Z" fill="white"/>
<path d="M565.605 270.279L563.336 248.067L572.5 247.129C574.162 246.961 575.627 247.134 576.904 247.662C578.182 248.186 579.208 248.99 579.982 250.077C580.756 251.163 581.22 252.466 581.378 253.992C581.536 255.527 581.338 256.899 580.786 258.114C580.234 259.328 579.375 260.316 578.202 261.066C577.033 261.822 575.597 262.286 573.901 262.458L568.243 263.036L567.809 258.805L572.47 258.326C573.279 258.242 573.94 258.035 574.458 257.694C574.976 257.359 575.346 256.919 575.578 256.381C575.805 255.843 575.888 255.236 575.819 254.554C575.75 253.868 575.548 253.286 575.218 252.812C574.882 252.338 574.428 251.992 573.851 251.775C573.274 251.558 572.584 251.489 571.785 251.568L569.141 251.839L570.966 269.721L565.605 270.269V270.279Z" fill="#BC3419"/>
<path d="M585.495 268.244L583.227 246.033L592.391 245.095C594.053 244.927 595.518 245.1 596.795 245.623C598.073 246.147 599.098 246.951 599.873 248.038C600.647 249.124 601.111 250.427 601.269 251.953C601.426 253.488 601.229 254.86 600.677 256.075C600.124 257.289 599.266 258.272 598.092 259.027C596.923 259.783 595.488 260.247 593.791 260.419L588.134 260.997L587.7 256.766L592.361 256.292C593.17 256.208 593.831 256.001 594.349 255.66C594.867 255.324 595.237 254.885 595.468 254.347C595.695 253.809 595.779 253.202 595.71 252.52C595.641 251.834 595.439 251.251 595.108 250.778C594.773 250.304 594.319 249.958 593.742 249.741C593.165 249.524 592.474 249.454 591.675 249.538L589.032 249.81L590.857 267.692L585.495 268.24V268.244Z" fill="#BC3419"/>
<path d="M602.838 248.433L602.395 244.073L621.147 242.158L621.591 246.517L614.863 247.203L616.683 265.055L611.396 265.598L609.576 247.746L602.838 248.438V248.433Z" fill="#BC3419"/>
<path d="M748.905 193.479C748.382 193.444 747.869 193.415 747.352 193.385L752.654 243.821C753.734 243.525 754.804 243.224 755.879 242.933L750.696 193.578C750.099 193.548 749.507 193.514 748.91 193.479H748.905Z" fill="white"/>
<path d="M748.903 193.479C749.5 193.514 750.092 193.553 750.689 193.578L747.394 162.238L731.665 149.496L718.378 138.728L715.951 136.753L655.497 143.117C653.337 143.344 651.764 145.289 651.991 147.442L664.158 263.223C664.385 265.381 666.323 266.951 668.489 266.724L753.476 257.778C755.636 257.551 757.209 255.606 756.982 253.453L755.878 242.932C754.797 243.229 753.727 243.53 752.652 243.821L753.702 253.799C753.737 254.149 753.485 254.465 753.135 254.5L668.148 263.446C667.798 263.48 667.478 263.228 667.438 262.878L655.27 147.096C655.236 146.746 655.497 146.43 655.847 146.395L714.26 140.244L716.75 163.936C716.957 165.906 718.728 167.338 720.696 167.13L744.336 164.642L747.355 193.38C747.878 193.41 748.386 193.435 748.908 193.474L748.903 193.479ZM720.346 163.857C720.183 163.872 720.04 163.759 720.02 163.596L717.875 143.157L741.308 161.65L720.346 163.857Z" fill="white"/>
<path d="M660.939 231.607L662.798 249.316C661.062 249.449 656.983 249.577 652.939 247.766C650.941 246.872 649.585 245.87 648.712 245.026L647.449 233.024L660.934 231.602L660.939 231.607Z" fill="#D1CFCF"/>
<path d="M736.773 198.51L740.063 229.84L661.626 238.099C652.225 239.417 648.714 245.031 648.714 245.031L646.228 221.368C645.626 215.636 648.64 212.259 648.64 212.259C652.748 207.036 659.708 206.833 662.864 206.256C663.185 206.197 663.515 206.221 663.836 206.187L736.768 198.51H736.773Z" fill="white"/>
<path d="M675.35 209.489L680.139 216.075L680.311 216.055L683.67 208.61L689.673 207.979L684.144 219.783L692.223 230.155L686.072 230.802L681.17 224.147L680.997 224.167L677.584 231.696L671.473 232.337L677.184 220.513L669.312 210.116L675.354 209.479L675.35 209.489Z" fill="#1D6D40"/>
<path d="M694.786 229.894L692.453 207.692L697.814 207.129L699.689 224.976L708.917 224.004L709.376 228.363L694.786 229.899V229.894Z" fill="#1D6D40"/>
<path d="M722.505 211.257C722.347 210.472 721.962 209.884 721.351 209.499C720.739 209.114 719.906 208.976 718.86 209.09C718.165 209.164 717.597 209.312 717.154 209.544C716.71 209.776 716.389 210.057 716.192 210.398C715.994 210.739 715.911 211.109 715.95 211.514C715.97 211.849 716.068 212.136 716.241 212.373C716.414 212.61 716.655 212.807 716.961 212.97C717.267 213.133 717.627 213.261 718.046 213.365C718.465 213.469 718.934 213.548 719.452 213.602L721.405 213.834C722.53 213.957 723.531 214.175 724.414 214.481C725.297 214.792 726.056 215.187 726.687 215.675C727.319 216.164 727.822 216.752 728.192 217.438C728.562 218.119 728.798 218.909 728.902 219.798C729.04 221.2 728.813 222.444 728.221 223.52C727.625 224.597 726.702 225.475 725.449 226.147C724.197 226.818 722.643 227.253 720.794 227.45C718.939 227.648 717.292 227.539 715.856 227.124C714.416 226.714 713.257 225.979 712.374 224.927C711.491 223.876 710.944 222.479 710.742 220.746L715.876 220.208C715.994 220.919 716.246 221.496 716.641 221.936C717.03 222.375 717.533 222.691 718.155 222.874C718.776 223.056 719.482 223.106 720.266 223.022C720.986 222.948 721.593 222.785 722.081 222.533C722.569 222.286 722.934 221.97 723.171 221.595C723.408 221.22 723.506 220.805 723.467 220.361C723.417 219.941 723.25 219.595 722.964 219.324C722.678 219.052 722.263 218.83 721.716 218.667C721.168 218.504 720.483 218.366 719.654 218.267L717.282 217.971C715.314 217.734 713.726 217.176 712.517 216.307C711.309 215.438 710.618 214.16 710.451 212.476C710.298 211.104 710.539 209.86 711.176 208.749C711.812 207.638 712.754 206.725 714.007 206.009C715.26 205.293 716.729 204.844 718.411 204.671C720.128 204.488 721.652 204.622 722.983 205.071C724.31 205.52 725.38 206.231 726.189 207.204C726.998 208.176 727.487 209.356 727.644 210.734L722.51 211.272L722.505 211.257Z" fill="#1D6D40"/>
<path d="M626.194 99.7558C625.671 99.7212 625.159 99.6966 624.641 99.6719L630.209 150.083C631.284 149.782 632.355 149.476 633.43 149.175L627.98 99.8447C627.383 99.82 626.791 99.7854 626.194 99.7558Z" fill="white"/>
<path d="M626.195 99.7559C626.792 99.7905 627.388 99.8201 627.98 99.8448L624.518 68.5198L608.72 55.8615L595.378 45.1631L592.942 43.2031L532.522 49.8878C530.362 50.1247 528.799 52.0798 529.04 54.2323L541.825 169.95C542.061 172.102 544.01 173.667 546.175 173.425L631.112 164.025C633.273 163.788 634.836 161.833 634.594 159.681L633.435 149.165C632.36 149.466 631.29 149.772 630.215 150.073L631.314 160.041C631.354 160.392 631.102 160.708 630.752 160.747L545.815 170.147C545.465 170.187 545.144 169.935 545.104 169.584L532.32 53.8669C532.281 53.5164 532.542 53.2005 532.892 53.161L591.27 46.6985L593.884 70.3761C594.101 72.346 595.877 73.7678 597.845 73.5506L621.47 70.934L624.641 99.6572C625.164 99.6819 625.677 99.7066 626.195 99.7411V99.7559ZM597.48 70.2872C597.317 70.307 597.174 70.1885 597.154 70.0256L594.9 49.5965L618.432 67.9669L597.48 70.2872Z" fill="white"/>
<path d="M538.437 138.353L540.39 156.052C538.659 156.195 534.575 156.348 530.526 154.556C528.523 153.672 527.162 152.675 526.284 151.836L524.957 139.844L538.437 138.353Z" fill="#D1CFCF"/>
<path d="M614.091 104.851L617.548 136.161L539.161 144.835C529.765 146.203 526.287 151.836 526.287 151.836L523.673 128.188C523.042 122.456 526.036 119.069 526.036 119.069C530.115 113.822 537.074 113.585 540.226 112.992C540.546 112.933 540.877 112.953 541.198 112.918L614.091 104.851Z" fill="white"/>
<path d="M555.511 138.314L547.319 139.222L544.867 117.031L553.05 116.127C555.309 115.875 557.301 116.102 559.037 116.808C560.774 117.514 562.169 118.645 563.245 120.205C564.315 121.765 564.976 123.695 565.232 126.001C565.489 128.312 565.267 130.346 564.566 132.108C563.866 133.866 562.746 135.278 561.203 136.344C559.664 137.41 557.765 138.067 555.516 138.319L555.511 138.314ZM552.172 134.058L554.801 133.767C556.044 133.629 557.069 133.303 557.888 132.784C558.702 132.266 559.279 131.506 559.619 130.499C559.96 129.491 560.039 128.193 559.861 126.593C559.684 124.994 559.319 123.75 558.766 122.846C558.214 121.948 557.479 121.331 556.561 121.005C555.644 120.679 554.549 120.585 553.282 120.728L550.727 121.01L552.167 134.053L552.172 134.058Z" fill="#325499"/>
<path d="M589.272 123.35C589.543 125.793 589.301 127.911 588.552 129.713C587.802 131.515 586.678 132.947 585.173 134.004C583.669 135.06 581.928 135.702 579.945 135.919C577.952 136.141 576.113 135.894 574.416 135.184C572.719 134.473 571.314 133.322 570.194 131.728C569.075 130.138 568.379 128.124 568.108 125.69C567.837 123.246 568.078 121.128 568.823 119.326C569.568 117.524 570.692 116.097 572.192 115.036C573.691 113.979 575.432 113.338 577.425 113.12C579.407 112.898 581.247 113.14 582.944 113.846C584.641 114.552 586.051 115.697 587.176 117.292C588.3 118.887 589.001 120.901 589.267 123.345L589.272 123.35ZM583.792 123.957C583.634 122.51 583.294 121.316 582.776 120.363C582.258 119.41 581.592 118.719 580.774 118.294C579.955 117.865 579.013 117.712 577.943 117.83C576.882 117.949 575.994 118.304 575.289 118.901C574.579 119.499 574.076 120.318 573.78 121.36C573.484 122.402 573.415 123.646 573.573 125.092C573.731 126.539 574.071 127.734 574.589 128.687C575.107 129.639 575.777 130.331 576.596 130.755C577.42 131.185 578.357 131.338 579.417 131.219C580.488 131.101 581.371 130.745 582.076 130.148C582.781 129.55 583.284 128.731 583.58 127.689C583.876 126.648 583.945 125.403 583.787 123.962L583.792 123.957Z" fill="#325499"/>
<path d="M612.178 117.722L606.768 118.319C606.635 117.771 606.432 117.287 606.156 116.863C605.885 116.438 605.545 116.088 605.14 115.811C604.736 115.535 604.277 115.337 603.754 115.224C603.231 115.11 602.669 115.085 602.062 115.155C600.987 115.273 600.09 115.638 599.374 116.255C598.654 116.868 598.146 117.697 597.84 118.739C597.535 119.78 597.461 121.01 597.619 122.427C597.781 123.903 598.131 125.112 598.659 126.055C599.192 127.003 599.868 127.685 600.691 128.099C601.515 128.514 602.452 128.667 603.508 128.548C604.099 128.484 604.632 128.346 605.101 128.144C605.569 127.936 605.974 127.67 606.314 127.334C606.654 126.998 606.921 126.608 607.113 126.159C607.31 125.71 607.424 125.211 607.458 124.668L612.874 124.1C612.889 125.093 612.711 126.09 612.346 127.097C611.981 128.104 611.429 129.042 610.689 129.916C609.954 130.79 609.022 131.525 607.892 132.118C606.763 132.71 605.436 133.09 603.917 133.258C601.91 133.481 600.065 133.239 598.383 132.528C596.701 131.817 595.31 130.666 594.205 129.072C593.101 127.477 592.415 125.458 592.144 123.024C591.873 120.58 592.109 118.462 592.854 116.66C593.599 114.858 594.713 113.432 596.203 112.375C597.693 111.319 599.424 110.682 601.392 110.464C602.733 110.316 603.996 110.366 605.18 110.608C606.358 110.854 607.424 111.284 608.366 111.901C609.313 112.518 610.112 113.313 610.768 114.286C611.424 115.258 611.887 116.404 612.164 117.717L612.178 117.722Z" fill="#325499"/>
<path d="M442.726 173.321C446.317 169.061 449.266 165.551 452.674 161.492C448.023 158.432 443.722 155.129 439.017 152.591C389.567 125.961 338.735 122.031 286.582 143.976C274.937 148.879 264.767 156.225 256.126 165.565C255.529 166.212 254.804 166.726 254.138 167.308C253.862 167.135 253.581 166.963 253.305 166.795C254 165.314 254.562 163.759 255.406 162.376C266.089 144.924 281.62 133.056 299.756 124.372C330.291 109.753 362.652 105.532 396.062 108.287C424.408 110.617 451.086 118.472 475.737 133.757C478.85 130.182 481.922 126.647 485.75 122.244C493.202 143.458 500.379 163.862 507.841 185.101C485.917 181.132 464.758 177.306 442.721 173.321H442.726Z" fill="white"/>
</svg>
