<svg width="88" height="92" viewBox="0 0 88 92" fill="none" xmlns="http://www.w3.org/2000/svg">
<path d="M78.4055 19.5866L69.4124 10.5966L60.4568 1.64107L58.8189 0H13.7817C12.1718 0 10.8652 1.30973 10.8652 2.91017V52.333H13.3034V2.91017C13.3034 2.65072 13.5222 2.43816 13.7817 2.43816H57.2997V20.0742C57.2997 21.5402 58.4938 22.7343 59.9598 22.7343H77.5709V47.1691C78.1929 46.2001 79.0338 45.3686 80.0153 44.7434V21.1964L78.4055 19.5866ZM59.9598 20.2899C59.8379 20.2899 59.741 20.1961 59.741 20.0742V4.8607L75.5766 20.2899H59.9598ZM77.5709 67.0213V89.0867C77.5709 89.3493 77.3583 89.5587 77.0957 89.5587H13.7817C13.5222 89.5587 13.3034 89.3493 13.3034 89.0867V59.835H10.8652V89.0867C10.8652 90.6934 12.1718 92 13.7817 92H77.0957C78.3961 92 79.4933 91.1529 79.8746 89.9838H80.0153V69.7877C79.0369 69.1063 78.2117 68.1748 77.5709 67.0213Z" fill="#D61A1A"/>
<path d="M67.0871 51.9766H19.7773V49.4009H64.5114L67.0871 51.9766Z" fill="#D61A1A"/>
<path d="M71.1038 39.2544H19.7773V41.8301H71.1038V39.2544Z" fill="#D61A1A"/>
<path d="M65.9149 59.5474L65.5116 59.835H19.7773V59.5474H65.9149Z" fill="#D61A1A"/>
<path d="M71.1038 69.6939H19.7773V72.2665H71.1038V69.6939Z" fill="#D61A1A"/>
<path d="M71.1038 79.8404H19.7773V82.413H71.1038V79.8404Z" fill="#D61A1A"/>
<path d="M20.8882 17.2015C21.3133 17.9455 21.5259 18.8051 21.5259 19.7866C21.5259 20.5337 21.4008 21.212 21.1539 21.8184V22.678H20.6819C20.2693 23.2688 19.7223 23.7408 19.0408 24.0846C18.2469 24.491 17.2997 24.6911 16.2057 24.6911H13.8644V29.1298H10.4072V14.8384H16.312C17.381 14.8384 18.3062 15.0509 19.0846 15.4635C19.8629 15.8793 20.4662 16.4607 20.8882 17.2015Z" fill="#D61A1A"/>
<path d="M34.6969 18.1518C35.2689 19.2177 35.5534 20.4931 35.5534 21.9778C35.5534 23.4626 35.2689 24.7473 34.7 25.8164C34.1311 26.8854 33.3184 27.7075 32.2618 28.2764C31.6054 28.6296 30.874 28.8735 30.0644 29.0079C29.5736 29.0891 29.0516 29.1298 28.5014 29.1298H23.2188V14.8415H28.4921C29.0453 14.8415 29.5705 14.8822 30.0644 14.9634C30.874 15.0978 31.6054 15.3417 32.2587 15.6949C33.3121 16.2638 34.1248 17.0828 34.6969 18.1518Z" fill="#D61A1A"/>
<path d="M41.0185 17.6454V20.5743H46.6982V23.3876H41.0185V29.1298H37.5645V14.8415H47.3202V17.6454H41.0185Z" fill="#D61A1A"/>
<path d="M20.8795 22.3717C20.817 22.478 20.7514 22.5811 20.6826 22.678H21.1546V21.8184C21.0733 22.0091 20.9827 22.1935 20.8795 22.3717Z" fill="#D61A1A"/>
<path d="M34.6978 18.1518C34.1258 17.0827 33.3131 16.2638 32.2597 15.6948C31.6064 15.3416 30.8749 15.0978 30.0653 14.9634C29.5715 14.8821 29.0463 14.8415 28.493 14.8415H23.2197V29.1298H28.5024C29.0526 29.1298 29.5746 29.0891 30.0653 29.0078C30.8749 28.8734 31.6064 28.6296 32.2628 28.2764C33.3193 27.7075 34.1321 26.8854 34.701 25.8163C35.2699 24.7473 35.5543 23.4657 35.5543 21.9778C35.5543 20.4899 35.2699 19.2177 34.6978 18.1518ZM31.6658 24.4441C31.3782 25.0599 30.9593 25.5069 30.4029 25.7788C30.2935 25.832 30.181 25.8789 30.0653 25.9195C29.5777 26.0977 29.0119 26.1852 28.368 26.1852H26.6738V17.786H28.3211C28.9869 17.786 29.5715 17.8767 30.0653 18.058C30.1779 18.0986 30.2841 18.1424 30.3873 18.1924C30.95 18.4644 31.3751 18.9082 31.6626 19.5178C31.9502 20.1304 32.094 20.9494 32.094 21.9778C32.094 23.0062 31.9502 23.8283 31.6658 24.4441ZM47.32 17.6454V14.8415H37.5642V29.1298H41.0183V23.3876H46.698V20.5743H41.0183V17.6454H47.32Z" fill="#D61A1A"/>
<path d="M51.754 10.0746H5.9759C5.32885 10.0746 4.80371 10.5998 4.80371 11.2468V32.7245C4.80371 32.7589 4.80371 32.7933 4.80996 32.8245C4.85998 33.4247 5.36324 33.8936 5.9759 33.8936H51.754C52.401 33.8936 52.9262 33.3716 52.9262 32.7245V11.2468C52.9262 10.5998 52.401 10.0746 51.754 10.0746ZM10.4084 29.1298V14.8384H16.3131C17.3821 14.8384 18.3074 15.051 19.0857 15.4636C19.8641 15.8793 20.4673 16.4607 20.8893 17.2016C21.3144 17.9455 21.527 18.8051 21.527 19.7866C21.527 20.5337 21.402 21.212 21.155 21.8184V22.678H20.683C20.2704 23.2688 19.7234 23.7408 19.042 24.0847C18.248 24.491 17.3009 24.6911 16.2068 24.6911H13.8655V29.1298H10.4084ZM23.2212 29.1298V14.8415H28.4945C29.0478 14.8415 29.5729 14.8822 30.0668 14.9634C30.8764 15.0979 31.6079 15.3417 32.2612 15.6949C33.3146 16.2638 34.1273 17.0828 34.6993 18.1518C35.2714 19.2177 35.5558 20.4931 35.5558 21.9778C35.5558 23.4626 35.2714 24.7473 34.7025 25.8164C34.1336 26.8854 33.3208 27.7075 32.2643 28.2764C31.6079 28.6297 30.8764 28.8735 30.0668 29.0079C29.5761 29.0892 29.0541 29.1298 28.5039 29.1298H23.2212ZM37.5657 29.1298V14.8415H47.3215V17.6454H41.0198V20.5743H46.6995V23.3876H41.0198V29.1298H37.5657Z" fill="#D61A1A"/>
<path d="M20.8795 22.3717C20.817 22.478 20.7514 22.5811 20.6826 22.678H21.1546V21.8184C21.0733 22.0091 20.9827 22.1935 20.8795 22.3717Z" fill="#D61A1A"/>
<path d="M34.6978 18.1518C34.1258 17.0827 33.3131 16.2638 32.2597 15.6948C31.6064 15.3416 30.8749 15.0978 30.0653 14.9634C29.5715 14.8821 29.0463 14.8415 28.493 14.8415H23.2197V29.1298H28.5024C29.0526 29.1298 29.5746 29.0891 30.0653 29.0078C30.8749 28.8734 31.6064 28.6296 32.2628 28.2764C33.3193 27.7075 34.1321 26.8854 34.701 25.8163C35.2699 24.7473 35.5543 23.4657 35.5543 21.9778C35.5543 20.4899 35.2699 19.2177 34.6978 18.1518ZM31.6658 24.4441C31.3782 25.0599 30.9593 25.5069 30.4029 25.7788C30.2935 25.832 30.181 25.8789 30.0653 25.9195C29.5777 26.0977 29.0119 26.1852 28.368 26.1852H26.6738V17.786H28.3211C28.9869 17.786 29.5715 17.8767 30.0653 18.058C30.1779 18.0986 30.2841 18.1424 30.3873 18.1924C30.95 18.4644 31.3751 18.9082 31.6626 19.5178C31.9502 20.1304 32.094 20.9494 32.094 21.9778C32.094 23.0062 31.9502 23.8283 31.6658 24.4441ZM47.32 17.6454V14.8415H37.5642V29.1298H41.0183V23.3876H46.698V20.5743H41.0183V17.6454H47.32Z" fill="#D61A1A"/>
<path d="M20.8882 17.2016C20.4662 16.4607 19.8629 15.8793 19.0846 15.4636C18.3062 15.051 17.381 14.8384 16.312 14.8384H10.4072V29.1298H13.8644V24.6911H16.2057C17.2997 24.6911 18.2469 24.491 19.0408 24.0847C19.7223 23.7408 20.2693 23.2688 20.6819 22.678C20.7507 22.5811 20.8163 22.478 20.8788 22.3717C20.982 22.1935 21.0726 22.0091 21.1539 21.8184C21.4008 21.212 21.5259 20.5337 21.5259 19.7866C21.5259 18.8051 21.3133 17.9455 20.8882 17.2016ZM17.928 20.1055C17.8936 20.4118 17.8092 20.6869 17.6748 20.9338C17.4904 21.262 17.2247 21.5183 16.8746 21.6996C16.5245 21.8809 16.0869 21.9716 15.568 21.9716H13.8644V17.6235H15.568C16.0838 17.6235 16.5183 17.7111 16.8715 17.8892C17.2247 18.0643 17.4904 18.3144 17.6748 18.6394C17.853 18.9645 17.9468 19.3459 17.9468 19.7866C17.9468 19.896 17.9405 20.0023 17.928 20.1055Z" fill="white"/>
<path d="M17.9466 19.7897C17.9466 19.8991 17.9404 20.0054 17.9279 20.1086C17.8935 20.4149 17.8091 20.69 17.6747 20.9369C17.4902 21.2651 17.2245 21.5215 16.8745 21.7028C16.5244 21.8841 16.0867 21.9747 15.5678 21.9747H13.8643V17.6266H15.5678C16.0836 17.6266 16.5181 17.7142 16.8713 17.8923C17.2245 18.0674 17.4902 18.3175 17.6747 18.6425C17.8528 18.9676 17.9466 19.349 17.9466 19.7897Z" fill="#D61A1A"/>
<path d="M34.6988 18.1518C34.1268 17.0828 33.3141 16.2638 32.2607 15.6949C31.6074 15.3417 30.8759 15.0978 30.0663 14.9634C29.5724 14.8822 29.0473 14.8415 28.494 14.8415H23.2207V29.1298H28.5034C29.0535 29.1298 29.5756 29.0891 30.0663 29.0079C30.8759 28.8735 31.6074 28.6296 32.2638 28.2764C33.3203 27.7075 34.133 26.8854 34.7019 25.8164C35.2709 24.7473 35.5553 23.4657 35.5553 21.9778C35.5553 20.4899 35.2709 19.2177 34.6988 18.1518ZM31.6667 24.4441C31.3792 25.0599 30.9603 25.5069 30.4039 25.7789C30.2945 25.832 30.182 25.8789 30.0663 25.9195C29.5787 26.0977 29.0129 26.1852 28.369 26.1852H26.6748V17.7861H28.3221C28.9879 17.7861 29.5724 17.8767 30.0663 18.058C30.1788 18.0987 30.2851 18.1424 30.3883 18.1924C30.9509 18.4644 31.376 18.9083 31.6636 19.5178C31.9512 20.1305 32.095 20.9494 32.095 21.9778C32.095 23.0062 31.9512 23.8283 31.6667 24.4441Z" fill="white"/>
<path d="M47.3212 17.6454V14.8415H37.5654V29.1298H41.0195V23.3876H46.6992V20.5743H41.0195V17.6454H47.3212Z" fill="white"/>
<path d="M65.9149 59.5474L65.5116 59.835L62.3201 62.12H19.7773V59.5474H65.9149Z" fill="#D61A1A"/>
<path d="M80.5767 61.0448C79.4889 62.3889 79.4482 63.858 80.2172 65.3397C81.0737 66.9901 82.4522 67.9717 84.3433 68.031C86.6627 68.1061 88.1756 66.0086 87.5254 63.6642C87.1066 62.1607 86.125 61.1448 84.7403 60.4352C83.9463 60.0289 83.1492 59.56 82.4928 58.9661C78.7949 55.6214 75.1314 52.2392 71.4711 48.854C70.2082 47.6849 68.7266 47.2223 66.8542 47.3254C71.4992 51.9673 76.0285 56.4998 80.5735 61.0416L80.5767 61.0448ZM81.6551 63.386C81.6551 62.4858 82.3177 61.9138 83.2305 62.0263C84.4652 62.1794 85.5968 63.3298 85.7218 64.5613C85.8124 65.4553 85.2623 66.0868 84.3839 66.0899C83.0523 66.0961 81.6551 64.7114 81.6551 63.386ZM78.573 54.1867C79.2607 54.8712 79.8983 55.5058 80.5704 56.1778C80.8705 55.9684 81.1674 55.7121 81.505 55.5308C82.3928 55.0588 83.2649 54.5336 84.2026 54.1835C85.7968 53.5865 86.9753 52.6144 87.4973 50.967C88.1662 48.8477 86.9628 46.9722 84.7684 46.6534C82.3021 46.297 79.6608 48.3663 79.542 50.8295C79.5076 51.5328 79.7452 52.2486 79.8796 53.1145C79.567 53.3708 79.0919 53.7647 78.5761 54.1867H78.573ZM81.5238 50.5857C81.8426 49.4635 83.143 48.5195 84.3152 48.5601C85.3936 48.5976 85.95 49.3791 85.6343 50.4138C85.3061 51.4984 84.1026 52.3924 82.9523 52.4049C81.827 52.4174 81.2237 51.6485 81.5238 50.5857ZM75.1158 56.8124C75.8347 57.5001 76.4912 58.1221 77.1445 58.7535C77.1851 58.7942 77.2007 58.8629 77.2539 58.9661C74.0749 60.7666 70.9209 62.5889 67.7294 64.3425C66.7385 64.8896 65.632 64.8583 64.416 64.4644C68.0764 61.8481 71.6273 59.3068 75.1158 56.8124Z" fill="#1E1E1E"/>
<path d="M8.05225 55.4588H4.80762V56.7091H8.05225V55.4588Z" fill="#1E1E1E"/>
<path d="M21.0308 55.4588H17.7861V56.7091H21.0308V55.4588Z" fill="#1E1E1E"/>
<path d="M27.5241 55.4588H24.2764V56.7091H27.5241V55.4588Z" fill="#1E1E1E"/>
<path d="M34.0132 55.4588H30.7686V56.7091H34.0132V55.4588Z" fill="#1E1E1E"/>
<path d="M40.5015 55.4588H37.2568V56.7091H40.5015V55.4588Z" fill="#1E1E1E"/>
<path d="M46.9917 55.4588H43.7471V56.7091H46.9917V55.4588Z" fill="#1E1E1E"/>
<path d="M53.48 55.4588H50.2354V56.7091H53.48V55.4588Z" fill="#1E1E1E"/>
<path d="M59.9733 55.4588H56.7256V56.7091H59.9733V55.4588Z" fill="#1E1E1E"/>
<path d="M66.4624 55.4588H63.2178V56.7091H66.4624V55.4588Z" fill="#1E1E1E"/>
<path d="M63.2172 55.4588V56.7091H66.4619V55.4588H63.2172ZM56.7248 55.4588V56.7091H59.9726V55.4588H56.7248ZM50.2356 55.4588V56.7091H53.4802V55.4588H50.2356ZM43.7463 55.4588V56.7091H46.9909V55.4588H43.7463ZM37.2571 55.4588V56.7091H40.5017V55.4588H37.2571ZM30.7678 55.4588V56.7091H34.0124V55.4588H30.7678ZM24.2754 55.4588V56.7091H27.5232V55.4588H24.2754ZM17.7861 55.4588V56.7091H21.0308V55.4588H17.7861ZM4.80762 55.4588V56.7091H8.05225V55.4588H4.80762Z" fill="#1E1E1E"/>
<path d="M14.5415 55.4588H11.2969V56.7091H14.5415V55.4588Z" fill="#1E1E1E"/>
<path d="M71.268 55.4588H69.7051V56.7091H71.268V55.4588Z" fill="#1E1E1E"/>
<path d="M71.268 55.4588H69.7051V56.7091H71.268V55.4588Z" fill="#1E1E1E"/>
<path d="M1.56292 55.4588H0V56.7091H1.56292V55.4588Z" fill="#1E1E1E"/>
<path d="M1.56292 55.4588H0V56.7091H1.56292V55.4588Z" fill="#1E1E1E"/>
</svg>
