<svg width="30" height="30" viewBox="0 0 30 30" fill="none" xmlns="http://www.w3.org/2000/svg">
<path d="M30 4.31655C30 1.8055 28.2033 0.0020566 25.6991 0.0020566C18.5653 -0.00107438 11.4316 -0.00107438 4.29779 0.00518758C3.93781 0.00518758 3.56532 0.0364974 3.21473 0.117903C1.27713 0.575026 0.00313022 2.22819 0 4.28211C0 11.402 0 18.525 0 25.6448C0 28.2185 1.79048 30 4.37917 30C7.91945 30 11.4597 30 15 30C18.5403 30 22.1087 30 25.6615 30C28.197 30 29.9969 28.2091 29.9969 25.6792C30 18.5594 30 11.4364 29.9969 4.31655H30ZM24.2404 28.3218H7.5C8.61436 26.8941 8.28255 25.2503 8.35142 23.6128C13.679 25.1658 18.9629 26.7093 24.2529 28.2529C24.2467 28.2748 24.2435 28.2967 24.2373 28.3218H24.2404ZM27.909 27.2291C27.7713 27.442 27.6429 27.5109 27.3737 27.4326C21.0789 25.5853 14.7778 23.7506 8.47663 21.9127C8.26377 21.8501 8.05405 21.7843 7.84119 21.7279C7.15568 21.5463 6.67362 21.9001 6.66736 22.6109C6.65484 23.6911 6.67675 24.7713 6.65797 25.8514C6.63606 27.0819 5.7909 28.0838 4.63585 28.2842C3.10831 28.5504 1.78422 27.5015 1.67154 25.9329C1.66528 25.8295 1.66528 25.7262 1.66528 25.6198C1.66528 18.5375 1.66528 11.4552 1.66528 4.37291C1.66528 3.0579 2.33514 2.09042 3.48393 1.77106C3.76878 1.69279 4.07241 1.66148 4.36978 1.66148C11.466 1.65522 18.5591 1.65522 25.6553 1.66148C27.2892 1.66148 28.341 2.71662 28.3441 4.35099C28.3504 7.90466 28.3441 11.4583 28.3441 15.012C28.3441 18.5406 28.3441 22.0692 28.3441 25.5978C28.3441 26.1833 28.2377 26.7313 27.9121 27.2291H27.909Z" fill="white"/>
<path d="M24.2316 7.82777H5.76953V9.70636H24.2316V7.82777Z" fill="white"/>
<path d="M24.2316 13.6858H5.76953V15.5644H24.2316V13.6858Z" fill="white"/>
</svg>
