<svg width="273" height="54" viewBox="0 0 273 54" fill="none" xmlns="http://www.w3.org/2000/svg">
<path d="M19.8386 28.6535C20.6585 27.6215 20.6387 26.8308 19.8386 25.8022C13.6456 17.8515 7.54135 9.86722 1.40752 1.89638C0.987735 1.3469 0.582763 0.784017 0 0H272.931C272.467 0.680151 272.106 1.28994 271.662 1.86623C265.577 9.72985 259.527 17.6002 253.354 25.4236C252.425 26.5963 252.5 27.454 253.398 28.5965C259.522 36.373 265.548 44.1897 271.592 51.9964C272.047 52.5894 272.437 53.2026 273 54H0.0839574C0.765494 53.082 1.2001 52.4722 1.66927 51.8691C7.71421 44.1261 13.7295 36.373 19.8386 28.6535Z" fill="#D61A1A"/>
</svg>
