<svg width="50" height="47" viewBox="0 0 50 47" fill="none" xmlns="http://www.w3.org/2000/svg">
<path d="M49.7844 24.2234C49.3733 22.1749 48.6089 20.2885 46.8689 19.031C45.8178 18.2712 44.6778 17.7024 43.7822 16.6737C43.2911 16.1094 42.8467 15.6694 42.7111 14.9162C41.1622 6.33788 34.0756 0.221279 25.46 0.00576419C16.8867 -0.207528 9.49333 5.51804 7.51111 13.9364C7.23556 15.1007 7.18889 16.3138 5.86889 16.9492C5.39111 17.1803 5.16444 17.9645 4.68667 18.1512C2.99111 18.8222 1.81778 19.9975 1.12444 21.6105C0.633333 22.7481 0.366667 23.979 0 25.1676V27.6138C0.0755556 27.9671 0.148889 28.3226 0.231111 28.6758C0.853333 31.3731 1.90667 33.7415 4.78 34.7702C5.01778 34.8547 5.22 35.1302 5.37333 35.3612C6.20222 36.6188 7.42 37.1964 8.65333 36.8898C10.0733 36.5365 10.9578 35.4701 10.9689 33.8904C10.9956 28.9291 10.9778 23.9678 10.9756 19.0066C10.9756 17.9734 10.5933 17.0892 9.71111 16.5515C9.15333 16.2116 9.10222 15.8494 9.20889 15.2762C10.5622 7.96202 16.2978 2.72524 23.7489 2.01871C31.8889 1.24997 39.6978 7.36213 40.8111 15.4095C40.8556 15.7405 40.62 16.2427 40.3511 16.4626C39.5489 17.1136 39.06 17.8823 39.0578 18.9221C39.0533 23.9567 39.0022 28.9936 39.1133 34.0281C39.1289 34.8235 39.7267 35.7656 40.3356 36.3455C40.8622 36.8454 40.98 37.2475 40.8556 37.8496C40.3178 40.4069 38.8444 42.1777 36.2578 42.6754C34.6422 42.9864 32.9489 42.9087 31.2889 42.9442C31.0467 42.9487 30.7222 42.6532 30.5689 42.4132C29.9756 41.4912 29.1089 41.0179 28.0689 40.9779C26.3667 40.9157 24.66 40.8935 22.96 40.9779C21.2356 41.0624 19.9889 42.4154 20.0111 43.9929C20.0356 45.6348 21.3578 46.9146 23.1311 46.9523C24.7222 46.9834 26.3244 47.059 27.9022 46.9146C28.6867 46.8435 29.7422 46.5258 30.1244 45.9525C30.7978 44.9483 31.5933 44.9127 32.5622 44.9505C33.2289 44.9772 33.8956 44.9638 34.5622 44.9461C38.4756 44.8483 41.4733 42.7176 42.5111 39.1983C42.8867 37.923 42.9422 36.5521 44.3244 35.8034C44.7378 35.5812 44.94 34.9191 45.3556 34.7591C47.0178 34.1215 48.1778 32.9728 48.8622 31.3953C49.3533 30.2578 49.6289 29.0247 50 27.836V24.9454C49.9267 24.7055 49.8356 24.47 49.7844 24.2234ZM5.00667 32.5573C3.50222 32.1085 2.23556 30.0556 2.05111 27.5316C1.84444 24.7121 2.30222 22.0926 5.00667 20.0708V32.5573ZM8.99556 34.0081C8.72444 34.377 8.33556 34.8391 7.95111 34.8858C7.67556 34.9191 7.25111 34.3814 7.03778 34.0126C6.88889 33.7615 6.97778 33.366 6.97778 33.0328C6.97778 28.6381 6.97778 24.2433 6.97778 19.8486C6.97778 19.6265 6.97111 19.4043 6.98444 19.1843C7.02667 18.5289 7.26222 17.9934 8.01333 17.9934C8.75778 17.9957 9.01111 18.5156 9.04222 19.1799C9.05556 19.4376 9.04667 19.6976 9.04667 19.9553V26.4918C9.04667 28.7092 9.04889 30.9243 9.04667 33.1394C9.04667 33.4349 9.14222 33.8126 8.99778 34.0081H8.99556ZM28.0022 44.9016C27.9156 44.9172 27.8311 44.9283 27.7444 44.9394C27.6578 44.9483 27.5711 44.9572 27.4822 44.9616C27.1889 44.9838 26.8911 44.9816 26.5911 44.9727C26.3467 44.966 26.1044 44.9572 25.86 44.9505C25.7289 44.9461 25.5978 44.9438 25.4689 44.9438C25.3511 44.9438 25.2311 44.9438 25.1133 44.9505C25.0244 44.9527 24.9356 44.9572 24.8467 44.9594C24.7578 44.9638 24.6689 44.966 24.5778 44.9683C24.06 44.986 23.5422 44.9927 23.0444 44.9038C22.6622 44.835 22.0978 44.3195 22.0933 43.9996C22.0889 43.6596 22.6311 43.0331 22.9622 43.0131C24.6511 42.9109 26.3533 42.9109 28.0422 43.0131C28.3911 43.0331 28.7022 43.6441 29.0311 43.9818C28.6911 44.304 28.3867 44.835 28.0022 44.9016ZM43.0356 26.4829V33.466C43.0356 34.217 42.9333 34.9635 41.9667 34.9346C41.0867 34.9102 40.9667 34.197 40.9667 33.4905C40.9667 28.798 40.9622 24.1078 40.9689 19.4154C40.9689 18.7089 41.1133 18.0068 41.9978 17.9979C42.8822 17.989 43.0378 18.66 43.0356 19.3909C43.0333 21.7549 43.0356 24.1189 43.0356 26.4829ZM45.0422 32.6995V20.1308C47.1267 21.5194 47.8111 23.4502 47.9733 25.5964C48.2222 28.9402 47.1689 31.4731 45.0422 32.6995Z" fill="white"/>
</svg>
