<svg width="99" height="92" viewBox="0 0 99 92" fill="none" xmlns="http://www.w3.org/2000/svg">
<path d="M75.1549 56.5372V21.1964L73.5451 19.5866L64.552 10.5966L55.5965 1.64106L53.9585 -1.52588e-05H8.9213C7.31149 -1.52588e-05 6.00488 1.30972 6.00488 2.91015V89.0867C6.00488 90.6934 7.31149 92 8.9213 92H72.2354C73.8483 92 75.1549 90.6934 75.1549 89.0867V86.6079H72.7105V89.0867C72.7105 89.3493 72.498 89.5587 72.2354 89.5587H8.9213C8.66186 89.5587 8.44305 89.3493 8.44305 89.0867V2.91015C8.44305 2.65071 8.66186 2.43815 8.9213 2.43815H52.4394V20.0742C52.4394 21.5402 53.6334 22.7343 55.0995 22.7343H72.7105V56.5372H75.1549ZM55.0995 20.2899C54.9776 20.2899 54.8807 20.1961 54.8807 20.0742V4.86068L70.7162 20.2899H55.0995Z" fill="#707070"/>
<path d="M66.2395 49.3978H14.9131V51.9735H66.2395V49.3978Z" fill="#707070"/>
<path d="M66.2395 39.2513H14.9131V41.827H66.2395V39.2513Z" fill="#707070"/>
<path d="M14.9131 59.5474H43.8334C43.7053 59.9538 43.6365 60.3851 43.6365 60.8353V62.12H14.9131V59.5474Z" fill="#707070"/>
<path d="M43.6365 69.6939H14.9131V72.2665H43.6365V69.6939Z" fill="#707070"/>
<path d="M43.6365 82.313C43.6365 82.3474 43.6365 82.3786 43.6396 82.413H14.9131V79.8404H43.6365V82.313Z" fill="#707070"/>
<path d="M98.0141 60.8353V82.313C98.0141 82.96 97.4889 83.482 96.8419 83.482H51.0638C50.4511 83.482 49.9479 83.0132 49.8979 82.413C49.8916 82.3817 49.8916 82.3474 49.8916 82.313V60.8353C49.8916 60.1882 50.4167 59.6631 51.0638 59.6631H96.8419C97.4889 59.6631 98.0141 60.1882 98.0141 60.8353Z" fill="#FBBE41"/>
<path d="M85.5666 26.1415C86.4512 26.0727 87.1795 26.0133 88.0204 25.9477C87.8485 25.0787 87.7422 24.2191 87.5015 23.4032C84.9883 14.8134 79.7431 8.60233 71.419 5.13576C69.5591 4.36055 67.5898 4.02921 65.5612 4.09173C65.4205 4.09486 65.2798 4.06985 65.1423 4.06047C65.1298 4.01046 65.1204 3.96044 65.1079 3.9073C65.3549 3.81978 65.5924 3.71038 65.8425 3.65099C69.0183 2.91328 72.1004 3.34778 75.1138 4.43557C80.1901 6.26732 84.2881 9.46819 87.714 13.5693C90.6211 17.0484 92.7154 20.9557 93.7407 25.46C94.494 25.4131 95.238 25.3663 96.1663 25.31C94.594 28.5265 93.0843 31.6242 91.5088 34.8438C89.5052 31.9118 87.5703 29.0829 85.5572 26.1352L85.5666 26.1415Z" fill="#888888"/>
<path d="M70.8352 76.1082V78.712H59.8603C59.8166 77.7961 59.8041 76.9678 60.4136 76.1332C62.4267 73.3699 64.3397 70.5316 66.2902 67.7215C66.3871 67.584 66.4746 67.4402 66.6184 67.2214H60.5011V64.5925H70.7289C70.7508 65.5303 70.8321 66.3962 70.2007 67.2683C68.2251 70.0003 66.3527 72.8104 64.4428 75.5893C64.3491 75.7268 64.2584 75.8675 64.0959 76.1113H70.8321L70.8352 76.1082Z" fill="white"/>
<path d="M85.8513 64.7613C83.5569 64.2018 81.2469 64.4613 78.915 64.7363V78.7182H82.0909V73.7669C83.1037 73.695 84.0727 73.7138 85.0073 73.5418C86.9954 73.1792 88.452 72.1665 88.9584 70.0565C89.5429 67.6309 88.2645 65.3521 85.8544 64.7645L85.8513 64.7613ZM84.6353 70.9661C83.8351 71.3256 82.988 71.3319 82.0972 71.1756V66.9932C83.038 66.8275 83.9602 66.7462 84.8385 67.162C85.6044 67.5246 85.9076 68.1841 85.8888 69.0156C85.8669 69.9221 85.4606 70.591 84.6353 70.963V70.9661Z" fill="white"/>
<path d="M76.0893 64.5769H72.9229V78.712H76.0893V64.5769Z" fill="white"/>
<path d="M48.6601 9.28688V31.0053C48.6601 31.6586 48.1287 32.1869 47.4754 32.1869H1.1847C0.565779 32.1869 0.0562653 31.7117 0.0062517 31.1053C0 31.0741 0 31.0397 0 31.0053V9.28688C0 8.63358 0.531394 8.10219 1.1847 8.10219H47.4723C48.1256 8.10219 48.657 8.63358 48.657 9.28688H48.6601Z" fill="#707070"/>
<path d="M30.6517 27.3668C29.4201 27.3668 28.2573 27.3762 27.0914 27.3512C26.9695 27.3512 26.8132 27.1667 26.7444 27.0292C26.0036 25.5726 25.2784 24.1065 24.5469 22.6468C24.4782 22.5061 24.4031 22.3686 24.2969 22.1654C23.9655 22.9218 23.6717 23.6189 23.3591 24.3066C22.9434 25.2287 22.5308 26.1477 22.09 27.0542C22.0244 27.1917 21.8306 27.3512 21.693 27.3512C20.574 27.3762 19.4518 27.3637 18.2515 27.3637C18.3609 27.1636 18.4359 27.0136 18.5203 26.8667C19.73 24.7505 20.9272 22.6311 22.1588 20.5274C22.3682 20.1711 22.3463 19.9241 22.1463 19.5772C20.9772 17.5485 19.8363 15.5073 18.686 13.4693C18.6016 13.3161 18.5203 13.1629 18.389 12.9222H19.9175C20.5115 12.9222 21.1054 12.941 21.6962 12.9129C22.0181 12.9004 22.1775 13.0035 22.3119 13.3005C23.0121 14.8259 23.7405 16.3419 24.5063 17.958C24.8345 17.1765 25.1158 16.467 25.4253 15.7699C25.8004 14.9197 26.1911 14.0757 26.6006 13.2411C26.6694 13.1035 26.8569 12.9347 26.9945 12.9347C28.1166 12.9097 29.2357 12.9191 30.4266 12.9191C30.3266 13.1192 30.261 13.2723 30.1766 13.4193C28.9919 15.4729 27.8103 17.5297 26.61 19.5772C26.4412 19.8616 26.4381 20.0679 26.6069 20.3555C27.876 22.5124 29.1232 24.6786 30.3735 26.8417C30.4579 26.9917 30.5329 27.1449 30.6455 27.3574L30.6517 27.3668Z" fill="white"/>
<path d="M42.527 12.9691V15.6667H38.651V27.3293H35.3595V15.6917H31.4834V12.9691H42.527Z" fill="white"/>
<path d="M17.1483 12.9535V15.6667H13.2629V27.3293H9.98073V15.698H6.13281V12.9535H17.1483Z" fill="white"/>
</svg>
