<svg width="83" height="92" viewBox="0 0 83 92" fill="none" xmlns="http://www.w3.org/2000/svg">
<path d="M73.5818 51.017C73.7225 51.017 73.8632 51.0107 74.0038 51.0045C74.1132 51.0014 74.2226 51.0014 74.3352 51.0014C74.629 51.0014 74.9197 51.0139 75.2135 51.042V21.1964L73.6037 19.5866L64.6106 10.5966L55.6551 1.64107L54.0171 0H8.97989C7.37008 0 6.06348 1.30973 6.06348 2.91017V89.0867C6.06348 90.6934 7.37008 92 8.97989 92H72.294C73.9069 92 75.2135 90.6934 75.2135 89.0867V82.6725C74.3977 82.6693 73.585 82.6693 72.7691 82.6725V89.0867C72.7691 89.3493 72.5565 89.5587 72.294 89.5587H8.97989C8.72045 89.5587 8.50164 89.3493 8.50164 89.0867V2.91017C8.50164 2.65072 8.72045 2.43816 8.97989 2.43816H52.498V20.0742C52.498 21.5402 53.692 22.7343 55.1581 22.7343H72.7691V51.0451C73.0504 51.0295 73.3224 51.0232 73.5818 51.017ZM55.1581 20.2899C55.0362 20.2899 54.9393 20.1961 54.9393 20.0742V4.8607L70.7748 20.2899H55.1581Z" fill="#D61A1A"/>
<path d="M57.9623 49.4009H14.9756V51.9766H57.9623V49.4009Z" fill="#D61A1A"/>
<path d="M66.3 51.8891V51.9751H66.2324C66.2508 51.9474 66.2754 51.9167 66.3 51.8891Z" fill="#D61A1A"/>
<path d="M66.302 39.2544H14.9756V41.8301H66.302V39.2544Z" fill="#D61A1A"/>
<path d="M57.9623 59.5474H14.9756V62.12H57.9623V59.5474Z" fill="#D61A1A"/>
<path d="M57.9623 69.6939H14.9756V72.2665H57.9623V69.6939Z" fill="#D61A1A"/>
<path d="M57.9623 79.8405H14.9756V82.413H57.9623V79.8405Z" fill="#D61A1A"/>
<path d="M16.0864 17.2016C16.5116 17.9456 16.7241 18.8052 16.7241 19.7867C16.7241 20.5338 16.5991 21.2121 16.3521 21.8185V22.6781H15.8801C15.4675 23.2689 14.9205 23.7409 14.2391 24.0847C13.4451 24.4911 12.498 24.6911 11.4039 24.6911H9.06266V29.1299H5.60547V14.8385H11.5102C12.5792 14.8385 13.5045 15.051 14.2828 15.4636C15.0612 15.8794 15.6645 16.4608 16.0864 17.2016Z" fill="#D61A1A"/>
<path d="M29.8951 18.1519C30.4671 19.2178 30.7516 20.4931 30.7516 21.9779C30.7516 23.4627 30.4671 24.7474 29.8982 25.8164C29.3293 26.8855 28.5166 27.7076 27.4601 28.2765C26.8036 28.6297 26.0722 28.8735 25.2626 29.0079C24.7718 29.0892 24.2498 29.1298 23.6997 29.1298H18.417V14.8416H23.6903C24.2436 14.8416 24.7687 14.8822 25.2626 14.9635C26.0722 15.0979 26.8036 15.3417 27.4569 15.6949C28.5104 16.2638 29.3231 17.0828 29.8951 18.1519Z" fill="#D61A1A"/>
<path d="M36.2158 17.6455V20.5744H41.8955V23.3877H36.2158V29.1298H32.7617V14.8416H42.5175V17.6455H36.2158Z" fill="#D61A1A"/>
<path d="M16.0758 22.3718C16.0133 22.478 15.9477 22.5812 15.8789 22.6781H16.3509V21.8185C16.2696 22.0092 16.179 22.1936 16.0758 22.3718Z" fill="#D61A1A"/>
<path d="M29.8951 18.1519C29.3231 17.0828 28.5104 16.2638 27.4569 15.6949C26.8036 15.3417 26.0722 15.0979 25.2626 14.9635C24.7687 14.8822 24.2436 14.8416 23.6903 14.8416H18.417V29.1298H23.6997C24.2498 29.1298 24.7718 29.0892 25.2626 29.0079C26.0722 28.8735 26.8036 28.6297 27.4601 28.2765C28.5166 27.7076 29.3293 26.8855 29.8982 25.8164C30.4671 24.7474 30.7516 23.4658 30.7516 21.9779C30.7516 20.49 30.4671 19.2178 29.8951 18.1519ZM26.863 24.4442C26.5755 25.06 26.1566 25.507 25.6002 25.7789C25.4908 25.8321 25.3783 25.879 25.2626 25.9196C24.775 26.0978 24.2092 26.1853 23.5653 26.1853H21.8711V17.7861H23.5184C24.1842 17.7861 24.7687 17.8768 25.2626 18.0581C25.3751 18.0987 25.4814 18.1425 25.5846 18.1925C26.1472 18.4644 26.5723 18.9083 26.8599 19.5179C27.1475 20.1305 27.2913 20.9495 27.2913 21.9779C27.2913 23.0063 27.1475 23.8284 26.863 24.4442ZM42.5173 17.6455V14.8416H32.7615V29.1298H36.2156V23.3877H41.8952V20.5744H36.2156V17.6455H42.5173Z" fill="#D61A1A"/>
<path d="M46.9503 10.0746H1.17219C0.525143 10.0746 0 10.5998 0 11.2468V32.7246C0 32.7589 0 32.7933 0.0062517 32.8246C0.0562653 33.4247 0.559527 33.8936 1.17219 33.8936H46.9503C47.5973 33.8936 48.1225 33.3716 48.1225 32.7246V11.2468C48.1225 10.5998 47.5973 10.0746 46.9503 10.0746ZM5.60465 29.1298V14.8384H11.5094C12.5784 14.8384 13.5037 15.051 14.282 15.4636C15.0603 15.8793 15.6636 16.4608 16.0856 17.2016C16.5107 17.9455 16.7233 18.8051 16.7233 19.7867C16.7233 20.5337 16.5983 21.212 16.3513 21.8185V22.6781H15.8793C15.4667 23.2689 14.9197 23.7409 14.2382 24.0847C13.4443 24.4911 12.4971 24.6911 11.4031 24.6911H9.06184V29.1298H5.60465ZM18.4175 29.1298V14.8416H23.6908C24.2441 14.8416 24.7692 14.8822 25.2631 14.9635C26.0727 15.0979 26.8042 15.3417 27.4575 15.6949C28.5109 16.2638 29.3236 17.0828 29.8956 18.1518C30.4677 19.2178 30.7521 20.4931 30.7521 21.9779C30.7521 23.4627 30.4677 24.7474 29.8988 25.8164C29.3298 26.8855 28.5171 27.7076 27.4606 28.2765C26.8042 28.6297 26.0727 28.8735 25.2631 29.0079C24.7724 29.0892 24.2503 29.1298 23.7002 29.1298H18.4175ZM32.762 29.1298V14.8416H42.5178V17.6455H36.2161V20.5744H41.8958V23.3876H36.2161V29.1298H32.762Z" fill="#D61A1A"/>
<path d="M16.0758 22.3718C16.0133 22.478 15.9477 22.5812 15.8789 22.6781H16.3509V21.8185C16.2696 22.0092 16.179 22.1936 16.0758 22.3718Z" fill="#D61A1A"/>
<path d="M29.8951 18.1519C29.3231 17.0828 28.5104 16.2638 27.4569 15.6949C26.8036 15.3417 26.0722 15.0979 25.2626 14.9635C24.7687 14.8822 24.2436 14.8416 23.6903 14.8416H18.417V29.1298H23.6997C24.2498 29.1298 24.7718 29.0892 25.2626 29.0079C26.0722 28.8735 26.8036 28.6297 27.4601 28.2765C28.5166 27.7076 29.3293 26.8855 29.8982 25.8164C30.4671 24.7474 30.7516 23.4658 30.7516 21.9779C30.7516 20.49 30.4671 19.2178 29.8951 18.1519ZM26.863 24.4442C26.5755 25.06 26.1566 25.507 25.6002 25.7789C25.4908 25.8321 25.3783 25.879 25.2626 25.9196C24.775 26.0978 24.2092 26.1853 23.5653 26.1853H21.8711V17.7861H23.5184C24.1842 17.7861 24.7687 17.8768 25.2626 18.0581C25.3751 18.0987 25.4814 18.1425 25.5846 18.1925C26.1472 18.4644 26.5723 18.9083 26.8599 19.5179C27.1475 20.1305 27.2913 20.9495 27.2913 21.9779C27.2913 23.0063 27.1475 23.8284 26.863 24.4442ZM42.5173 17.6455V14.8416H32.7615V29.1298H36.2156V23.3877H41.8952V20.5744H36.2156V17.6455H42.5173Z" fill="#D61A1A"/>
<path d="M16.0845 17.2016C15.6625 16.4608 15.0592 15.8794 14.2809 15.4636C13.5025 15.051 12.5773 14.8385 11.5082 14.8385H5.60352V29.1299H9.0607V24.6911H11.402C12.496 24.6911 13.4431 24.4911 14.2371 24.0847C14.9185 23.7409 15.4656 23.2689 15.8782 22.6781C15.947 22.5812 16.0126 22.478 16.0751 22.3718C16.1783 22.1936 16.2689 22.0092 16.3502 21.8185C16.5971 21.2121 16.7222 20.5338 16.7222 19.7867C16.7222 18.8052 16.5096 17.9456 16.0845 17.2016ZM13.1243 20.1055C13.0899 20.4119 13.0055 20.6869 12.8711 20.9339C12.6867 21.2621 12.421 21.5184 12.0709 21.6997C11.7208 21.881 11.2832 21.9717 10.7643 21.9717H9.0607V17.6236H10.7643C11.2801 17.6236 11.7146 17.7111 12.0678 17.8893C12.421 18.0643 12.6867 18.3144 12.8711 18.6395C13.0493 18.9646 13.1431 19.3459 13.1431 19.7867C13.1431 19.8961 13.1368 20.0024 13.1243 20.1055Z" fill="white"/>
<path d="M13.1419 19.7898C13.1419 19.8992 13.1357 20.0055 13.1232 20.1086C13.0888 20.4149 13.0044 20.69 12.87 20.937C12.6856 21.2652 12.4199 21.5215 12.0698 21.7028C11.7197 21.8841 11.282 21.9747 10.7632 21.9747H9.05957V17.6267H10.7632C11.2789 17.6267 11.7134 17.7142 12.0666 17.8924C12.4199 18.0674 12.6856 18.3175 12.87 18.6426C13.0482 18.9677 13.1419 19.349 13.1419 19.7898Z" fill="#D61A1A"/>
<path d="M29.8941 18.1518C29.3221 17.0828 28.5094 16.2638 27.456 15.6949C26.8027 15.3417 26.0712 15.0979 25.2616 14.9635C24.7677 14.8822 24.2426 14.8416 23.6893 14.8416H18.416V29.1298H23.6987C24.2489 29.1298 24.7709 29.0892 25.2616 29.0079C26.0712 28.8735 26.8027 28.6297 27.4591 28.2765C28.5156 27.7076 29.3284 26.8855 29.8973 25.8164C30.4662 24.7474 30.7506 23.4658 30.7506 21.9779C30.7506 20.49 30.4662 19.2177 29.8941 18.1518ZM26.8621 24.4442C26.5745 25.06 26.1556 25.507 25.5992 25.7789C25.4898 25.832 25.3773 25.8789 25.2616 25.9196C24.774 26.0977 24.2082 26.1853 23.5643 26.1853H21.8701V17.7861H23.5174C24.1832 17.7861 24.7677 17.8768 25.2616 18.0581C25.3742 18.0987 25.4804 18.1425 25.5836 18.1925C26.1462 18.4644 26.5714 18.9083 26.8589 19.5178C27.1465 20.1305 27.2903 20.9495 27.2903 21.9779C27.2903 23.0063 27.1465 23.8284 26.8621 24.4442Z" fill="white"/>
<path d="M42.5165 17.6454V14.8416H32.7607V29.1298H36.2148V23.3876H41.8945V20.5744H36.2148V17.6454H42.5165Z" fill="white"/>
<path d="M66.2324 51.9751H66.3V51.8891C66.2754 51.9167 66.2508 51.9474 66.2324 51.9751Z" fill="black"/>
<path d="M82.8749 66.4024C82.8749 66.3024 82.8749 66.1992 82.8562 66.1023C82.7999 65.6679 82.5905 65.4615 82.156 65.4365C81.9341 65.4209 81.7153 65.4459 81.4964 65.4584C81.1526 65.4709 80.9807 65.3209 80.9869 64.9958C80.9963 64.0987 81.0151 63.2016 81.0151 62.2982C81.0151 61.8106 81.0244 61.3135 80.9682 60.8228C80.6462 58.1846 79.3646 56.1715 76.9921 54.9274C76.3982 54.6149 75.773 54.3835 75.1103 54.2929C74.8634 54.2585 74.6102 54.246 74.3539 54.2523C74.0444 54.2648 73.7381 54.2679 73.4349 54.2866C73.1348 54.3054 72.8347 54.3429 72.5378 54.421C71.0655 54.8243 69.912 55.6495 69.0056 56.7873V56.8467H68.9587C68.7992 57.0468 68.6492 57.2562 68.5054 57.475C67.6614 58.7629 67.3082 60.2007 67.3082 61.7355V62.12H70.0402C70.0433 61.7949 70.0496 61.4667 70.059 61.1416C70.1027 59.6475 71.4125 57.6375 73.263 57.2718C73.3224 57.2624 73.3786 57.2499 73.4349 57.2437C74.0444 57.1437 74.6039 57.1687 75.1103 57.2843C76.5889 57.625 77.5985 58.7785 78.0455 60.0695C78.2299 60.604 78.3112 61.1573 78.3112 61.7168C78.3112 62.8108 78.3112 63.9018 78.3018 64.9895C78.3018 65.399 78.2768 65.424 77.8767 65.424H66.7643C66.6299 65.4272 66.4955 65.4272 66.3611 65.424C66.2454 65.424 66.1266 65.4209 66.011 65.4178C65.9391 65.4178 65.8735 65.4178 65.8078 65.424C65.5515 65.4553 65.3483 65.5835 65.1889 65.8116C65.167 65.8492 65.1358 65.8804 65.1045 65.9148V78.5807C65.3296 78.8652 65.6328 78.9465 65.986 78.9465C68.471 78.9433 70.953 78.9402 73.4349 78.9402H82.006C82.7187 78.9402 82.8781 78.7808 82.8781 78.0681C82.8781 74.1764 82.8781 70.291 82.8749 66.4024ZM75.1103 71.5257C75.0103 71.6695 74.8915 71.8102 74.754 71.9539C74.679 72.029 74.5664 72.0727 74.4633 72.1165C74.2163 72.2134 74.1726 72.279 74.2257 72.5416C74.3789 73.2824 74.5321 74.0264 74.679 74.7703C74.7696 75.233 74.8665 75.6956 74.954 76.1582C75.0009 76.4051 74.9603 76.4583 74.7071 76.4614C74.432 76.4645 74.1601 76.4614 73.8881 76.4614L73.0692 76.4645C72.8378 76.4645 72.7847 76.4176 72.8097 76.1957C72.8879 75.5862 72.9785 74.9829 73.0723 74.3765C73.1661 73.7669 73.263 73.1574 73.3724 72.5478C73.413 72.3134 73.3442 72.1634 73.1536 72.0227C72.6284 71.6414 72.2908 71.1475 72.3377 70.4692C72.3627 70.0753 72.494 69.7127 72.7347 69.397C72.9097 69.1657 73.1598 69.0156 73.4349 68.9437C74.035 68.7843 74.7571 68.9938 75.1103 69.5189C75.1478 69.572 75.1791 69.6314 75.2072 69.6908C75.5511 70.4316 75.4823 70.9849 75.1103 71.5257Z" fill="#1E1E1E"/>
<path d="M66.3609 65.424H65.8076C65.8733 65.4147 65.9389 65.4147 66.0108 65.4178C66.1265 65.4209 66.2452 65.424 66.3609 65.424Z" fill="white"/>
</svg>
