<svg width="100" height="92" viewBox="0 0 100 92" fill="none" xmlns="http://www.w3.org/2000/svg">
<path d="M99.6413 48.9699C97.7938 57.9896 88.2664 65.7199 80.6068 64.5046C80.1685 62.3105 79.737 60.15 79.319 58.0504C80.5461 57.9289 81.9149 57.9086 83.2364 57.6386C89.0081 56.4571 93.4785 50.8535 93.3436 45.0744C93.1953 38.8767 88.6508 33.4284 82.697 32.5305C80.6473 32.2267 78.5368 32.3549 76.4533 32.2874C76.1634 32.2807 75.8735 32.2874 75.651 32.2874C75.651 31.0317 75.6105 29.8637 75.651 28.7025C75.7993 25.0703 75.4487 21.4988 73.7765 18.2177C70.594 11.9862 65.6314 7.82745 58.6528 6.88901C50.4605 5.78855 43.7583 8.79963 38.8092 15.5172C38.2226 16.3071 37.7034 17.1442 37.218 17.8599C35.3165 17.2253 33.6376 16.4691 31.8778 16.1045C24.5283 14.599 17.1384 19.8448 16.1675 27.3185C15.9315 29.1548 15.6752 30.6874 13.6255 31.2072C9.12815 34.2723 6.36367 38.3568 6.64012 43.9672C6.91657 49.4357 9.48551 53.6553 14.2863 56.3761C16.2281 57.4765 18.3925 57.9086 20.6176 57.9356C23.5574 57.9694 26.4972 57.9424 29.4302 57.9424C29.4909 58.0099 29.5448 58.0841 29.5988 58.1584C29.3291 58.3609 29.0391 58.5432 28.8032 58.7728C26.9826 60.5484 25.1756 62.3442 23.3484 64.1131C23.1393 64.3156 22.8224 64.5249 22.546 64.5384C18.0015 64.7544 13.6592 63.9983 9.80916 61.4733C4.19254 57.7803 0.90888 52.4873 0.153705 45.817C-0.776779 37.6209 2.56082 31.2342 8.98655 26.299C9.34391 26.0222 9.66756 25.5429 9.76196 25.104C12.1623 14.1602 23.0112 7.24008 33.9478 9.72456C34.5142 9.85284 34.8446 9.77182 35.2424 9.31948C45.889 -2.7856 66.2248 -4.10886 77.4175 11.3786C80.2697 15.3281 81.807 19.7367 82.1981 24.5707C82.2318 24.942 82.279 25.3133 82.3127 25.6644C94.7191 26.9606 101.684 38.9982 99.6413 48.9699Z" fill="#888888"/>
<path d="M54.5665 37.8574V38.8768C54.5665 40.7807 54.5665 42.6778 54.5665 44.5817C54.5665 45.5404 54.4384 45.6686 53.5147 45.6754C51.1885 45.6754 48.8555 45.6619 46.5293 45.6889C45.8416 45.6956 45.5854 45.4593 45.5988 44.7505C45.6393 42.8466 45.6191 40.9495 45.6123 39.0456C45.6123 38.708 45.5651 38.3637 45.5314 37.8709C43.3873 38.5933 41.3847 39.2684 39.3754 39.9435C39.3282 39.8693 39.2742 39.8018 39.2271 39.7275C39.3754 39.4642 39.517 39.1941 39.6856 38.9443C42.9355 34.0632 46.1855 29.1887 49.4421 24.3075C49.9344 23.5716 50.1569 23.5379 50.6019 24.2062C53.953 29.2157 57.2906 34.2252 60.6349 39.2414C60.7293 39.3899 60.79 39.5587 60.763 39.93C58.747 39.2549 56.7309 38.5798 54.5733 37.8574H54.5665Z" fill="#888888"/>
<path d="M25.0068 68.515V92.0028H26.7734V69.629H39.5035C40.5688 69.629 41.4251 68.7648 41.4251 67.7049V54.9449H72.8795C73.0683 54.9449 73.2302 55.1002 73.2302 55.2825V92.0028H74.99V55.2825C74.99 54.1213 74.046 53.1761 72.8795 53.1761H40.3261L39.1394 54.3643L32.6665 60.8523L25.0068 68.5218V68.515ZM28.2163 67.8602L39.6653 56.6935V67.7049C39.6653 67.7927 39.5912 67.8602 39.5102 67.8602H28.2231H28.2163Z" fill="#888888"/>
<path d="M65.5301 74.3279V76.7989H64.6536C55.5038 76.7989 46.3608 76.7854 37.2111 76.8191C36.375 76.8191 36.166 76.5828 36.1997 75.7794C36.2806 74.0984 36.0041 74.3347 37.6561 74.3347C46.6171 74.3347 55.5713 74.3347 64.5322 74.3347H65.5234L65.5301 74.3279Z" fill="#888888"/>
<path d="M65.5908 85.1435C65.5706 85.3258 65.2537 85.6161 65.0784 85.6161C60.6687 85.6431 56.259 85.6431 51.8494 85.6161C51.6538 85.6161 51.4515 85.2718 51.2627 85.0827C51.2358 85.0557 51.2627 84.9815 51.256 84.9275C51.2021 83.7662 51.7505 83.1856 52.9012 83.1856H65.6246C65.6246 83.9283 65.665 84.5426 65.5976 85.1503L65.5908 85.1435Z" fill="#888888"/>
<path d="M47.6754 83.9823C47.6485 85.6363 47.6754 85.6363 46.0168 85.6363H41.924C40.2653 85.6363 38.6066 85.6161 36.9479 85.6499C36.3883 85.6634 36.1995 85.4878 36.2062 84.9207C36.2602 82.8008 35.9433 83.1991 37.9323 83.1856C40.9058 83.1586 43.8726 83.1924 46.8461 83.1654C47.4732 83.1654 47.6822 83.3342 47.6754 83.9823Z" fill="#888888"/>
</svg>
