<svg width="30" height="30" viewBox="0 0 30 30" fill="none" xmlns="http://www.w3.org/2000/svg">
<path d="M29.7464 10.9553C26.1743 7.39163 22.6057 3.82076 19.0372 0.25351C18.9648 0.177457 18.9104 0.0832961 18.8452 0H18.5663C18.4648 0.11589 18.367 0.239024 18.2583 0.347671C16.8128 1.79268 15.3673 3.23768 13.9181 4.68269C11.7662 6.83391 9.62143 8.99236 7.45858 11.1327C7.09267 11.4949 7.0021 11.8534 7.2231 12.3025C7.28469 12.4292 7.34265 12.556 7.37888 12.69C7.76653 14.0481 8.17229 15.3989 8.52008 16.7643C8.63963 17.2423 8.50197 17.6733 8.07447 18.0499C7.13977 18.8756 6.02755 19.3464 4.92621 19.8607C4.23786 20.1794 3.49518 20.4727 2.94088 20.9653C1.31422 22.3994 0.285325 24.2174 0.0317251 26.394C-0.124058 27.7304 0.278079 29.0124 1.58955 29.657C2.45179 30.0772 3.372 30.0735 4.28496 29.849C7.13615 29.15 9.21205 27.5095 10.4257 24.7969C10.8387 23.877 11.3604 23.0078 11.8386 22.1133C12.2118 21.4144 12.8168 21.2912 13.5414 21.3999C15.0231 21.6208 16.3889 22.1713 17.7403 22.7761C18.1677 22.968 18.4902 22.9028 18.8271 22.566C21.1349 20.241 23.4571 17.9268 25.7794 15.6126C27.1814 14.2147 28.5943 12.824 30 11.4297V11.1508C29.9167 11.0856 29.8225 11.0313 29.7464 10.9553ZM18.1786 21.3636C18.088 21.4542 17.8091 21.3926 17.6352 21.3383C16.465 20.9725 15.3238 20.48 14.1283 20.2373C12.1248 19.8353 11.2771 20.3243 10.3134 22.1459C9.65403 23.399 9.12872 24.7534 8.29909 25.8797C7.00935 27.629 5.21241 28.6575 2.96262 28.6828C1.93735 28.6937 1.32146 28.0418 1.29973 27.0061C1.26712 25.2496 2.10038 23.8517 3.14376 22.5334C3.70893 21.8163 4.4661 21.4144 5.27762 21.0775C6.59997 20.5234 7.88246 19.915 8.98381 18.9517C9.78083 18.2563 9.93299 17.3908 9.74098 16.4963C9.44029 15.0875 9.00554 13.7076 8.59254 12.3242C8.51283 12.049 8.50921 11.8896 8.72296 11.6796C9.59245 10.8321 10.4402 9.96294 11.2916 9.10463C14.5123 12.3278 17.6823 15.4931 20.8885 18.7018C20.0045 19.5818 19.1061 20.4872 18.1786 21.3636ZM21.8015 17.6117C18.6786 14.4899 15.5086 11.3138 12.3277 8.13405C12.8277 7.656 13.353 7.1526 13.8022 6.72164C14.2007 7.02585 14.5847 7.45682 15.0666 7.65962C15.8709 7.99643 16.6534 7.67773 17.3888 7.30471C17.9866 7.00412 18.5699 6.67456 19.1749 6.38483C19.3705 6.29429 19.6096 6.29429 19.8306 6.25083C19.8705 6.28705 19.9103 6.32326 19.9502 6.3631C19.6712 7.14536 19.356 7.92038 19.1242 8.71712C18.9793 9.21328 18.8344 9.76376 18.9068 10.2563C19.0807 11.484 19.9719 12.0091 21.2363 11.7484C21.6638 11.6615 22.0841 11.5492 22.5116 11.484C22.892 11.4261 23.1347 11.5926 23.0731 12.0091C23.0043 12.5017 22.9064 12.987 22.8014 13.4722C22.5514 14.6203 22.8811 15.1961 23.9498 15.4967C23.2325 16.2029 22.5079 16.9164 21.8015 17.6117Z" fill="white"/>
</svg>
