<svg width="26" height="34" viewBox="0 0 26 34" fill="none" xmlns="http://www.w3.org/2000/svg">
<path d="M22.0142 3.91756L18.6469 0.605809L18.0305 0H1.09712C0.491031 0 0 0.482628 0 1.07632V32.9237C0 33.5174 0.491031 34 1.09712 34H24.9029C25.509 34 26 33.5174 26 32.9237V7.83311L22.0142 3.91756ZM18.3777 1.79723L24.3317 7.49991H18.4599C18.4147 7.49991 18.3777 7.46356 18.3777 7.41914V1.79723ZM25.0816 32.9237C25.0816 33.0206 25.0015 33.0994 24.9029 33.0994H1.09712C0.998499 33.0994 0.916318 33.0206 0.916318 32.9237V1.07632C0.916318 0.98141 0.998499 0.902655 1.09712 0.902655H17.4593V7.41914C17.4593 7.96033 17.9072 8.40257 18.4599 8.40257H25.0816V32.9237Z" fill="#1E1E1E"/>
</svg>
