<svg width="92" height="92" viewBox="0 0 92 92" fill="none" xmlns="http://www.w3.org/2000/svg">
<path d="M67.5777 64.43H66.7056V67.3746H67.4058C68.0716 67.3746 68.6562 67.4652 69.15 67.6465V64.5519C68.6562 64.4706 68.131 64.43 67.5777 64.43ZM67.4527 75.7737H66.7056V78.7183H67.5871C68.1373 78.7183 68.6593 78.6776 69.15 78.5964V75.508C68.6624 75.6862 68.0966 75.7737 67.4527 75.7737ZM69.15 56.5372V21.1964L67.5402 19.5866L58.5472 10.5966L49.5916 1.64107L47.9537 0H2.91642C1.30661 0 0 1.30973 0 2.91017V89.0867C0 90.6934 1.30661 92 2.91642 92H66.2305C67.8434 92 69.15 90.6934 69.15 89.0867V86.6079H66.7056V89.0867C66.7056 89.3493 66.4931 89.5587 66.2305 89.5587H2.91642C2.65697 89.5587 2.43816 89.3493 2.43816 89.0867V2.91017C2.43816 2.65072 2.65697 2.43816 2.91642 2.43816H46.4345V20.0742C46.4345 21.5402 47.6286 22.7343 49.0946 22.7343H66.7056V56.5372H69.15ZM49.0946 20.2899C48.9727 20.2899 48.8758 20.1961 48.8758 20.0742V4.8607L64.7113 20.2899H49.0946Z" fill="#325499"/>
<path d="M71.179 71.5663C71.179 72.5947 71.0352 73.4168 70.7508 74.0326C70.4632 74.6484 70.0443 75.0954 69.4879 75.3673C69.3785 75.4205 69.266 75.4674 69.1503 75.508C68.6627 75.6862 68.0969 75.7737 67.453 75.7737H65.7588V67.3745H67.4061C68.0719 67.3745 68.6565 67.4652 69.1503 67.6465C69.2629 67.6871 69.3691 67.7309 69.4723 67.7809C70.035 68.0529 70.4601 68.4967 70.7476 69.1063C71.0352 69.7189 71.179 70.5379 71.179 71.5663Z" fill="#D61A1A"/>
<path d="M29.7527 7.27072H11.4539C9.40993 7.27072 7.75293 8.92772 7.75293 10.9717V29.2704C7.75293 31.3145 9.40993 32.9715 11.4539 32.9715H29.7527C31.7967 32.9715 33.4537 31.3145 33.4537 29.2704V10.9717C33.4537 8.92772 31.7967 7.27072 29.7527 7.27072Z" fill="#325499"/>
<path d="M29.0032 13.5818C28.9938 13.6537 28.9907 13.7287 28.9719 13.8006C28.1967 17.089 27.4215 20.3805 26.6463 23.6689C26.4275 24.6004 26.2087 25.5288 25.9899 26.4603C25.9367 26.6916 25.9367 26.6948 25.6929 26.6948C24.8802 26.6948 24.0644 26.6948 23.2516 26.6948C22.9922 26.6948 22.9922 26.6948 22.9359 26.4541C22.4327 24.3597 21.9263 22.2686 21.4261 20.1742C21.2198 19.3146 21.0104 18.455 20.8135 17.5954C20.7197 17.1797 20.6478 16.7577 20.5634 16.3107C20.4946 16.7264 20.4415 17.1203 20.3602 17.511C20.1977 18.2925 20.0289 19.0739 19.8507 19.8523C19.36 22.0279 18.8629 24.2035 18.3659 26.379C18.294 26.6885 18.3659 26.6948 17.9815 26.6948C17.1687 26.6948 16.3529 26.6948 15.5402 26.6948C15.3026 26.6948 15.2995 26.6948 15.2432 26.4572C14.6649 24.0159 14.0835 21.5746 13.5052 19.1302C13.0864 17.3547 12.6675 15.5792 12.2486 13.8006C12.233 13.7319 12.2236 13.6631 12.208 13.5568H12.4831C13.1676 13.5568 13.8522 13.5568 14.5399 13.5568C14.79 13.5568 14.7931 13.5568 14.8431 13.8069C15.1057 15.0635 15.3651 16.3201 15.6277 17.5767C15.9778 19.2646 16.3341 20.9526 16.678 22.6437C16.7717 23.1094 16.8311 23.5845 16.903 24.0503C16.903 24.0534 16.9155 24.0409 16.9187 24.0284C17.0656 22.9219 17.3532 21.8466 17.6032 20.765C18.1346 18.4581 18.6691 16.1513 19.2037 13.8475C19.2818 13.5099 19.2599 13.5599 19.5631 13.5599C20.3196 13.5599 21.076 13.5599 21.8325 13.5599C22.0513 13.5599 22.0544 13.5599 22.1044 13.7694C22.8234 16.7202 23.5455 19.671 24.255 22.6249C24.3707 23.1094 24.4363 23.6064 24.5176 24.0628C24.552 23.8065 24.5832 23.5095 24.6364 23.2157C24.7833 22.403 24.9396 21.5902 25.0928 20.7775C25.3991 19.1802 25.7086 17.586 26.0149 15.9887C26.1587 15.2385 26.3025 14.4914 26.4494 13.7412C26.4588 13.6881 26.4838 13.635 26.4994 13.5881C26.6994 13.5381 28.7688 13.5349 29.0095 13.5881L29.0032 13.5818Z" fill="white"/>
<path d="M60.2376 49.4009H8.91113V51.9766H60.2376V49.4009Z" fill="#325499"/>
<path d="M60.2376 39.2544H8.91113V41.8301H60.2376V39.2544Z" fill="#325499"/>
<path d="M8.91113 59.5474H37.8315C37.7033 59.9538 37.6346 60.3852 37.6346 60.8353V62.12H8.91113V59.5474Z" fill="#325499"/>
<path d="M37.6346 69.6939H8.91113V72.2665H37.6346V69.6939Z" fill="#325499"/>
<path d="M60.2386 71.4069V72.2665H59.7666C59.8354 72.1696 59.901 72.0664 59.9635 71.9602C60.0667 71.782 60.1573 71.5976 60.2386 71.4069Z" fill="#325499"/>
<path d="M37.6346 82.313C37.6346 82.3474 37.6346 82.3786 37.6377 82.413H8.91113V79.8404H37.6346V82.313Z" fill="#325499"/>
<path d="M59.9635 71.9602C59.901 72.0665 59.8354 72.1696 59.7666 72.2665H60.2386V71.4069C60.1573 71.5976 60.0667 71.782 59.9635 71.9602Z" fill="#D61A1A"/>
<path d="M86.404 67.2339V64.43H76.6482V78.7183H80.1023V72.9761H85.782V70.1628H80.1023V67.2339H86.404ZM71.3437 65.2834C70.6904 64.9302 69.9589 64.6863 69.1493 64.5519C68.6554 64.4707 68.1303 64.43 67.577 64.43H62.3037V78.7183H67.5864C68.1365 78.7183 68.6586 78.6776 69.1493 78.5964C69.9589 78.462 70.6904 78.2181 71.3468 77.8649C72.4033 77.296 73.216 76.4739 73.785 75.4049C74.3539 74.3358 74.6383 73.0542 74.6383 71.5663C74.6383 70.0784 74.3539 68.8062 73.7818 67.7403C73.2098 66.6713 72.3971 65.8523 71.3437 65.2834ZM70.7498 74.0326C70.4622 74.6484 70.0433 75.0954 69.4869 75.3674C69.3775 75.4205 69.265 75.4674 69.1493 75.508C68.6617 75.6862 68.0959 75.7737 67.452 75.7737H65.7578V67.3746H67.4051C68.0709 67.3746 68.6554 67.4652 69.1493 67.6465C69.2618 67.6872 69.3681 67.7309 69.4713 67.7809C70.0339 68.0529 70.459 68.4968 70.7466 69.1063C71.0342 69.719 71.178 70.5379 71.178 71.5663C71.178 72.5947 71.0342 73.4168 70.7498 74.0326Z" fill="#D61A1A"/>
<path d="M90.837 59.6631H45.0589C44.4119 59.6631 43.8867 60.1883 43.8867 60.8353V82.313C43.8867 82.3474 43.8867 82.3818 43.893 82.413C43.943 83.0132 44.4462 83.4821 45.0589 83.4821H90.837C91.484 83.4821 92.0092 82.9601 92.0092 82.313V60.8353C92.0092 60.1883 91.484 59.6631 90.837 59.6631ZM60.238 71.4069V72.2665H59.766C59.3534 72.8573 58.8064 73.3293 58.125 73.6732C57.331 74.0795 56.3839 74.2796 55.2898 74.2796H52.9486V78.7183H49.4914V64.4269H55.3961C56.4651 64.4269 57.3904 64.6395 58.1687 65.0521C58.9471 65.4678 59.5504 66.0492 59.9723 66.7901C60.3975 67.534 60.61 68.3936 60.61 69.3751C60.61 70.1222 60.485 70.8005 60.238 71.4069ZM73.7855 75.4049C73.2166 76.4739 72.4038 77.296 71.3473 77.8649C70.6909 78.2182 69.9594 78.462 69.1498 78.5964C68.6591 78.6777 68.1371 78.7183 67.5869 78.7183H62.3042V64.43H67.5775C68.1308 64.43 68.656 64.4707 69.1498 64.5519C69.9594 64.6864 70.6909 64.9302 71.3442 65.2834C72.3976 65.8523 73.2103 66.6713 73.7823 67.7403C74.3544 68.8062 74.6388 70.0816 74.6388 71.5664C74.6388 73.0511 74.3544 74.3359 73.7855 75.4049ZM86.4045 67.2339H80.1028V70.1628H85.7825V72.9761H80.1028V78.7183H76.6488V64.43H86.4045V67.2339Z" fill="#D61A1A"/>
<path d="M59.9635 71.9602C59.901 72.0665 59.8354 72.1696 59.7666 72.2665H60.2386V71.4069C60.1573 71.5976 60.0667 71.782 59.9635 71.9602Z" fill="#D61A1A"/>
<path d="M86.404 67.2339V64.43H76.6482V78.7183H80.1023V72.9761H85.782V70.1628H80.1023V67.2339H86.404ZM71.3437 65.2834C70.6904 64.9302 69.9589 64.6863 69.1493 64.5519C68.6554 64.4707 68.1303 64.43 67.577 64.43H62.3037V78.7183H67.5864C68.1365 78.7183 68.6586 78.6776 69.1493 78.5964C69.9589 78.462 70.6904 78.2181 71.3468 77.8649C72.4033 77.296 73.216 76.4739 73.785 75.4049C74.3539 74.3358 74.6383 73.0542 74.6383 71.5663C74.6383 70.0784 74.3539 68.8062 73.7818 67.7403C73.2098 66.6713 72.3971 65.8523 71.3437 65.2834ZM70.7498 74.0326C70.4622 74.6484 70.0433 75.0954 69.4869 75.3674C69.3775 75.4205 69.265 75.4674 69.1493 75.508C68.6617 75.6862 68.0959 75.7737 67.452 75.7737H65.7578V67.3746H67.4051C68.0709 67.3746 68.6554 67.4652 69.1493 67.6465C69.2618 67.6872 69.3681 67.7309 69.4713 67.7809C70.0339 68.0529 70.459 68.4968 70.7466 69.1063C71.0342 69.719 71.178 70.5379 71.178 71.5663C71.178 72.5947 71.0342 73.4168 70.7498 74.0326Z" fill="#D61A1A"/>
<path d="M59.9712 66.7901C59.5492 66.0492 58.9459 65.4678 58.1676 65.0521C57.3893 64.6395 56.464 64.4269 55.395 64.4269H49.4902V78.7183H52.9474V74.2796H55.2887C56.3827 74.2796 57.3299 74.0795 58.1238 73.6732C58.8053 73.3293 59.3523 72.8573 59.7649 72.2665C59.8337 72.1696 59.8993 72.0665 59.9618 71.9602C60.065 71.782 60.1556 71.5976 60.2369 71.4069C60.4838 70.8005 60.6089 70.1222 60.6089 69.3751C60.6089 68.3936 60.3963 67.534 59.9712 66.7901ZM56.7578 70.5223C56.5734 70.8505 56.3077 71.1068 55.9576 71.2881C55.6075 71.4694 55.1699 71.5601 54.651 71.5601H52.9474V67.212H54.651C55.1668 67.212 55.6013 67.2996 55.9545 67.4777C56.3077 67.6528 56.5734 67.9029 56.7578 68.2279C56.936 68.553 57.0298 68.9344 57.0298 69.3751C57.0298 69.4845 57.0235 69.5908 57.011 69.694C56.9766 70.0003 56.8922 70.2754 56.7578 70.5223Z" fill="white"/>
<path d="M57.0286 69.3751C57.0286 69.4845 57.0224 69.5908 57.0099 69.694C56.9755 70.0003 56.8911 70.2754 56.7567 70.5223C56.5723 70.8505 56.3066 71.1068 55.9565 71.2881C55.6064 71.4694 55.1688 71.5601 54.6499 71.5601H52.9463V67.212H54.6499C55.1656 67.212 55.6001 67.2996 55.9534 67.4777C56.3066 67.6528 56.5723 67.9028 56.7567 68.2279C56.9349 68.553 57.0286 68.9344 57.0286 69.3751Z" fill="#D61A1A"/>
<path d="M73.7799 67.7403C73.2078 66.6713 72.3951 65.8523 71.3417 65.2834C70.6884 64.9302 69.957 64.6863 69.1474 64.5519C68.6535 64.4707 68.1283 64.43 67.5751 64.43H62.3018V78.7183H67.5844C68.1346 78.7183 68.6566 78.6776 69.1474 78.5964C69.957 78.462 70.6884 78.2181 71.3448 77.8649C72.4014 77.296 73.2141 76.4739 73.783 75.4049C74.3519 74.3358 74.6364 73.0542 74.6364 71.5663C74.6364 70.0784 74.3519 68.8062 73.7799 67.7403ZM70.7478 74.0326C70.4602 74.6484 70.0414 75.0954 69.485 75.3674C69.3756 75.4205 69.263 75.4674 69.1474 75.508C68.6597 75.6862 68.094 75.7737 67.45 75.7737H65.7558V67.3746H67.4031C68.0689 67.3746 68.6535 67.4652 69.1474 67.6465C69.2599 67.6872 69.3662 67.7309 69.4693 67.7809C70.032 68.0529 70.4571 68.4968 70.7447 69.1063C71.0323 69.719 71.176 70.5379 71.176 71.5663C71.176 72.5947 71.0323 73.4168 70.7478 74.0326Z" fill="white"/>
<path d="M86.4032 67.2339V64.43H76.6475V78.7183H80.1015V72.9761H85.7812V70.1628H80.1015V67.2339H86.4032Z" fill="white"/>
<path d="M79.5651 26.1446C80.4497 26.0759 81.1781 26.0165 82.0189 25.9508C81.847 25.0818 81.7407 24.2222 81.5 23.4064C78.9869 14.8166 73.7417 8.60549 65.4175 5.13892C63.5577 4.36371 61.5884 4.03237 59.5597 4.09489C59.419 4.09801 59.2784 4.07301 59.1408 4.06363C59.1283 4.01362 59.1189 3.9636 59.1064 3.91046C59.3534 3.82294 59.591 3.71353 59.841 3.65414C63.0169 2.91644 66.099 3.35094 69.1123 4.43873C74.1887 6.27048 78.2867 9.47135 81.7126 13.5725C84.6196 17.0515 86.7139 20.9588 87.7392 25.4632C88.4926 25.4163 89.2365 25.3694 90.1649 25.3132C88.5926 28.5297 87.0828 31.6274 85.5074 34.847C83.5037 31.9149 81.5688 29.0861 79.5557 26.1384L79.5651 26.1446Z" fill="#888888"/>
</svg>
