<svg width="92" height="92" viewBox="0 0 92 92" fill="none" xmlns="http://www.w3.org/2000/svg">
<path d="M69.15 56.5372V21.1964L67.5402 19.5866L58.5472 10.5966L49.5916 1.64106L47.9537 -1.52588e-05H2.91642C1.3066 -1.52588e-05 0 1.30972 0 2.91015V89.0867C0 90.6934 1.3066 92 2.91642 92H66.2305C67.8434 92 69.15 90.6934 69.15 89.0867V86.6079H66.7056V89.0867C66.7056 89.3493 66.4931 89.5587 66.2305 89.5587H2.91642C2.65697 89.5587 2.43816 89.3493 2.43816 89.0867V2.91015C2.43816 2.65071 2.65697 2.43815 2.91642 2.43815H46.4345V20.0742C46.4345 21.5402 47.6286 22.7343 49.0946 22.7343H66.7056V56.5372H69.15ZM49.0946 20.2899C48.9727 20.2899 48.8758 20.1961 48.8758 20.0742V4.86068L64.7113 20.2899H49.0946Z" fill="#325499"/>
<path d="M29.7517 7.27072H11.453C9.40895 7.27072 7.75195 8.92772 7.75195 10.9717V29.2704C7.75195 31.3145 9.40895 32.9715 11.453 32.9715H29.7517C31.7957 32.9715 33.4527 31.3145 33.4527 29.2704V10.9717C33.4527 8.92772 31.7957 7.27072 29.7517 7.27072Z" fill="#325499"/>
<path d="M29.0012 13.5818C28.9919 13.6537 28.9887 13.7287 28.97 13.8006C28.1948 17.089 27.4196 20.3805 26.6444 23.6689C26.4255 24.6004 26.2067 25.5288 25.9879 26.4603C25.9348 26.6916 25.9348 26.6947 25.691 26.6947C24.8782 26.6947 24.0624 26.6947 23.2497 26.6947C22.9902 26.6947 22.9902 26.6947 22.934 26.4541C22.4307 24.3597 21.9243 22.2685 21.4242 20.1742C21.2179 19.3146 21.0084 18.455 20.8115 17.5954C20.7177 17.1797 20.6458 16.7577 20.5615 16.3107C20.4927 16.7264 20.4395 17.1203 20.3583 17.511C20.1957 18.2925 20.0269 19.0739 19.8488 19.8523C19.358 22.0278 18.861 24.2034 18.364 26.379C18.2921 26.6885 18.364 26.6947 17.9795 26.6947C17.1668 26.6947 16.3509 26.6947 15.5382 26.6947C15.3006 26.6947 15.2975 26.6947 15.2413 26.4572C14.663 24.0159 14.0816 21.5746 13.5033 19.1302C13.0844 17.3547 12.6656 15.5792 12.2467 13.8006C12.2311 13.7318 12.2217 13.6631 12.2061 13.5568H12.4811C13.1657 13.5568 13.8503 13.5568 14.5379 13.5568C14.788 13.5568 14.7911 13.5568 14.8411 13.8069C15.1037 15.0635 15.3632 16.32 15.6257 17.5766C15.9758 19.2646 16.3322 20.9526 16.676 22.6436C16.7698 23.1094 16.8292 23.5845 16.9011 24.0503C16.9011 24.0534 16.9136 24.0409 16.9167 24.0284C17.0636 22.9218 17.3512 21.8465 17.6013 20.765C18.1327 18.4581 18.6672 16.1512 19.2017 13.8475C19.2799 13.5099 19.258 13.5599 19.5612 13.5599C20.3176 13.5599 21.0741 13.5599 21.8305 13.5599C22.0494 13.5599 22.0525 13.5599 22.1025 13.7694C22.8214 16.7202 23.5435 19.671 24.2531 22.6249C24.3687 23.1094 24.4344 23.6064 24.5156 24.0628C24.55 23.8065 24.5813 23.5095 24.6344 23.2157C24.7813 22.4029 24.9376 21.5902 25.0908 20.7775C25.3971 19.1802 25.7066 17.586 26.0129 15.9887C26.1567 15.2385 26.3005 14.4914 26.4474 13.7412C26.4568 13.6881 26.4818 13.6349 26.4974 13.5881C26.6975 13.538 28.7668 13.5349 29.0075 13.5881L29.0012 13.5818Z" fill="white"/>
<path d="M60.2381 49.4009H8.91162V51.9766H60.2381V49.4009Z" fill="#325499"/>
<path d="M60.2381 39.2544H8.91162V41.8301H60.2381V39.2544Z" fill="#325499"/>
<path d="M8.91162 59.5474H37.832C37.7038 59.9538 37.635 60.3851 37.635 60.8353V62.12H8.91162V59.5474Z" fill="#325499"/>
<path d="M37.635 69.6939H8.91162V72.2665H37.635V69.6939Z" fill="#325499"/>
<path d="M60.2381 71.4069V72.2665H59.7661C59.8349 72.1696 59.9005 72.0664 59.963 71.9602C60.0662 71.782 60.1568 71.5976 60.2381 71.4069Z" fill="#325499"/>
<path d="M37.635 82.313C37.635 82.3474 37.6351 82.3786 37.6382 82.413H8.91162V79.8404H37.635V82.313Z" fill="#325499"/>
<path d="M79.5651 26.1446C80.4497 26.0758 81.1781 26.0164 82.0189 25.9508C81.847 25.0818 81.7407 24.2222 81.5 23.4063C78.9869 14.8165 73.7417 8.60544 65.4175 5.13888C63.5577 4.36367 61.5884 4.03233 59.5597 4.09484C59.419 4.09797 59.2784 4.07296 59.1408 4.06358C59.1283 4.01357 59.1189 3.96356 59.1064 3.91042C59.3534 3.82289 59.591 3.71349 59.841 3.6541C63.0169 2.9164 66.099 3.35089 69.1123 4.43869C74.1887 6.27043 78.2867 9.4713 81.7126 13.5724C84.6196 17.0515 86.7139 20.9588 87.7392 25.4632C88.4926 25.4163 89.2365 25.3694 90.1649 25.3131C88.5926 28.5296 87.0828 31.6273 85.5074 34.847C83.5037 31.9149 81.5688 29.086 79.5558 26.1383L79.5651 26.1446Z" fill="#888888"/>
<path d="M91.9906 60.7884V82.2661C91.9906 82.9131 91.4655 83.4352 90.8184 83.4352H45.0404C44.4277 83.4352 43.9244 82.9663 43.8744 82.3661C43.8682 82.3349 43.8682 82.3005 43.8682 82.2661V60.7884C43.8682 60.1413 44.3933 59.6162 45.0404 59.6162H90.8184C91.4655 59.6162 91.9906 60.1413 91.9906 60.7884Z" fill="#FBBE41"/>
<path d="M64.8113 76.0582V78.662H53.8364C53.7927 77.7461 53.7802 76.9178 54.3897 76.0832C56.4027 73.3199 58.3158 70.4816 60.2663 67.6715C60.3632 67.534 60.4507 67.3902 60.5945 67.1714H54.4772V64.5425H64.705C64.7269 65.4803 64.8082 66.3461 64.1767 67.2183C62.2012 69.9502 60.3288 72.7604 58.4189 75.5393C58.3251 75.6768 58.2345 75.8175 58.0719 76.0613H64.8082L64.8113 76.0582Z" fill="white"/>
<path d="M79.8279 64.7113C77.5335 64.1518 75.2235 64.4112 72.8916 64.6863V78.6682H76.0675V73.7169C77.0802 73.645 78.0493 73.6637 78.9839 73.4918C80.9719 73.1292 82.4286 72.1164 82.935 70.0065C83.5195 67.5808 82.241 65.3021 79.831 64.7144L79.8279 64.7113ZM78.6119 70.9161C77.8117 71.2756 76.9646 71.2818 76.0737 71.1256V66.9432C77.0146 66.7775 77.9367 66.6962 78.8151 67.112C79.5809 67.4746 79.8841 68.1341 79.8654 68.9656C79.8435 69.8721 79.4371 70.541 78.6119 70.913V70.9161Z" fill="white"/>
<path d="M70.0664 64.53H66.8999V78.6651H70.0664V64.53Z" fill="white"/>
</svg>
